<svg xmlns="http://www.w3.org/2000/svg" width="64" height="64" viewBox="0 0 64 64" fill="none">
  <g clip-path="url(#clip0_3214_14914)">
    <circle cx="32.0005" cy="31.9995" r="29.9624" fill="#18191D"/>
    <path d="M49.1983 25.4442L48.9808 25.3392L48.8032 25.4817L48.6232 25.4642L48.4456 25.4842L48.2655 25.3341L48.088 25.3667L47.9079 25.3692L47.7304 25.4442L47.5503 25.4717L47.3728 25.6693L47.1927 25.5567L47.0151 25.6267L46.8351 25.7193L46.6575 25.7768L46.4775 25.3216L46.2999 25.7318L46.1198 25.5442L45.9423 25.7568L45.7622 25.7293L45.5847 25.4792L45.4046 25.7418L45.2246 25.3942L45.047 25.6768L44.8669 25.7168L44.6869 25.6968L44.5093 25.6993L44.3293 25.3241L44.1492 25.5242L43.9691 25.7543L43.7916 25.4942L43.6115 25.6793L43.4315 25.6042L43.2514 25.6217L43.0713 25.5267L42.8913 25.4742L42.7112 25.4367L42.5312 25.5642L42.3511 25.6843L42.171 25.5767L41.991 25.4817L41.8109 25.7918L41.6309 25.7543L41.4508 25.6117L41.2708 25.4592L41.0907 25.7893L40.9106 25.3392L40.7331 25.5267L40.553 25.4442L40.373 25.4992L40.1929 25.3367L40.0128 25.7668L39.8353 25.3141L39.6552 25.5817L39.4752 25.6067L39.2976 25.3066H39.1175L38.9375 25.7143L38.7574 25.7243L38.5799 25.6893L38.3998 25.6968L38.2198 25.6167L38.0397 25.4717L37.8621 25.3392L37.6821 25.3742L37.502 25.7518L37.322 25.4392L37.1444 25.7793L36.9643 25.3216L36.7843 25.4292L36.6042 25.3842L36.4242 25.5317L36.2441 25.7668L36.064 25.7393L35.884 25.7443L35.7039 25.3316L35.5239 25.5317L35.3438 25.5392L35.1637 25.4417L34.9837 25.4267L34.8036 25.3166L34.6236 25.4242L34.4435 25.3592L34.2635 25.5942L34.0834 25.4792L33.9033 25.4092L33.7233 25.6493L33.5432 25.6618L33.3632 25.5217L33.1831 25.7618L33.003 25.7468L32.823 25.6317L32.6429 25.3542L32.4629 25.6918L32.2853 25.7343L32.1052 25.7443L31.9252 25.5567L31.7451 25.3417L31.5651 25.4592L31.385 25.5167L31.205 25.6868L31.0249 25.3091L30.8448 25.5192L30.6648 25.6493L30.4822 25.3667L30.3022 25.6117L30.1221 25.5417L29.942 25.3116L29.762 25.7093L29.5819 25.3392L29.4019 25.3567L29.2218 25.7043L29.0417 25.7993L28.8617 25.4192L28.6816 25.5042L28.5016 25.3892L28.3215 25.7793L28.1414 25.7068L27.9614 25.6468L27.7813 25.3166L27.5988 25.3091L27.4187 25.3642L27.2386 25.3592L27.0586 25.5367L26.8785 25.3667L26.696 25.7018L26.5159 25.3817L26.3359 25.4892L26.1558 25.7318L25.9782 25.4692L25.7982 25.7168L25.6181 25.4017L25.4381 25.5992L25.258 25.7893L25.0779 25.7868L24.8979 25.6643L24.7178 25.6142L24.5378 25.6568L24.3577 25.4367L24.1751 25.7268L23.9951 25.3742L23.8175 25.7593L23.6375 25.5092L23.4574 25.3667L23.2774 25.5992L23.0973 25.5292L22.9172 25.3492L22.7372 25.4067L22.5596 25.5417L22.3796 25.6593L22.1995 25.3617L22.0169 25.6768L21.8369 25.3842L21.6568 25.4942L21.4743 25.5517L21.2942 25.3642L21.1141 25.6267L20.9341 25.5667L20.754 25.6468L20.574 25.4992L20.3939 25.7468L20.2113 25.6618L20.0313 25.7368L19.8512 25.7268L19.6687 25.6393L19.4886 25.6543L19.3085 25.5217L19.126 25.6468L18.9459 25.6092L18.7659 25.5742L18.5833 25.6092L18.4033 25.3191L18.2207 25.4267L18.0406 25.5717L17.8606 25.4542L17.6805 25.7543L17.5005 25.6968L17.3204 25.7618L17.1378 25.3617L16.9578 25.4742L16.7752 25.6042L16.5952 25.6518L16.4151 25.7068L16.2325 25.4767L16.05 25.7343L15.8699 25.5842L15.6874 25.6968L15.5048 25.6518L15.3222 25.5417L15.1422 25.4167L14.9596 25.4117L14.7771 25.5242L14.5945 25.7093L14.3594 25.4017L14.3019 25.7443L14.2544 25.9293L14.3119 26.1019L14.3169 26.282L14.6445 26.4295L14.4545 26.6271L14.6895 26.7846L14.5145 26.9822L14.647 27.1472L14.4495 27.3473L14.8171 27.4924L14.8146 27.6699L14.467 27.885L14.6245 28.0475L14.4495 28.2451L14.6995 28.4002L14.547 28.5952L14.6695 28.7628L14.4995 28.9578L14.9721 29.0929L14.9346 29.2754L15.0021 29.4505L14.8446 29.6431L14.7746 29.8306L14.8446 30.0032L14.8146 30.1857L14.8421 30.3633L14.9071 30.5359L15.0472 30.7034L15.0096 30.886L14.8796 31.0785L14.9971 31.2461L15.0096 31.4236L15.1897 31.5862L14.9596 31.7888L15.1622 31.9488L14.9321 32.1514L14.9346 32.3289L15.0822 32.4965L15.1397 32.6691L15.0321 32.8591L15.0096 33.0417L14.9396 33.2267L15.0947 33.3918L15.2797 33.5543L15.3272 33.7294L15.1797 33.9245L15.0346 34.117L15.3998 34.2621L15.1947 34.4596L15.2822 34.6322L15.0672 34.8323L15.3548 34.9848L15.2297 35.1749L15.2872 35.3499L15.4173 35.5175L15.1372 35.7226L15.4923 35.8701L15.3823 36.0602L15.4523 36.2327L15.5548 36.4028L15.6749 36.5703V36.7504L15.5298 36.8429L15.6749 37.073L15.8549 37.063L16.0325 36.9255L16.2125 37.043L16.3901 36.993H16.5701L16.7477 36.953L16.9278 37.113L17.1053 37.0105L17.2854 37.143L17.4629 36.9004L17.643 36.8379L17.8231 36.7604L18.0006 36.9455L18.1807 36.963L18.3607 36.998L18.5383 37.0655L18.7184 37.013L18.8984 36.7879L19.0785 36.7029L19.2585 36.8354L19.4361 36.7604L19.6161 36.7979L19.7962 36.8279L19.9763 37.0105L20.1563 37.168L20.3364 37.0155L20.5164 36.8454L20.6965 36.8904L20.8766 36.8704L21.0566 37.1255L21.2367 37.078L21.4167 36.9855L21.5943 36.993L21.7744 36.7454L21.9544 36.7179L22.1345 36.7104L22.312 36.8929L22.4921 37.1705L22.6721 37.118L22.8497 37.088L23.0298 36.7654L23.2098 37.018L23.3874 37.1455L23.5674 36.7454L23.7475 36.7254L23.9251 37.0855L24.1051 36.6954L24.2852 36.9004L24.4627 36.8529L24.6428 36.8254L24.8229 37.1105H25.0004L25.1805 36.8279L25.3605 36.7379L25.5406 37.0655L25.7182 36.963L25.8982 37.0905L26.0783 37.1255L26.2583 36.7479L26.4384 37.023L26.6184 36.7054L26.7985 36.953L26.9786 36.8254L27.1586 37.168L27.3387 36.8454L27.5187 36.8004L27.6988 37.0355L27.8789 37.173L28.0589 37.0655L28.239 37.163L28.419 36.943L28.5991 37.1155L28.7792 36.7879L28.9567 37.0305L29.1368 37.143L29.3168 37.0355L29.4969 37.173L29.6769 37.038L29.857 36.9655L30.0346 36.8729L30.2146 36.8104L30.3947 37.133L30.5747 36.993L30.7548 37.118L30.9349 36.8754L31.1149 37.0155L31.295 36.9054L31.475 36.7154L31.6551 37.1855L31.8352 36.8229L32.0152 36.9955L32.1953 37.1505L32.3753 36.8454L32.5554 36.7929L32.7355 36.8404L32.9155 36.7604L33.0956 36.8654L33.2756 36.9104L33.4557 36.988L33.6357 37.1955L33.8158 36.973L33.9959 36.7379L34.1759 37.1705L34.356 37.0705L34.536 36.988L34.7161 36.943L34.8962 36.8354L35.0762 36.7254L35.2563 36.9805L35.4363 36.7479L35.6164 37.083L35.7965 37.1755L35.9765 37.0855L36.1591 36.7779L36.3391 36.7429L36.5167 37.108L36.6968 36.7029L36.8743 37.0555L37.0544 36.7029L37.2344 37.048L37.4145 36.9505L37.5945 37.1055L37.7746 36.7429L37.9547 37.048L38.1372 37.068L38.3173 36.9455L38.4948 36.923L38.6749 37.003L38.855 36.7079L39.035 36.8854L39.2151 36.8679L39.3951 36.9605L39.5727 36.7454L39.7528 36.9355L39.9328 36.9204L40.1129 37.0355L40.2929 37.073L40.473 36.7479L40.6531 37.028L40.8331 36.7754L41.0157 37.013L41.1957 36.8804L41.3758 36.8754L41.5558 37.103L41.7359 36.7979L41.916 36.8154L42.096 37.0555L42.2761 37.1905L42.4561 36.7829L42.6387 37.0155L42.8188 36.8579L43.0013 36.8504L43.1814 36.7954L43.3614 36.9605L43.5415 36.938L43.7216 36.8579L43.9041 36.8254L44.0842 36.938L44.2667 36.923L44.4468 36.7504L44.6269 36.958L44.8069 37.023L44.987 36.7654L45.167 37.008L45.3471 37.1955L45.5297 37.0355L45.7097 36.8704L45.8898 36.7029L46.0723 37.168L46.2549 36.9255L46.4349 36.8229L46.6175 36.998L46.7976 36.8104L46.9801 36.8304L47.1627 36.7129L47.3427 37.0655L47.5253 36.993L47.7079 36.7754L47.8904 36.9129L48.038 36.8379L47.8979 36.7504L47.9479 36.5753L47.9955 36.4003L48.3131 36.2502L48.268 36.0677L48.088 35.8701L48.083 35.69L48.3356 35.535L48.0255 35.3249L48.3331 35.1749L48.0505 34.9698L48.2956 34.8123L48.4656 34.6497L48.4606 34.4696L48.4456 34.2871L48.1305 34.077L48.2155 33.907L48.4781 33.7519L48.1905 33.5443L48.3456 33.3793L48.3031 33.1967L48.4381 33.0292L48.6332 32.8691L48.6082 32.6866L48.6307 32.509L48.3006 32.2989L48.6032 32.1464L48.6832 31.9763L48.7507 31.8013L48.8182 31.6287L48.7582 31.4437L48.5306 31.2411L48.6207 31.071L48.7057 30.8985L48.7907 30.7284L48.6982 30.5409L48.7507 30.3658L48.5231 30.1632L48.7682 30.0082L48.8532 29.8356L48.9408 29.6656L48.5782 29.4505L48.6632 29.2779L48.5932 29.0929L49.0058 28.9528L48.7782 28.7503L48.8732 28.5802L48.8357 28.3977L48.6682 28.2026L48.6882 28.025L48.7907 27.855L48.9808 27.6924L49.0208 27.5174L48.7732 27.3123L49.1633 27.1723L49.1108 26.9872L48.7982 26.7771L49.0608 26.6221L48.8833 26.427L48.9208 26.2494L49.2684 26.1044L49.2209 25.9193L48.9083 25.7093L49.1983 25.4442Z" fill="#FFC0CF"/>
    <path d="M16.8808 52.9282L17.1834 52.7681L17.3634 52.6431L17.5435 52.9582L17.7236 52.9432L17.9036 52.6481L18.0837 53.0207L18.2637 52.6406L18.4438 53.0357L18.6264 52.9932L18.8064 52.7206L18.9865 52.9632L19.1665 52.9982H19.3466L19.5266 52.7256L19.7067 53.0032L19.8868 52.9432H20.0668L20.2469 52.8981L20.4269 52.7656L20.607 52.6731L20.7871 52.8306L20.9671 52.6206L21.1472 52.6331L21.3272 52.6531L21.5098 52.7356L21.6899 52.6806L21.8699 52.8656L22.05 52.7656L22.23 52.9357L22.4101 52.7406L22.5902 52.9457L22.7702 52.6606L22.9503 52.8406L23.1303 52.8456L23.3104 52.8381L23.4904 52.7781L23.6705 52.6481L23.8506 52.6031L24.0306 52.6406L24.2107 52.6081L24.3907 52.9982L24.5733 52.8406L24.7534 52.8106L24.9334 52.6731L25.1135 52.9132L25.2935 52.6431L25.4736 52.6056L25.6537 52.7106L25.8337 52.558L26.0138 52.7806L26.1938 52.8431L26.3739 52.563L26.554 52.5505L26.734 52.9682L26.9141 52.8406L27.0941 52.9107L27.2742 52.9732L27.4568 52.7581L27.6368 53.0282L27.8169 52.9607L27.9969 52.9857L28.177 52.5805L28.357 52.9432L28.5371 52.9032L28.7172 52.558L28.8972 52.6806L29.0773 53.0232L29.2573 52.7581L29.4374 52.6256L29.6175 52.553L29.7975 52.578L29.9776 52.8081L30.1576 52.5705L30.3402 52.593L30.5203 52.8681L30.7003 52.7156L30.8804 52.7131L31.0604 52.6456L31.2405 52.6756L31.4205 52.7881L31.6006 52.5555L31.7807 52.563L31.9607 52.7056L32.1408 52.8681L32.3208 52.7131L32.5009 52.9032L32.681 52.9432L32.861 52.8631L33.0411 52.6156L33.2211 52.7156L33.4037 52.5855L33.5838 52.548L33.7638 52.6506L33.9439 52.7931L34.1239 52.6931L34.304 52.5855L34.4841 52.5956L34.6641 52.8431L34.8442 52.5455L35.0242 52.6031L35.2043 52.6856L35.3844 52.9682L35.5644 52.7806L35.7445 52.6131L35.9245 52.9757L36.1046 52.9982L36.2872 52.6556L36.4672 52.6956L36.6473 52.8681L36.8273 52.9807L37.0074 52.8006L37.1874 52.8956L37.3675 52.7281L37.5476 52.9757L37.7276 52.563L37.9077 52.9182L38.0877 52.7306L38.2678 52.8381L38.4479 52.9757L38.6279 52.6506L38.808 52.6306L38.988 53.0357L39.1706 52.6756L39.3507 52.6356L39.5307 52.9957L39.7108 52.7231L39.8908 52.9457L40.0709 52.6531L40.251 52.9357L40.431 52.7581L40.6111 52.5905L40.7911 52.8481L40.9712 52.7731L41.1512 52.6806L41.3313 52.8456L41.5114 52.7831L41.6914 52.8881L41.8715 52.548L42.0515 52.5705L42.2341 52.7956L42.4142 52.8431L42.5942 52.6506L42.7743 52.543L42.9543 52.8006L43.1344 52.9982L43.3145 52.8081L43.4945 52.7206L43.6746 53.0407L43.8546 52.8456L44.0347 52.7956L44.2148 52.8381L44.3948 52.9457L44.5749 52.6131L44.7549 52.6581L44.935 52.6106L45.1175 52.6481L45.2976 52.6106L45.4777 52.583L45.6577 52.9557L45.8378 52.9207L46.0178 52.9132L46.1979 52.8806L46.378 52.548L46.6055 52.8456L46.403 52.5981L46.8256 52.458L46.4955 52.2479L46.4855 52.0679L46.8781 51.9253L46.8006 51.7378L46.478 51.5277L46.7831 51.3776L46.7731 51.1976L46.8081 51.02L46.8156 50.8425L46.7606 50.6574L46.8381 50.4849L46.7131 50.2923L46.9982 50.1397L46.9857 49.9597L46.9907 49.7796L46.9782 49.5996L46.7281 49.397L46.7506 49.2194L46.7931 49.0419L47.0632 48.8893L47.1907 48.7218L46.7881 48.5042L46.9231 48.3367L47.1732 48.1816L47.2583 48.009L47.0282 47.809L46.9757 47.6239L47.0157 47.4464L46.8431 47.2513L47.0157 47.0887L47.2007 46.9262L46.9807 46.7261L46.9281 46.5411L47.2357 46.391L47.0607 46.1934L47.4458 46.0509L46.9857 45.8283L47.4133 45.6883L47.1882 45.4882L47.1007 45.3007L47.2533 45.1356L47.0832 44.9405L47.1157 44.763L47.4408 44.6129L47.1357 44.4054L47.4758 44.2578L47.3933 44.0703L47.4358 43.8952L47.1957 43.6926L47.5158 43.5426L47.4533 43.3575L47.4358 43.1775L47.4583 42.9999L47.4758 42.8223L47.3058 42.6248L47.3333 42.4472L47.5559 42.2897L47.5859 42.1121L47.4583 41.922L47.5809 41.7545L47.3833 41.5544L47.6484 41.3869L47.4658 41.3969L47.2858 41.5444L47.1082 41.2893L46.9281 41.6144L46.7481 41.3043L46.5705 41.3744L46.3905 41.5294L46.2104 41.5194L46.0303 41.4994L45.8528 41.4094L45.6727 41.3944L45.4927 41.3844L45.3126 41.5144L45.1326 41.4069L44.9525 41.5669L44.7724 41.2393L44.5924 41.5694L44.4123 41.6019L44.2323 41.1968L44.0522 41.2743L43.8721 41.3444L43.6921 41.2718L43.512 41.5394L43.332 41.2193L43.1519 41.5319L42.9718 41.1693L42.7918 41.4044L42.6117 41.4094L42.4317 41.2993L42.2516 41.2393L42.074 41.1643L41.894 41.4369L41.7139 41.5569L41.5339 41.6194L41.3538 41.3819L41.1763 41.1743L40.9962 41.1893L40.8161 41.3043L40.6361 41.2918L40.456 41.5294L40.2785 41.5944L40.0984 41.5319L39.9183 41.642L39.7383 41.2193L39.5607 41.2218L39.3807 41.2168L39.2006 41.1943L39.0205 41.4594L38.8405 41.4694L38.6629 41.5069L38.4829 41.3819L38.3028 41.2893L38.1228 41.6019L37.9427 41.3194L37.7626 41.3744L37.5826 41.4969L37.4025 41.5469L37.2225 41.3919L37.0424 41.6044L36.8623 41.3419L36.6823 41.2443L36.4997 41.2043L36.3197 41.4694L36.1396 41.5044L35.9595 41.4394L35.7795 41.3469L35.5994 41.2893L35.4194 41.5119H35.2393L35.0592 41.1593L34.8792 41.2068L34.6991 41.5444L34.5191 41.3043L34.339 41.2118L34.159 41.627L33.9789 41.3644L33.8013 41.5319L33.6213 41.4644L33.4412 41.4094L33.2612 41.2968L33.0811 41.1843L32.901 41.1893L32.721 41.3269L32.5409 41.4669L32.3584 41.5744L32.1783 41.4644L31.9982 41.5969L31.8182 41.2793L31.6381 41.4069L31.4556 41.3369L31.2755 41.4619L31.0954 41.2743L30.9154 41.4969L30.7353 41.4719L30.5553 41.6069L30.3752 41.4019L30.1951 41.5719L30.0151 41.3719L29.835 41.4094L29.655 41.3269L29.4749 41.2368L29.2949 41.4869L29.1123 41.3118L28.9322 41.3043L28.7522 41.5669L28.5721 41.2993L28.3896 41.3219L28.2095 41.2543L28.0294 41.3844L27.8494 41.2168L27.6693 41.3869L27.4893 41.5394L27.3092 41.1818L27.1316 41.3344L26.9516 41.1943L26.7715 41.6119L26.5915 41.2993L26.4114 41.4119L26.2289 41.6345L26.0488 41.5344L25.8687 41.2493L25.6887 41.6445L25.5086 41.4569L25.3286 41.5019L25.1485 41.3169L24.9684 41.5244L24.7884 41.3769L24.6083 41.3944L24.4283 41.3719L24.2482 41.4194L24.0681 41.1593L23.8881 41.5219L23.708 41.4769L23.528 41.1593L23.3479 41.4219L23.1653 41.5044L22.9853 41.2143L22.8052 41.2243L22.6252 41.2068L22.4426 41.5344L22.2625 41.3619H22.0825L21.9024 41.5644L21.7224 41.4344L21.5398 41.3319L21.3598 41.1993L21.1772 41.1568L20.9971 41.2293L20.8171 41.4594L20.6345 41.2018L20.4545 41.1793L20.2744 41.1818L20.0918 41.5969L19.9118 41.5319L19.7292 41.5769L19.5492 41.5119L19.3666 41.6044L19.189 41.1643L19.009 41.3544L18.8264 41.2093L18.6464 41.1543L18.4638 41.2843L18.2837 41.4744L18.1037 41.2018L17.9211 41.4819L17.7386 41.3744L17.5585 41.6094L17.3759 41.2893L17.1934 41.4619L17.0108 41.4969L16.8308 41.2843L16.6482 41.5444L16.4656 41.1893L16.2831 41.6245L16.1005 41.6445L15.8479 41.1893L15.9255 41.5794L16.1781 41.7345L15.973 41.9346L16.1055 42.0996L15.9755 42.2922L15.8154 42.4872L15.8254 42.6673L16.2506 42.8048L16.038 43.0049L15.9855 43.19L16.033 43.365L16.2231 43.5276L16.143 43.7151L16.2806 43.8802L16.148 44.0728L16.3056 44.2378L16.4231 44.4054L16.1705 44.6104L16.143 44.7905L16.0355 44.9806L16.5107 45.1156L16.0555 45.3382L16.1255 45.5107L16.1856 45.6858L16.3681 45.8483L16.1555 46.0484L16.5382 46.1909L16.3256 46.391L16.2381 46.5786L16.5732 46.7261L16.6432 46.8987L16.4832 47.0937L16.5782 47.2638L16.6282 47.4389L16.7557 47.6064L16.5307 47.809L16.6457 47.9765L16.7482 48.1466L16.5657 48.3442L16.8008 48.5017L16.5832 48.7018L16.5482 48.8843L16.4856 49.0694L16.6357 49.2344L16.6807 49.4095L16.8708 49.5721L16.8583 49.7521L16.7757 49.9397L16.7057 50.1272L16.9308 50.2848L16.9883 50.4598L16.8633 50.6499L16.8983 50.8275L16.8183 51.015L16.8008 51.1951L16.9383 51.3626L17.0934 51.5277L16.9908 51.7153L17.0984 51.8853L16.6882 52.1029L17.0358 52.2504L17.0808 52.4255L16.7532 52.6381L16.8808 52.9282Z" fill="#E2F3FF"/>
    <path d="M16.8808 52.9282L17.1834 52.7681L17.3634 52.6431L17.5435 52.9582L17.7236 52.9432L17.9036 52.6481L18.0837 53.0207L18.2637 52.6406L18.4438 53.0357L18.6264 52.9932L18.8064 52.7206L18.9865 52.9632L19.1665 52.9982H19.3466L19.5266 52.7256L19.7067 53.0032L19.8868 52.9432H20.0668L20.2469 52.8981L20.4269 52.7656L20.607 52.6731L20.7871 52.8306L20.9671 52.6206L21.1472 52.6331L21.3272 52.6531L21.5098 52.7356L21.6899 52.6806L21.8699 52.8656L22.05 52.7656L22.23 52.9357L22.4101 52.7406L22.5902 52.9457L22.7702 52.6606L22.9503 52.8406L23.1303 52.8456L23.3104 52.8381L23.4904 52.7781L23.6705 52.6481L23.8506 52.6031L24.0306 52.6406L24.2107 52.6081L24.3907 52.9982L24.5733 52.8406L24.7534 52.8106L24.9334 52.6731L25.1135 52.9132L25.2935 52.6431L25.4736 52.6056L25.6537 52.7106L25.8337 52.558L26.0138 52.7806L26.1938 52.8431L26.3739 52.563L26.554 52.5505L26.734 52.9682L26.9141 52.8406L27.0941 52.9107L27.2742 52.9732L27.4568 52.7581L27.6368 53.0282L27.8169 52.9607L27.9969 52.9857L28.177 52.5805L28.357 52.9432L28.5371 52.9032L28.7172 52.558L28.8972 52.6806L29.0773 53.0232L29.2573 52.7581L29.4374 52.6256L29.6175 52.553L29.7975 52.578L29.9776 52.8081L30.1576 52.5705L30.3402 52.593L30.5203 52.8681L30.7003 52.7156L30.8804 52.7131L31.0604 52.6456L31.2405 52.6756L31.4205 52.7881L31.6006 52.5555L31.7807 52.563L31.9607 52.7056L32.1408 52.8681L32.3208 52.7131L32.5009 52.9032L32.681 52.9432L32.861 52.8631L33.0411 52.6156L33.2211 52.7156L33.4037 52.5855L33.5838 52.548L33.7638 52.6506L33.9439 52.7931L34.1239 52.6931L34.304 52.5855L34.4841 52.5956L34.6641 52.8431L34.8442 52.5455L35.0242 52.6031L35.2043 52.6856L35.3844 52.9682L35.5644 52.7806L35.7445 52.6131L35.9245 52.9757L36.1046 52.9982L36.2872 52.6556L36.4672 52.6956L36.6473 52.8681L36.8273 52.9807L37.0074 52.8006L37.1874 52.8956L37.3675 52.7281L37.5476 52.9757L37.7276 52.563L37.9077 52.9182L38.0877 52.7306L38.2678 52.8381L38.4479 52.9757L38.6279 52.6506L38.808 52.6306L38.988 53.0357L39.1706 52.6756L39.3507 52.6356L39.5307 52.9957L39.7108 52.7231L39.8908 52.9457L40.0709 52.6531L40.251 52.9357L40.431 52.7581L40.6111 52.5905L40.7911 52.8481L40.9712 52.7731L41.1512 52.6806L41.3313 52.8456L41.5114 52.7831L41.6914 52.8881L41.8715 52.548L42.0515 52.5705L42.2341 52.7956L42.4142 52.8431L42.5942 52.6506L42.7743 52.543L42.9543 52.8006L43.1344 52.9982L43.3145 52.8081L43.4945 52.7206L43.6746 53.0407L43.8546 52.8456L44.0347 52.7956L44.2148 52.8381L44.3948 52.9457L44.5749 52.6131L44.7549 52.6581L44.935 52.6106L45.1175 52.6481L45.2976 52.6106L45.4777 52.583L45.6577 52.9557L45.8378 52.9207L46.0178 52.9132L46.1979 52.8806L46.378 52.548L46.6055 52.8456L46.403 52.5981L46.8256 52.458L46.4955 52.2479L46.4855 52.0679L46.8781 51.9253L46.8006 51.7378L46.478 51.5277L46.7831 51.3776L46.7731 51.1976L46.8081 51.02L46.8156 50.8425L46.7606 50.6574L46.8381 50.4849L46.7131 50.2923L46.9982 50.1397L46.9857 49.9597L46.9907 49.7796L46.9782 49.5996L46.7281 49.397L46.7506 49.2194L46.7931 49.0419L47.0632 48.8893L47.1907 48.7218L46.7881 48.5042L46.9231 48.3367L47.1732 48.1816L47.2583 48.009L47.0282 47.809L46.9757 47.6239L47.0157 47.4464L46.8431 47.2513L47.0157 47.0887L47.2007 46.9262L46.9807 46.7261L46.9281 46.5411L47.2357 46.391L47.0607 46.1934L47.4458 46.0509L46.9857 45.8283L47.4133 45.6883L47.1882 45.4882L47.1007 45.3007L47.2533 45.1356L47.0832 44.9405L47.1157 44.763L47.4408 44.6129L47.1357 44.4054L47.4758 44.2578L47.3933 44.0703L47.4358 43.8952L47.1957 43.6926L47.5158 43.5426L47.4533 43.3575L47.4358 43.1775L47.4583 42.9999L47.4758 42.8223L47.3058 42.6248L47.3333 42.4472L47.5559 42.2897L47.5859 42.1121L47.4583 41.922L47.5809 41.7545L47.3833 41.5544L47.6484 41.3869L47.4658 41.3969L47.2858 41.5444L47.1082 41.2893L46.9281 41.6144L46.7481 41.3043L46.5705 41.3744L46.3905 41.5294L46.2104 41.5194L46.0303 41.4994L45.8528 41.4094L45.6727 41.3944L45.4927 41.3844L45.3126 41.5144L45.1326 41.4069L44.9525 41.5669L44.7724 41.2393L44.5924 41.5694L44.4123 41.6019L44.2323 41.1968L44.0522 41.2743L43.8721 41.3444L43.6921 41.2718L43.512 41.5394L43.332 41.2193L43.1519 41.5319L42.9718 41.1693L42.7918 41.4044L42.6117 41.4094L42.4317 41.2993L42.2516 41.2393L42.074 41.1643L41.894 41.4369L41.7139 41.5569L41.5339 41.6194L41.3538 41.3819L41.1763 41.1743L40.9962 41.1893L40.8161 41.3043L40.6361 41.2918L40.456 41.5294L40.2785 41.5944L40.0984 41.5319L39.9183 41.642L39.7383 41.2193L39.5607 41.2218L39.3807 41.2168L39.2006 41.1943L39.0205 41.4594L38.8405 41.4694L38.6629 41.5069L38.4829 41.3819L38.3028 41.2893L38.1228 41.6019L37.9427 41.3194L37.7626 41.3744L37.5826 41.4969L37.4025 41.5469L37.2225 41.3919L37.0424 41.6044L36.8623 41.3419L36.6823 41.2443L36.4997 41.2043L36.3197 41.4694L36.1396 41.5044L35.9595 41.4394L35.7795 41.3469L35.5994 41.2893L35.4194 41.5119H35.2393L35.0592 41.1593L34.8792 41.2068L34.6991 41.5444L34.5191 41.3043L34.339 41.2118L34.159 41.627L33.9789 41.3644L33.8013 41.5319L33.6213 41.4644L33.4412 41.4094L33.2612 41.2968L33.0811 41.1843L32.901 41.1893L32.721 41.3269L32.5409 41.4669L32.3584 41.5744L32.1783 41.4644L31.9982 41.5969L31.8182 41.2793L31.6381 41.4069L31.4556 41.3369L31.2755 41.4619L31.0954 41.2743L30.9154 41.4969L30.7353 41.4719L30.5553 41.6069L30.3752 41.4019L30.1951 41.5719L30.0151 41.3719L29.835 41.4094L29.655 41.3269L29.4749 41.2368L29.2949 41.4869L29.1123 41.3118L28.9322 41.3043L28.7522 41.5669L28.5721 41.2993L28.3896 41.3219L28.2095 41.2543L28.0294 41.3844L27.8494 41.2168L27.6693 41.3869L27.4893 41.5394L27.3092 41.1818L27.1316 41.3344L26.9516 41.1943L26.7715 41.6119L26.5915 41.2993L26.4114 41.4119L26.2289 41.6345L26.0488 41.5344L25.8687 41.2493L25.6887 41.6445L25.5086 41.4569L25.3286 41.5019L25.1485 41.3169L24.9684 41.5244L24.7884 41.3769L24.6083 41.3944L24.4283 41.3719L24.2482 41.4194L24.0681 41.1593L23.8881 41.5219L23.708 41.4769L23.528 41.1593L23.3479 41.4219L23.1653 41.5044L22.9853 41.2143L22.8052 41.2243L22.6252 41.2068L22.4426 41.5344L22.2625 41.3619H22.0825L21.9024 41.5644L21.7224 41.4344L21.5398 41.3319L21.3598 41.1993L21.1772 41.1568L20.9971 41.2293L20.8171 41.4594L20.6345 41.2018L20.4545 41.1793L20.2744 41.1818L20.0918 41.5969L19.9118 41.5319L19.7292 41.5769L19.5492 41.5119L19.3666 41.6044L19.189 41.1643L19.009 41.3544L18.8264 41.2093L18.6464 41.1543L18.4638 41.2843L18.2837 41.4744L18.1037 41.2018L17.9211 41.4819L17.7386 41.3744L17.5585 41.6094L17.3759 41.2893L17.1934 41.4619L17.0108 41.4969L16.8308 41.2843L16.6482 41.5444L16.4656 41.1893L16.2831 41.6245L16.1005 41.6445L15.8479 41.1893L15.9255 41.5794L16.1781 41.7345L15.973 41.9346L16.1055 42.0996L15.9755 42.2922L15.8154 42.4872L15.8254 42.6673L16.2506 42.8048L16.038 43.0049L15.9855 43.19L16.033 43.365L16.2231 43.5276L16.143 43.7151L16.2806 43.8802L16.148 44.0728L16.3056 44.2378L16.4231 44.4054L16.1705 44.6104L16.143 44.7905L16.0355 44.9806L16.5107 45.1156L16.0555 45.3382L16.1255 45.5107L16.1856 45.6858L16.3681 45.8483L16.1555 46.0484L16.5382 46.1909L16.3256 46.391L16.2381 46.5786L16.5732 46.7261L16.6432 46.8987L16.4832 47.0937L16.5782 47.2638L16.6282 47.4389L16.7557 47.6064L16.5307 47.809L16.6457 47.9765L16.7482 48.1466L16.5657 48.3442L16.8008 48.5017L16.5832 48.7018L16.5482 48.8843L16.4856 49.0694L16.6357 49.2344L16.6807 49.4095L16.8708 49.5721L16.8583 49.7521L16.7757 49.9397L16.7057 50.1272L16.9308 50.2848L16.9883 50.4598L16.8633 50.6499L16.8983 50.8275L16.8183 51.015L16.8008 51.1951L16.9383 51.3626L17.0934 51.5277L16.9908 51.7153L17.0984 51.8853L16.6882 52.1029L17.0358 52.2504L17.0808 52.4255L16.7532 52.6381L16.8808 52.9282Z" fill="url(#paint0_linear_3214_14914)"/>
    <path d="M15.5525 37.1124L15.5025 37.1249L15.41 37.315L15.415 37.4925L15.355 37.6776L15.565 37.8376L15.6876 38.0052L15.8301 38.1727L15.6601 38.3678L15.5425 38.5604L15.6551 38.7279L15.8576 38.888L15.7951 39.0755L15.6751 39.2656L15.8176 39.4332L15.8276 39.6107L15.7676 39.7958L15.7401 39.9783L15.9902 40.1359L16.0327 40.311L16.0277 40.491L15.9902 40.6736L15.6426 40.8861L15.6626 41.0637L15.9277 41.2187L15.9652 41.2638L16.1002 41.6089L16.2803 41.4688L16.4578 41.5063L16.6379 41.3188L16.818 41.2763L16.9955 41.5489L17.1756 41.5814L17.3556 41.3813L17.5357 41.2513L17.7133 41.2838L17.8933 41.5714L18.0734 41.3938L18.2534 41.2563L18.4335 41.3338L18.6135 41.6264L18.7936 41.2112L18.9737 41.5814L19.1537 41.5439L19.3338 41.6089L19.5138 41.5314L19.6939 41.5238L19.874 41.5489L20.054 41.2788L20.2341 41.1937L20.4141 41.2213L20.5942 41.3613L20.7743 41.3713L20.9543 41.6339L21.1344 41.2988L21.3144 41.5289L21.492 41.1987L21.672 41.4138L21.8521 41.3638L22.0322 41.5614L22.2122 41.5314L22.3898 41.4238L22.5698 41.3088L22.7499 41.4938L22.93 41.1762L23.11 41.3313L23.2876 41.5038L23.4676 41.3013L23.6477 41.1762L23.8278 41.5639L24.0053 41.4363L24.1854 41.1912L24.3654 41.2788L24.5455 41.2463L24.7256 41.4388L24.9031 41.1762L25.0832 41.3313L25.2632 41.3238L25.4433 41.4888L25.6233 41.4813L25.8034 41.3313L25.9835 41.3338L26.1635 41.5539L26.3436 41.2012L26.5236 41.6114L26.7037 41.4263L26.8838 41.2538L27.0663 41.2363L27.2464 41.3213L27.4264 41.4613L27.6065 41.5364L27.7866 41.3338L27.9666 41.2738L28.1467 41.4138L28.3267 41.5614L28.5068 41.4588L28.6869 41.2413L28.8669 41.1662L29.047 41.2838L29.227 41.3613L29.4071 41.2162L29.5872 41.3488L29.7647 41.4488L29.9448 41.4263L30.1248 41.5339L30.3049 41.5889L30.4849 41.5289L30.665 41.1562L30.8451 41.1787L31.0251 41.2388L31.2077 41.6389L31.3877 41.2087L31.5678 41.3738L31.7479 41.6139L31.9279 41.5289L32.1105 41.4313L32.2905 41.1862L32.4706 41.5739L32.6507 41.2288L32.8307 41.3763L33.0108 41.5864L33.1908 41.2363L33.3709 41.3738L33.5509 41.5063L33.731 41.5564L33.9111 41.4863L34.0911 41.5013L34.2712 41.2713L34.4537 41.4863L34.6338 41.4513L34.8139 41.5589L34.9939 41.3263L35.1765 41.6114L35.3565 41.4588L35.5366 41.3813L35.7167 41.1712L35.8967 41.4063L36.0768 41.1887L36.2568 41.4763L36.4344 41.6414L36.6145 41.1662L36.7945 41.1687L36.9746 41.2763L37.1546 41.3688L37.3372 41.4888L37.5173 41.4363L37.6973 41.2238L37.8774 41.6089L38.0574 41.5088L38.2375 41.6264L38.4175 41.5664L38.5976 41.3113L38.7777 41.2638L38.9577 41.1712L39.1378 41.1487L39.3178 41.4713L39.4979 41.6089L39.678 41.5739L39.858 41.5664L40.0381 41.3763L40.2181 41.3538L40.4007 41.3013L40.5808 41.5063L40.7608 41.3738L40.9409 41.4663L41.1234 41.4413L41.3035 41.4563L41.4835 41.5163L41.6636 41.2338L41.8437 41.3913L42.0262 41.4613L42.2063 41.6039L42.3889 41.5739L42.5689 41.5213L42.749 41.4588L42.9315 41.4363L43.1116 41.2663L43.2916 41.4738L43.4742 41.3988L43.6543 41.3213L43.8368 41.2688L44.0169 41.5113L44.1994 41.1587L44.377 41.6289L44.5571 41.4613L44.7396 41.6014L44.9197 41.4538L45.1022 41.4513L45.2823 41.4313L45.4624 41.1512L45.6449 41.2713L45.8275 41.6364L46.0075 41.6489L46.1901 41.5088L46.3727 41.2788L46.5552 41.1587L46.7353 41.5314L46.9178 41.4538L47.1004 41.2813L47.283 41.2112L47.4655 41.6089L47.5805 41.1812L47.7181 41.2263L47.523 41.0287L47.7006 40.8661L47.5706 40.6736L47.6256 40.4985L47.9357 40.3485L47.7231 40.1484L47.9232 39.9883L47.9307 39.8083L47.9532 39.6307L47.8631 39.4432L47.8781 39.2656L47.9207 39.0881L48.0532 38.9205L47.8256 38.7204L47.9832 38.5554L47.8756 38.3653L47.7781 38.1753L47.9032 38.0077L48.1257 37.8501L48.1107 37.6676L48.0357 37.4825L47.8531 37.285L47.9632 37.1149L48.1432 36.7423L47.8957 37.1524L47.7156 36.9624L47.538 37.0899L47.358 37.0124L47.1804 37.0374L47.0004 36.9824L46.8228 37.1149L46.6427 36.6973L46.4652 36.7048L46.2851 36.9699L46.1076 36.8198L45.9275 36.9223L45.7475 36.8773L45.5699 36.8073L45.3898 36.9273L45.2098 37.1049L45.0322 37.0149L44.8522 36.9173L44.6721 36.8973L44.492 36.8773L44.312 36.7423L44.1344 37.0024L43.9544 36.9323L43.7743 36.9674L43.5942 36.9824L43.4142 37.0124L43.2341 36.9674L43.0541 36.7498L42.874 36.7273L42.694 37.0849L42.5139 37.1424L42.3338 36.8873L42.1538 36.9824L41.9762 37.1374L41.7962 37.0749L41.6161 36.8548L41.436 37.0174L41.2585 36.7473L41.0784 36.8323H40.8984L40.7208 37.1524L40.5407 36.8448L40.3607 37.0024L40.1831 37.0349L40.0031 36.7723L39.823 37.0749L39.6455 36.8523L39.4654 37.1349L39.2853 36.7798L39.1078 36.9874L38.9277 37.1874L38.7477 36.8448L38.5701 36.8773L38.39 36.8923L38.21 37.0524L38.0299 36.7323L37.8524 36.7198L37.6723 36.9248L37.4922 36.9198L37.3122 36.8773L37.1321 36.7523L36.9521 36.7273L36.772 37.1924L36.5919 37.0824L36.4119 37.0949L36.2318 36.9123L36.0518 37.1849L35.8717 36.7873L35.6917 36.8148L35.5116 37.0424L35.3315 37.1649L35.1515 36.8298L34.9714 36.9398L34.7914 37.0174L34.6138 37.1324L34.4337 37.0999L34.2537 37.0224L34.0736 36.8698L33.8936 36.7998L33.7135 37.1874L33.5359 36.9924L33.3559 36.8923L33.1758 37.1699L32.9958 36.9949L32.8157 36.7548L32.6357 36.9048L32.4556 37.0899L32.2755 37.1799L32.0955 37.1099L31.9154 37.0799L31.7354 36.9423L31.5553 36.9724L31.3752 36.7698L31.1952 36.8223L31.0151 36.8273L30.8351 36.9298L30.655 36.8073L30.4749 36.9924L30.2949 36.9799L30.1148 36.8473L29.9348 36.7973L29.7547 37.1774L29.5746 36.7998L29.3946 36.8523L29.2145 37.0299L29.0345 36.8023L28.8544 36.9974L28.6743 37.1624L28.4943 36.7423L28.3142 36.9574L28.1342 36.7773L27.9541 36.9498L27.7741 37.0599L27.594 36.8998L27.4114 37.0824L27.2314 36.9298L27.0538 36.8798L26.8738 37.1774L26.6962 37.1799L26.5161 37.1949L26.3361 36.8723L26.156 37.1624L25.976 36.8623L25.7959 37.0699L25.6158 37.1924L25.4333 36.7573L25.2532 37.1074L25.0757 36.8198L24.8956 36.9173L24.7155 37.1074L24.5355 36.9674L24.3554 36.7323L24.1754 37.0749L23.9978 36.8173L23.8178 37.1599L23.6377 37.0899L23.4576 36.9824L23.2776 36.8523L23.0975 37.0674L22.9175 37.0149L22.7374 36.8998L22.5548 37.1849L22.3748 36.9298L22.1947 37.1299L22.0147 37.0999L21.8346 36.8073L21.6545 36.7423L21.4745 37.1874L21.2944 37.0349L21.1144 36.8373L20.9318 37.0199L20.7517 37.0999L20.5692 36.7698L20.3891 36.8073L20.2091 37.0899L20.029 36.8948L19.849 36.8498L19.6664 36.8598L19.4863 36.9774L19.3038 36.8398L19.1237 37.1349H18.9437L18.7636 37.0999L18.5835 37.0524L18.4035 36.9098L18.2234 37.1624L18.0409 36.8898L17.8608 36.7548L17.6807 36.7723L17.4982 37.1199L17.3156 37.0499L17.1356 37.1799L16.953 36.7573L16.7729 36.9674L16.5904 37.1074L16.4078 36.7223L16.2278 36.7473L16.0452 36.9248L15.8626 37.1549L15.6901 36.9674L15.5525 37.1124Z" fill="#FF5378"/>
    <path d="M33.9011 52.6837L33.8336 52.7287L33.656 52.6962L33.4784 52.9013L33.3009 53.0238L33.1233 52.6887L32.9458 52.9763L32.7682 52.6612L32.5931 52.5587L32.4156 52.5637L32.238 53.0013L32.058 52.8412L31.8804 52.6212L31.7029 52.5912L31.5253 52.5587L31.3477 52.9363L31.1677 52.6012L30.9901 52.9138L30.8126 52.9563L30.6325 52.7212L30.455 52.9863L30.2774 52.8888L30.0973 52.6462L29.9173 52.6112L29.7372 52.8387L29.7097 52.6387L29.3546 52.6112L29.4496 52.4311L29.6672 52.2511L29.7347 52.071L29.5571 51.8909L29.6522 51.7109L29.7822 51.5308L29.4021 51.3508L29.4171 51.1707L29.6822 50.9906L29.5396 50.8106L29.7747 50.6305L29.4896 50.4505L29.4796 50.2704L29.6472 50.0903L29.5271 49.9103L29.6372 49.7302L29.5547 49.5502L29.6722 49.3701L29.5597 49.1901L29.5747 49.01L29.4196 48.8324L29.6222 48.6524L29.3671 48.4723L29.6847 48.2923L29.4446 48.1122L29.8022 47.9346L29.5897 47.7546L29.5121 47.5745L29.7647 47.3945L29.6297 47.2144L29.7197 47.0368L29.4796 46.8568L29.6947 46.6767L29.4296 46.4967L29.3146 46.3166L29.7497 46.139L29.3146 45.959L29.4296 45.7789L29.7447 45.5989L29.7922 45.4188L29.6247 45.2388L29.4396 45.0587L29.7547 44.8786L29.5446 44.6986L29.4821 44.5185L29.4621 44.3385L29.4246 44.1584L29.7697 43.9783L29.7122 43.7983L29.6897 43.6157L29.7922 43.4357L29.4571 43.2556L29.5697 43.0755L29.6597 42.8955L29.7022 42.7154L29.3996 42.5354L29.4846 42.3553L29.5196 42.1753L29.6697 41.9952L29.7897 41.8151L29.7522 41.6351L29.6647 41.455L29.3196 41.275L29.4271 41.0949L29.5897 40.9148L29.7022 40.7348L29.6697 40.5547L29.4596 40.3747L29.7397 40.1946L29.5071 40.0145L29.3421 39.8345L29.6772 39.6544L29.5396 39.4744L29.3296 39.2943L29.4721 39.1142L29.3096 38.9317L29.6197 38.7516L29.7072 38.5716L29.3621 38.3915L29.3521 38.2115L29.6622 38.0289L29.6472 37.8488L29.7097 37.6688L29.3596 37.4887L29.3946 37.3087L29.3296 37.1286L29.4021 36.9485L29.7397 36.7685L29.7297 36.5884L29.3121 36.4084L29.7197 36.2283L29.4796 36.0457L29.7197 35.8657L29.4546 35.6856L29.4871 35.5056L29.3596 35.323L29.7797 35.1429L29.5897 34.9629L29.4471 34.7828L29.5321 34.6028L29.7997 34.4227L29.6047 34.2452L29.4271 34.0651L29.5772 33.885L29.6172 33.705L29.4996 33.5224L29.5847 33.3424L29.4121 33.1623L29.4921 32.9822L29.5947 32.8022L29.7772 32.6196L29.6122 32.4396L29.5121 32.2595L29.3946 32.0819L29.3646 31.9019L29.5622 31.7218L29.6047 31.5418L29.3421 31.3617L29.4746 31.1816L29.5096 31.0016L29.5747 30.8215L29.4596 30.6415L29.5446 30.4589L29.3971 30.2789L29.3521 30.0988L29.5822 29.9162L29.6772 29.7362L29.5571 29.5561L29.3296 29.3761L29.6822 29.1935L29.5972 29.0134L29.6797 28.8334L29.5321 28.6533L29.5446 28.4708L29.7847 28.2907L29.6072 28.1081L29.4671 27.9281L29.7247 27.748L29.5597 27.5655L29.3396 27.3854L29.3746 27.2028L29.5697 27.0228L29.6522 26.8402L29.3721 26.6602L29.7897 26.4801L29.7597 26.3L29.6022 26.12L29.7047 25.9374L29.5722 25.7574L29.6347 25.5748L29.4796 25.3948L29.6347 25.2122L29.3421 25.0321L29.7322 24.8496L29.7597 24.6695L29.7047 24.487L29.5021 24.3044L29.3521 24.1218L29.3971 23.9418L29.3996 23.7592L29.7297 23.5767L29.5571 23.3941L29.3621 23.2115L29.4996 22.969L29.7372 23.124L29.9148 22.8564L30.0923 23.2115L30.2699 22.9615L30.4474 23.089L30.625 23.2315L30.8026 23.1165L30.9776 22.9089L31.1552 23.179L31.3327 23.2741L31.5128 22.9815L31.6904 23.0465L31.8679 22.9139L32.0455 23.034H32.223L32.4031 23.2616L32.5806 22.8164L32.7582 22.8489L32.9383 22.984L33.1158 23.1115L33.2934 23.244L33.4734 22.8464L33.6535 23.239L33.8336 22.8989L33.9086 23.1315L34.2562 23.2065L33.8711 23.3866L34.1862 23.5667L34.1812 23.7467L33.7985 23.9268L33.781 24.1068L34.2237 24.2869L34.0236 24.4669L34.1487 24.647L33.8936 24.8271L34.0061 25.0071L34.0411 25.1872L34.2137 25.3672L34.1637 25.5473L34.1487 25.7274L33.9561 25.9074L33.8511 26.0875L34.1337 26.2675L33.796 26.4476L34.2212 26.6277L33.9636 26.8077L33.8736 26.9878L33.8936 27.1653L33.9161 27.3454L34.0811 27.5254L33.8336 27.7055L33.8986 27.8856L34.0311 28.0631L33.9386 28.2432L33.796 28.4232L34.1061 28.6033L33.9086 28.7834L33.8211 28.9609L33.8886 29.141L33.9561 29.321L33.9286 29.5011L34.1987 29.6812L33.8536 29.8587L33.9861 30.0388L33.7985 30.2188L33.8961 30.3989L34.0561 30.5789L33.8035 30.759L33.9986 30.9391L33.8361 31.1191L33.8836 31.2992L34.2212 31.4792L34.1987 31.6593L34.1111 31.8394L34.0236 32.0219L33.9486 32.202L33.7735 32.382L33.8936 32.5621L33.8361 32.7422L33.9886 32.9222L34.1862 33.1023L33.9636 33.2823L34.2337 33.4624L34.1011 33.6425L33.8536 33.8225V34.0026L33.796 34.1826L34.0211 34.3627L33.8261 34.5427L33.9011 34.7228L34.0786 34.9029L33.7685 35.0829L33.8286 35.263L34.1862 35.443L33.791 35.6231L34.2362 35.8032L34.0161 35.9832L34.1637 36.1633L33.8511 36.3433L33.9161 36.5234L34.0261 36.706L33.9636 36.886L33.9336 37.0661L33.9211 37.2461L34.1262 37.4287L34.1662 37.6088L34.0586 37.7888L34.1862 37.9689L34.0711 38.1489L34.0286 38.329L33.8611 38.509L33.9861 38.6891L33.9686 38.8692L33.9586 39.0492L34.0111 39.2293L34.1787 39.4093L34.2537 39.5919L34.2362 39.772L34.0061 39.952L33.7785 40.1321L34.0736 40.3146L34.2462 40.4947L34.2487 40.6748L33.8035 40.8548L34.2062 41.0349L34.2487 41.2149L34.1612 41.395L33.9661 41.5751L33.7735 41.7526L33.9561 41.9327L34.2587 42.1152L34.1837 42.2953L33.9061 42.4753L33.8986 42.6554L33.8711 42.838L33.9636 43.018L34.1061 43.1981L33.8986 43.3781L34.0236 43.5582L34.1262 43.7383L33.9736 43.9183L34.1136 44.0959V44.2759L33.9486 44.456L34.0261 44.6361L33.9586 44.8161L33.8761 44.9962L34.1612 45.1762L33.796 45.3588L33.8986 45.5389L33.8286 45.7214L33.9161 45.9015L33.9311 46.0815L33.8711 46.2616L34.1587 46.4441L34.1262 46.6242L33.9611 46.8043L33.8886 46.9843L34.2337 47.1644L33.8085 47.3469L34.0011 47.527L34.0461 47.7096L34.2137 47.8896L33.8336 48.0722L33.9961 48.2522L33.9636 48.4323L33.9511 48.6149L34.2062 48.7949L33.8386 48.9775L33.9586 49.1575L34.1537 49.3401L33.7885 49.5202L33.9211 49.7002L33.9086 49.8803L33.9661 50.0603L34.0811 50.2429L33.9536 50.423L34.1161 50.6055L33.9886 50.7856L33.9761 50.9681L34.1362 51.1507L34.1662 51.3308L33.8786 51.5133L34.1061 51.6959L34.0136 51.8784L34.0611 52.0585L34.0261 52.2411L34.1962 52.4236L34.0711 52.6337L33.9011 52.6837Z" fill="#FF5378"/>
    <path d="M29.1198 21.5668L29.1548 21.2818L28.8897 21.3143L28.5971 21.3868L28.7497 20.9041L28.4946 20.9341L28.4271 20.7241L28.0695 20.8916L28.0069 20.6691L27.9444 20.449L27.6443 20.5515L27.6093 20.2889L27.4368 20.2189L27.3042 20.0914L27.2817 19.8013L27.0791 19.7738L26.9341 19.6612L26.8115 19.5187L26.5265 19.6162L26.3989 19.4787L26.3289 19.2511L26.2138 19.0885L25.8837 19.2786L25.7812 19.0935L25.6762 18.9135L25.5661 18.7409L25.3536 18.7434L25.1335 18.7659L25.0785 18.4883L24.7109 18.7859L24.5908 18.6309L24.5683 18.2783L24.3908 18.2233L24.2857 18.0232L23.9881 18.2258L23.8356 18.1232L23.728 17.9182L23.4955 17.9982L23.2629 18.0882L23.2129 17.7331L23.0553 17.6381L22.7902 17.8306L22.6177 17.7831L22.5051 17.558L22.3726 17.383L22.205 17.3055L22.0575 17.1579L21.7799 17.4705L21.6298 17.3305L21.4698 17.2179L21.2822 17.2204L21.0897 17.2754L20.9671 16.9153L20.7846 16.8828L20.572 17.0829L20.3744 17.2829L20.2194 16.9578L20.0368 16.9503L19.8518 17.0579L19.6792 17.2279L19.5042 17.1954L19.3241 17.1804L19.174 17.348L18.984 17.2654L18.7414 17.0379L18.6464 17.3405L18.3613 17.1054L18.3788 17.5805L18.1637 17.5355L17.9787 17.5705L17.8561 17.7006L17.6961 17.7906L17.5085 17.8631L17.516 18.1057L17.3785 18.2233L17.4035 18.4558L17.1009 18.4758L16.9158 18.5809L17.1134 18.886L16.8933 18.9785L16.8483 19.1561L16.9658 19.3936L16.6557 19.4687L16.7833 19.7012L16.7983 19.8913L16.3806 19.9563L16.4732 20.1714L16.2631 20.3139L16.2931 20.509L16.5907 20.7391L16.2981 20.8841L16.123 21.0542L16.2756 21.2492L16.4131 21.4343L16.5357 21.6119L16.1531 21.8044L16.1405 21.992L16.4306 22.152L16.2456 22.3571L16.4256 22.5172L16.4832 22.6897L16.4582 22.8798L16.6282 23.0273L16.5307 23.2374L16.7032 23.3774L16.7007 23.565L16.7207 23.7501L16.8683 23.8876L16.6157 24.1777L17.0959 24.1827L17.0408 24.3978L16.8983 24.6629L17.0108 24.8129L17.0158 25.018L17.3059 25.0705L17.2709 25.2981L17.4885 25.3831L17.4835 25.7032L17.7286 25.7157L17.9061 25.3906L18.0862 25.4081L18.2662 25.4506L18.4438 25.7082L18.6239 25.3756L18.8039 25.4356L18.9815 25.6607L19.1615 25.5957L19.3416 25.7982L19.5192 25.7307L19.6992 25.7682L19.8793 25.7882L20.0568 25.6732L20.2369 25.3106L20.417 25.6257L20.597 25.3206L20.7746 25.3631L20.9546 25.3556L21.1347 25.4231L21.3122 25.7857L21.4923 25.5657L21.6724 25.6457L21.8499 25.3756L22.03 25.6657L22.21 25.4781L22.3876 25.7782L22.5677 25.3581L22.7477 25.5356L22.9253 25.5657L23.1053 25.4481L23.2854 25.7507L23.4629 25.6932L23.643 25.5006L23.8231 25.5532L24.0006 25.5482L24.1807 25.5432L24.3607 25.5231L24.5383 25.4031L24.7184 25.3281L24.8984 25.6182L25.0785 25.4056L25.256 25.6707H25.4361L25.6162 25.7232L25.7937 25.5882L25.9738 25.7807L26.1538 25.6832L26.3314 25.5281L26.5114 25.3781L26.6915 25.5056L26.8691 25.6107L27.0491 25.3956L27.2292 25.6282L27.4067 25.4231L27.5868 25.6257L27.7669 25.5632L27.9444 25.4556L28.1245 25.8007L28.3045 25.7757L28.4821 25.4881L28.6622 25.5381L28.8422 25.5306L29.0198 25.7382L29.1998 25.4431L29.3799 25.4831L29.575 25.6032L29.5674 25.2556L29.9476 25.4706L29.8976 25.0855L30.1251 25.0905L30.2877 25.0005L30.4652 24.9355L30.7078 24.9605L30.8054 24.7804L30.9054 24.6078L31.0004 24.4253L31.0779 24.2202L31.4281 24.3903L31.3555 23.9801L31.4906 23.8526L31.9657 23.9626L31.6081 24.0252L31.4256 23.7751L31.2505 24.0177L31.0704 23.8551L30.8929 23.9126L30.7153 24.0727L30.5353 23.8926L30.3577 24.1052L30.1776 23.8426L30.0001 24.1327L29.8225 24.2152L29.645 24.0602L29.4649 23.8026L29.2874 24.0101L29.1098 24.1927L28.9297 24.0377L28.7522 24.1152L28.5746 23.9426L28.3946 24.0377L28.2145 24.1152L28.0369 23.9926L27.8544 24.0927L27.6843 23.7426L27.5018 23.8726L27.3217 24.0377L27.1392 24.1302L26.9591 24.1277L26.779 24.1927L26.6115 23.8201L26.4264 23.9576L26.2539 23.7926L26.0688 23.9376L25.8988 23.7076L25.7212 23.6675L25.5411 23.65L25.3411 24.0026L25.1785 23.7201L25.0035 23.625L24.8059 23.9101L24.6258 23.8751L24.4333 24.0652L24.2857 23.6025L24.0957 23.7276L23.9081 23.8051L23.7105 23.9876L23.5705 23.5675L23.3729 23.7451L23.1704 23.9276L23.0003 23.8151L22.8402 23.6475L22.6702 23.5625L22.4626 23.7526L22.2926 23.6675L22.1125 23.655L21.96 23.47L21.7424 23.65L21.6198 23.3499L21.3873 23.565L21.1947 23.5925L21.0447 23.4375L20.9071 23.2674L20.7371 23.2149L20.592 23.0923L20.3269 23.2599L20.1844 23.1249L19.9768 23.1099L19.8393 22.9698L19.9043 22.5797L19.5992 22.6572L19.4841 22.5072L19.2116 22.4546L19.184 22.2321L19.0415 22.057L19.064 21.8344L19.0315 21.6244L19.189 21.4368L19.2941 21.2642L19.179 21.0292L19.2641 20.8491L19.6192 20.8191L19.7767 20.7166L19.8393 20.554L19.9818 20.4565L19.8593 20.0614L19.9968 19.9063L20.2794 20.0313L20.442 20.0013L20.6045 19.9813L20.7721 20.0714L20.9296 20.0564L21.1172 19.7488L21.2672 20.0038L21.4473 19.9638L21.6324 19.9288L21.7674 20.1364L21.96 20.0789L22.1125 20.1889L22.3426 20.0263L22.4276 20.3514L22.6802 20.1389L22.8753 20.1189L22.9578 20.4265L23.1629 20.3765L23.2629 20.6165L23.4304 20.6791L23.5855 20.7666L23.7731 20.7691L24.0231 20.6165L24.1582 20.7616L24.2707 20.9591L24.5283 20.8041L24.6358 21.0117L24.7659 21.1642L25.001 21.0742L25.076 21.3543L25.3636 21.1542L25.5486 21.1867L25.7562 21.1692L25.8487 21.4043L26.0038 21.5018L26.0588 21.8144L26.3689 21.5794L26.4664 21.7969L26.574 21.9845L26.8115 21.9095L27.0716 21.7969L27.2342 21.882L27.3392 22.0795L27.4693 22.2246L27.6443 22.2821L27.8544 22.2696L28.0445 22.3021L28.0745 22.6322L28.252 22.6872L28.4846 22.6472L28.6021 22.8073L28.6196 23.1524L28.9798 22.8873L29.0023 23.2224L29.0973 23.0198L29.1798 23.0348L29.1123 22.8498L29.2448 22.6597L29.1398 22.4746L29.0373 22.2896L29.0298 22.1045L29.0648 21.9145L29.0298 21.7294L29.1198 21.5668Z" fill="url(#paint1_linear_3214_14914)"/>
    <path d="M29.1198 21.5668L29.1548 21.2818L28.8897 21.3143L28.5971 21.3868L28.7497 20.9041L28.4946 20.9341L28.4271 20.7241L28.0695 20.8916L28.0069 20.6691L27.9444 20.449L27.6443 20.5515L27.6093 20.2889L27.4368 20.2189L27.3042 20.0914L27.2817 19.8013L27.0791 19.7738L26.9341 19.6612L26.8115 19.5187L26.5265 19.6162L26.3989 19.4787L26.3289 19.2511L26.2138 19.0885L25.8837 19.2786L25.7812 19.0935L25.6762 18.9135L25.5661 18.7409L25.3536 18.7434L25.1335 18.7659L25.0785 18.4883L24.7109 18.7859L24.5908 18.6309L24.5683 18.2783L24.3908 18.2233L24.2857 18.0232L23.9881 18.2258L23.8356 18.1232L23.728 17.9182L23.4955 17.9982L23.2629 18.0882L23.2129 17.7331L23.0553 17.6381L22.7902 17.8306L22.6177 17.7831L22.5051 17.558L22.3726 17.383L22.205 17.3055L22.0575 17.1579L21.7799 17.4705L21.6298 17.3305L21.4698 17.2179L21.2822 17.2204L21.0897 17.2754L20.9671 16.9153L20.7846 16.8828L20.572 17.0829L20.3744 17.2829L20.2194 16.9578L20.0368 16.9503L19.8518 17.0579L19.6792 17.2279L19.5042 17.1954L19.3241 17.1804L19.174 17.348L18.984 17.2654L18.7414 17.0379L18.6464 17.3405L18.3613 17.1054L18.3788 17.5805L18.1637 17.5355L17.9787 17.5705L17.8561 17.7006L17.6961 17.7906L17.5085 17.8631L17.516 18.1057L17.3785 18.2233L17.4035 18.4558L17.1009 18.4758L16.9158 18.5809L17.1134 18.886L16.8933 18.9785L16.8483 19.1561L16.9658 19.3936L16.6557 19.4687L16.7833 19.7012L16.7983 19.8913L16.3806 19.9563L16.4732 20.1714L16.2631 20.3139L16.2931 20.509L16.5907 20.7391L16.2981 20.8841L16.123 21.0542L16.2756 21.2492L16.4131 21.4343L16.5357 21.6119L16.1531 21.8044L16.1405 21.992L16.4306 22.152L16.2456 22.3571L16.4256 22.5172L16.4832 22.6897L16.4582 22.8798L16.6282 23.0273L16.5307 23.2374L16.7032 23.3774L16.7007 23.565L16.7207 23.7501L16.8683 23.8876L16.6157 24.1777L17.0959 24.1827L17.0408 24.3978L16.8983 24.6629L17.0108 24.8129L17.0158 25.018L17.3059 25.0705L17.2709 25.2981L17.4885 25.3831L17.4835 25.7032L17.7286 25.7157L17.9061 25.3906L18.0862 25.4081L18.2662 25.4506L18.4438 25.7082L18.6239 25.3756L18.8039 25.4356L18.9815 25.6607L19.1615 25.5957L19.3416 25.7982L19.5192 25.7307L19.6992 25.7682L19.8793 25.7882L20.0568 25.6732L20.2369 25.3106L20.417 25.6257L20.597 25.3206L20.7746 25.3631L20.9546 25.3556L21.1347 25.4231L21.3122 25.7857L21.4923 25.5657L21.6724 25.6457L21.8499 25.3756L22.03 25.6657L22.21 25.4781L22.3876 25.7782L22.5677 25.3581L22.7477 25.5356L22.9253 25.5657L23.1053 25.4481L23.2854 25.7507L23.4629 25.6932L23.643 25.5006L23.8231 25.5532L24.0006 25.5482L24.1807 25.5432L24.3607 25.5231L24.5383 25.4031L24.7184 25.3281L24.8984 25.6182L25.0785 25.4056L25.256 25.6707H25.4361L25.6162 25.7232L25.7937 25.5882L25.9738 25.7807L26.1538 25.6832L26.3314 25.5281L26.5114 25.3781L26.6915 25.5056L26.8691 25.6107L27.0491 25.3956L27.2292 25.6282L27.4067 25.4231L27.5868 25.6257L27.7669 25.5632L27.9444 25.4556L28.1245 25.8007L28.3045 25.7757L28.4821 25.4881L28.6622 25.5381L28.8422 25.5306L29.0198 25.7382L29.1998 25.4431L29.3799 25.4831L29.575 25.6032L29.5674 25.2556L29.9476 25.4706L29.8976 25.0855L30.1251 25.0905L30.2877 25.0005L30.4652 24.9355L30.7078 24.9605L30.8054 24.7804L30.9054 24.6078L31.0004 24.4253L31.0779 24.2202L31.4281 24.3903L31.3555 23.9801L31.4906 23.8526L31.9657 23.9626L31.6081 24.0252L31.4256 23.7751L31.2505 24.0177L31.0704 23.8551L30.8929 23.9126L30.7153 24.0727L30.5353 23.8926L30.3577 24.1052L30.1776 23.8426L30.0001 24.1327L29.8225 24.2152L29.645 24.0602L29.4649 23.8026L29.2874 24.0101L29.1098 24.1927L28.9297 24.0377L28.7522 24.1152L28.5746 23.9426L28.3946 24.0377L28.2145 24.1152L28.0369 23.9926L27.8544 24.0927L27.6843 23.7426L27.5018 23.8726L27.3217 24.0377L27.1392 24.1302L26.9591 24.1277L26.779 24.1927L26.6115 23.8201L26.4264 23.9576L26.2539 23.7926L26.0688 23.9376L25.8988 23.7076L25.7212 23.6675L25.5411 23.65L25.3411 24.0026L25.1785 23.7201L25.0035 23.625L24.8059 23.9101L24.6258 23.8751L24.4333 24.0652L24.2857 23.6025L24.0957 23.7276L23.9081 23.8051L23.7105 23.9876L23.5705 23.5675L23.3729 23.7451L23.1704 23.9276L23.0003 23.8151L22.8402 23.6475L22.6702 23.5625L22.4626 23.7526L22.2926 23.6675L22.1125 23.655L21.96 23.47L21.7424 23.65L21.6198 23.3499L21.3873 23.565L21.1947 23.5925L21.0447 23.4375L20.9071 23.2674L20.7371 23.2149L20.592 23.0923L20.3269 23.2599L20.1844 23.1249L19.9768 23.1099L19.8393 22.9698L19.9043 22.5797L19.5992 22.6572L19.4841 22.5072L19.2116 22.4546L19.184 22.2321L19.0415 22.057L19.064 21.8344L19.0315 21.6244L19.189 21.4368L19.2941 21.2642L19.179 21.0292L19.2641 20.8491L19.6192 20.8191L19.7767 20.7166L19.8393 20.554L19.9818 20.4565L19.8593 20.0614L19.9968 19.9063L20.2794 20.0313L20.442 20.0013L20.6045 19.9813L20.7721 20.0714L20.9296 20.0564L21.1172 19.7488L21.2672 20.0038L21.4473 19.9638L21.6324 19.9288L21.7674 20.1364L21.96 20.0789L22.1125 20.1889L22.3426 20.0263L22.4276 20.3514L22.6802 20.1389L22.8753 20.1189L22.9578 20.4265L23.1629 20.3765L23.2629 20.6165L23.4304 20.6791L23.5855 20.7666L23.7731 20.7691L24.0231 20.6165L24.1582 20.7616L24.2707 20.9591L24.5283 20.8041L24.6358 21.0117L24.7659 21.1642L25.001 21.0742L25.076 21.3543L25.3636 21.1542L25.5486 21.1867L25.7562 21.1692L25.8487 21.4043L26.0038 21.5018L26.0588 21.8144L26.3689 21.5794L26.4664 21.7969L26.574 21.9845L26.8115 21.9095L27.0716 21.7969L27.2342 21.882L27.3392 22.0795L27.4693 22.2246L27.6443 22.2821L27.8544 22.2696L28.0445 22.3021L28.0745 22.6322L28.252 22.6872L28.4846 22.6472L28.6021 22.8073L28.6196 23.1524L28.9798 22.8873L29.0023 23.2224L29.0973 23.0198L29.1798 23.0348L29.1123 22.8498L29.2448 22.6597L29.1398 22.4746L29.0373 22.2896L29.0298 22.1045L29.0648 21.9145L29.0298 21.7294L29.1198 21.5668Z" fill="url(#paint2_linear_3214_14914)"/>
    <path d="M34.2619 21.4735L34.597 21.4985L34.5145 21.1109L34.9647 21.3735L34.8721 20.9683L35.1847 21.0709L35.2948 20.9183L35.2873 20.6082L35.3998 20.4532L35.6449 20.4757L35.7024 20.2456L35.875 20.1706L36.1125 20.1881L36.3676 20.2331L36.4927 20.0956L36.6977 20.0756L36.8353 19.9555L36.7477 19.4979L36.9778 19.5129L37.1004 19.3678L37.3029 19.3453L37.3805 19.1252L37.6405 19.1978L37.7606 19.0452L37.9907 19.0777L38.1682 19.0252L38.3683 19.0102L38.4308 18.7526L38.6309 18.7401L38.8509 18.7701L38.9485 18.5701L39.111 18.49L39.2811 18.4275L39.3361 18.1299L39.6287 18.3225L39.7487 18.1549L39.8588 17.9574L40.0538 17.9474L40.2889 18.0474L40.3439 17.6998L40.569 17.7748L40.674 17.5447L40.9466 17.7648L40.9966 17.3547L41.2617 17.5797L41.4493 17.5822L41.5418 17.2571L41.7719 17.3997L41.952 17.3722L42.097 17.1996L42.232 16.962L42.4796 17.2671L42.6697 17.3146L42.8247 17.1546L43.0023 17.1246L43.1824 17.1471L43.3649 17.1821L43.535 16.977L43.715 17.1396L43.8951 17.0721L44.0852 16.957L44.2277 17.3146L44.4553 16.9845L44.5628 17.3547L44.8454 16.9695L44.8904 17.4347L45.1455 17.2496L45.3706 17.2121L45.4281 17.4922L45.5181 17.6723L45.8232 17.5647L45.7582 17.9073L46.0158 17.9023L46.1758 18.0049L46.3309 18.1199L46.4834 18.2425L46.5009 18.45L46.671 18.5676L46.7285 18.7476L46.7485 18.9427L46.9436 19.0577L46.751 19.3328L46.8836 19.4754L46.9811 19.6304L47.0361 19.8055L47.0961 19.9805L46.8686 20.2231L46.9161 20.3907L46.9511 20.5632L47.1937 20.7058L47.0986 20.8983L47.2562 21.0659L47.4363 21.2384L47.4938 21.426L47.3137 21.6136L47.4263 21.8011L47.1161 21.9662L47.2787 22.1612L47.3812 22.3613L47.3337 22.5414L47.2237 22.7114L47.1086 22.8765L46.9036 23.0165L47.2637 23.2941L47.0486 23.4267L47.0661 23.6242L46.6535 23.6792L47.0536 24.0118L46.646 24.0544L46.5285 24.2019L46.4734 24.372L46.7035 24.6746L46.3384 24.7021L46.2909 24.8771L46.2559 25.0647L46.1233 25.1947L45.9858 25.3223L46.0908 25.7149L45.8407 25.6374L45.6632 25.4598L45.4831 25.7524L45.3031 25.3398L45.1255 25.6824L44.9454 25.7049L44.7654 25.3848L44.5878 25.5173L44.4078 25.4648L44.2277 25.4898L44.0501 25.4923L43.8701 25.5123L43.69 25.6749L43.51 25.4998L43.3324 25.7799L43.1524 25.3173L42.9723 25.6899L42.7947 25.4098L42.6147 25.7149L42.4346 25.7299L42.2571 25.4623L42.077 25.6749L41.8969 25.5423L41.7194 25.4323L41.5393 25.3448L41.3593 25.6799L41.1817 25.5348L41.0016 25.6424L40.8216 25.7174L40.644 25.4198L40.464 25.3498L40.2839 25.4648L40.1063 25.3098L39.9263 25.6799L39.7462 25.6449L39.5687 25.4848L39.3886 25.7024L39.2086 25.5699L39.0285 25.3373L38.8509 25.5924L38.6709 25.6324L38.4908 25.3998L38.3133 25.3948L38.1332 25.3773L37.9531 25.3223L37.7756 25.6199L37.5955 25.5749L37.4155 25.6924L37.2379 25.3773L37.0578 25.6474L36.8778 25.3673L36.7002 25.4373L36.5202 25.7249L36.3401 25.7774L36.1626 25.3273L35.9825 25.3548L35.8024 25.4023L35.6249 25.4348L35.4448 25.4723L35.2648 25.7524L35.0872 25.5524L34.9071 25.6149L34.7271 25.7974L34.547 25.6599L34.3695 25.7099L34.1894 25.3523L33.9968 25.5924L33.8043 25.5248L33.6042 25.4898L33.4992 25.3223L33.4942 25.0172L33.2866 24.9897L33.1391 24.8846L32.954 24.8246L32.7514 24.7946L32.7239 24.5195L32.5214 24.487L32.4313 24.3019L32.1137 24.427L31.9937 24.2819L31.9237 24.0644L31.5811 23.9593L31.9587 24.0794L32.1462 23.7543L32.3238 23.7217L32.4964 23.9793L32.6814 23.7242L32.854 24.0544L33.0365 23.8193L33.2116 24.1194L33.3892 24.1444L33.5692 24.0444L33.7493 23.7268L33.9243 23.9043L34.1044 23.9843L34.2819 23.7443L34.4595 23.8393L34.6396 24.1244L34.8171 23.9768L34.9972 24.1169L35.1747 23.9018L35.3548 24.1569L35.5349 24.1419L35.7124 24.0068L35.895 24.1869L36.0675 23.8943L36.2526 24.2019L36.4326 24.1919L36.6102 24.1819L36.7878 24.1069L36.9653 23.9993L37.1404 23.8668L37.3254 24.0444L37.493 23.7543L37.6856 24.0268L37.8681 24.0819L38.0457 23.9768L38.2182 23.8343L38.4133 24.1069L38.5708 23.7017L38.7659 23.9518L38.926 23.6392L39.136 24.0594L39.3111 23.9543L39.4636 23.6042L39.6637 23.8343L39.8163 23.5317L40.0313 23.8943L40.2114 23.8843L40.3789 23.7393L40.5615 23.7518L40.7416 23.7468L40.8866 23.4667L41.0517 23.3741L41.2967 23.7893L41.4093 23.3641L41.6644 23.7768L41.7944 23.4792L41.9645 23.4116L42.182 23.5692L42.2796 23.2041L42.4471 23.1516L42.6522 23.2316L42.8422 23.2416L43.0798 23.3591L43.2499 23.2741L43.3949 23.1416L43.3924 22.7689L43.745 22.984L43.73 22.6564L43.8051 22.4838L44.0026 22.4363L44.3102 22.4238L44.3452 22.2113L44.4578 22.0362L44.1252 21.7861L44.4553 21.6236L44.5603 21.4085L44.4953 21.2084L44.1552 21.1084L44.2352 20.8783L44.2777 20.6332L44.0376 20.5482L43.9926 20.3381L43.8676 20.1831L43.48 20.3306V20.038L43.3949 19.8105L43.1248 20.0055L42.9473 20.0906L42.8072 19.883L42.6297 19.6079L42.4446 19.6454L42.2896 19.908L42.107 19.8755L41.9795 20.1406L41.7919 20.0856L41.6294 20.1581L41.3868 19.9255L41.1892 19.888L41.0817 20.1531L40.9291 20.2606L40.7691 20.3406L40.644 20.5132L40.414 20.3957L40.2464 20.4557L40.0688 20.4857L39.8813 20.5007L39.7637 20.6833L39.4911 20.4782L39.4236 20.7933L39.1535 20.6007L39.151 21.0609L38.9985 21.1634L38.7384 21.0059L38.6259 21.2034L38.4433 21.2384L38.3433 21.461L38.0982 21.3535L37.8556 21.2584L37.7806 21.5335H37.5805L37.3279 21.4235L37.2329 21.6436L37.1829 21.9562L37.0278 22.0487L36.6927 21.7786L36.6402 22.0762L36.4326 22.0712L36.2026 22.0187L36.11 22.2413L35.915 22.2563L35.885 22.5914L35.6724 22.5764L35.4198 22.4913L35.4298 22.8915L35.1122 22.6939L35.1097 23.0615L34.9246 23.104L34.6045 22.9115L34.407 22.9365L34.3645 23.2016L34.377 23.0315L34.1844 22.8415L34.392 22.6589L34.442 22.4713L34.2869 22.2813L34.422 22.0987L34.2344 21.9062L34.4395 21.7236L34.2619 21.4735Z" fill="url(#paint3_linear_3214_14914)"/>
    <path d="M34.2619 21.4735L34.597 21.4985L34.5145 21.1109L34.9647 21.3735L34.8721 20.9683L35.1847 21.0709L35.2948 20.9183L35.2873 20.6082L35.3998 20.4532L35.6449 20.4757L35.7024 20.2456L35.875 20.1706L36.1125 20.1881L36.3676 20.2331L36.4927 20.0956L36.6977 20.0756L36.8353 19.9555L36.7477 19.4979L36.9778 19.5129L37.1004 19.3678L37.3029 19.3453L37.3805 19.1252L37.6405 19.1978L37.7606 19.0452L37.9907 19.0777L38.1682 19.0252L38.3683 19.0102L38.4308 18.7526L38.6309 18.7401L38.8509 18.7701L38.9485 18.5701L39.111 18.49L39.2811 18.4275L39.3361 18.1299L39.6287 18.3225L39.7487 18.1549L39.8588 17.9574L40.0538 17.9474L40.2889 18.0474L40.3439 17.6998L40.569 17.7748L40.674 17.5447L40.9466 17.7648L40.9966 17.3547L41.2617 17.5797L41.4493 17.5822L41.5418 17.2571L41.7719 17.3997L41.952 17.3722L42.097 17.1996L42.232 16.962L42.4796 17.2671L42.6697 17.3146L42.8247 17.1546L43.0023 17.1246L43.1824 17.1471L43.3649 17.1821L43.535 16.977L43.715 17.1396L43.8951 17.0721L44.0852 16.957L44.2277 17.3146L44.4553 16.9845L44.5628 17.3547L44.8454 16.9695L44.8904 17.4347L45.1455 17.2496L45.3706 17.2121L45.4281 17.4922L45.5181 17.6723L45.8232 17.5647L45.7582 17.9073L46.0158 17.9023L46.1758 18.0049L46.3309 18.1199L46.4834 18.2425L46.5009 18.45L46.671 18.5676L46.7285 18.7476L46.7485 18.9427L46.9436 19.0577L46.751 19.3328L46.8836 19.4754L46.9811 19.6304L47.0361 19.8055L47.0961 19.9805L46.8686 20.2231L46.9161 20.3907L46.9511 20.5632L47.1937 20.7058L47.0986 20.8983L47.2562 21.0659L47.4363 21.2384L47.4938 21.426L47.3137 21.6136L47.4263 21.8011L47.1161 21.9662L47.2787 22.1612L47.3812 22.3613L47.3337 22.5414L47.2237 22.7114L47.1086 22.8765L46.9036 23.0165L47.2637 23.2941L47.0486 23.4267L47.0661 23.6242L46.6535 23.6792L47.0536 24.0118L46.646 24.0544L46.5285 24.2019L46.4734 24.372L46.7035 24.6746L46.3384 24.7021L46.2909 24.8771L46.2559 25.0647L46.1233 25.1947L45.9858 25.3223L46.0908 25.7149L45.8407 25.6374L45.6632 25.4598L45.4831 25.7524L45.3031 25.3398L45.1255 25.6824L44.9454 25.7049L44.7654 25.3848L44.5878 25.5173L44.4078 25.4648L44.2277 25.4898L44.0501 25.4923L43.8701 25.5123L43.69 25.6749L43.51 25.4998L43.3324 25.7799L43.1524 25.3173L42.9723 25.6899L42.7947 25.4098L42.6147 25.7149L42.4346 25.7299L42.2571 25.4623L42.077 25.6749L41.8969 25.5423L41.7194 25.4323L41.5393 25.3448L41.3593 25.6799L41.1817 25.5348L41.0016 25.6424L40.8216 25.7174L40.644 25.4198L40.464 25.3498L40.2839 25.4648L40.1063 25.3098L39.9263 25.6799L39.7462 25.6449L39.5687 25.4848L39.3886 25.7024L39.2086 25.5699L39.0285 25.3373L38.8509 25.5924L38.6709 25.6324L38.4908 25.3998L38.3133 25.3948L38.1332 25.3773L37.9531 25.3223L37.7756 25.6199L37.5955 25.5749L37.4155 25.6924L37.2379 25.3773L37.0578 25.6474L36.8778 25.3673L36.7002 25.4373L36.5202 25.7249L36.3401 25.7774L36.1626 25.3273L35.9825 25.3548L35.8024 25.4023L35.6249 25.4348L35.4448 25.4723L35.2648 25.7524L35.0872 25.5524L34.9071 25.6149L34.7271 25.7974L34.547 25.6599L34.3695 25.7099L34.1894 25.3523L33.9968 25.5924L33.8043 25.5248L33.6042 25.4898L33.4992 25.3223L33.4942 25.0172L33.2866 24.9897L33.1391 24.8846L32.954 24.8246L32.7514 24.7946L32.7239 24.5195L32.5214 24.487L32.4313 24.3019L32.1137 24.427L31.9937 24.2819L31.9237 24.0644L31.5811 23.9593L31.9587 24.0794L32.1462 23.7543L32.3238 23.7217L32.4964 23.9793L32.6814 23.7242L32.854 24.0544L33.0365 23.8193L33.2116 24.1194L33.3892 24.1444L33.5692 24.0444L33.7493 23.7268L33.9243 23.9043L34.1044 23.9843L34.2819 23.7443L34.4595 23.8393L34.6396 24.1244L34.8171 23.9768L34.9972 24.1169L35.1747 23.9018L35.3548 24.1569L35.5349 24.1419L35.7124 24.0068L35.895 24.1869L36.0675 23.8943L36.2526 24.2019L36.4326 24.1919L36.6102 24.1819L36.7878 24.1069L36.9653 23.9993L37.1404 23.8668L37.3254 24.0444L37.493 23.7543L37.6856 24.0268L37.8681 24.0819L38.0457 23.9768L38.2182 23.8343L38.4133 24.1069L38.5708 23.7017L38.7659 23.9518L38.926 23.6392L39.136 24.0594L39.3111 23.9543L39.4636 23.6042L39.6637 23.8343L39.8163 23.5317L40.0313 23.8943L40.2114 23.8843L40.3789 23.7393L40.5615 23.7518L40.7416 23.7468L40.8866 23.4667L41.0517 23.3741L41.2967 23.7893L41.4093 23.3641L41.6644 23.7768L41.7944 23.4792L41.9645 23.4116L42.182 23.5692L42.2796 23.2041L42.4471 23.1516L42.6522 23.2316L42.8422 23.2416L43.0798 23.3591L43.2499 23.2741L43.3949 23.1416L43.3924 22.7689L43.745 22.984L43.73 22.6564L43.8051 22.4838L44.0026 22.4363L44.3102 22.4238L44.3452 22.2113L44.4578 22.0362L44.1252 21.7861L44.4553 21.6236L44.5603 21.4085L44.4953 21.2084L44.1552 21.1084L44.2352 20.8783L44.2777 20.6332L44.0376 20.5482L43.9926 20.3381L43.8676 20.1831L43.48 20.3306V20.038L43.3949 19.8105L43.1248 20.0055L42.9473 20.0906L42.8072 19.883L42.6297 19.6079L42.4446 19.6454L42.2896 19.908L42.107 19.8755L41.9795 20.1406L41.7919 20.0856L41.6294 20.1581L41.3868 19.9255L41.1892 19.888L41.0817 20.1531L40.9291 20.2606L40.7691 20.3406L40.644 20.5132L40.414 20.3957L40.2464 20.4557L40.0688 20.4857L39.8813 20.5007L39.7637 20.6833L39.4911 20.4782L39.4236 20.7933L39.1535 20.6007L39.151 21.0609L38.9985 21.1634L38.7384 21.0059L38.6259 21.2034L38.4433 21.2384L38.3433 21.461L38.0982 21.3535L37.8556 21.2584L37.7806 21.5335H37.5805L37.3279 21.4235L37.2329 21.6436L37.1829 21.9562L37.0278 22.0487L36.6927 21.7786L36.6402 22.0762L36.4326 22.0712L36.2026 22.0187L36.11 22.2413L35.915 22.2563L35.885 22.5914L35.6724 22.5764L35.4198 22.4913L35.4298 22.8915L35.1122 22.6939L35.1097 23.0615L34.9246 23.104L34.6045 22.9115L34.407 22.9365L34.3645 23.2016L34.377 23.0315L34.1844 22.8415L34.392 22.6589L34.442 22.4713L34.2869 22.2813L34.422 22.0987L34.2344 21.9062L34.4395 21.7236L34.2619 21.4735Z" fill="url(#paint4_linear_3214_14914)"/>
    <path d="M35.0578 25.4596L34.9728 25.4946L34.7903 25.7647L34.6102 25.6397L34.4276 25.332L34.2476 25.5696L34.065 25.4696L33.8825 25.6346L33.6999 25.3471L33.5173 25.5471L33.3373 25.6697L33.1547 25.3546L32.9722 25.6096L32.7896 25.4171L32.6095 25.6922L32.427 25.4971L32.2444 25.7247L32.0619 25.4196L31.8793 25.3871L31.6992 25.3821L31.5167 25.4771L31.3366 25.6847L31.1541 25.7747L30.9715 25.3471L30.7889 25.4796L30.6064 25.7122L30.4238 25.5171L30.2413 25.5396L30.0587 25.3546L29.8761 25.5896L29.6936 25.4096L29.511 25.3871L29.3285 25.3696L29.1459 25.3496L28.9608 25.4296L28.7783 25.5721L28.5932 25.8022L28.4407 25.5221L28.3807 25.3746L28.1706 25.1945L28.1831 25.0144L28.3957 24.8344L28.3506 24.6543L28.2506 24.4743L28.2806 24.2942L28.5657 24.1142L28.4157 23.9341L28.1806 23.7565V23.5765L28.4357 23.3989L28.2156 23.2189L28.4832 23.0363L28.2781 22.8562L28.4607 22.6762L28.4282 22.4961L28.3982 22.3161L28.5307 22.136L28.4207 21.9559L28.3482 21.7734L28.2231 21.5933L28.1631 21.4133L28.2156 21.2332L28.1856 21.0506L28.5132 20.8681L28.2606 20.688L28.3807 20.478L28.5907 20.7355L28.7733 20.6455L28.9533 20.498L29.1359 20.3679L29.316 20.5405L29.4985 20.728L29.6811 20.718L29.8636 20.3479L30.0462 20.528L30.2263 20.4354L30.4088 20.3154L30.5914 20.3904L30.7739 20.2979L30.954 20.5305L31.1366 20.473L31.3191 20.6155L31.5017 20.678L31.6842 20.4504L31.8643 20.643L32.0469 20.703L32.2269 20.5705L32.4095 20.468L32.592 20.2904L32.7746 20.603L32.9572 20.6605L33.1397 20.6255L33.3223 20.703L33.5048 20.593L33.6874 20.483L33.87 20.5655L34.0525 20.4955L34.2351 20.6255L34.4176 20.2754L34.6027 20.5005L34.7853 20.458L34.9703 20.6855L35.1304 20.5305L35.2604 20.6855L35.1529 20.8656L34.9578 21.0431L34.9478 21.2232L35.0053 21.4033L35.1404 21.5833L35.3955 21.7634L35.3755 21.9434L35.3354 22.1235L35.3404 22.3036L35.2429 22.4811L35.1004 22.6612L35.2579 22.8412L35.0128 23.0213L35.0879 23.2014L35.3004 23.3814L35.3679 23.5615L35.2729 23.744L35.1629 23.9241L35.0003 24.1041L35.1829 24.2867L35.0378 24.4668L35.2804 24.6468L34.9103 24.8269L35.2104 25.0094L35.3179 25.1895L35.1929 25.3871L35.0578 25.4596Z" fill="url(#paint5_linear_3214_14914)"/>
    <path d="M35.0578 25.4596L34.9728 25.4946L34.7903 25.7647L34.6102 25.6397L34.4276 25.332L34.2476 25.5696L34.065 25.4696L33.8825 25.6346L33.6999 25.3471L33.5173 25.5471L33.3373 25.6697L33.1547 25.3546L32.9722 25.6096L32.7896 25.4171L32.6095 25.6922L32.427 25.4971L32.2444 25.7247L32.0619 25.4196L31.8793 25.3871L31.6992 25.3821L31.5167 25.4771L31.3366 25.6847L31.1541 25.7747L30.9715 25.3471L30.7889 25.4796L30.6064 25.7122L30.4238 25.5171L30.2413 25.5396L30.0587 25.3546L29.8761 25.5896L29.6936 25.4096L29.511 25.3871L29.3285 25.3696L29.1459 25.3496L28.9608 25.4296L28.7783 25.5721L28.5932 25.8022L28.4407 25.5221L28.3807 25.3746L28.1706 25.1945L28.1831 25.0144L28.3957 24.8344L28.3506 24.6543L28.2506 24.4743L28.2806 24.2942L28.5657 24.1142L28.4157 23.9341L28.1806 23.7565V23.5765L28.4357 23.3989L28.2156 23.2189L28.4832 23.0363L28.2781 22.8562L28.4607 22.6762L28.4282 22.4961L28.3982 22.3161L28.5307 22.136L28.4207 21.9559L28.3482 21.7734L28.2231 21.5933L28.1631 21.4133L28.2156 21.2332L28.1856 21.0506L28.5132 20.8681L28.2606 20.688L28.3807 20.478L28.5907 20.7355L28.7733 20.6455L28.9533 20.498L29.1359 20.3679L29.316 20.5405L29.4985 20.728L29.6811 20.718L29.8636 20.3479L30.0462 20.528L30.2263 20.4354L30.4088 20.3154L30.5914 20.3904L30.7739 20.2979L30.954 20.5305L31.1366 20.473L31.3191 20.6155L31.5017 20.678L31.6842 20.4504L31.8643 20.643L32.0469 20.703L32.2269 20.5705L32.4095 20.468L32.592 20.2904L32.7746 20.603L32.9572 20.6605L33.1397 20.6255L33.3223 20.703L33.5048 20.593L33.6874 20.483L33.87 20.5655L34.0525 20.4955L34.2351 20.6255L34.4176 20.2754L34.6027 20.5005L34.7853 20.458L34.9703 20.6855L35.1304 20.5305L35.2604 20.6855L35.1529 20.8656L34.9578 21.0431L34.9478 21.2232L35.0053 21.4033L35.1404 21.5833L35.3955 21.7634L35.3755 21.9434L35.3354 22.1235L35.3404 22.3036L35.2429 22.4811L35.1004 22.6612L35.2579 22.8412L35.0128 23.0213L35.0879 23.2014L35.3004 23.3814L35.3679 23.5615L35.2729 23.744L35.1629 23.9241L35.0003 24.1041L35.1829 24.2867L35.0378 24.4668L35.2804 24.6468L34.9103 24.8269L35.2104 25.0094L35.3179 25.1895L35.1929 25.3871L35.0578 25.4596Z" fill="url(#paint6_linear_3214_14914)"/>
    <path d="M5.36619 40.9172L5.54812 40.751L5.67709 40.949L5.82908 41.0241L5.97186 41.147L6.17913 40.9513L6.31961 41.0833L6.43706 41.3291L6.60978 41.3018L6.79171 41.2381L6.98286 41.1197L7.08649 41.4338L7.25691 41.4202L7.43884 41.3473L7.58162 41.4657L7.72671 41.5795L7.95931 41.2495L8.06755 41.5499L8.27481 41.3519L8.39917 41.5658L8.53274 41.7297L8.74691 41.493L8.92885 41.4293L9.02557 41.782L9.17987 41.8435L9.40095 41.5704L9.52071 41.8116L9.72567 41.6227L9.88687 41.6614L10.0389 41.7342L10.2208 41.6569L10.3221 41.9914L10.481 42.0347L10.6768 41.8958L10.861 41.8093L11.0015 41.9436L11.1374 42.0938L11.3101 42.0688L11.4828 42.0438L11.6463 42.062L11.7799 42.2327L11.9365 42.285L12.1184 42.2167L12.2842 42.2236L12.427 42.3419L12.6182 42.3897L12.8047 42.3123L12.7633 41.9778L13.0949 42.1507L13.0626 41.8184L13.2607 41.8139L13.2906 41.5613L13.643 41.7843L13.7121 41.5909L13.7904 41.4088H13.9884L13.9999 41.1152L14.2648 41.2267L14.3062 40.9718L14.5227 41.0128L14.5872 40.7874L14.8083 40.8398L14.9511 40.751L15.2251 40.9172L15.1883 40.4825L15.46 40.6463L15.5821 40.5211L15.665 40.3095L15.7939 40.1843L16.0035 40.2389L16.2545 40.3937L16.3029 40.091L16.4871 40.0955L16.5815 39.8839L16.722 39.7837L16.9753 39.9772L17.1573 39.9886L17.3461 40.025L17.3991 39.6745L17.6202 39.8065L17.7422 39.6404L17.9518 39.7587L18.0508 39.5061L18.2604 39.6312L18.3709 39.4059L18.5229 39.3217L18.6749 39.2307L18.8822 39.3786L19.048 39.3468L19.2414 39.4606L19.3934 39.3741L19.55 39.3035L19.6652 38.9985L19.8356 38.9826L20.0498 39.2671L20.181 38.9917L20.363 39.0918L20.5196 38.9689L20.6946 39.0258L20.8627 39.0372L21.0308 39.0668L21.1851 38.9007L21.3694 39.1852L21.5352 39.1783L21.6849 38.8574L21.8576 38.9667L22.0257 39.0918L22.1915 39.0372L22.3573 39.1715L22.5231 39.0418L22.6866 39.1214L22.8571 38.9689L23.0206 39.0645L23.1864 39.06L23.3545 39.019L23.5272 38.9189L23.6769 39.2102L23.8496 39.1009L24.0131 39.1305L24.202 38.8938L24.3609 38.9985L24.5336 38.9644L24.6856 39.1146L24.8468 39.1578L25.0426 38.9735L25.2084 39.0008L25.3489 39.1965L25.5078 39.2512L25.715 39.0395L25.8025 39.4924L26.0121 39.283L26.1733 39.3285L26.3023 39.5197L26.5003 39.39L26.6661 39.415L26.7951 39.5926L26.9586 39.629L27.1521 39.5516L27.3409 39.4947L27.509 39.522L27.5781 39.8725L27.8038 39.7086L27.889 39.984L28.0364 40.066L28.2068 40.0728L28.3519 40.157L28.55 40.1069L28.7987 39.9408L28.8608 40.2184L29.105 40.0819L29.1257 40.4369L29.28 40.4938L29.4573 40.5098L29.5909 40.6054L29.7498 40.6623L29.9755 40.6008L29.9939 40.8921L30.3347 40.6668L30.3232 40.9832L30.4913 41.031L30.5835 41.1812L30.8091 41.163L30.9888 41.213L31.1431 41.2973L31.0348 41.65L31.2559 41.6614L31.2053 41.9277L31.5668 41.8367L31.4908 42.1029L31.7027 42.1553L31.7718 42.3101L31.8155 42.4716L32.0804 42.5285L31.8915 42.7926L32.0159 42.9177L32.1656 43.0452L31.9284 43.2682L32.1633 43.3843L32.032 43.5618L32.0274 43.7189L32.1794 43.8714L32.1702 44.0352L31.9952 44.1786L31.9883 44.3334L32.2623 44.5473L32.1518 44.6953L31.834 44.7658L32.1587 45.0526L32.0481 45.1937L31.8478 45.2825L31.9192 45.5169L31.8086 45.6512L31.5023 45.6216L31.3688 45.6967L31.4471 46.0859L31.2766 46.1792L31.0648 46.145L30.8874 46.1587L30.7101 46.1109L30.5328 45.9061L30.3808 46.0859L30.2219 46.0426L30.0676 45.9243L29.9041 45.9926L29.7521 45.9015L29.5725 46.0358L29.3836 46.1906L29.2316 46.0995L29.0635 46.1086L28.9023 46.0722L28.7733 45.8583L28.6006 45.8924L28.4164 46.0199L28.2483 46.0404L28.1147 45.8219L27.9558 45.7741L27.7716 45.9425L27.6034 45.9994L27.4445 45.9675L27.2948 45.7399L27.129 45.7832L26.9655 45.6694L26.7997 45.6512L26.6454 45.8788L26.4566 45.6034L26.3368 45.988L26.1388 45.765L26.0052 45.9425L25.7864 45.7331L25.6275 45.7945L25.4986 45.9425L25.3719 46.0745L25.2452 46.186L25.0149 46.0836L24.9896 46.384L24.6626 46.1519L24.5728 46.3271L24.4714 46.4773L24.3356 46.5707L24.1882 46.6549L23.951 46.6367L23.8819 46.8187L23.9279 47.1009L23.6493 47.0645L23.769 47.39L23.5295 47.4014L23.5549 47.6244L23.4858 47.7701L23.1726 47.7587L23.2071 47.9704L23.0943 48.0933L22.7834 48.1342L22.7603 48.3163L23.0091 48.5735L22.8709 48.7009L22.8801 48.8648L22.6314 49.0059L22.765 49.1812L22.9837 49.32L22.636 49.5453L22.6774 49.7229L22.7811 49.8753L22.864 50.0301L23.0828 50.0938L23.0874 50.2964L23.4466 50.2099L23.2739 50.59L23.6424 50.4443L23.5894 50.747L23.7898 50.763L23.9049 50.879L23.9855 51.0543L24.1306 51.134L24.4208 50.9701L24.5175 51.1203L24.5682 51.3729L24.8192 51.2341L24.9504 51.332L25.0748 51.4503L25.2383 51.4776L25.266 51.844L25.4594 51.8076L25.6598 51.7439L25.8647 51.6506L25.92 51.9988L26.1065 51.9669L26.2677 52.0011L26.4082 52.1126L26.6408 51.8759L26.7629 52.0603L26.8872 52.2446L27.0991 52.0603L27.2073 52.3402L27.3985 52.231L27.5712 52.1991L27.7439 52.1718L27.8614 52.4699L28.064 52.2401L28.2298 52.2287L28.3887 52.2901L28.5292 52.5177L28.7181 52.281L28.8793 52.3152L29.029 52.5359L29.1994 52.4586L29.3583 52.6247L29.5356 52.2583L29.6968 52.2833L29.8603 52.5041L30.0307 52.6224L30.1827 52.3106L30.3555 52.429L30.4982 52.2196L30.6756 52.3175L30.8345 52.2788L31.0348 52.454L31.2006 52.4244L31.3526 52.3334L31.4471 52.017L31.6336 52.0876L31.8731 52.347L31.9583 52.0261L32.1817 52.2059L32.2646 51.8941L32.4788 52.0307L32.6193 51.9192L32.7828 51.8827L32.9117 51.7485L33.0983 51.7849L33.3078 51.8782L33.469 51.8349L33.5819 51.6574L33.7661 51.6802L33.8813 51.5163L33.9573 51.25L34.1991 51.4253L34.3234 51.2864L34.5606 51.4344L34.5791 51.0293L34.761 51.0429L34.9084 50.9655L35.111 51.0202L35.2492 50.92L35.4196 50.8972L35.5809 50.854L35.7075 50.7243L35.7996 50.5149L36.0437 50.6628L36.1635 50.5217L36.3615 50.5581L36.5665 50.6128L36.5573 50.1849L36.8244 50.3783L36.9926 50.3487L37.0847 50.1439L37.2666 50.1416L37.4232 50.087L37.513 49.8822L37.6489 49.7752L37.8769 49.8753L38.0957 49.9482L38.2384 49.864L38.2891 49.5772L38.4941 49.6204L38.699 49.6614L38.8027 49.4884L39.0215 49.559L39.1642 49.4679L39.1919 49.1334L39.4774 49.3382L39.5995 49.1994L39.6525 48.9285L39.8505 48.9604L39.9426 48.7692L40.2052 48.9354L40.242 48.6372L40.3664 48.5166L40.6542 48.726L40.7418 48.5348L40.9467 48.578L41.0434 48.4028L41.0918 48.1274L41.3405 48.2571L41.4902 48.1843L41.7159 48.2685L41.7712 48.0045L42.0084 48.1115L42.1051 47.9339L42.2801 47.918L42.4436 47.8725L42.5979 47.8133L42.644 47.5357L42.8743 47.629L42.8628 47.233L43.0562 47.2512L43.2911 47.3581L43.3234 47.0509L43.4661 46.9667L43.777 47.2398L43.8116 46.9257L43.9198 46.7664L44.0971 46.7596L44.2353 46.664L44.4495 46.7436L44.5531 46.5615L44.8157 46.7618L44.8617 46.4341L45.0344 46.425L45.2555 46.5524L45.3638 46.3635L45.5918 46.5547L45.6816 46.2839L45.8727 46.3817L46.0293 46.3544L46.1583 46.1473L46.3149 46.0221L46.4968 46.2771L46.6534 46.2725L46.81 46.2953L46.9689 46.2862L47.1117 46.3635L47.2752 46.3499L47.4134 46.4318L47.6322 46.3112L47.6621 46.6389L47.8924 46.5342L48.0997 46.5046L48.1135 46.7914L48.3185 46.78L48.3277 47.0349L48.5487 47.0122L48.7721 47.0076L48.8021 47.217L48.8781 47.3695L48.9103 47.5561L49.1015 47.5994L49.2166 47.7132L49.4837 47.7155L49.3778 47.9954L49.6979 47.9772L49.6196 48.223L49.6634 48.3823L49.8223 48.4825L50.0986 48.528L49.8269 48.8375L50.1286 48.8853L50.1838 49.0423L50.1631 49.2244L50.0733 49.4247L50.299 49.5271L50.2253 49.7138L50.2207 49.8799L50.2322 50.0392L50.2806 50.1917L50.5201 50.3305L50.6191 50.4944L50.4372 50.6674L50.5201 50.8358L50.3566 50.9906L50.451 51.1658L50.3957 51.3251L50.299 51.4731L50.124 51.5982L50.3842 51.8372L50.0963 51.9214L50.0318 52.0671L50.1424 52.2833L50.1332 52.4586L49.7969 52.4904L49.8891 52.7135L49.9674 52.9388L49.7785 53.0275L49.7647 53.2096L49.6634 53.3462L49.6219 53.5169L49.3686 53.5487L49.3732 53.7513L49.2442 53.8651L49.037 53.9152L49.0784 54.1564L49.0508 54.3476L48.9149 54.4546L48.7929 54.5684L48.6386 54.6571L48.4774 54.7345L48.4612 54.9462L48.0513 54.78L47.9523 54.9098L48.0951 55.2899L47.8602 55.2853L47.5838 55.2284L47.4641 55.3399L47.5124 55.6381L47.4779 55.852L47.2384 55.827L46.962 55.7541L47.038 56.1046L46.9275 56.2321L46.7801 56.314L46.5221 56.248L46.5245 56.5234L46.2343 56.4096L46.308 56.7897L46.0961 56.7783L45.7898 56.6281L45.8612 57.0241L45.6516 57.0082L45.5503 57.1539L45.2624 57.0128L45.1588 57.1584L44.9976 57.2085L44.8548 57.2904L44.8801 57.6477L44.5462 57.4088L44.5347 57.716L44.4817 57.9573L44.1639 57.732L44.1893 58.1189L43.8415 57.8298L43.8254 58.1462L43.5513 57.9823L43.5675 58.3715L43.252 58.1166L43.1645 58.3101L43.024 58.3965L42.8098 58.3374L42.7407 58.5695L42.5818 58.6196L42.5357 58.92L42.287 58.7743L42.1949 58.9701L42.0636 59.0862L41.8195 58.9382L41.6952 59.0725L41.5201 59.0816L41.4234 59.2819L41.2553 59.3069L41.1125 59.398L40.8454 59.1704L40.8362 59.6073L40.6612 59.6187L40.4585 59.5504L40.272 59.5163L40.1107 59.5573L40.0532 59.9009L39.7768 59.6005L39.6732 59.8167L39.5534 59.9874L39.3416 59.8691L39.1527 59.819L39.0721 60.124L38.8879 60.0899L38.6806 59.9738L38.5125 59.9897L38.3559 60.0398L38.197 60.0899L38.0473 60.1718L37.9022 60.2697L37.7594 60.3835L37.5591 60.2628L37.3979 60.2992L37.2275 60.3015L37.0893 60.4472L36.912 60.4108L36.783 60.5997L36.5849 60.4563L36.4053 60.3971L36.304 60.759L36.1059 60.6042L35.9263 60.5428L35.7766 60.6452L35.6062 60.6293L35.4381 60.6201L35.3022 60.8364L35.1018 60.6156L34.9452 60.6816L34.8117 60.9502L34.662 61.1118L34.4501 60.7203L34.3188 61.0503L34.1254 60.7977L33.9596 60.8068L33.8214 61.1322L33.6556 61.1709L33.476 61.0162L33.3055 60.9524L33.1443 61.0298L32.9854 61.2392L32.8081 60.9593L32.6446 61.0389L32.4765 61.0275L32.313 61.2574L32.1449 61.2096L31.9767 60.9524L31.8109 61.1231L31.6428 61.1618L31.4747 61.114L31.3066 61.155L31.1477 60.9433L30.9703 61.1618L30.8068 61.1209L30.6572 60.8409L30.4798 60.9866L30.3278 60.8182L30.139 61.0617L29.9962 60.8227L29.8373 60.7385L29.6485 60.9547L29.5034 60.7704L29.3191 60.8933L29.1372 60.9957L29.0267 60.6133L28.7987 60.9911L28.6743 60.718L28.4855 60.8227L28.3174 60.8204L28.2022 60.5337L27.988 60.759L27.8591 60.561L27.6748 60.6247L27.4745 60.7476L27.3455 60.5678L27.2212 60.3835L27.0784 60.281L26.9218 60.2219L26.7076 60.3835L26.5188 60.4381L26.4105 60.215L26.2677 60.1126L26.0582 60.2355L25.9039 60.1786L25.8117 59.9214L25.5976 60.0421L25.4893 59.8463L25.3535 59.728L25.2015 59.6665L24.9343 59.9396L24.8491 59.6825L24.7202 59.5504L24.453 59.8122L24.2826 59.8008L24.2319 59.4571L24.0178 59.5618L23.9049 59.3957L23.7115 59.4412L23.5848 59.3137L23.4581 59.1795L23.3038 59.1226L23.1772 58.9928L23.0183 58.945L22.8294 58.986L22.7005 58.8563L22.4448 59.0748L22.3804 58.7743L22.2376 58.6856L22.0764 58.6514L21.83 58.8495L21.7839 58.4899L21.5582 58.6287L21.45 58.4421L21.321 58.3123L21.116 58.3943L21.0101 58.2031L20.8097 58.2714L20.6808 58.1416L20.5449 58.0278L20.3215 58.1803L20.0981 58.3305L19.9392 58.2896L19.8287 58.0984L19.7504 57.8025L19.5155 57.9937L19.3704 57.9072L19.2437 57.7593L19.0572 57.8048L18.843 57.9482L18.7141 57.8048L18.5966 57.6204L18.4124 57.666L18.2558 57.6091L18.0785 57.6318L17.9771 57.3724L17.8389 57.254L17.6685 57.2449L17.4428 57.4588L17.2747 57.4566L17.1412 57.3064L17.0099 57.147L16.8602 57.0537L16.6644 57.1675L16.4825 57.2176L16.3075 57.2381L16.1624 57.1288L16.0496 56.8716L15.817 57.1675L15.7018 56.9103L15.5498 56.8147L15.3702 56.8694L15.2044 56.8512L15.0317 56.8648L14.8889 56.7214L14.6954 56.8648L14.5227 56.8944L14.373 56.7852L14.198 56.8375L14.0253 56.8671L13.9216 56.462L13.6983 56.8261L13.544 56.7351L13.3689 56.7897L13.2123 56.7192L13.0626 56.5826L12.9129 56.4506L12.7264 56.594L12.5951 56.3095L12.427 56.3027L12.2313 56.5485L12.1046 56.1934L11.8996 56.5166L11.7707 56.1593L11.5795 56.3687L11.4114 56.3732L11.2663 56.157L11.1028 56.1092L10.9094 56.3641L10.7436 56.3254L10.5985 56.0591L10.4235 56.1001L10.2576 56.0864L10.0872 56.1137L9.91221 56.223L9.73948 56.2958L9.58519 56.1411L9.40556 56.3209L9.24205 56.2981L9.08314 56.1684L8.91503 56.1866L8.74461 56.2936L8.59031 56.05L8.4199 56.1342L8.25178 56.2116L8.09057 56.0933L7.92246 56.1388L7.76125 56.0455L7.59083 56.198L7.42963 56.0045L7.26382 56.0204L7.10031 55.9977L6.92989 56.1798L6.76868 56.0569L6.60057 56.2298L6.43936 55.9203L6.27355 56.223L6.10774 55.8588L5.94192 56.1911L5.77611 56.0091L5.6103 56.0386L5.44679 56.1638L5.27868 55.8406H5.11286L4.95396 56.1524L4.78354 55.8657L4.62924 56.2822L4.45883 56.0842L4.29301 56.0318L4.13872 56.2936L3.97521 56.3095L3.80018 55.9362L3.67582 56.0728L3.76794 55.9499L3.84624 55.7928L3.66661 55.6062L3.93375 55.4719L3.8877 55.3012L3.93145 55.1396L3.5791 54.9348L3.92685 54.8074L3.91073 54.6412L3.61364 54.4432L4.05351 54.3248L4.06733 54.161L4.0466 53.9948L4.02127 53.8264L3.71497 53.6261L3.9706 53.4896L4.06042 53.3325L4.16635 53.18L3.88079 52.982L3.91073 52.8204L3.97982 52.6634L4.01666 52.5018L4.03048 52.3379L3.90382 52.1581L4.13641 52.017L4.16405 51.8554L4.02357 51.6734L3.98212 51.5049L4.02127 51.3433L4.00284 51.1749L4.30914 51.0429L4.14793 50.8608L4.29993 50.7106L4.36901 50.5536L4.41737 50.3943L4.44041 50.2304L4.38743 50.0597L4.1249 49.864L4.46343 49.7365L4.2055 49.5431L4.23314 49.3815L4.41737 49.2358L4.59931 49.0901L4.45422 48.9081L4.37822 48.7351L4.44731 48.5758L4.56476 48.4233L4.31374 48.2298L4.60391 48.0978L4.70064 47.9431L4.58319 47.7633L4.61543 47.6017L4.45422 47.4196L4.5118 47.2603L4.66609 47.1101L4.52791 46.9303L4.749 46.7891L4.58549 46.6048L4.80657 46.4637L4.95626 46.3157L4.69373 46.12L4.95396 45.9835L5.02765 45.8264L4.83421 45.6398L4.92402 45.485L4.91711 45.3189L5.01153 45.1618L4.94475 44.9889L5.01384 44.8318L5.07602 44.6725L5.02075 44.5018L4.91251 44.3243L5.00232 44.1695L4.79736 43.9806L5.15201 43.8554L5.05759 43.6779L4.85493 43.4913L4.9885 43.3388L5.19347 43.1977L5.22341 43.0338L5.19116 42.8654L5.11517 42.6924L5.2188 42.5377L5.39152 42.392L5.16813 42.2008L5.3777 42.0597L5.38231 41.8936L5.20268 41.7092L5.2188 41.5453L5.10826 41.3678L5.52048 41.2472L5.53891 41.0833L5.36619 40.9172Z" fill="url(#paint7_linear_3214_14914)"/>
    <path d="M5.36619 40.9172L5.54812 40.751L5.67709 40.949L5.82908 41.0241L5.97186 41.147L6.17913 40.9513L6.31961 41.0833L6.43706 41.3291L6.60978 41.3018L6.79171 41.2381L6.98286 41.1197L7.08649 41.4338L7.25691 41.4202L7.43884 41.3473L7.58162 41.4657L7.72671 41.5795L7.95931 41.2495L8.06755 41.5499L8.27481 41.3519L8.39917 41.5658L8.53274 41.7297L8.74691 41.493L8.92885 41.4293L9.02557 41.782L9.17987 41.8435L9.40095 41.5704L9.52071 41.8116L9.72567 41.6227L9.88687 41.6614L10.0389 41.7342L10.2208 41.6569L10.3221 41.9914L10.481 42.0347L10.6768 41.8958L10.861 41.8093L11.0015 41.9436L11.1374 42.0938L11.3101 42.0688L11.4828 42.0438L11.6463 42.062L11.7799 42.2327L11.9365 42.285L12.1184 42.2167L12.2842 42.2236L12.427 42.3419L12.6182 42.3897L12.8047 42.3123L12.7633 41.9778L13.0949 42.1507L13.0626 41.8184L13.2607 41.8139L13.2906 41.5613L13.643 41.7843L13.7121 41.5909L13.7904 41.4088H13.9884L13.9999 41.1152L14.2648 41.2267L14.3062 40.9718L14.5227 41.0128L14.5872 40.7874L14.8083 40.8398L14.9511 40.751L15.2251 40.9172L15.1883 40.4825L15.46 40.6463L15.5821 40.5211L15.665 40.3095L15.7939 40.1843L16.0035 40.2389L16.2545 40.3937L16.3029 40.091L16.4871 40.0955L16.5815 39.8839L16.722 39.7837L16.9753 39.9772L17.1573 39.9886L17.3461 40.025L17.3991 39.6745L17.6202 39.8065L17.7422 39.6404L17.9518 39.7587L18.0508 39.5061L18.2604 39.6312L18.3709 39.4059L18.5229 39.3217L18.6749 39.2307L18.8822 39.3786L19.048 39.3468L19.2414 39.4606L19.3934 39.3741L19.55 39.3035L19.6652 38.9985L19.8356 38.9826L20.0498 39.2671L20.181 38.9917L20.363 39.0918L20.5196 38.9689L20.6946 39.0258L20.8627 39.0372L21.0308 39.0668L21.1851 38.9007L21.3694 39.1852L21.5352 39.1783L21.6849 38.8574L21.8576 38.9667L22.0257 39.0918L22.1915 39.0372L22.3573 39.1715L22.5231 39.0418L22.6866 39.1214L22.8571 38.9689L23.0206 39.0645L23.1864 39.06L23.3545 39.019L23.5272 38.9189L23.6769 39.2102L23.8496 39.1009L24.0131 39.1305L24.202 38.8938L24.3609 38.9985L24.5336 38.9644L24.6856 39.1146L24.8468 39.1578L25.0426 38.9735L25.2084 39.0008L25.3489 39.1965L25.5078 39.2512L25.715 39.0395L25.8025 39.4924L26.0121 39.283L26.1733 39.3285L26.3023 39.5197L26.5003 39.39L26.6661 39.415L26.7951 39.5926L26.9586 39.629L27.1521 39.5516L27.3409 39.4947L27.509 39.522L27.5781 39.8725L27.8038 39.7086L27.889 39.984L28.0364 40.066L28.2068 40.0728L28.3519 40.157L28.55 40.1069L28.7987 39.9408L28.8608 40.2184L29.105 40.0819L29.1257 40.4369L29.28 40.4938L29.4573 40.5098L29.5909 40.6054L29.7498 40.6623L29.9755 40.6008L29.9939 40.8921L30.3347 40.6668L30.3232 40.9832L30.4913 41.031L30.5835 41.1812L30.8091 41.163L30.9888 41.213L31.1431 41.2973L31.0348 41.65L31.2559 41.6614L31.2053 41.9277L31.5668 41.8367L31.4908 42.1029L31.7027 42.1553L31.7718 42.3101L31.8155 42.4716L32.0804 42.5285L31.8915 42.7926L32.0159 42.9177L32.1656 43.0452L31.9284 43.2682L32.1633 43.3843L32.032 43.5618L32.0274 43.7189L32.1794 43.8714L32.1702 44.0352L31.9952 44.1786L31.9883 44.3334L32.2623 44.5473L32.1518 44.6953L31.834 44.7658L32.1587 45.0526L32.0481 45.1937L31.8478 45.2825L31.9192 45.5169L31.8086 45.6512L31.5023 45.6216L31.3688 45.6967L31.4471 46.0859L31.2766 46.1792L31.0648 46.145L30.8874 46.1587L30.7101 46.1109L30.5328 45.9061L30.3808 46.0859L30.2219 46.0426L30.0676 45.9243L29.9041 45.9926L29.7521 45.9015L29.5725 46.0358L29.3836 46.1906L29.2316 46.0995L29.0635 46.1086L28.9023 46.0722L28.7733 45.8583L28.6006 45.8924L28.4164 46.0199L28.2483 46.0404L28.1147 45.8219L27.9558 45.7741L27.7716 45.9425L27.6034 45.9994L27.4445 45.9675L27.2948 45.7399L27.129 45.7832L26.9655 45.6694L26.7997 45.6512L26.6454 45.8788L26.4566 45.6034L26.3368 45.988L26.1388 45.765L26.0052 45.9425L25.7864 45.7331L25.6275 45.7945L25.4986 45.9425L25.3719 46.0745L25.2452 46.186L25.0149 46.0836L24.9896 46.384L24.6626 46.1519L24.5728 46.3271L24.4714 46.4773L24.3356 46.5707L24.1882 46.6549L23.951 46.6367L23.8819 46.8187L23.9279 47.1009L23.6493 47.0645L23.769 47.39L23.5295 47.4014L23.5549 47.6244L23.4858 47.7701L23.1726 47.7587L23.2071 47.9704L23.0943 48.0933L22.7834 48.1342L22.7603 48.3163L23.0091 48.5735L22.8709 48.7009L22.8801 48.8648L22.6314 49.0059L22.765 49.1812L22.9837 49.32L22.636 49.5453L22.6774 49.7229L22.7811 49.8753L22.864 50.0301L23.0828 50.0938L23.0874 50.2964L23.4466 50.2099L23.2739 50.59L23.6424 50.4443L23.5894 50.747L23.7898 50.763L23.9049 50.879L23.9855 51.0543L24.1306 51.134L24.4208 50.9701L24.5175 51.1203L24.5682 51.3729L24.8192 51.2341L24.9504 51.332L25.0748 51.4503L25.2383 51.4776L25.266 51.844L25.4594 51.8076L25.6598 51.7439L25.8647 51.6506L25.92 51.9988L26.1065 51.9669L26.2677 52.0011L26.4082 52.1126L26.6408 51.8759L26.7629 52.0603L26.8872 52.2446L27.0991 52.0603L27.2073 52.3402L27.3985 52.231L27.5712 52.1991L27.7439 52.1718L27.8614 52.4699L28.064 52.2401L28.2298 52.2287L28.3887 52.2901L28.5292 52.5177L28.7181 52.281L28.8793 52.3152L29.029 52.5359L29.1994 52.4586L29.3583 52.6247L29.5356 52.2583L29.6968 52.2833L29.8603 52.5041L30.0307 52.6224L30.1827 52.3106L30.3555 52.429L30.4982 52.2196L30.6756 52.3175L30.8345 52.2788L31.0348 52.454L31.2006 52.4244L31.3526 52.3334L31.4471 52.017L31.6336 52.0876L31.8731 52.347L31.9583 52.0261L32.1817 52.2059L32.2646 51.8941L32.4788 52.0307L32.6193 51.9192L32.7828 51.8827L32.9117 51.7485L33.0983 51.7849L33.3078 51.8782L33.469 51.8349L33.5819 51.6574L33.7661 51.6802L33.8813 51.5163L33.9573 51.25L34.1991 51.4253L34.3234 51.2864L34.5606 51.4344L34.5791 51.0293L34.761 51.0429L34.9084 50.9655L35.111 51.0202L35.2492 50.92L35.4196 50.8972L35.5809 50.854L35.7075 50.7243L35.7996 50.5149L36.0437 50.6628L36.1635 50.5217L36.3615 50.5581L36.5665 50.6128L36.5573 50.1849L36.8244 50.3783L36.9926 50.3487L37.0847 50.1439L37.2666 50.1416L37.4232 50.087L37.513 49.8822L37.6489 49.7752L37.8769 49.8753L38.0957 49.9482L38.2384 49.864L38.2891 49.5772L38.4941 49.6204L38.699 49.6614L38.8027 49.4884L39.0215 49.559L39.1642 49.4679L39.1919 49.1334L39.4774 49.3382L39.5995 49.1994L39.6525 48.9285L39.8505 48.9604L39.9426 48.7692L40.2052 48.9354L40.242 48.6372L40.3664 48.5166L40.6542 48.726L40.7418 48.5348L40.9467 48.578L41.0434 48.4028L41.0918 48.1274L41.3405 48.2571L41.4902 48.1843L41.7159 48.2685L41.7712 48.0045L42.0084 48.1115L42.1051 47.9339L42.2801 47.918L42.4436 47.8725L42.5979 47.8133L42.644 47.5357L42.8743 47.629L42.8628 47.233L43.0562 47.2512L43.2911 47.3581L43.3234 47.0509L43.4661 46.9667L43.777 47.2398L43.8116 46.9257L43.9198 46.7664L44.0971 46.7596L44.2353 46.664L44.4495 46.7436L44.5531 46.5615L44.8157 46.7618L44.8617 46.4341L45.0344 46.425L45.2555 46.5524L45.3638 46.3635L45.5918 46.5547L45.6816 46.2839L45.8727 46.3817L46.0293 46.3544L46.1583 46.1473L46.3149 46.0221L46.4968 46.2771L46.6534 46.2725L46.81 46.2953L46.9689 46.2862L47.1117 46.3635L47.2752 46.3499L47.4134 46.4318L47.6322 46.3112L47.6621 46.6389L47.8924 46.5342L48.0997 46.5046L48.1135 46.7914L48.3185 46.78L48.3277 47.0349L48.5487 47.0122L48.7721 47.0076L48.8021 47.217L48.8781 47.3695L48.9103 47.5561L49.1015 47.5994L49.2166 47.7132L49.4837 47.7155L49.3778 47.9954L49.6979 47.9772L49.6196 48.223L49.6634 48.3823L49.8223 48.4825L50.0986 48.528L49.8269 48.8375L50.1286 48.8853L50.1838 49.0423L50.1631 49.2244L50.0733 49.4247L50.299 49.5271L50.2253 49.7138L50.2207 49.8799L50.2322 50.0392L50.2806 50.1917L50.5201 50.3305L50.6191 50.4944L50.4372 50.6674L50.5201 50.8358L50.3566 50.9906L50.451 51.1658L50.3957 51.3251L50.299 51.4731L50.124 51.5982L50.3842 51.8372L50.0963 51.9214L50.0318 52.0671L50.1424 52.2833L50.1332 52.4586L49.7969 52.4904L49.8891 52.7135L49.9674 52.9388L49.7785 53.0275L49.7647 53.2096L49.6634 53.3462L49.6219 53.5169L49.3686 53.5487L49.3732 53.7513L49.2442 53.8651L49.037 53.9152L49.0784 54.1564L49.0508 54.3476L48.9149 54.4546L48.7929 54.5684L48.6386 54.6571L48.4774 54.7345L48.4612 54.9462L48.0513 54.78L47.9523 54.9098L48.0951 55.2899L47.8602 55.2853L47.5838 55.2284L47.4641 55.3399L47.5124 55.6381L47.4779 55.852L47.2384 55.827L46.962 55.7541L47.038 56.1046L46.9275 56.2321L46.7801 56.314L46.5221 56.248L46.5245 56.5234L46.2343 56.4096L46.308 56.7897L46.0961 56.7783L45.7898 56.6281L45.8612 57.0241L45.6516 57.0082L45.5503 57.1539L45.2624 57.0128L45.1588 57.1584L44.9976 57.2085L44.8548 57.2904L44.8801 57.6477L44.5462 57.4088L44.5347 57.716L44.4817 57.9573L44.1639 57.732L44.1893 58.1189L43.8415 57.8298L43.8254 58.1462L43.5513 57.9823L43.5675 58.3715L43.252 58.1166L43.1645 58.3101L43.024 58.3965L42.8098 58.3374L42.7407 58.5695L42.5818 58.6196L42.5357 58.92L42.287 58.7743L42.1949 58.9701L42.0636 59.0862L41.8195 58.9382L41.6952 59.0725L41.5201 59.0816L41.4234 59.2819L41.2553 59.3069L41.1125 59.398L40.8454 59.1704L40.8362 59.6073L40.6612 59.6187L40.4585 59.5504L40.272 59.5163L40.1107 59.5573L40.0532 59.9009L39.7768 59.6005L39.6732 59.8167L39.5534 59.9874L39.3416 59.8691L39.1527 59.819L39.0721 60.124L38.8879 60.0899L38.6806 59.9738L38.5125 59.9897L38.3559 60.0398L38.197 60.0899L38.0473 60.1718L37.9022 60.2697L37.7594 60.3835L37.5591 60.2628L37.3979 60.2992L37.2275 60.3015L37.0893 60.4472L36.912 60.4108L36.783 60.5997L36.5849 60.4563L36.4053 60.3971L36.304 60.759L36.1059 60.6042L35.9263 60.5428L35.7766 60.6452L35.6062 60.6293L35.4381 60.6201L35.3022 60.8364L35.1018 60.6156L34.9452 60.6816L34.8117 60.9502L34.662 61.1118L34.4501 60.7203L34.3188 61.0503L34.1254 60.7977L33.9596 60.8068L33.8214 61.1322L33.6556 61.1709L33.476 61.0162L33.3055 60.9524L33.1443 61.0298L32.9854 61.2392L32.8081 60.9593L32.6446 61.0389L32.4765 61.0275L32.313 61.2574L32.1449 61.2096L31.9767 60.9524L31.8109 61.1231L31.6428 61.1618L31.4747 61.114L31.3066 61.155L31.1477 60.9433L30.9703 61.1618L30.8068 61.1209L30.6572 60.8409L30.4798 60.9866L30.3278 60.8182L30.139 61.0617L29.9962 60.8227L29.8373 60.7385L29.6485 60.9547L29.5034 60.7704L29.3191 60.8933L29.1372 60.9957L29.0267 60.6133L28.7987 60.9911L28.6743 60.718L28.4855 60.8227L28.3174 60.8204L28.2022 60.5337L27.988 60.759L27.8591 60.561L27.6748 60.6247L27.4745 60.7476L27.3455 60.5678L27.2212 60.3835L27.0784 60.281L26.9218 60.2219L26.7076 60.3835L26.5188 60.4381L26.4105 60.215L26.2677 60.1126L26.0582 60.2355L25.9039 60.1786L25.8117 59.9214L25.5976 60.0421L25.4893 59.8463L25.3535 59.728L25.2015 59.6665L24.9343 59.9396L24.8491 59.6825L24.7202 59.5504L24.453 59.8122L24.2826 59.8008L24.2319 59.4571L24.0178 59.5618L23.9049 59.3957L23.7115 59.4412L23.5848 59.3137L23.4581 59.1795L23.3038 59.1226L23.1772 58.9928L23.0183 58.945L22.8294 58.986L22.7005 58.8563L22.4448 59.0748L22.3804 58.7743L22.2376 58.6856L22.0764 58.6514L21.83 58.8495L21.7839 58.4899L21.5582 58.6287L21.45 58.4421L21.321 58.3123L21.116 58.3943L21.0101 58.2031L20.8097 58.2714L20.6808 58.1416L20.5449 58.0278L20.3215 58.1803L20.0981 58.3305L19.9392 58.2896L19.8287 58.0984L19.7504 57.8025L19.5155 57.9937L19.3704 57.9072L19.2437 57.7593L19.0572 57.8048L18.843 57.9482L18.7141 57.8048L18.5966 57.6204L18.4124 57.666L18.2558 57.6091L18.0785 57.6318L17.9771 57.3724L17.8389 57.254L17.6685 57.2449L17.4428 57.4588L17.2747 57.4566L17.1412 57.3064L17.0099 57.147L16.8602 57.0537L16.6644 57.1675L16.4825 57.2176L16.3075 57.2381L16.1624 57.1288L16.0496 56.8716L15.817 57.1675L15.7018 56.9103L15.5498 56.8147L15.3702 56.8694L15.2044 56.8512L15.0317 56.8648L14.8889 56.7214L14.6954 56.8648L14.5227 56.8944L14.373 56.7852L14.198 56.8375L14.0253 56.8671L13.9216 56.462L13.6983 56.8261L13.544 56.7351L13.3689 56.7897L13.2123 56.7192L13.0626 56.5826L12.9129 56.4506L12.7264 56.594L12.5951 56.3095L12.427 56.3027L12.2313 56.5485L12.1046 56.1934L11.8996 56.5166L11.7707 56.1593L11.5795 56.3687L11.4114 56.3732L11.2663 56.157L11.1028 56.1092L10.9094 56.3641L10.7436 56.3254L10.5985 56.0591L10.4235 56.1001L10.2576 56.0864L10.0872 56.1137L9.91221 56.223L9.73948 56.2958L9.58519 56.1411L9.40556 56.3209L9.24205 56.2981L9.08314 56.1684L8.91503 56.1866L8.74461 56.2936L8.59031 56.05L8.4199 56.1342L8.25178 56.2116L8.09057 56.0933L7.92246 56.1388L7.76125 56.0455L7.59083 56.198L7.42963 56.0045L7.26382 56.0204L7.10031 55.9977L6.92989 56.1798L6.76868 56.0569L6.60057 56.2298L6.43936 55.9203L6.27355 56.223L6.10774 55.8588L5.94192 56.1911L5.77611 56.0091L5.6103 56.0386L5.44679 56.1638L5.27868 55.8406H5.11286L4.95396 56.1524L4.78354 55.8657L4.62924 56.2822L4.45883 56.0842L4.29301 56.0318L4.13872 56.2936L3.97521 56.3095L3.80018 55.9362L3.67582 56.0728L3.76794 55.9499L3.84624 55.7928L3.66661 55.6062L3.93375 55.4719L3.8877 55.3012L3.93145 55.1396L3.5791 54.9348L3.92685 54.8074L3.91073 54.6412L3.61364 54.4432L4.05351 54.3248L4.06733 54.161L4.0466 53.9948L4.02127 53.8264L3.71497 53.6261L3.9706 53.4896L4.06042 53.3325L4.16635 53.18L3.88079 52.982L3.91073 52.8204L3.97982 52.6634L4.01666 52.5018L4.03048 52.3379L3.90382 52.1581L4.13641 52.017L4.16405 51.8554L4.02357 51.6734L3.98212 51.5049L4.02127 51.3433L4.00284 51.1749L4.30914 51.0429L4.14793 50.8608L4.29993 50.7106L4.36901 50.5536L4.41737 50.3943L4.44041 50.2304L4.38743 50.0597L4.1249 49.864L4.46343 49.7365L4.2055 49.5431L4.23314 49.3815L4.41737 49.2358L4.59931 49.0901L4.45422 48.9081L4.37822 48.7351L4.44731 48.5758L4.56476 48.4233L4.31374 48.2298L4.60391 48.0978L4.70064 47.9431L4.58319 47.7633L4.61543 47.6017L4.45422 47.4196L4.5118 47.2603L4.66609 47.1101L4.52791 46.9303L4.749 46.7891L4.58549 46.6048L4.80657 46.4637L4.95626 46.3157L4.69373 46.12L4.95396 45.9835L5.02765 45.8264L4.83421 45.6398L4.92402 45.485L4.91711 45.3189L5.01153 45.1618L4.94475 44.9889L5.01384 44.8318L5.07602 44.6725L5.02075 44.5018L4.91251 44.3243L5.00232 44.1695L4.79736 43.9806L5.15201 43.8554L5.05759 43.6779L4.85493 43.4913L4.9885 43.3388L5.19347 43.1977L5.22341 43.0338L5.19116 42.8654L5.11517 42.6924L5.2188 42.5377L5.39152 42.392L5.16813 42.2008L5.3777 42.0597L5.38231 41.8936L5.20268 41.7092L5.2188 41.5453L5.10826 41.3678L5.52048 41.2472L5.53891 41.0833L5.36619 40.9172Z" fill="url(#paint8_linear_3214_14914)"/>
  </g>
  <rect x="2.32" y="2.32" width="59.36" height="59.36" rx="29.68" stroke="#E2F3FF" stroke-width="3.36"/>
  <defs>
    <linearGradient id="paint0_linear_3214_14914" x1="31.7319" y1="41.1543" x2="31.7319" y2="53.0407" gradientUnits="userSpaceOnUse">
      <stop stop-color="#FFC0CF"/>
      <stop offset="1" stop-color="#E2F3FF"/>
    </linearGradient>
    <linearGradient id="paint1_linear_3214_14914" x1="24.0444" y1="16.8828" x2="24.0444" y2="25.8007" gradientUnits="userSpaceOnUse">
      <stop stop-color="#88F3FE"/>
      <stop offset="1" stop-color="#0087FF"/>
    </linearGradient>
    <linearGradient id="paint2_linear_3214_14914" x1="24.0444" y1="16.8828" x2="24.0444" y2="25.8007" gradientUnits="userSpaceOnUse">
      <stop stop-color="#FF98B0"/>
      <stop offset="1" stop-color="#FF5378"/>
    </linearGradient>
    <linearGradient id="paint3_linear_3214_14914" x1="39.5374" y1="16.957" x2="39.5374" y2="25.7974" gradientUnits="userSpaceOnUse">
      <stop stop-color="#88F3FE"/>
      <stop offset="1" stop-color="#0087FF"/>
    </linearGradient>
    <linearGradient id="paint4_linear_3214_14914" x1="39.5374" y1="16.957" x2="39.5374" y2="25.7974" gradientUnits="userSpaceOnUse">
      <stop stop-color="#FF98B0"/>
      <stop offset="1" stop-color="#FF5378"/>
    </linearGradient>
    <linearGradient id="paint5_linear_3214_14914" x1="31.7793" y1="20.2754" x2="31.7793" y2="25.8022" gradientUnits="userSpaceOnUse">
      <stop stop-color="#88F3FE"/>
      <stop offset="1" stop-color="#0087FF"/>
    </linearGradient>
    <linearGradient id="paint6_linear_3214_14914" x1="31.7793" y1="20.2754" x2="31.7793" y2="25.8022" gradientUnits="userSpaceOnUse">
      <stop stop-color="#FF98B0"/>
      <stop offset="1" stop-color="#FF5378"/>
    </linearGradient>
    <linearGradient id="paint7_linear_3214_14914" x1="29.5324" y1="55.1158" x2="43.3199" y2="41.1649" gradientUnits="userSpaceOnUse">
      <stop stop-color="#FFE6EC"/>
      <stop offset="1" stop-color="#FF98B0"/>
    </linearGradient>
    <linearGradient id="paint8_linear_3214_14914" x1="16.7413" y1="61.2772" x2="28.5426" y2="37.1818" gradientUnits="userSpaceOnUse">
      <stop offset="0.164133" stop-color="#88F3FE"/>
      <stop offset="1" stop-color="#50B7FF"/>
    </linearGradient>
    <clipPath id="clip0_3214_14914">
      <rect x="4" y="4" width="56" height="56" rx="28" fill="white"/>
    </clipPath>
  </defs>
</svg>