<svg width="62" height="62" viewBox="0 0 62 62" fill="none" xmlns="http://www.w3.org/2000/svg">
<path d="M31.0835 9.44799L30.9043 9.52959L30.73 9.61598L30.5484 9.43359L30.3716 9.46239L30.1949 9.51999L30.023 9.61838L29.8438 9.56559L29.6597 9.45519L29.4854 9.49359L29.3111 9.55118L29.1319 9.56318L28.9527 9.52719L28.776 9.55359L28.614 9.72158L28.4323 9.69758L28.2506 9.63518L28.0665 9.57519L27.8947 9.64718L27.7326 9.78877L27.5338 9.62798L27.3718 9.76478L27.1975 9.79357L27.0256 9.84397H26.8489L26.6501 9.72158L26.4733 9.74078L26.3064 9.81997L26.1345 9.87037L25.9602 9.90637L25.7982 9.99276L25.6239 10.0312L25.4275 9.94477L25.2753 10.0936L25.0937 10.0864L24.939 10.2087L24.7647 10.2399L24.5561 10.1224L24.3867 10.1704L24.205 10.1776L24.0774 10.4007L23.8859 10.3647H23.7042L23.525 10.3791L23.3581 10.4439L23.2206 10.6095H23.0365L22.8843 10.7151L22.6879 10.6719L22.5112 10.7007L22.3344 10.7319L22.2141 10.9359L21.9981 10.8399L21.8164 10.8591L21.6912 11.0391L21.4752 10.9575L21.3205 11.0535L21.1561 11.1159L20.9744 11.1375L20.859 11.3295L20.7044 11.4207L20.5374 11.4759L20.3263 11.4255L20.2159 11.6223L20.0096 11.5815H19.8157L19.6832 11.7207L19.4892 11.7159L19.3665 11.8719H19.1701L19.0203 11.9679L18.9001 12.1238L18.6816 12.0806L18.6177 12.347L18.4557 12.4166L18.198 12.3014L18.0801 12.455L17.9328 12.5558L17.7389 12.5678L17.599 12.6782L17.4345 12.7454L17.2627 12.8006L17.1645 12.9854L16.9484 12.9662L16.8797 13.1942L16.6637 13.1774L16.5508 13.331L16.4256 13.4606L16.2684 13.5422L16.0745 13.5638L15.9886 13.7558L15.8143 13.8109L15.6866 13.9333L15.4633 13.9189L15.3847 14.1157L15.1613 14.1037L15.0337 14.2285L14.8986 14.3389L14.7341 14.4157L14.6875 14.6461L14.5132 14.7061L14.3119 14.7325L14.1965 14.8693L14.1253 15.0613L13.8946 15.0541L13.7743 15.1861L13.7178 15.3901L13.4552 15.3517L13.4208 15.5821L13.2637 15.6684L13.1655 15.822L12.8856 15.7692L12.8513 15.9924L12.7408 16.1316L12.5469 16.1796L12.4978 16.3836L12.3456 16.4748L12.2597 16.638L12.0682 16.6932L11.8669 16.7388L11.803 16.9236L11.6877 17.0556L11.4741 17.094L11.4152 17.2788L11.3538 17.4587L11.2311 17.5835L11.0911 17.6915L10.9954 17.8403L10.7794 17.8835L10.772 18.1067L10.6345 18.2195L10.4701 18.3107L10.3547 18.4427L10.3056 18.6275L10.2221 18.7811L10.1362 18.9323L9.99873 19.0475L9.81215 19.1267L9.64768 19.2226V19.4362L9.62068 19.6306L9.47338 19.7386L9.31137 19.8394L9.12725 19.9258L9.02414 20.0674L8.95295 20.2306L8.94314 20.4298L8.84248 20.5714L8.72465 20.7034L8.57981 20.821L8.50862 20.9818L8.51599 21.1857L8.38096 21.3081L8.26805 21.4449L8.13058 21.5697L8.16004 21.7809L8.14531 21.9681L8.05692 22.1169L7.88999 22.2273L7.82126 22.3857L7.75498 22.5489L7.71571 22.7193L7.66169 22.8848L7.40148 22.9616L7.37448 23.1392L7.30329 23.2976L7.3131 23.4896L7.29346 23.6672L7.09953 23.7776L7.12899 23.9744L7.09953 24.1472L6.88105 24.2552L6.90559 24.4472L6.76322 24.5816L6.88596 24.8047L6.82949 24.9655L6.72147 25.1143L6.71658 25.2919L6.51036 25.4143L6.49563 25.5919L6.48582 25.7671L6.5791 25.9687L6.46863 26.1199L6.35325 26.2711L6.31889 26.4415L6.43917 26.643L6.30906 26.7918L6.1495 26.9382L6.13232 27.111L6.25997 27.3078L6.23542 27.4782L6.08076 27.6294L6.00466 27.795L6.10286 27.9822L5.99976 28.143L6.00466 28.3181L5.97766 28.4909L6.10286 28.6733L5.96047 28.8365L6.06849 29.0165L6.09059 29.1893L5.96047 29.3573L5.90402 29.5277L6.06603 29.7053L5.9973 29.8757L6.03657 30.0484L5.90156 30.2212L6.02676 30.394L6.03657 30.5668L5.91629 30.7444L5.96785 30.9148L5.99976 31.0876L5.86719 31.27L5.90892 31.4428L5.89175 31.618L5.89419 31.7956L5.98012 31.9611L5.9482 32.1411L6.13477 32.2947L5.97766 32.4891L6.23296 32.6307L6.05867 32.8323L6.04639 33.0099L6.21823 33.1587L6.24279 33.3315L6.33607 33.4899L6.39745 33.6554L6.3287 33.845L6.42936 34.001L6.44899 34.1738L6.39745 34.3658L6.58646 34.4978L6.47355 34.7066L6.46126 34.889L6.52509 35.0546L6.72393 35.1794L6.78776 35.3402L6.82705 35.5105L6.92278 35.6617L6.80249 35.8825L6.92278 36.0265L7.00133 36.1849L7.10935 36.3313L7.12162 36.5113L7.14863 36.6889L7.14372 36.8761L7.28611 37.0081L7.31065 37.1857L7.40885 37.3344L7.60769 37.44L7.69606 37.5912L7.73289 37.764L7.73779 37.9536L7.72061 38.1552L7.83845 38.2944L8.01519 38.4L8.14531 38.5296L8.21404 38.6904L8.15512 38.9184L8.33678 39.0192L8.51354 39.12L8.55035 39.2975L8.67555 39.4271L8.57491 39.6887L8.83512 39.7367L8.89649 39.9023L8.92349 40.0919L9.02414 40.2359L9.17144 40.3487L9.15425 40.5695L9.4022 40.6151L9.53967 40.7327L9.50284 40.9702L9.59121 41.1214L9.68941 41.2678L9.80724 41.3998L9.89563 41.5534L10.0945 41.623L10.2442 41.7286L10.3031 41.9062L10.502 41.9686L10.4553 42.235L10.6002 42.343L10.7131 42.4774L10.9021 42.547L10.9684 42.7221L11.1721 42.7749L11.2777 42.9141L11.3293 43.1085L11.4299 43.2525L11.6582 43.2789L11.6999 43.4829L11.8472 43.5861L11.9233 43.7565L12.0485 43.8837L12.2228 43.9581L12.4904 44.0301L12.2867 44.2101L12.1688 44.3613L12.2646 44.5652L12.1173 44.7044L12.0534 44.8676L12.0682 45.05L12.0608 45.2276L12.0976 45.4172L12.0068 45.5708L11.8153 45.7004L11.916 45.9068L11.749 46.0412L11.8178 46.2379L11.7687 46.4059L11.7245 46.5715L11.587 46.7155L11.668 46.9171L11.5698 47.0683L11.3784 47.1979L11.4569 47.3971L11.5011 47.5891L11.3612 47.7307L11.2753 47.8891L11.344 48.0859L11.1476 48.213L11.2311 48.4146L11.0543 48.5466L11.1108 48.741L11.128 48.9234L10.8972 49.0434L10.9561 49.2378L10.9758 49.4226L10.8997 49.581L10.7794 49.7298L10.7254 49.893L10.6174 50.0441L10.7254 50.2529L10.5118 50.3753L10.4455 50.5361L10.4038 50.7041L10.4578 50.8985L10.3768 51.0545L10.34 51.2249L10.2663 51.3857L10.3768 51.5921L10.2319 51.7337L10.1485 51.8896L10.1657 52.0744L10.0454 52.2232L10.0503 52.4008L10.2123 52.4608H10.2933L10.529 52.5664L10.5854 52.3192L10.7573 52.2664L10.9512 52.252L11.042 52.06L11.2924 52.1416L11.3538 51.8992L11.5281 51.8512L11.7098 51.8104L11.8006 51.6281L11.9872 51.5993L12.1786 51.5801L12.2547 51.3689L12.4708 51.3929L12.5444 51.1745L12.7261 51.1385L12.9176 51.1169L13.0992 51.0809L13.2465 50.9825L13.3692 50.8481L13.4797 50.6921L13.6246 50.5961L13.8013 50.5505L13.9903 50.5241L14.1671 50.4809L14.2898 50.3441L14.4052 50.1929L14.6212 50.2145L14.7366 50.0657L14.933 50.0513L15.0778 49.9529L15.2423 49.8833L15.3111 49.6554L15.5124 49.6506L15.6081 49.4658L15.7284 49.3242L15.969 49.3818L16.131 49.3074L16.3077 49.2594L16.4501 49.1538L16.5483 48.9714L16.7422 48.9522L16.8822 48.8418L17.0295 48.7458L17.2062 48.6978L17.3265 48.5538L17.4836 48.4746L17.6309 48.3762L17.788 48.2946L17.95 48.225L18.0973 48.1339L18.2372 47.9659L18.4238 48.0547L18.5858 48.1242L18.6619 48.3642L18.9246 48.2274L19.04 48.3978L19.1554 48.5658L19.3517 48.561L19.4819 48.705L19.6561 48.7506L19.8525 48.7386L20.0219 48.7962L20.1864 48.8586L20.3705 48.8754L20.5374 48.9306L20.6258 49.1874L20.8639 49.0626L20.9965 49.209L21.1242 49.3722L21.3672 49.2258L21.4875 49.4106L21.6912 49.3674L21.868 49.3938L21.9981 49.5618L22.1675 49.6146L22.305 49.761L22.5283 49.6434L22.71 49.653L22.8377 49.8354L23.0316 49.8066L23.1666 49.9769H23.3507L23.5299 49.9985L23.6797 50.1185L23.8712 50.0945L24.0725 50.0129L24.2492 50.0393L24.394 50.1953L24.5413 50.3369L24.7574 50.1905L24.912 50.3105L25.0667 50.4377L25.268 50.3441L25.43 50.4305L25.6141 50.4161L25.7933 50.4281L25.9431 50.5937L26.1223 50.5913L26.3088 50.5553L26.4929 50.5289L26.6721 50.5193L26.8194 50.7377L27.0109 50.6513L27.1778 50.7497L27.3693 50.6441L27.5338 50.7497L27.7277 50.6369L27.8996 50.6753L28.0714 50.7377L28.2334 50.8961L28.4127 50.9057L28.5992 50.8001L28.7662 50.9609L28.9576 50.7785L29.127 50.8985L29.3111 50.7665L29.483 50.8625L29.6597 50.9225L29.834 50.9897L30.0132 50.9873L30.1949 50.8409L30.3692 51.0113L30.5484 50.8697L30.7276 50.8241L30.9043 50.8529L31.0835 51.0305L31.2603 50.8241L31.437 50.9633L31.6138 50.8385L31.793 50.9249L31.9697 50.9561L32.1489 51.0161L32.3257 50.9393L32.5049 51.0113L32.6816 50.9801L32.8584 50.9489L33.0376 50.9513L33.2119 50.8937L33.3862 50.8649L33.5728 50.9441L33.7299 50.7113L33.914 50.7833L34.103 50.9033L34.2798 50.8841L34.4541 50.8313L34.6333 50.8241L34.8026 50.7617L34.9868 50.7881L35.1513 50.6945L35.328 50.6777L35.4974 50.6129L35.657 50.4785L35.8484 50.5649L36.0055 50.4209L36.2167 50.6057L36.3836 50.5313L36.5407 50.4041L36.7395 50.4977L36.8795 50.2985L37.0906 50.4449L37.2452 50.3249L37.4367 50.3705L37.5987 50.2817L37.7362 50.0945L37.9179 50.0873L38.1314 50.2217L38.2665 50.0249L38.4776 50.1353L38.5979 49.9002L38.7918 49.9433L38.944 49.833L39.1527 49.9193L39.2754 49.7058L39.462 49.713L39.6657 49.7778L39.8106 49.6482L39.9456 49.4874L40.1444 49.5306L40.3285 49.5186L40.4758 49.4082L40.6575 49.3938L40.8318 49.3554L41.0159 49.341L41.1853 49.2906L41.3228 49.1538L41.5093 49.1442L41.6689 49.0674H41.8604L41.9733 48.8826L42.1231 48.7794L42.2998 48.7458L42.4226 48.5874L42.6361 48.6354L42.7883 48.5418L42.9062 48.3786L43.1369 48.4578L43.2867 48.3618L43.4781 48.3474L43.5469 48.0883L43.8046 48.2106L43.9642 48.1362L44.0869 47.9875L44.2097 47.8411L44.3766 47.7811L44.4871 47.6179L44.7056 47.6467L44.9093 47.6515L44.9682 47.3971L45.1744 47.4043L45.2579 47.1979L45.4518 47.1811L45.6384 47.1499L45.7636 47.0179L45.8741 46.8643L46.0803 46.8595L46.2865 46.8547L46.3552 46.6387L46.5762 46.6507L46.6154 46.3963L46.7897 46.3387L46.9223 46.2212L47.0598 46.1132L47.2341 46.0556L47.4182 46.01L47.6097 45.9716L47.6342 45.7124L47.8012 45.6404L47.9386 45.5324L48.1252 45.4868L48.3093 45.434L48.3339 45.1844L48.5032 45.1172L48.7045 45.0836L48.7512 44.8676L48.9402 44.8172L49.144 44.7836L49.2151 44.6012L49.279 44.4093L49.5245 44.4165L49.5515 44.1909L49.6914 44.0829L49.8804 44.0277L49.9516 43.8501L50.0915 43.7421L50.2609 43.6653L50.4254 43.5813V43.3365L50.6905 43.3461L50.7765 43.1877L50.936 43.0965L51.0587 42.9693L51.1128 42.7845L51.1864 42.6142L51.3607 42.535L51.4147 42.3526L51.5669 42.2518L51.643 42.0862L51.8689 42.0478L51.9351 41.875L52.0701 41.7574L52.0603 41.5294L52.2175 41.431L52.3598 41.3206L52.5071 41.2102L52.566 41.0374L52.5734 40.8311L52.8336 40.7999L52.787 40.5575L52.9735 40.4711L53.0545 40.3175L53.2019 40.2047L53.3295 40.0775L53.3172 39.8639L53.3295 39.6695L53.467 39.5495L53.6756 39.4703L53.7321 39.3023L53.8769 39.1823L53.7738 38.928L53.931 38.8176L53.9334 38.6232L54.0611 38.4936L54.2108 38.376L54.2525 38.2008L54.4317 38.0952L54.3998 37.8888L54.5299 37.7592L54.5667 37.584L54.7165 37.4592L54.6944 37.2624L54.8049 37.1209L54.9006 36.9721V36.7849L54.9129 36.6049L55.0135 36.4585L55.2198 36.3481L55.0872 36.1177L55.1289 35.9521L55.3769 35.8513L55.2885 35.6401L55.2958 35.4625L55.3842 35.309L55.6002 35.1914L55.5389 34.9946L55.6886 34.8554L55.6665 34.6706L55.6272 34.481L55.7524 34.3346L55.6641 34.1378L55.8114 33.9938L55.8286 33.821L55.9562 33.6698L55.8089 33.4659L55.9808 33.3219L55.9292 33.1371L55.9832 32.9715L56.0348 32.8035L56.1182 32.6403L55.9881 32.4507L56.1992 32.3019L56.2238 32.1291L56.1747 31.9491L56.1772 31.7764L56.2189 31.606L56.1133 31.426L56.2655 31.2628V31.0876L56.1256 30.91L56.1992 30.7396L56.155 30.5644L56.106 30.3916L56.2753 30.2212L56.3097 30.0461L56.3244 29.8733L56.1354 29.7029L56.3097 29.5253L56.1133 29.3597L56.182 29.1821L56.2336 29.0069L56.241 28.8317L56.1501 28.6661L56.0323 28.5029L56.0888 28.3229L56.1624 28.1406L56.0618 27.9774L56.16 27.7902L55.9538 27.6438L55.9145 27.4758L55.9783 27.291L56.025 27.1062L56.0028 26.9334L55.9194 26.7726L55.7524 26.6286L55.8899 26.4223L55.8801 26.2471L55.6764 26.1151L55.7966 25.9087L55.6371 25.7695L55.5929 25.6015L55.4333 25.4647L55.4824 25.2727L55.5168 25.0807L55.3965 24.9367L55.3916 24.7567L55.2075 24.6344L55.2787 24.428L55.1535 24.2864L55.0995 24.1208L55.0062 23.972L54.9865 23.7944L54.908 23.6384L54.7533 23.5136L54.8343 23.2952L54.6674 23.1752L54.7165 22.9664L54.6257 22.8153L54.444 22.7073L54.4293 22.5225L54.3335 22.3761L54.2427 22.2273L54.2967 22.0065L54.1494 21.8841L54.0488 21.7401L53.9064 21.6201L53.8057 21.4761L53.8107 21.2745L53.6069 21.1905L53.5455 21.0274L53.5946 20.797L53.4105 20.7034L53.3909 20.5114L53.327 20.3458L53.1307 20.2618L53.0251 20.1226L52.9711 19.9498L52.8925 19.7914L52.6618 19.7386L52.6765 19.5178L52.4875 19.4386L52.3525 19.321L52.2297 19.1963L52.1659 19.0283L52.1045 18.8555L51.9646 18.7427L51.8885 18.5819L51.8639 18.3755L51.6455 18.3299L51.4736 18.2435L51.3607 18.1115L51.3091 17.9267L51.2061 17.7851L51.0539 17.6867L50.8918 17.5979L50.8501 17.4012L50.7765 17.2308L50.5751 17.178L50.5138 16.9956L50.3542 16.9068L50.2757 16.7388L50.1578 16.6092L49.959 16.5612L49.8043 16.47L49.7896 16.2324L49.5809 16.1964L49.4729 16.0572L49.3625 15.918L49.1562 15.8844L49.1292 15.6516L48.8567 15.6972L48.7733 15.5269L48.6186 15.4381L48.4394 15.3805L48.3952 15.1597L48.1718 15.1573L48.081 14.9893L47.919 14.9125L47.8773 14.6797L47.6514 14.6869L47.5827 14.4853L47.374 14.4733L47.2365 14.3629L47.1285 14.2141L46.9567 14.1541L46.8658 13.9765L46.6351 14.0005L46.451 13.9597L46.3037 13.8685L46.2079 13.691L46.0926 13.547L45.9305 13.4726H45.7243L45.663 13.2374L45.4052 13.3238L45.3217 13.1222L45.2039 12.9734L45.0566 12.8726L44.8381 12.9038L44.7375 12.7238H44.5337L44.411 12.5822L44.2171 12.5726L44.0599 12.491L43.9446 12.3302L43.7163 12.3926L43.6377 12.155L43.4781 12.0782L43.3161 12.0087L43.1369 11.9703L42.9921 11.8623L42.8055 11.8503L42.6312 11.8023L42.5085 11.6439L42.2605 11.7735L42.1623 11.5527L41.9807 11.5287L41.7892 11.5359L41.6885 11.3151L41.5143 11.2695L41.313 11.3007L41.1902 11.1255L41.0061 11.1135L40.8392 11.0559L40.6649 11.0151L40.4857 10.9959L40.2991 10.9983L40.1371 10.9287L39.9775 10.8471L39.8302 10.7295L39.6093 10.8399L39.489 10.6287L39.3122 10.6071L39.1085 10.6743L38.9686 10.5207L38.8016 10.4607L38.5905 10.5591L38.453 10.3959L38.2714 10.3887L38.1118 10.2999L37.9154 10.3527L37.7509 10.2903L37.5963 10.168L37.4146 10.1752L37.2575 10.0672L37.0513 10.1776L36.8942 10.0672L36.742 9.92557L36.5407 10.036L36.3566 10.0648L36.2044 9.90877L36.0055 10.012L35.8411 9.93036L35.6766 9.85117L35.49 9.89197L35.328 9.77437L35.139 9.85117L34.9745 9.75037L34.81 9.64238L34.6284 9.65678L34.4443 9.70718L34.2626 9.73358L34.0907 9.69518L33.9066 9.74558L33.7421 9.60878L33.5654 9.59919L33.3813 9.66398H33.2045L33.0425 9.45039L32.8535 9.64478L32.6743 9.63998L32.5024 9.53679L32.3282 9.47199L32.1514 9.44559L31.9697 9.55599L31.793 9.50319L31.6162 9.47199L31.437 9.55359L31.2603 9.44319L31.0835 9.44799Z" fill="url(#paint0_linear_3298_159)"/>
<path d="M42.8589 21.6605L42.8196 21.4421L42.8098 21.2453L42.9841 21.1325L43.0086 20.9549L43.1093 20.8037L43.178 20.6405L43.1019 20.4437L43.2664 20.2998L43.1805 20.1078L43.205 19.9374L43.2247 19.7646L43.2173 19.5918L43.3695 19.4262V19.251L43.264 19.0758L43.2541 18.903L43.3793 18.7206L43.2075 18.5598L43.3376 18.3679L43.2149 18.2095L43.3032 18.0127L43.2099 17.8519L43.2247 17.6623L43.1879 17.4847L43.0798 17.3335L42.9792 17.1823L42.8884 17.0287L42.7656 16.8991L42.6502 16.7695L42.5152 16.6568L42.4956 16.4552L42.4219 16.2824L42.2403 16.2128L42.1126 16.0904L41.9261 16.052L41.7321 16.0472L41.602 15.932L41.4744 15.7808L41.2731 15.8432L41.143 15.6392L40.9466 15.74L40.7821 15.644L40.6078 15.5696L40.4286 15.6296L40.2543 15.6872L40.0849 15.74L39.8959 15.6248L39.7216 15.6512L39.5743 15.8168H39.3976L39.2085 15.7784H39.0269L38.8575 15.8264L38.7077 15.932L38.5408 15.9848L38.364 16.0112L38.2143 16.1144L38.067 16.22L37.8559 16.1672L37.7381 16.3352L37.5417 16.3256L37.3747 16.3856L37.2618 16.5536L37.0998 16.6184L36.9672 16.7407L36.7659 16.7335L36.6285 16.8487L36.4984 16.9735L36.356 17.0767L36.1768 17.1151L36.0344 17.2183L35.8134 17.1919L35.757 17.4319L35.536 17.4103L35.4649 17.6263L35.2488 17.6143L35.077 17.6695L35.0303 17.9095L34.7849 17.8567L34.6498 17.9695L34.5001 18.0559L34.4289 18.2527L34.2963 18.4015L34.041 18.3703L33.8913 18.5071L33.6998 18.4782L33.6409 18.3415L33.4568 18.2863L33.28 18.3847L33.1057 18.4231H32.9314L32.7572 18.4519L32.5829 18.2311L32.4085 18.3439L32.2343 18.2311L32.06 18.4303L31.8857 18.4015L31.7114 18.2743L31.5371 18.3895L31.3628 18.3415L31.186 18.4495L31.0093 18.3607L30.8325 18.2527L30.6558 18.3847L30.479 18.2767L30.3023 18.3655L30.1255 18.2647L29.9488 18.4231L29.772 18.2527L29.5977 18.3367L29.421 18.4015L29.2442 18.4207L29.0699 18.4039L28.8932 18.3031L28.7164 18.4183L28.5471 18.3631L28.4071 18.3943L28.3089 18.4375L28.1322 18.4615L28.0291 18.3175L27.8867 18.2407L27.7443 18.1375L27.6338 17.9887L27.4203 17.9839L27.246 17.9263L27.1895 17.6935L26.9858 17.6791L26.8851 17.5087L26.6887 17.4871L26.4776 17.4919L26.3303 17.3935L26.156 17.3383L26.0112 17.2375L25.9572 16.9783L25.7362 17.0047L25.5693 16.9423L25.4245 16.8391L25.233 16.8223L25.0808 16.7359L24.9777 16.5488L24.8107 16.4888L24.6954 16.316L24.5088 16.2944L24.2756 16.3832L24.1823 16.148L24.0203 16.0712L23.8141 16.1096L23.6643 16.004L23.4851 15.9776L23.3035 15.968L23.1537 15.8528L22.95 15.9344L22.7978 15.8192L22.6505 15.6608L22.4639 15.6776L22.2651 15.8144L22.1129 15.584L21.9337 15.5576L21.752 15.5432L21.5728 15.668L21.396 15.6896L21.234 15.8048L21.0524 15.7712L20.8953 15.8576L20.7357 15.9152L20.5123 15.8288L20.3601 15.9248L20.2644 16.1072L20.1293 16.2104L20.0017 16.3208L19.7857 16.3424L19.7734 16.5632L19.6654 16.6903L19.5009 16.7839L19.4591 16.9591L19.2898 17.0647L19.2088 17.2207V17.4127L19.0075 17.5207L19.0688 17.7271L18.9338 17.8711L18.8209 18.0271L18.7963 18.2047L18.8847 18.3967L18.924 18.5766L18.7497 18.7374L18.8062 18.9174L18.7521 19.0926L18.8356 19.2678L18.7595 19.4454L18.9043 19.611L18.8037 19.7958L18.7693 19.9782L18.7816 20.1558L18.8773 20.3189L19.0737 20.4557L19.0222 20.6477L19.0467 20.8229L19.0075 21.0221L19.2775 21.1109L19.2628 21.3029L19.3855 21.4349L19.4911 21.6605L19.2358 21.7685L19.0713 21.8357L18.9019 21.8453L18.7325 21.7973L18.5631 21.8429L18.3962 21.7781L18.2268 21.8741L18.0574 21.8669L17.888 21.8381L17.7187 21.7949L17.5665 21.9197L17.4241 21.9581L17.2449 22.1116L17.2817 22.282L17.3455 22.4524L17.4069 22.6228L17.3578 22.8004L17.3062 22.978L17.4805 23.1388L17.4486 23.314L17.348 23.4964L17.5296 23.6572L17.4535 23.8372L17.5665 24.0027L17.3823 24.1899L17.6008 24.3459L17.5002 24.5283L17.4732 24.7035L17.6205 24.8667L17.5566 25.0467L17.6573 25.2123L17.5444 25.3947L17.6646 25.5579L17.5223 25.7426L17.7088 25.901L17.672 26.0786L17.6475 26.2538L17.726 26.4218L17.645 26.6018L17.7187 26.7698L17.7236 26.9426L17.8659 27.1034L17.6622 27.2954L17.753 27.461L17.8316 27.6289V27.8017L17.726 27.9865L17.8954 28.1449L17.7432 28.3321L17.8979 28.4929L17.92 28.6657L17.8954 28.8433L17.9985 29.0089L17.861 29.1961V29.3712L17.9715 29.5344L18.0648 29.7L17.9224 29.8872L18.1262 30.0432L18.1335 30.216L17.9961 30.4032L18.1532 30.5616L18.136 30.7368L18.2194 30.9024L18.1777 31.08L18.0255 31.2695L18.2194 31.4255L18.0992 31.6103L18.3005 31.7663L18.2735 31.9439L18.1212 32.1335L18.2857 32.2919L18.2317 32.4719L18.2661 32.6423L18.2955 32.8127L18.2023 32.995L18.2391 33.1654L18.4625 33.319L18.3692 33.5014L18.2833 33.6838L18.3446 33.8518L18.4772 34.0126L18.4158 34.1926L18.4404 34.3654L18.3667 34.5478L18.5607 34.7038L18.6024 34.8741L18.5803 35.0517L18.4527 35.2389L18.4968 35.4093L18.5165 35.5821L18.654 35.7429L18.4919 35.9325L18.5337 36.1029L18.5558 36.2757L18.7497 36.4317L18.6564 36.614L18.7742 36.7772L18.7865 36.95L18.654 37.1372L18.676 37.31L18.7006 37.4828L18.9043 37.6388L18.8872 37.814L18.8921 37.9868L18.9387 38.1572L18.8773 38.3371L18.9804 38.5027L18.9952 38.6755L18.8332 38.8651L18.9927 39.0235L18.8675 39.2083L18.8553 39.3835L18.978 39.5467L19.1081 39.7099L18.9314 39.8995L18.9191 40.0746L18.9461 40.2474L19.0492 40.413L18.9927 40.593L19.1867 40.749L19.0713 40.9338L19.2259 41.0946L19.0811 41.2818L19.0934 41.4546L19.2014 41.6202V41.793L19.3168 41.9585L19.2775 42.1361L19.1302 42.3233L19.1965 42.4913L19.361 42.6521L19.2922 42.8153L19.3192 42.9761L19.4297 43.0985L19.5819 43.1513L19.6997 43.3361L19.8789 43.1801L20.0557 43.1321L20.2324 43.1777L20.4092 43.1369L20.5859 43.3673L20.7627 43.2041L20.9394 43.2233L21.1162 43.2593L21.2929 43.2977L21.4697 43.2833L21.6464 43.1465L21.8232 43.2569L21.9999 43.2521L22.1767 43.3145L22.3534 43.2281L22.5302 43.3649L22.7069 43.3313L22.8837 43.1897L23.0604 43.2449L23.2372 43.2113L23.4139 43.2233L23.5907 43.2977L23.7674 43.2353L23.9442 43.1633L24.1209 43.3649L24.2977 43.3505L24.4744 43.2329L24.6512 43.1393L24.8279 43.1993L25.0047 43.1369L25.1814 43.3529L25.3582 43.2041L25.5349 43.1465L25.7117 43.2113L25.8884 43.3601L26.0652 43.1969L26.2419 43.3457L26.4187 43.1561L26.5954 43.3433L26.7722 43.2545L26.9489 43.1465L27.1257 43.1393L27.3024 43.2233L27.4792 43.2569L27.6559 43.3289L27.8327 43.2857L28.0094 43.1609L28.1862 43.2737L28.3629 43.2209L28.5397 43.1921L28.7164 43.3265L28.8932 43.2689L29.0699 43.3409L29.2467 43.3073L29.4234 43.1585L29.6002 43.1921L29.7769 43.3529L29.9537 43.3457L30.1304 43.1633L30.3072 43.1513L30.4839 43.3073L30.6607 43.2689L30.8374 43.1417L31.0142 43.3649L31.1909 43.2473L31.3677 43.1897L31.5444 43.2113L31.7212 43.3409L31.8979 43.1345L32.0747 43.1897L32.2514 43.2329L32.4282 43.3241L32.6049 43.2329L32.7817 43.2713L32.9584 43.1753H33.1352L33.3119 43.2929L33.4887 43.1801L33.6654 43.3481L33.8422 43.1297L34.0189 43.3241L34.1957 43.3073L34.3724 43.2161L34.5492 43.3001L34.7259 43.3265L34.9027 43.3097L35.0794 43.2641L35.2562 43.2497L35.4329 43.3337L35.6097 43.2137L35.7864 43.3193L35.9632 43.2737L36.1399 43.3217L36.3167 43.1969L36.4934 43.2497L36.6702 43.2329L36.8469 43.3217L37.0237 43.1825L37.2004 43.2761L37.3772 43.2017L37.5539 43.3385L37.7307 43.2641L37.9074 43.3553L38.0842 43.2017L38.261 43.1681L38.4377 43.2185L38.6145 43.1897H38.7912L38.968 43.1321L39.1447 43.2977L39.3215 43.2545L39.4982 43.1729L39.675 43.2017L39.8517 43.1465H40.0285L40.2052 43.2401L40.382 43.1969L40.5587 43.1681L40.7355 43.1609L40.9122 43.3097L41.0889 43.2329L41.2657 43.2953L41.4424 43.2065L41.6192 43.1369L41.7959 43.2353L41.9727 43.2449L42.1494 43.3649L42.3237 43.1657L42.5324 43.3385L42.6797 43.1633L42.8024 43.0337L42.8957 42.8825L42.827 42.6953L42.8442 42.5225L42.8933 42.3521L43.0676 42.1937L42.935 42.0065L42.9301 41.8314L43.0725 41.6706L43.1437 41.5026L43.1486 41.3298L43.1093 41.1522L43.124 40.9794L43.0307 40.797L43.1608 40.6338L43.1142 40.4562L43.1216 40.2834L43.07 40.1035L43.1928 39.9403L43.2541 39.7723L43.1265 39.5851L43.3425 39.4315L43.3842 39.2611L43.1903 39.0691V38.8939L43.2885 38.7283L43.4063 38.5651L43.4284 38.3923L43.264 38.2028L43.4211 38.042L43.4162 37.8668L43.3032 37.682L43.5045 37.526L43.5487 37.3556L43.4284 37.1708L43.3695 36.9908L43.5806 36.8372L43.4603 36.6524L43.4702 36.4797L43.5364 36.3117L43.6592 36.1485L43.6543 35.9733L43.5414 35.7885L43.6371 35.6229L43.6494 35.4501L43.723 35.2821L43.561 35.0925L43.6518 34.9269L43.7451 34.7613L43.6076 34.5742L43.7574 34.4134L43.6346 34.2286L43.723 34.063L43.8089 33.8974L43.7476 33.7174L43.7917 33.547L43.8359 33.3766L43.9587 33.2134L43.9685 33.0406L44.0029 32.8703L43.7942 32.6783L43.858 32.5103L43.9759 32.3471L43.9415 32.1695L44.0839 32.0087L43.9538 31.8239L43.993 31.6535L44.1158 31.4903L43.9783 31.3031L44.0127 31.1327L44.02 30.96L44.0716 30.7896L44.1403 30.6216L44.0127 30.4368L44.133 30.2736L44.1624 30.1032L44.2263 29.9352L44.079 29.748L44.2287 29.5872L44.2557 29.4168L44.1624 29.2345L44.2925 29.0713L44.1575 28.8841L44.2655 28.7209L44.3907 28.5577V28.3849L44.43 28.2145L44.2778 28.0273L44.4276 27.8665V27.6937L44.3195 27.509V27.3362L44.3809 27.1682L44.4447 27.0002L44.3735 26.8202L44.4226 26.6498L44.5601 26.489L44.4816 26.309L44.5184 26.1386L44.5405 25.9658L44.6657 25.8026L44.6804 25.6299L44.5405 25.4427L44.5356 25.2675L44.5626 25.0971L44.6215 24.9291L44.7614 24.7683L44.7246 24.5907L44.6509 24.4107L44.8056 24.2499L44.813 24.0771L44.7491 23.8972L44.7074 23.7196L44.7835 23.5516L44.7516 23.374L44.7295 23.1988L44.813 23.0332L44.7761 22.8556L44.948 22.6972L44.9578 22.5244L44.786 22.3348L45.0118 22.1812L44.9897 21.9941L44.8032 21.9005L44.673 21.7613L44.4988 21.7781L44.3269 21.8813L44.16 21.8165L43.9906 21.9101L43.8212 21.7757L43.6518 21.8813L43.4824 21.7925L43.3131 21.7253L43.1437 21.7733L42.9718 21.8117L42.7853 21.6917L42.9276 21.6869L42.8589 21.6605ZM21.2659 19.4622L21.126 19.3254L21.0254 19.1502L21.1604 18.987L21.1653 18.8118L21.2733 18.6678L21.3666 18.5262L21.3568 18.3175L21.5654 18.2599L21.5998 18.0559L21.7373 17.9407L21.8968 17.8375L22.0809 17.7631L22.2798 17.8735L22.4541 17.8567L22.6357 17.7583L22.8174 17.7679L22.9745 17.9239L23.1783 17.8039L23.3207 17.9863L23.5146 17.9383L23.6496 18.1039H23.8313L23.9786 18.2191L24.1357 18.2959L24.3149 18.3127L24.4892 18.3487L24.6561 18.4039L24.8378 18.4255L25.012 18.4615L25.1937 18.4854L25.314 18.6534L25.449 18.7806L25.6405 18.7854L25.7951 18.8718L25.9866 18.879L26.1879 18.8718L26.3279 18.9918L26.4457 19.1526L26.6568 19.1214L26.7403 19.3494L26.9588 19.3062L27.0815 19.4526L27.2116 19.587L27.3982 19.6086L27.5798 19.6398L27.7566 19.6806L27.8523 19.8798L28.0144 19.9566L28.2402 19.9158L28.3654 20.0622L28.4071 20.247L28.4243 20.4101L28.444 20.5637L28.4906 20.7341L28.4513 20.8805L28.3286 20.9453L28.1911 21.0197L28.0242 21.0653L27.8523 20.9309L27.6707 21.0341L27.4964 20.9429L27.3196 20.9237L27.138 21.0221L26.9612 21.0053L26.7845 21.0509L26.6102 20.9501L26.4334 20.9837L26.2542 21.0269L26.075 21.0437L25.9007 20.9837L25.7215 20.9957L25.5497 20.8565L25.3631 21.0245L25.1937 20.8853L25.0071 21.0197L24.8378 20.8853L24.6635 20.8277L24.4695 20.9861L24.31 20.7917H24.1308L23.9565 20.7581L23.7625 20.8541L23.5784 20.8757L23.4287 20.6885L23.2421 20.7221L23.0752 20.6549L22.9205 20.5493L22.7438 20.5301L22.5449 20.5757L22.3608 20.5565L22.1914 20.4941L22.0122 20.4485L21.9582 20.175L21.7495 20.1822L21.6784 19.9926L21.4108 20.0262L21.3077 19.8702L21.3175 19.6566L21.1383 19.5126L21.261 19.4646L21.2659 19.4622ZM30.7687 39.1099L30.587 39.2059L30.3907 39.2707L30.2434 39.1171L30.0617 39.0931L29.9218 38.9731L29.7843 38.8651L29.5658 38.8459L29.5315 38.6323L29.3252 38.5651L29.2246 38.4115L29.1411 38.2484L29.0528 38.0852L29.1411 37.8788L29.1043 37.7108L28.9865 37.5404V37.358L29.1436 37.1996L29.0331 36.9932L29.2369 36.8732L29.2271 36.6764L29.4259 36.5924L29.4873 36.4269L29.6542 36.3525L29.7966 36.2685L29.912 36.1437L30.0519 36.0453L30.2114 35.9781L30.3686 35.8869L30.5404 35.8245L30.7196 35.7717L30.8939 35.8869L31.0559 35.9709L31.2376 35.9349L31.3971 36.0021H31.5862L31.7924 36.0117L31.9151 36.1581L31.9839 36.3453L32.1925 36.3981L32.1557 36.6356L32.3595 36.7172V36.9068L32.3496 37.0844L32.4478 37.2332L32.5215 37.3964L32.5681 37.5716L32.4184 37.7324L32.3938 37.8956L32.4847 38.0972L32.384 38.2484L32.2343 38.3659L32.1041 38.4787L31.9986 38.6035L31.9176 38.7595L31.7801 38.8627L31.6181 38.9227L31.4855 39.0379L31.3358 39.1411L31.1345 39.0643L30.9847 39.2035L30.8522 39.1531L30.7638 39.1123L30.7687 39.1099ZM33.5182 32.7047L33.4249 32.8895L33.3316 33.0622L33.1205 33.0742L33.01 33.2158L32.8455 33.2998L32.7081 33.415L32.6909 33.6238L32.4847 33.6934L32.4994 33.8998L32.4282 34.051L32.3717 34.2094L32.3546 34.375L32.1901 34.5238V34.699L32.2711 34.9197L32.1189 35.1501L31.9176 35.0541L31.758 35.2101L31.5984 35.0589L31.4364 35.1501L31.2719 35.0277L31.1001 35.0781L30.9258 35.0109L30.7515 34.9869L30.5772 35.0277L30.4029 35.0517L30.2286 35.0565L30.0543 35.1021L29.88 35.1309L29.7033 35.1741L29.5315 35.0613L29.448 34.9701L29.3424 34.9221L29.3522 34.747L29.2737 34.5742L29.1829 34.3942L29.2418 34.2166L29.3522 34.0486L29.2516 33.8614L29.448 33.7102L29.3473 33.5134L29.4627 33.3574L29.5707 33.2062L29.5634 33.0214L29.5756 32.8391L29.6076 32.6591L29.8113 32.5607L29.8972 32.4119L29.88 32.1887L30.0224 32.0687L30.2041 31.9943L30.3637 31.9151L30.5036 31.8167L30.6091 31.6679L30.7491 31.5719L30.9086 31.5047L31.024 31.3703L31.1369 31.2359H31.353L31.4217 31.0464L31.6107 31.0008L31.7457 30.8928L31.7948 30.6984L31.9102 30.5736L31.9519 30.408L32.1091 30.2928L32.1164 30.1176L32.0845 29.9496L32.0526 29.7912L32.0722 29.6232L31.9961 29.4768L32.028 29.2633L31.7801 29.2369L31.7482 29.0305L31.5273 29.0593L31.4315 28.8793L31.2744 28.7857L31.0805 28.9345L30.9135 28.7569L30.7368 28.7977L30.56 28.8265L30.4299 29.0017L30.3047 29.1265L30.0617 29.1097L29.9831 29.2897L29.8506 29.4192L29.7033 29.556L29.6689 29.712L29.7057 29.892L29.6149 30.0648L29.4063 30.1152L29.2197 30.1608L29.0307 29.9472L28.849 30.06L28.6698 29.9448L28.4832 30.1392L28.2991 30.1056L28.1175 29.976L27.9358 30.0912L27.7541 30.048L27.5504 30.156L27.3491 30.0672L27.1502 29.9568L26.9784 30.0888L26.809 29.9808L26.6274 30.0336V29.8656L26.4629 29.6928L26.6544 29.5272L26.593 29.3472L26.5586 29.1649L26.5783 28.9897L26.6421 28.8265L26.7943 28.6945L26.7452 28.4929L26.9244 28.3801L27.0594 28.2577L27.1011 28.0897L27.1232 27.9025L27.2877 27.8065L27.3835 27.6673L27.5013 27.5425L27.6658 27.4658L27.7149 27.269L27.8204 27.1226L28.0585 27.1514L28.1445 26.9786L28.3384 26.9666L28.4464 26.813L28.552 26.6354L28.7189 26.573L28.8711 26.4698L29.0454 26.4242L29.2737 26.561L29.4063 26.3906L29.5732 26.3282L29.7524 26.3162L29.9144 26.2154L30.0912 26.1986L30.2826 26.3018L30.4569 26.2682L30.641 26.3642L30.8129 26.3018L30.9872 26.1242L31.1664 26.3042L31.3407 26.321L31.5223 26.2226L31.6966 26.285L31.8758 26.2706L32.0575 26.249L32.222 26.3426L32.4208 26.2466L32.5804 26.3594L32.7203 26.5226H32.902L33.1229 26.417L33.2187 26.6762L33.3758 26.7506L33.5329 26.825L33.7465 26.7866L33.9085 26.8562L34.1147 26.861L34.2325 27.0098L34.4093 27.0722L34.5615 27.173L34.5909 27.4082L34.7333 27.509L34.9395 27.5569L35.0672 27.6865L35.185 27.8257L35.1752 28.0441L35.3912 28.1233L35.4722 28.2841V28.4785L35.5876 28.6273L35.5434 28.8217L35.5876 28.9897L35.7005 29.1505L35.5704 29.34L35.7054 29.5056L35.6171 29.6808L35.536 29.8512V30.024L35.6392 30.2088L35.6711 30.396L35.4771 30.5328L35.4894 30.7176L35.3814 30.864V31.056L35.2292 31.1759L35.2537 31.3943L35.0549 31.4783L34.9052 31.5839L34.7824 31.7063L34.7112 31.8767L34.6989 32.1143L34.4976 32.1647L34.3454 32.2607L34.1441 32.2919L34.1319 32.5703L33.9306 32.5967L33.8054 32.7335L33.5869 32.8727L33.5182 32.7023V32.7047ZM40.8877 19.5006L40.9147 19.6974L40.8901 19.9014L40.6814 19.9614L40.5734 20.1078L40.4016 20.1726L40.242 20.2446L40.1389 20.4317L39.9229 20.3885L39.8001 20.5589L39.6308 20.6165L39.4589 20.6693L39.292 20.7365L39.0882 20.6429L38.9189 20.6861L38.7642 20.8205L38.5899 20.8565L38.3935 20.7509L38.2388 20.9261L38.0449 20.7989L37.8804 20.9093L37.6914 20.8013L37.5196 20.8685L37.3379 20.8157L37.1587 20.8037L36.9844 20.8565L36.8077 20.8901L36.6309 20.9045L36.4542 20.9573L36.2774 20.9957L36.1007 21.0461L35.9166 20.9429L35.7349 20.8829L35.5581 20.9597L35.3789 20.9477L35.2022 21.0245L35.0279 21.1205L34.8487 21.0749L34.6695 20.9861L34.4976 21.1109L34.3135 20.9501L34.1441 21.0917L33.9772 21.0149L33.8496 20.9237L33.7145 20.8853L33.6237 20.7437L33.5697 20.5661L33.7293 20.4101L33.7857 20.2638L33.7784 20.0406L33.9502 19.9494L34.1466 19.9398L34.3258 19.9014L34.4829 19.8246L34.613 19.695L34.7701 19.6182L34.9444 19.5702L35.0819 19.4526L35.2194 19.335L35.4354 19.371L35.5434 19.1982H35.7398L35.9043 19.1382L36.0197 18.9702L36.1841 18.9078L36.3241 18.7902L36.5254 18.807L36.6702 18.7014L36.8126 18.5862L36.9672 18.4974L37.1513 18.4782L37.3085 18.3967L37.522 18.4567L37.6251 18.2311L37.8387 18.2935L37.9565 18.0991L38.1652 18.1591L38.3493 18.1495L38.4696 17.9311L38.6905 18.0559L38.8575 17.9959L39.0318 17.9719L39.184 17.8231L39.3558 17.7511L39.5498 17.8927L39.7216 17.8207L39.8959 17.8615L40.053 17.9527L40.215 17.9719L40.4114 17.9767L40.5759 18.0607L40.7035 18.1879L40.8386 18.3127L40.7428 18.5742L40.922 18.6702L40.8729 18.8622L41.111 18.9774L41.1037 19.1598L40.9687 19.3254L41.0251 19.5414L40.8975 19.5078L40.8877 19.5006Z" fill="white"/>
<defs>
<linearGradient id="paint0_linear_3298_159" x1="31.0443" y1="10.0792" x2="31.1616" y2="59.322" gradientUnits="userSpaceOnUse">
<stop stop-color="#0087FF"/>
<stop offset="1" stop-color="#88F3FE"/>
</linearGradient>
</defs>
</svg>
