<svg width="171" height="171" viewBox="0 0 171 171" fill="none" xmlns="http://www.w3.org/2000/svg">
<g clip-path="url(#clip0_3435_520)">
<rect x="-0.5" y="-0.743164" width="171" height="171" fill="#F5F8FF"/>
<rect width="27.4975" height="27.4975" transform="translate(70.8232 71.4375)" fill="url(#paint0_linear_3435_520)"/>
<path d="M88.0769 82.7042C88.7228 82.4892 89.421 82.4892 90.067 82.7042C90.4886 82.8451 90.8369 83.0915 91.1749 83.3871C91.498 83.6712 91.8646 84.0505 92.3034 84.5042C92.8274 85.0488 93.3522 85.5926 93.8777 86.1357C94.391 86.665 94.5972 87.2241 94.5949 87.9711C94.588 89.8719 94.5479 91.1757 94.0026 92.2447C93.4806 93.2684 92.648 94.1006 91.624 94.6221C90.083 95.4081 88.1124 95.2156 86.4419 95.2156H82.7C81.4488 95.2156 80.4566 95.2156 79.658 95.1503C78.84 95.0838 78.1491 94.944 77.5178 94.6232C76.4937 94.1015 75.6611 93.2688 75.1393 92.2447C74.8013 91.5813 74.6695 90.8595 74.6008 89.9807C74.5 88.6517 75.6274 87.5759 76.4947 86.7017C76.8464 86.3465 77.2176 86.0486 77.6782 85.879C78.377 85.6235 79.1437 85.6235 79.8425 85.879C80.3031 86.0486 80.6743 86.3465 81.026 86.7017C81.3675 87.0454 81.7501 87.5037 82.213 88.0594C82.2531 88.1086 82.3161 88.1545 82.3746 88.0937L85.8404 84.5042C86.2804 84.0505 86.6458 83.6712 86.9689 83.3871C87.3069 83.0915 87.6564 82.8451 88.0769 82.7042ZM88.1032 84.6783C87.8397 84.9098 87.5223 85.2374 87.0526 85.7244L83.6108 89.2876C83.4342 89.4706 83.2211 89.6143 82.9852 89.7094C82.7494 89.8045 82.4961 89.8489 82.242 89.8396C81.9879 89.8303 81.7386 89.7675 81.5103 89.6555C81.282 89.5434 81.0799 89.3844 80.9172 89.189C80.4234 88.5979 80.0877 88.1957 79.8058 87.9127C79.5309 87.6343 79.3705 87.5369 79.2525 87.4934C78.9347 87.3771 78.586 87.3771 78.2683 87.4934C78.1503 87.5369 77.991 87.6343 77.7149 87.9127C77.291 88.3389 76.9163 88.8144 76.5325 89.2761C76.348 89.4973 76.2976 89.6141 76.3182 89.8948C76.3755 90.6464 76.4867 91.1036 76.67 91.4645C77.0269 92.1649 77.5965 92.7344 78.2969 93.0914C78.6464 93.269 79.0875 93.379 79.7978 93.4374C80.5196 93.4958 81.4408 93.497 82.7378 93.497H86.4041C87.7698 93.497 89.572 93.7399 90.8449 93.0914C91.5454 92.7344 92.1149 92.1649 92.4719 91.4645C92.795 90.8286 92.8683 89.9716 92.8763 87.9654C92.8775 87.6515 92.8293 87.5232 92.6036 87.2906L91.0913 85.7244C90.6215 85.2374 90.3053 84.9109 90.0406 84.6783C89.4506 84.1604 88.7185 84.1375 88.1032 84.6783Z" fill="#B0B0B0"/>
<path d="M82.7005 75.166H86.4425C87.6936 75.166 88.6858 75.166 89.4844 75.2313C90.3024 75.2978 90.9933 75.4376 91.6258 75.7584C92.6496 76.2806 93.4819 77.1137 94.0031 78.138C94.3251 78.7682 94.4649 79.4602 94.5313 80.2783C94.5966 81.0768 94.5966 82.069 94.5966 83.3202V87.0621C94.5966 88.3133 94.5966 89.3055 94.5313 90.104C94.4649 90.9221 94.3251 91.6129 94.0043 92.2454C93.482 93.2693 92.649 94.1015 91.6246 94.6228C90.9945 94.9447 90.3024 95.0845 89.4844 95.151C88.6858 95.2163 87.6936 95.2163 86.4425 95.2163H82.7005C81.4494 95.2163 80.4572 95.2163 79.6586 95.151C78.8406 95.0845 78.1497 94.9447 77.5184 94.6239C76.4943 94.1021 75.6617 93.2695 75.1399 92.2454C74.8179 91.6129 74.6781 90.9221 74.6117 90.104C74.5464 89.3055 74.5464 88.3133 74.5464 87.0621V83.3202C74.5464 82.069 74.5464 81.0768 74.6117 80.2783C74.6781 79.4602 74.8179 78.7693 75.1387 78.138C75.6608 77.1137 76.4939 76.2811 77.5184 75.7595C78.1486 75.4376 78.8406 75.2978 79.6586 75.2313C80.4572 75.166 81.4494 75.166 82.7005 75.166ZM79.7984 76.9442C79.0881 77.0015 78.6469 77.1126 78.2975 77.2902C77.597 77.6472 77.0275 78.2167 76.6706 78.9171C76.493 79.2666 76.383 79.7077 76.3246 80.418C76.2661 81.1398 76.265 82.061 76.265 83.358V87.0243C76.265 88.3224 76.265 89.2436 76.3246 89.9642C76.3818 90.6746 76.493 91.1157 76.6706 91.4651C77.0275 92.1656 77.597 92.7351 78.2975 93.0921C78.6469 93.2697 79.0881 93.3797 79.7984 93.4381C80.5202 93.4965 81.4414 93.4977 82.7383 93.4977H86.4047C87.7028 93.4977 88.624 93.4977 89.3446 93.4381C90.055 93.3808 90.4961 93.2697 90.8455 93.0921C91.546 92.7351 92.1155 92.1656 92.4725 91.4651C92.65 91.1157 92.76 90.6746 92.8185 89.9642C92.8769 89.2424 92.878 88.3213 92.878 87.0243V83.358C92.878 82.061 92.878 81.1387 92.8185 80.418C92.7612 79.7077 92.65 79.2666 92.4725 78.9171C92.1155 78.2167 91.546 77.6472 90.8455 77.2902C90.4961 77.1126 90.055 77.0026 89.3446 76.9442C88.6228 76.8858 87.7016 76.8846 86.4047 76.8846H82.7383C81.4414 76.8846 80.5191 76.8846 79.7984 76.9442Z" fill="#B0B0B0"/>
<path opacity="0.5" d="M82.2775 80.3172C81.8976 80.3172 81.5334 80.4681 81.2648 80.7367C80.9962 81.0053 80.8453 81.3696 80.8453 81.7494C80.8453 82.1292 80.9962 82.4935 81.2648 82.7621C81.5334 83.0307 81.8976 83.1815 82.2775 83.1815C82.6573 83.1815 83.0216 83.0307 83.2902 82.7621C83.5587 82.4935 83.7096 82.1292 83.7096 81.7494C83.7096 81.3696 83.5587 81.0053 83.2902 80.7367C83.0216 80.4681 82.6573 80.3172 82.2775 80.3172ZM79.1267 81.7494C79.1267 80.9138 79.4587 80.1123 80.0495 79.5215C80.6404 78.9306 81.4418 78.5986 82.2775 78.5986C83.1131 78.5986 83.9145 78.9306 84.5054 79.5215C85.0963 80.1123 85.4282 80.9138 85.4282 81.7494C85.4282 82.585 85.0963 83.3864 84.5054 83.9773C83.9145 84.5682 83.1131 84.9001 82.2775 84.9001C81.4418 84.9001 80.6404 84.5682 80.0495 83.9773C79.4587 83.3864 79.1267 82.585 79.1267 81.7494Z" fill="#B0B0B0"/>
<path d="M64.5073 151.119L64.1313 151.014L63.6349 151.029L63.1386 151.277L62.5446 150.863L61.9956 151.036L61.4541 151.3L60.9052 151.134L60.3562 151.345L59.8073 150.796L59.2583 151.209L58.7093 150.924L58.1604 151.082L57.619 150.961L57.0775 150.743L56.5361 150.788L55.9571 151.285L55.4381 150.856L54.9193 150.668L54.3177 151.097L53.8139 150.766L53.2875 150.623L52.6859 150.833L52.2723 150.179L51.6105 150.615L51.0842 150.435L50.6479 149.991L50.1366 149.796L49.7155 149.375L49.0237 149.668L48.5574 149.367L48.204 148.803L47.4971 149.044L46.9331 148.953L46.5797 148.472L46.0457 148.322L45.8051 147.66L45.211 147.63L44.7072 147.419L44.226 147.186L43.7973 146.84L43.2559 146.72L42.7595 146.532L42.3234 146.179L41.8872 145.75L41.2555 145.991L40.7442 145.833L40.2102 145.727L39.6763 145.765L39.0597 145.547L38.7589 146.306L38.022 146.088L37.6084 146.479L37.4128 147.058L37.0067 147.419L36.8187 147.938L36.345 148.292L36.4052 148.931L35.9991 149.344L35.9915 149.931L35.39 150.299L35.6907 150.954L35.578 151.48L35.0892 151.939L34.7959 152.458L35.4577 153.074L34.841 153.586L35.187 154.135L35.1719 154.676L34.9087 155.263L35.0741 155.804L35.029 156.383L35.5479 156.812L35.8562 157.278L35.7284 157.925L36.0818 158.368L36.6458 158.677L36.4427 159.444L36.9391 159.782L37.3902 160.121L37.5332 160.722L37.8565 161.188L38.2551 161.579L39.1048 161.437L39.2327 162.151L39.714 162.414L40.3532 162.429L40.8344 162.67L41.1879 163.144L41.6992 163.324L42.1504 163.647L42.752 163.602L43.2032 163.933L43.6394 164.362L44.1507 164.58L44.8049 164.234L45.3088 164.452L45.8051 164.723L46.339 164.753L46.8955 164.587L47.4294 164.527L47.9257 165.181L48.4747 164.978L49.0086 165.016L49.5501 164.723L50.0839 165.016L50.6179 165.039L51.1593 164.948L51.6932 165.159L52.2271 164.941L52.7611 164.828L53.3176 165.257L53.8364 164.663L54.3704 164.61L54.9268 164.805L55.4908 165.114L56.0247 165.009L56.5211 164.369L57.0625 164.362L57.6039 164.399L58.1379 164.332L58.7394 164.843L59.1981 164.189L59.8073 164.655L60.3336 164.482L60.8149 164.106L61.4241 164.392L61.8979 164.031L62.1911 163.565L62.334 163.444L62.6799 162.933L62.71 162.384L62.8528 161.835L62.6197 161.279L62.3189 160.707L62.5746 160.173L62.4543 159.602L63.0033 159.105L62.5821 158.504L62.6573 157.955L63.2439 157.481L62.8303 156.857L63.0183 156.331L63.665 155.887L63.6575 155.33L63.5823 154.751L63.8079 154.247L63.8154 153.683L63.7026 153.074L64.3568 152.698L63.9808 151.999L64.1313 151.458L64.5073 151.119Z" fill="#86F0FD"/>
<path d="M93.2542 158.489L93.9535 158.225L94.4272 158.03L94.9763 158.007L95.4274 157.774L95.9162 157.804L96.405 157.759L96.9314 157.91L97.548 157.526L98.0745 157.639L98.5933 157.797L99.0972 158.158L99.6536 158.007L100.188 158.082L100.722 158.165L101.255 158.278L101.797 158.188L102.331 158.662L102.88 158.616L103.406 157.985L103.963 158.353L104.489 158.128L105 157.902L105.557 158.098L106.128 158.255L106.587 157.699L107.106 157.609L107.738 158.03L108.181 157.549L108.813 157.842L109.354 157.714L109.896 157.594L110.339 157.158L110.776 156.721L111.467 157.075L111.979 156.894L112.43 156.503L112.994 156.466L113.513 156.27L114.069 156.24L114.453 155.586L115.047 155.669L115.558 155.45L116.092 155.308L116.656 155.466L117.19 155.623L117.724 155.518L118.266 155.488L118.882 155.315L119.446 155.481L119.86 155.924L120.364 156.225L120.687 156.736L121.018 157.203L121.349 157.661L121.762 158.075L121.928 158.631L122.356 159.06L122.183 159.699L122.093 160.286L122.86 160.662L122.672 161.263L122.898 161.79L123.108 162.331L122.544 162.903L122.981 163.452L122.762 163.986L122.386 164.489L122.492 165.046L122.702 165.648L122.086 166.039L122.417 166.723L122.108 167.197L122.116 167.821L121.364 168.046L121.025 168.46L120.837 168.979L120.627 169.505L120.138 169.799L119.717 170.137L119.687 170.896L119.1 171.062L118.777 171.551L118.281 171.806L117.769 172.024L117.295 172.295L116.701 172.325L116.378 172.919L115.739 172.807L115.295 173.168L114.867 173.619L114.242 173.446L113.776 173.859L113.22 173.904L112.595 173.483L112.092 173.784L111.558 173.897L111.024 173.874L110.497 174.22L109.956 174.16L109.422 174.017L108.903 173.671L108.332 174.22L107.79 174.265L107.301 173.656L106.767 173.671L106.219 173.732L105.655 173.98L105.113 173.972L104.609 173.694L104.083 173.521L103.549 173.446L103.008 173.423L102.474 173.371L101.895 173.544L101.466 172.829L100.834 173.288L100.278 173.325L99.8191 172.829L99.3302 172.528L98.7212 172.784L98.2549 172.416L97.7511 172.205L97.2097 172.152L96.6381 172.22L96.1418 171.994L95.7057 171.596L95.0364 171.919L94.7431 171.46L94.4799 171.182L94.6754 170.648L94.7581 170.099L94.4649 169.535L94.8107 168.994L94.3445 168.43L94.7356 167.889L94.9461 167.34L94.7732 166.791L94.7431 166.234L94.322 165.7L94.871 165.121L94.7581 164.572L94.6679 164.031L94.4498 163.497L94.7581 162.903L94.0363 162.437L94.3897 161.835L94.4123 161.271L93.931 160.797L93.6151 160.308L93.555 159.767L93.397 159.248L93.2542 158.489Z" fill="#86F0FD"/>
<path d="M43.3447 113.932L42.7131 113.608L42.2092 113.345L41.758 113.044L41.4046 112.661L41.3294 111.969L40.8706 111.668L40.4345 111.36L40.0134 111.022L39.3968 110.969L39.1711 110.352L38.7275 110.044L38.0958 110.067L37.795 109.465L37.2611 109.337L36.7798 109.066L36.1331 109.352L35.7345 108.675L35.1254 109.104L34.6291 108.487L34.0801 108.923L33.5462 108.969L33.0574 109.209L32.5009 109.111L31.8994 108.976L31.5459 109.585L30.9969 109.63L30.4329 109.713L29.9742 110.006L29.6434 110.473L28.9214 110.412L28.4928 110.766L28.1394 111.194L27.9965 111.826L27.3422 111.954L27.4701 112.781L26.7557 112.879L26.5677 113.413L26.2894 113.872L25.7781 114.18L25.4472 114.609L25.0787 115.022L25.372 115.812L24.8005 116.105L24.9058 116.759L24.3267 117.075L24.4997 117.737L23.9057 118.068L23.4244 118.451L23.8756 119.203L23.477 119.624L23.1461 120.083L23.3116 120.7L23.0333 121.166L22.4618 121.572L22.5596 122.151L22.2587 122.64L22.4317 123.226L22.0933 123.708L22.2362 124.279L22.2889 124.828L22.3565 125.362L22.0106 125.858L22.1459 126.407L21.5519 126.904L21.8 127.453L21.4917 127.987L21.5819 128.528L22.0106 129.054L21.5594 129.611L21.6647 130.145L21.9805 130.656L22.1385 131.175L22.2663 131.694L22.2738 132.235L22.349 132.769L22.3114 133.326L22.6874 133.784L22.6423 134.356L23.1687 134.739L22.913 135.401L23.5973 135.702L23.3417 136.401L23.5973 136.883L24.2214 137.146L24.3568 137.68L24.3719 138.319L24.9359 138.575L25.4848 138.808L25.4924 139.515L26.1617 139.597L26.4925 140.018L26.5452 140.801L27.1543 140.906L27.7634 140.966L28.0567 141.553L28.6432 141.62L29.0643 142.004L29.7336 141.846L30.0345 142.568L30.6961 142.35L31.1399 142.778L31.7114 142.771L32.2377 142.914L32.7266 143.32L33.283 143.402L33.8546 143.297L34.411 143.448L34.9675 143.402L35.5014 142.989L36.0128 142.756L36.667 143.327L37.1858 143.057L37.6371 142.613L38.0732 142.222L38.7951 142.538L39.3742 142.425L39.6976 141.823L40.3443 141.816L40.7278 141.365L41.1414 140.989L41.4271 140.455L41.6753 139.928L42.1416 139.62L42.9011 139.56L42.7582 138.733L43.6606 138.71L43.45 137.898L44.1794 137.702L43.9689 136.943L44.7133 136.642L44.1344 136.093L44.608 135.522L44.6984 134.973L43.999 134.484L44.42 133.912L44.5028 133.371L44.3825 132.837L44.1344 132.318V131.777L43.8486 131.258L44.4878 130.671L44.1719 130.152L44.39 129.603L43.7884 129.1L43.6756 128.566L44.0742 128.002L43.8486 127.475L44.1344 126.919L43.4801 126.422L43.6004 125.873L43.7132 125.332L43.3749 124.813L43.6906 124.249L43.3749 123.73L43.435 123.189L43.4576 122.647L43.1869 122.129L43.5026 121.565L43.5102 121.023L43.4425 120.489L43.6004 119.94L43.2244 119.429L43.3146 118.88L43.0966 118.353L43.638 117.782L42.9386 117.286L43.5026 116.707L42.8109 116.218L43.059 115.661L43.0439 115.12L43.2018 114.571L43.3447 113.932Z" fill="#86F0FD"/>
<path d="M127.044 104.918L127.126 104.414L127.645 104.135L127.577 103.406L127.976 103.03L128.51 102.782L128.908 102.428L129.269 102.03L129.803 101.827L129.924 101.15L130.623 101.173L130.916 100.669L131.413 100.458L131.939 100.308L132.353 99.9694L132.796 99.6536L133.293 99.458L133.721 98.9918L134.368 99.3753L134.872 99.2475L135.406 99.3377L135.917 99.1948L136.473 98.8865L137.037 98.8564L137.444 99.5182L138.075 99.2324L138.421 99.8416L139.09 99.616L139.557 99.9017L140.158 99.9468L140.557 100.353L140.692 101.082L141.204 101.278L141.873 101.323L142.001 101.985L142.286 102.443L142.993 102.511L143.174 103.068L143.505 103.489L143.685 104.023L144.369 104.181L144.588 104.692L145.016 105.053L145.37 105.466L145.084 106.271L145.783 106.482L145.738 107.121L146.392 107.384L146.204 108.083L146.595 108.49L146.505 109.114L147.31 109.354L147.588 109.828L147.633 110.392L147.55 110.994L147.626 111.535L148.167 111.926L148.348 112.445L148.107 113.062L148.686 113.475L148.701 114.024L148.904 114.536L148.701 115.115L148.776 115.649L149.054 116.145L148.806 116.716L148.934 117.235L149.363 117.747L149.137 118.296L149.348 118.829L148.851 119.371L148.874 119.897L148.769 120.424L149.227 120.995L149.167 121.529L149.175 122.078L148.438 122.514L148.43 123.048L148.25 123.544L148.423 124.139L147.964 124.56L148.137 125.169L148.062 125.718L147.791 126.191L147.693 126.74L147.55 127.282L146.836 127.5L146.911 128.184L146.234 128.365L146.189 129.011L145.934 129.508L145.294 129.651L145.001 130.124L144.46 130.312L143.978 130.561L143.617 130.997L143.377 131.643L142.903 131.944L142.091 131.591L141.677 131.974L141.143 132.095L140.828 132.786L140.151 132.523L139.677 132.824L139.098 132.726L138.647 133.238L138.09 133.268L137.519 133.05L136.985 133.08L136.443 133.065L135.887 133.358L135.368 133.072L134.842 132.944L134.248 133.125L133.653 133.155L133.15 132.892L132.691 132.538L132.157 132.358L131.555 132.313L131.375 131.508L130.818 131.365L130.382 131.042L129.841 130.839L129.345 130.561L128.788 130.327L128.487 129.831L128.209 129.327L128.081 128.718L127.517 128.455L127.028 128.094L126.856 127.507L127.292 126.928L126.78 126.395L126.795 125.853L126.863 125.319L126.78 124.778L127.111 124.236L127.104 123.702L126.998 123.161L127.074 122.627L127.262 122.086L126.803 121.552L127.013 121.01L127.254 120.469L126.908 119.935L126.607 119.393L127.021 118.852L127.149 118.318L127.194 117.777L127.028 117.243L126.713 116.701L127.126 116.16L127.096 115.626L126.953 115.085L126.743 114.551L126.75 114.009L127.246 113.468L126.592 112.934L126.818 112.4L126.585 111.858L126.607 111.325L126.953 110.783L126.66 110.242L126.773 109.708L127.164 109.166L126.645 108.632L126.698 108.091L126.668 107.55L126.765 107.016L127.149 106.474L126.825 105.933L127.081 105.391L127.044 104.918Z" fill="#86F0FD"/>
<path d="M133.629 111.146L134.005 110.522L133.652 110.041L133.84 109.447L133.426 108.988L133.23 108.484L133.08 107.973L132.937 107.454L132.554 107.01L132.418 106.492L132.358 105.943L132.373 105.371L132.012 104.927L132.11 104.318L131.937 103.807L131.817 103.273L131.215 102.942L131.35 102.295L131.072 101.837L130.756 101.393L130.666 100.701L129.907 100.837L129.425 100.528L128.944 100.22L128.455 99.9191L127.839 100.032L127.199 100.25L126.786 99.7086L126.222 99.6785L125.741 99.3401L125.259 99.0092L124.552 99.5055L124.109 99.0167L123.537 99.0092L123.048 98.6708L122.417 98.9566L121.883 98.8363L121.387 98.4753L120.785 98.6558L120.319 98.1595L119.74 98.2196L119.258 97.7158L118.679 97.9113L118.168 97.6331L117.611 97.6932L117.055 97.7534L116.529 97.603L116.04 97.1894L115.461 97.415L114.889 97.6406L114.408 97.1668L113.889 96.8811L113.318 97.0766L112.791 96.8585L112.22 97.1443L111.678 97.1819L111.137 97.1443L110.61 96.8886L110.069 96.9713L109.535 96.7833L109.001 96.5352L108.46 96.7156L107.918 96.9412L107.384 97.2195L106.835 96.7232L106.301 96.836L105.768 96.8134L105.219 96.8435L104.662 96.8209L104.121 96.8811L103.624 97.2571L103.136 97.603L102.511 97.2119L102.03 97.5879L101.444 97.4451L100.932 97.6556L100.421 97.8436L99.8343 97.7684L99.3756 98.1444L98.8567 98.3023L98.2851 98.3174L97.9392 98.9867L97.3151 98.8363L96.7811 98.9641L96.4503 99.6033L95.8562 99.5732L95.3148 99.6785L94.7658 99.7687L94.4124 100.31L93.8709 100.423L93.4724 100.852L93.0513 101.198L92.3218 100.949L91.9834 101.476L91.5548 101.822L91.0434 102.002L90.6449 102.401L89.9756 102.28L89.5094 102.559L88.9303 102.611L88.7348 103.393L88.2761 103.672L87.494 103.341L87.2383 104.01L86.524 103.807L86.1104 104.175L85.802 104.777L85.223 104.83L84.8094 105.206L84.268 105.326L83.6513 105.281L83.3806 106.003L82.7113 105.83L82.2451 106.116L81.7563 106.341L81.1547 106.281L80.7712 106.777L80.1696 106.695L79.8612 107.439L79.3198 107.544L78.8085 107.717L78.2219 107.665L77.5978 107.462L77.1766 107.935L76.7405 108.379L76.1088 108.101L75.6576 108.514L75.1162 108.597L74.6198 108.838L73.9882 108.477L73.5295 108.936L72.9429 108.748L72.394 108.725L71.9653 109.364L71.4389 109.522L70.8148 109.048L70.3034 109.297L69.807 109.597L69.3108 109.913L68.7092 109.492L68.2053 109.8L67.6865 110.018L67.1225 109.808L66.5961 109.958L66.0321 109.627L65.5132 109.845L64.9793 109.943L64.4228 109.688L63.8888 109.755L63.355 109.77L62.8286 110.124L62.2871 110.319L61.7457 110.304L61.2043 110.372L60.6704 109.845L60.1213 110.049L59.5799 110.252L59.0536 109.74L58.5046 109.943L57.9631 109.973L57.4066 110.221L56.8953 109.65L56.3238 110.199L55.7824 110.206L55.2409 110.161L54.7296 109.853L54.1806 109.906L53.6467 109.778L53.1579 109.251L52.5563 109.785L52.0825 109.176L51.5487 109.139L50.9545 109.492L50.4282 109.319L49.8942 109.236L49.3227 109.372L48.879 108.687L48.2549 109.184L47.8187 108.499L47.2172 108.8L46.6756 108.733L46.202 108.281L45.6003 108.545L45.0665 108.439L44.6152 107.92L44.0587 107.928L43.4421 108.169L42.8781 108.184L42.3592 107.988L41.8253 107.296L41.5847 108.191L40.9154 108.176L40.7725 108.838L40.1785 108.996L39.9453 109.5L39.5844 109.898L39.4791 110.447L39.246 110.643L39.2685 111.229L38.5316 111.507L38.2985 111.996L38.0653 112.485L38.4413 113.192L38.0729 113.628L37.6592 114.064L37.8773 114.696L37.5089 115.14L37.6668 115.741L36.9524 116.11L36.7794 116.628L36.9449 117.215L37.1705 117.817L36.832 118.298L36.426 118.772L36.8471 119.388L36.3283 119.855L36.3357 120.403L36.7493 120.998L36.456 121.501L35.9898 121.998L36.1929 122.554L35.9523 123.081L36.1778 123.637L36.5163 124.179L36.2906 124.712L36.2154 125.254L35.9297 125.81L36.1552 126.344L36.3658 126.871L36.599 127.39L36.4786 127.938L36.7569 128.45L36.5012 129.029L36.4034 129.593L36.9223 130.052L36.5237 130.683L37.0803 131.127L37.2532 131.638L37.02 132.255L37.2683 132.744L37.4412 133.255L37.6517 133.759L37.4487 134.398L37.9225 134.804L38.0427 135.331L38.5767 135.699L38.6369 136.256L38.9752 136.692L38.9452 137.293L39.0204 137.857L39.261 138.339L39.637 138.752L40.1258 139.098L40.3814 139.572L40.6372 140.038L41.0132 140.429L41.2387 140.918L41.6373 141.294L41.9457 141.73L42.1863 142.211L42.4119 142.7L42.6675 143.181L42.7052 143.836L43.0586 144.242L43.7279 144.392L43.9685 144.896L44.0738 145.52L44.7205 145.663L44.9009 146.235L45.1867 146.701L45.6454 147.017L46.0065 147.415L46.3599 147.821L46.8412 148.1L47.2021 148.506L47.8789 148.558L48.2549 148.934L48.6835 149.258L49.0896 149.596L49.3002 150.19L49.8266 150.393L50.1424 150.859L50.5184 151.258L51.1727 151.28L51.4057 151.859L51.8194 152.198L52.263 152.514L52.6089 152.95L53.1278 153.145L53.6391 153.333L54.1882 153.476L54.5942 153.807L54.9326 154.281L55.4289 154.522L56.0906 154.499L56.399 155.033L56.7073 155.589L57.4217 155.439L57.7826 155.905L58.3692 155.973L58.8881 156.146L59.3769 156.386L59.8732 156.597L60.1816 157.214L60.7681 157.251L61.099 157.83L61.6554 157.928L62.2946 157.83L62.7608 158.124L63.3248 158.184L63.6257 158.906L64.1746 159.003L64.874 158.688L65.2726 159.199L65.7539 159.462L66.3103 159.515L66.9119 159.432L67.3255 159.936L67.7767 160.319L68.4159 160.086L68.9723 160.101L69.3483 160.823L69.9424 160.703L70.4463 160.921L70.9953 160.989L71.5517 160.974L72.1082 160.981L72.6647 160.959L73.1158 161.493L73.6272 161.741L74.2213 161.538L74.7402 161.756L75.3418 161.402L75.8682 161.598L76.387 161.876L76.9435 161.763L77.515 161.523L78.0565 161.62L78.5678 161.981L79.1318 161.733L79.6432 162.23L80.2072 161.823L80.7486 161.838L81.2825 162.117L81.8315 161.914L82.3654 162.237L82.9068 162.154L83.4483 161.801L83.9822 162.072L84.5237 162.079L85.0575 161.771L85.6215 162.365L86.1705 162.448L86.6969 162.139L87.2158 161.823L87.7572 161.861L88.3362 162.275L88.8251 161.696L89.3514 161.59L89.9455 162.094L90.4193 161.455L90.9682 161.47L91.5473 161.763L92.0436 161.35L92.5624 161.192L93.1641 161.538L93.6829 161.357H94.2319L94.7959 161.425L95.2471 160.876L95.7509 160.65L96.3149 160.71L96.8263 160.522L97.4805 160.996L97.8866 160.334L98.4657 160.432L98.9394 160.094L99.5862 160.44L100.03 159.966L100.609 160.056L101.09 159.748L101.647 159.718L102.158 159.515L102.677 159.372L103.113 158.928L103.745 159.124L104.151 158.627L104.692 158.522L105.279 158.552L105.632 157.936L106.174 157.845L106.708 157.725L107.241 157.59L107.918 157.815L108.369 157.469L108.655 156.762L109.272 156.8L109.7 156.439L110.212 156.259L110.656 155.92L111.385 156.168L111.588 155.371L112.152 155.289L112.573 154.928L113.092 154.747L113.769 154.837L114.017 154.176L114.671 154.206L115.077 153.83L115.468 153.424L116.055 153.326L116.499 153.003L116.724 152.378L117.1 151.965L117.596 151.732L118.1 151.491L118.83 151.536L118.988 150.859L119.424 150.528L119.687 150.002L120.469 150.07L120.582 149.37L121.146 149.182L121.432 148.694L121.672 148.16L122.244 147.964L122.823 147.776L122.883 147.069L123.387 146.791L123.612 146.265L124.259 146.107L124.312 145.43L124.816 145.152L125.049 144.633L125.455 144.264L126.162 144.121L126.38 143.588L126.831 143.242L126.568 142.384L127.26 142.196L127.711 141.835L127.824 141.249L128.102 140.783L128.606 140.452L128.854 139.97L129.027 139.444L128.839 138.722L129.38 138.406L129.455 137.827L130.17 137.587L130.155 136.97L130.057 136.331L130.335 135.865L130.734 135.451L131.26 135.082L131.531 134.609L131.117 133.857L131.531 133.436L131.584 132.879L132.095 132.488L132.306 131.984L132.351 131.435L132.824 131.022L132.9 130.473L132.734 129.864L133.118 129.412L133.065 128.841L132.952 128.254L133.719 127.886L133.614 127.299L133.381 126.698L133.426 126.156L133.629 125.645L133.877 125.141L134.343 124.667L134.118 124.081L133.915 123.509L134.261 123.005L134.276 122.464L134.464 121.938L134.336 121.389L134.479 120.855L134.704 120.321L134.825 119.779L134.9 119.238L134.306 118.681L134.411 118.14L134.494 117.599L134.622 117.05L134.501 116.508L134.291 115.974L134.479 115.418V114.876L134.674 114.305L134.426 113.778L134.125 113.267L134.426 112.673L134.185 112.154L133.802 111.665L133.629 111.146Z" fill="#86F0FD"/>
<path d="M56.0166 113.948L56.5355 114.091L57.0318 114.384L57.5883 114.346L58.1447 114.316L58.7013 114.241L59.1751 114.722L59.6864 114.925L60.1902 115.234L60.8219 114.707L61.2731 115.339L61.8521 115.106L62.3935 115.181L62.9275 115.226L63.4689 115.234L64.0254 115.121L64.4841 115.79L65.1007 115.136L65.597 115.58L66.161 115.354L66.7025 115.339L67.1913 115.895L67.7327 115.911L68.3042 115.557L68.8231 115.805L69.342 116.114L69.9135 115.707L70.4324 116.053L70.9588 116.271L71.5002 116.324L72.0567 116.114L72.5831 116.317L73.1396 115.993L73.6735 116.241L74.2224 115.986L74.7639 115.828L75.3053 116.181L75.8392 116.535L76.3806 116.422L76.9297 116.437L77.4711 116.407L78.0125 115.948L78.5539 115.986L79.0954 116.106L79.6293 116.076L80.1632 115.963L80.7121 116.129L81.2612 116.429L81.8026 116.362L82.3365 116.211L82.8629 115.911L83.4043 115.828L83.9382 115.723L84.4872 115.873L85.0061 115.512L85.54 115.489L86.1341 116.091L86.6379 115.617L87.2244 116.016L87.7358 115.67L88.2923 115.783L88.8187 115.625L89.3301 115.324L89.8865 115.369L90.3754 114.948L90.9168 114.895L91.5484 115.512L91.9921 114.76L92.5862 115.083L93.1051 114.88L93.7066 115.174L94.1353 114.414L94.6768 114.392L95.2558 114.542L95.8649 114.828L96.2635 114.031L96.8274 114.091L97.4065 114.219L97.9855 114.324L98.5119 114.188L98.9706 113.745L99.5572 113.888L100.046 113.564L100.58 113.467L101.136 113.444L101.685 113.399L102.122 112.895L102.618 112.647L103.287 113.023L103.663 112.346L104.272 112.512L104.784 112.293L105.272 112.03L105.769 111.782L106.303 111.677L106.964 111.97L107.393 111.511L107.859 111.188L108.528 111.466L109.025 111.226L109.378 110.564L110.055 110.842L110.657 110.895L110.995 110.203L111.604 110.301L112.138 110.18L112.507 109.654L113.048 109.556L113.582 109.458L114.101 109.316L114.672 109.293L115.048 108.797L115.545 108.579L116.116 108.556L116.627 108.383L117.011 107.909L117.552 107.804L118.071 107.631H118.658L118.966 106.984L119.387 106.623L119.876 106.413L120.387 106.24L121.124 106.533L121.546 106.157L121.982 105.826L122.403 105.465L123.042 105.518L123.298 104.841L123.877 104.781L124.298 104.413L124.937 104.458L125.283 103.961L125.651 103.51L126.396 103.728L126.712 103.187L127.246 103.029L127.704 102.721L128.186 102.472L128.441 101.833L129.186 102.014L129.66 101.75L130.118 101.442L130.382 100.916L130.299 100.419L130.314 99.8253L129.78 99.4644L129.9 98.8177L129.088 98.5996L128.862 98.1108L128.825 97.5242L128.742 96.9678L128.329 96.5767L128.103 96.0879L128.088 95.4788L127.704 95.0802L127.058 94.8321L127.283 94.065L126.757 93.7567L126.749 93.1251L125.907 93.0198L125.854 92.4107L125.704 91.8617L125.478 91.3504L125.155 90.9142L124.862 90.448L124.396 90.1246L124.155 89.6132L123.448 89.4854L123.253 88.944L122.741 88.6657L122.478 88.1769L122.47 87.4701L121.658 87.4625L121.801 86.6053L121.057 86.5526L120.545 86.2894L120.418 85.6577L119.899 85.4171L119.831 84.7027L119.38 84.3869L118.981 84.0109L118.229 84.0259L117.876 83.6123V82.7851L117.334 82.5746L116.793 82.3715L116.259 82.161L116.131 81.4466L115.567 81.2736L114.996 81.1232L114.83 80.4314L114.304 80.2283L113.883 79.8824L113.529 79.4312L112.845 79.4763L112.589 78.8823L112.018 78.7544L111.597 78.4085L110.845 78.6115L110.581 77.9949L109.92 78.0626L109.732 77.273L109.092 77.3181L108.626 77.0324L108.047 76.9872L107.596 76.6639L107.243 76.145L106.724 75.9796L106.13 75.9871L105.566 75.9194L105.069 75.7088L104.799 74.9418L104.069 75.3103L103.783 74.5432L103.212 74.5056L102.67 74.4079L102.084 74.468L101.633 74.0996L101.212 73.6258L100.7 73.4303L100.151 73.3777L99.6173 73.2423L99.106 73.0618L98.5645 72.9941L97.9253 73.34L97.5193 72.6557L96.9853 72.5429L96.4213 72.558L95.8875 72.4527L95.3611 72.3098L94.7294 72.761L94.2932 72.0391L93.6841 72.4903L93.1652 72.2797L92.6238 72.2196L92.0898 72.1669L91.5334 72.2572L91.0221 71.9489L90.4581 72.2572L89.9467 71.8511L89.4128 71.7233L88.8488 72.0993L88.3149 72.1519L87.796 71.4375L87.2546 71.5052L86.7056 71.5503L86.1641 72.0993L85.6227 71.7834L85.0963 72.1519L84.5399 71.6857L84.0134 71.8436L83.4795 71.9789L82.9155 71.6255L82.3816 71.6706L81.8401 71.7007L81.3439 72.0541L80.7573 71.7308L80.2685 72.197L79.7797 72.6106L79.2081 72.385L78.6441 72.3023L78.1704 72.7309L77.5463 72.2797L77.1326 73.0092L76.5537 72.8287L75.9671 72.6633L75.4257 72.7309L74.9218 72.9415L74.4104 73.152L73.9066 73.3476L73.2975 73.1671L72.7786 73.3325L72.4477 74.1447L71.8912 74.1522L71.2445 73.8965L70.7407 74.092L70.3497 74.6335L69.733 74.4981L69.3195 74.9568L68.6577 74.7312L68.1313 74.8591L67.853 75.6261L67.3567 75.8292L66.898 76.1224L66.3566 76.2202L65.9129 76.5436L65.1534 76.1751L64.7774 76.6488L64.3413 76.9722L63.6795 76.8669L63.2057 77.1376L63.0102 77.9272L62.2356 77.6264L62.0778 78.4611L61.5138 78.5514L61.1076 78.9274L60.3858 78.7845L60.13 79.3936L59.5059 79.4237L59.0998 79.7922L58.8742 80.4314L58.0997 80.2584L57.6184 80.5216L57.4228 81.1834L57.0167 81.5443L56.5731 81.8451L55.9113 81.8827L55.4225 82.1309L55.212 82.7475L54.9713 83.2965L54.5503 83.6274L54.0991 83.9357L53.5351 84.1237L53.2267 84.5899L52.7304 84.8531L52.5725 85.4697L52.016 85.6728L51.452 85.8758L51.0384 86.2368L50.9632 86.9211L50.6699 87.3873L49.8728 87.3949L49.9255 88.1694L49.1283 88.207L49.0682 88.8763L48.7448 89.3124L48.617 89.899L48.2861 90.3276L47.9101 90.7187L47.4138 91.027L47.2183 91.5534L47.0603 92.1024L46.6543 92.4783L46.0451 92.7265L46.0677 93.3807L45.406 93.6063L44.9774 93.9823L44.9397 94.5915L44.5261 94.9825L44.6314 95.6668L43.902 95.8849L43.9321 96.5241L43.7816 97.058L43.3229 97.434L42.9168 97.8476L43.2779 98.6222L42.5334 98.8703L42.3303 99.3817L42.2927 99.9532L42.1724 100.495L41.8039 100.931L41.5708 101.42L41.3001 101.901L41.2926 102.472L41.4128 103.089L40.9466 103.503L40.8714 104.052L40.7887 104.593L40.7962 105.157L40.4278 105.608V106.165L40.1796 106.653L39.9314 107.15L39.8863 107.691L39.954 108.255L39.6081 108.729L39.6006 109.27L39.6156 109.594L39.7961 110.06L40.2473 110.398L40.894 110.15L41.3152 110.586L41.8792 110.594L42.4281 110.632L42.8266 111.165L43.4959 110.797L43.9997 110.992L44.4509 111.353L44.9397 111.624L45.4887 111.647L45.9624 111.948L46.5941 111.684L47.0904 111.91L47.5868 112.113L48.0455 112.474L48.6621 112.241L49.1584 112.466L49.6923 112.549L50.2413 112.564L50.7151 112.903L51.1286 113.497L51.8055 112.933L52.3243 113.076L52.8432 113.248L53.2944 113.73L53.7757 114.061L54.445 113.497L54.9638 113.632L55.43 114.083L56.0166 113.948Z" fill="#2382F5"/>
<path d="M100.428 130.792L99.887 130.913L99.3531 131.063L98.7966 131.131L98.3905 131.717L97.9092 131.981L97.413 132.176L96.8565 132.214L96.2699 132.229L95.7285 132.462L95.7585 133.064L96.1646 133.507L96.3 134.034L96.2473 134.688L97.0144 134.853L97.3152 135.282L97.413 135.921L98.1048 135.959L98.5109 136.267L98.8418 136.741L99.2252 137.245L99.857 137.079L100.406 136.944L100.902 137.275L101.504 137.591L102.068 137.41L102.609 137.184L102.805 136.447L103.271 136.199L103.79 135.966L104.03 135.462L104.211 134.943L105.001 134.771L105.219 134.244L104.963 133.56L104.97 133.033L105.136 132.537L105.369 131.981L105.113 131.469L104.587 131.281L104.143 131.071L103.654 130.823L103.128 130.604L102.609 131.168L102.053 130.815L101.519 130.86L100.955 130.695L100.428 130.792Z" fill="#FF7090"/>
<path d="M70.9222 133.231L70.6965 132.817L70.4258 132.381L70.2454 131.923L70.2002 131.426L70.5236 131.058L70.7943 130.795L71.2455 130.388L71.8771 130.667L72.4036 130.569L72.9525 130.531L73.4639 130.388L73.8775 129.847L74.3362 129.486L74.9904 129.855L75.4191 129.403L75.9153 129.155L76.4869 129.23L76.9682 128.922L77.5472 129.012L78.036 128.764L78.6301 128.922L79.0061 128.238L79.6077 128.403L80.1641 128.418L80.7206 128.403L81.1868 128.05L81.6982 127.914L82.1419 127.493L82.6984 127.516L83.2473 127.493L83.7211 127.17L84.2024 126.884L84.8792 127.343L85.3755 127.102L85.8267 126.711L86.4433 126.914L86.8494 126.35L87.3533 126.14L87.8495 125.914L88.4587 126.11L88.9249 125.749L89.4663 125.689L89.9853 125.531L90.4665 125.23L91.0381 125.275L91.6246 125.087L91.399 125.734L92.0683 126.057L92.1735 126.538L92.3765 126.997L92.0683 127.448L91.6021 127.335L91.1508 127.734L90.7448 128.29L90.1582 128.178L89.5791 128.087L89.1204 128.448L88.5489 128.373L88.045 128.569L87.5036 128.629L86.9396 128.584L86.4734 128.922L85.9019 128.877L85.4959 129.441L84.8641 129.163L84.4355 129.621L83.9693 129.975L83.4805 130.223H82.924L82.3901 130.306L81.8486 130.381L81.3673 130.652L80.7507 130.419L80.3822 131.088L79.6753 130.539L79.2768 131.11L78.7429 131.186L78.2165 131.321L77.6525 131.291L77.1712 131.577L76.7276 132.005L76.0357 131.516L75.577 131.877L75.0806 132.111L74.5994 132.411L74.0579 132.456L73.5616 132.72L72.9375 132.456L72.5615 133.163L71.9072 132.795L71.441 133.163L70.9222 133.231Z" fill="#252525"/>
<path d="M127.006 127.725L126.57 127.875L126.006 128.078L125.487 127.86L124.946 127.898L124.419 127.74L123.87 127.875L123.374 127.484L122.84 127.439L122.291 127.514L121.765 127.387L121.231 127.296L120.712 127.116L120.163 127.214L119.629 127.131L119.087 127.123L118.606 126.612L118.042 126.823L117.523 126.627L116.982 126.62L116.403 126.92L115.914 126.469L115.38 126.401L114.861 126.244L114.342 126.056L113.741 126.627L113.199 126.65L112.718 126.078L112.162 126.191L111.628 126.176L111.131 125.747L110.522 126.334L110.033 125.86L109.447 126.213L108.928 126.048L108.417 125.747L107.875 125.717L107.371 125.379L106.8 125.574L106.273 125.461L105.762 125.108L105.416 125.191L105.108 124.905L104.98 124.394L105.138 123.92L105.333 123.446L105.461 122.965H105.995L106.514 123.198L107.055 123.16L107.589 123.213L108.131 123.205L108.687 123.07L109.176 123.491L109.695 123.709L110.229 123.732L110.755 123.867L111.349 123.378L111.831 123.92L112.417 123.529L112.921 123.852L113.417 124.213L114.019 123.664L114.5 124.206L115.079 123.905L115.568 124.371L116.117 124.326L116.681 124.093L117.207 124.243L117.749 124.191L118.238 124.597L118.772 124.657L119.298 124.83L119.877 124.499L120.366 124.92L120.952 124.544L121.449 124.958L121.998 124.89L122.562 124.702L123.058 125.131L123.607 125.078L124.171 124.905L124.705 124.988L125.224 125.213L125.795 124.965L126.322 125.138L126.856 125.228L127.247 125.552L126.976 125.875L127.104 126.379L126.856 126.845L127.013 127.334L127.006 127.725Z" fill="#252525"/>
<path d="M54.3638 157.443L53.9728 157.804L53.875 158.413L53.1681 158.526L52.9876 159.06L52.5214 159.383L52.2582 159.85L52.1379 160.414L51.6867 160.752L51.6567 161.369L50.8821 161.519L51.1453 162.294L50.9121 162.767L50.3858 163.076L50.0248 163.489L50.0323 164.091L49.7466 164.542L49.0923 164.813L48.8742 165.302L48.9344 165.926L48.408 166.272L48.1899 166.76L48.5434 167.497L48.2952 167.971L47.6109 168.272L47.7538 168.904L47.7237 169.498L47.4755 170.009L47.2124 170.513V171.107L46.8213 171.573L46.6784 172.115L46.7386 172.716L46.0467 173.115L45.9414 173.671L45.7835 174.077L45.4978 174.596L44.9413 174.701L44.3021 174.438L43.8133 174.814L43.2267 174.739L42.7079 175.092L42.1364 175.1L41.5498 174.777L40.9933 174.822L40.4519 175.243L39.9104 174.935L39.3765 174.837L38.8426 174.792L38.2862 174.859L37.6921 175.1L37.1506 174.965L36.707 174.453L36.1881 174.303L35.5414 174.596L35.1804 173.844L34.6164 173.784L34.0524 173.716L33.4809 173.792L32.9545 174.04L32.3604 173.965L31.8265 174.153L31.7137 174.912L31.1196 175.017L30.7737 175.416L30.6383 175.972L30.0518 176.213L29.9315 176.762L29.6006 177.191L29.6833 177.8L29.1042 178.153L29.4051 178.8L29.202 179.289L28.9013 179.762L28.8937 180.296L28.3598 180.77L28.3147 181.312L28.5553 181.868L28.9614 182.394L28.3748 182.951L28.8712 183.447L28.638 184.011L28.5854 184.575L29.1343 184.996L29.0291 185.575L29.4653 185.989L29.3525 186.613L30.0067 186.876L29.7585 187.651L30.1872 188.042L30.4804 188.523L30.9467 188.847L31.4655 189.095L31.992 189.305L32.368 189.689L32.7815 190.027L33.12 190.523L33.5335 190.907L34.06 191.087L34.6991 190.997L35.1052 191.433L35.5639 191.809L36.1355 191.824L36.6092 192.155L37.2258 191.952L37.7222 192.238L38.2937 192.14L38.8652 192.012L39.3239 192.644L39.8879 192.509L40.4293 192.629L41.0159 192.246L41.5498 192.291L42.0537 192.982L42.6101 192.81L43.1516 192.922L43.708 192.434L44.2419 192.667L44.7834 192.328L45.3324 192.749L45.8738 192.539L46.4227 193.005L46.9567 192.892L47.468 192.283L47.9944 192.306L48.5434 192.546L49.0547 192.328L49.5812 192.306L50.1752 192.757L50.6866 192.546L51.243 192.599L51.7017 192.148H52.2432L52.7245 191.847L53.2885 191.945L53.7096 191.448L54.1983 191.238L54.8075 191.478L55.2211 191.005L55.7776 191.336L56.0182 191.757L56.6048 191.877L56.9131 192.373L57.4771 192.494L58.1538 192.449L58.2892 193.201L59.0036 193.095L59.1616 193.847L59.9286 193.622L60.1316 194.329L60.7031 194.419L60.9889 194.998L61.7109 194.817L62.0492 195.306L62.4327 195.742L63.1096 195.599L63.6886 195.645L63.9443 196.359L64.591 196.261L65.0948 196.487L65.4257 197.096L66.1551 196.78L66.5011 197.389L67.0876 197.397L67.4711 197.946L68.1404 197.72L68.6743 197.855L69.2007 198.006L69.5918 198.592L70.088 198.856L70.7573 198.555L71.2235 198.908L71.7199 199.149L72.2989 199.111L72.7576 199.555L73.269 199.788L73.8856 199.547L74.3594 199.931L74.8782 200.164L75.54 199.577L76.2695 199.796L76.2544 200.57L75.6528 201.081L76.1793 201.645L76.1567 202.194L75.8784 202.751L75.8483 203.315L76.2168 203.826L76.1868 204.383L76.277 204.924L76.1793 205.518L76.5176 206L76.495 206.586L77.1869 206.932L77.247 207.473L77.4802 207.947L77.5629 208.481L77.4501 209.12L77.954 209.474L78.3901 209.835L78.2923 210.512L78.6909 210.888L79.1647 211.203L79.4203 211.677L79.8038 212.038L80.0445 212.549L80.3528 213.008L80.7363 213.407L81.3229 213.519L81.759 213.82L82.0899 214.347L82.5937 214.595L83.1953 214.587L83.654 214.993L84.2782 214.76L84.8572 214.602L85.3385 215.091L85.895 214.978L86.4439 215.399L86.9704 214.708L87.5494 215.091L88.0908 214.986L88.6247 214.835L89.106 214.505L89.7603 214.76L90.0987 214.076L90.6852 214.091H91.3019L91.535 213.369L92.0087 213.121L92.4975 212.895L93.0916 212.775L93.3096 212.188L94.1068 212.226L94.0692 211.444L94.3099 210.963L94.7234 210.602L95.2273 210.286L95.4454 209.805L95.3175 209.203L95.7461 208.782L95.701 208.24L95.7086 207.714L95.6484 207.195L95.8139 206.684L95.7387 206.165L96.1974 205.624L96.1748 205.097L95.7837 204.593L96.0169 204.052L95.8966 203.518L95.6183 202.984V202.443L95.4228 201.901L95.5957 201.36L96.1071 200.841L95.9116 200.299L95.5055 199.735L95.9191 199.224L95.6935 198.66L95.7461 198.126L96.1147 197.622L96.1823 197.088L96.3252 196.569L96.2876 196.021L96.6936 195.547L96.6787 194.998L96.3703 194.404L97.0095 193.975L97.002 193.434L96.6486 192.817L97.2427 192.396L97.2953 191.854L96.9268 191.223L97.2576 190.749L97.6187 190.283L97.2427 189.636L97.4983 189.147L97.6261 188.621L97.957 188.155L97.9194 187.591L98.3104 187.139L98.3255 186.583L98.709 186.139L98.882 185.628L99.2429 185.177L99.1753 184.59L99.0324 183.989L99.0549 183.432L99.5513 183.034L99.8144 182.552L99.8069 181.988L99.9272 181.462L100.484 181.078L100.642 180.567L100.882 180.078L100.822 179.492L100.544 178.83L101.078 178.439L101.349 177.965L101.747 177.529L101.875 177.003L101.521 176.311L102.289 176.002L102.236 175.416L102.281 174.859L102.762 174.461L102.356 173.739L103.01 173.393L102.77 172.739L103.244 172.333L103.131 171.716L103.251 171.182L103.665 170.753L103.92 170.257L104.266 169.798L104.627 169.34L104.206 168.61L104.552 168.152L105.101 167.738L105.214 167.182L105.131 166.595L104.921 166.038L104.913 165.512L104.973 164.963L104.537 164.519L104.439 164.008L104.289 163.504L104.59 162.76L103.808 162.572L103.65 162.038L103.371 161.587L103.153 161.06L102.815 160.632L102.544 160.128L101.785 160.135L101.318 159.865L101.078 159.308L100.702 158.917L100.288 158.564L100.017 158.007L99.4309 157.894L98.882 157.744L98.6263 157.12L97.8969 157.308L97.6412 156.661L96.9193 156.857L96.4004 156.699L96.0244 156.247L95.6183 155.834L95.1671 155.526L94.6934 155.247L93.9714 155.548L93.5579 155.142L93.1141 154.804L92.6179 154.578L92.1592 154.262L91.4673 154.571L91.0461 154.142L90.6326 153.676L90.1362 153.443L89.5723 153.397L88.9481 153.593L88.4819 153.247L88.0607 152.758L87.4441 152.954L86.8576 153.014L86.3838 152.683L85.9477 152.187L85.3536 152.337L84.8197 152.232L84.2331 152.36L83.6992 152.307L83.2179 151.991L82.7667 151.472L82.2177 151.495L81.6312 151.736L81.1274 151.465L80.5859 151.45L80.0295 151.555L79.5407 151.156L79.0142 151.006L78.4502 151.269L77.8788 151.532L77.405 150.871L76.8335 151.284L76.307 151.066L75.7656 151.141L75.2242 151.292L74.7053 150.878L74.1714 150.66L73.63 150.968L73.096 151.044L72.5621 151.066L72.0207 150.833L71.4868 150.863L70.9604 151.179L70.4265 151.187L69.8926 151.179L69.3211 150.773L68.8172 151.247L68.2682 151.111L67.7493 151.314L67.1553 150.953L66.6213 151.074L66.1025 151.277L65.6813 151.939L65.0948 151.766L64.4782 151.465L63.9367 151.57L63.5231 152.112L62.9591 152.119L62.4778 152.39L61.8462 152.209L61.5529 152.999L61.0716 153.224L60.3121 152.803L59.9286 153.27L59.4698 153.57L58.9209 153.676L58.6427 154.3L58.2216 154.638L57.7478 154.871L57.259 155.097L56.6274 155.135L56.0934 155.33L55.8302 155.871L55.5444 156.36L54.8451 156.405L54.6647 156.992L54.3638 157.443Z" fill="#86F0FD"/>
<path d="M35.7941 149.908L35.6362 150.63L35.1474 151.066L35.1098 151.645L35.1699 152.224L35.388 152.811L34.9744 153.322L35.0121 153.879L34.7488 154.45L35.3203 154.969L35.5309 155.48L34.9218 156.165L35.5234 156.586L35.2526 157.255L36.0197 157.526L36.3355 157.955L36.2002 158.631L36.6589 158.977L36.9522 159.428L37.3357 159.804L37.4485 160.421L37.7643 160.887L38.5088 160.872L38.5614 161.654L39.0503 161.918L39.5691 162.128L40.2309 162.091L40.5618 162.587L40.855 163.158L41.5393 163.031L42.0432 163.211L42.359 163.813L42.8327 164.106L43.4794 163.955L43.9984 164.091L44.4797 164.339L44.9685 164.595L45.4347 164.918L46.0889 164.61L46.5702 164.873L47.0214 165.249L47.6229 165.053L48.1494 165.166L48.5404 165.858L49.1044 165.798L49.6609 165.753L50.1873 165.858L50.6987 166.008L51.2777 165.76L51.8041 165.858L52.3229 166.031L52.8193 166.497L53.3757 166.272L53.8947 166.572L54.4436 166.219L54.9775 166.595L55.5039 165.911L56.0604 166.595L56.5642 165.903L57.1207 166.294L57.617 165.768L58.1584 165.873L58.7224 166.114L59.2489 165.993L59.8279 166.189L60.2791 165.655L60.7753 165.422L61.4221 165.881L61.956 165.753L62.1064 165.166L62.0613 164.88L61.9485 164.249L61.1965 164.226L61.1063 163.512L60.625 163.219L59.9331 163.256L59.7377 162.527L59.0609 162.624L58.5796 162.391L58.1058 162.083L57.5794 161.925L57.0455 161.797L56.4589 162.038L55.925 162.053L55.4137 161.481L54.8571 161.715L54.3157 161.827L53.7818 161.369L53.2178 161.88L52.6689 161.857L52.12 161.699L51.601 161.542L51.0747 161.436L50.5708 161.218L50.0745 161.015L49.5632 160.88L48.9389 161.233L48.4727 160.902L47.9614 160.722L47.3372 160.978L46.9312 160.481L46.4574 160.196L46.0212 159.857L45.5174 159.714L44.788 160.083L44.4872 159.444L44.0285 159.173L43.5472 158.947L43.1185 158.624L42.3891 158.819L42.0807 158.3L41.7874 157.782L41.3814 157.436L40.9452 157.15L40.306 157.097L39.8774 156.766L39.321 156.556L39.4338 155.714L38.7193 155.661L38.5464 155.12L38.1629 154.759L38.193 154.097L37.5612 153.894L37.5463 153.292L36.8168 153.112L36.7566 152.548L36.3055 152.179L36.0348 151.713L36.0498 151.134L35.8692 150.63L35.7941 149.908Z" fill="#38D8E5"/>
<path d="M122.364 161.12L122.417 161.308L122.274 161.895L122.958 162.338L122.725 162.932L123.019 163.466V164.03L122.831 164.587L123.094 165.173L122.695 165.685L122.635 166.241L122.116 166.662L121.876 167.144L121.936 167.738L121.492 168.106V168.715V169.377L120.763 169.505L120.635 170.106L120.033 170.272L119.913 170.934L119.319 171.077L119.131 171.731L118.341 171.543L118.07 172.114L117.649 172.46L117.221 172.821L116.582 172.761L115.965 172.693L115.574 173.129L115.063 173.287L114.739 173.972L114.062 173.656L113.551 173.814L113.032 173.964L112.558 174.273L111.972 174.13L111.506 174.521L111.032 174.904L110.445 174.709L109.866 174.483L109.407 175.017L108.874 175.092L108.355 175.28L107.828 175.355L107.294 175.378L106.708 174.972L106.227 175.566L105.685 175.619L105.129 175.303L104.602 175.573L104.061 175.16L103.527 175.408L102.993 175.303L102.452 175.401L101.933 175.228L101.384 175.333L100.895 174.912L100.293 175.37L99.7444 175.378L99.233 175.175L98.7141 174.987L98.2178 174.754L97.7591 174.363L97.2252 174.288L96.759 173.972L96.1272 174.227L95.646 173.972L95.0293 174.122L94.7737 173.626L94.7812 173.107L95.4053 172.957L95.9092 172.723L96.0897 172.062L96.6236 171.866L97.2778 171.926L97.4884 171.129L98.105 171.159L98.5412 170.693L99.1427 170.791L99.6767 170.595L100.233 170.565L100.782 170.498L101.331 170.806L101.888 170.55L102.414 170.919L102.963 170.858L103.489 171.114L104.053 170.836L104.61 170.731L105.151 170.874L105.678 170.505L106.234 171.107L106.723 170.415L107.309 171.001L107.828 170.806L108.287 170.227L108.843 170.37L109.46 170.791L109.971 170.565L110.393 170.009L110.889 169.806L111.551 170.227L112.024 169.941L112.408 169.4L112.919 169.257L113.446 169.144L113.852 168.745L114.604 169.129L115.078 168.873L115.296 168.114L115.92 168.159L116.356 167.85L116.747 167.467H117.401L117.469 166.67L118.198 166.73L118.469 166.234L118.695 165.73L119.108 165.414L119.529 165.098L120.041 164.85L120.469 164.512L120.62 163.963L120.582 163.308L121.357 163.188L121.432 162.617L121.605 162.12L122.206 161.834V161.248L122.364 161.12Z" fill="#38D8E5"/>
<path d="M104.768 165.52L105.196 164.919L104.738 164.467L104.67 163.926L104.219 163.535L104.347 162.888L104.211 162.324L103.647 162.046L103.166 161.738L103.031 161.166L102.782 160.655L102.436 160.234H101.692L101.775 159.331L100.993 159.414L100.699 158.918L100.105 158.812L99.782 158.346L99.4737 157.827L98.8871 157.737L98.4284 157.451L97.887 157.316L97.5335 156.842L97.2026 156.316L96.6236 156.248L95.9995 156.293L95.4805 156.135L95.1647 155.534L94.7586 155.105L94.0217 155.436L93.6156 155.007L93.0667 154.925L92.6305 154.549L92.2018 154.15L91.4875 154.504L91.0137 154.24L90.5174 154.015L90.0812 153.601L89.4195 153.879L89.081 153.157L88.5773 152.932L87.9982 152.977L87.4041 153.075L86.8476 153.067L86.4341 152.473L85.8926 152.383L85.3662 152.27L84.7796 152.413L84.336 151.879L83.6893 152.36L83.2005 152.067L82.6966 151.879L82.1251 152.029L81.6288 151.751L81.1325 151.465L80.6211 151.187L79.997 151.774L79.5533 151.067L78.9667 151.405L78.4704 151.037L77.929 150.992L77.3499 151.458L76.8386 151.12L76.2971 151.202L75.7707 151.089L75.2518 150.668L74.7029 150.834L74.1539 151.187L73.6351 150.578L73.0936 150.984L72.5522 150.578L72.0183 150.646L71.4844 150.781L70.9429 150.879L70.409 150.939L69.8751 151.014L69.3262 150.894L68.8148 151.247L68.2809 151.277L67.7319 151.232L67.1904 151.217L66.6942 151.548L66.1753 151.699L65.6639 151.894L65.0322 151.473L64.4833 151.503L64.0998 152.217L63.5583 152.263L62.9492 152.082L62.3627 152.037L61.8739 152.3L61.5429 152.985L61.0316 153.127L60.4752 153.18L59.8886 153.195L59.3095 153.24L58.8885 153.631L58.3319 153.752L57.986 154.24L57.4446 154.398L57.0837 154.842L56.9107 155.519L56.0985 155.346L55.8429 155.887L55.1961 155.977L55.1134 156.684L54.557 156.895L54.1057 157.218L54.0832 157.91L53.7147 158.286L53.3086 158.64L53.1056 159.151L52.6544 159.474L52.0603 159.715L52.0227 160.339L51.6918 160.76L51.549 161.302L50.9398 161.557L50.7368 162.046L50.5714 162.572L50.3082 163.031L49.8795 163.407L49.8344 163.994L49.481 164.415L49.3757 164.956L49.0749 165.4L49.0148 165.956L48.947 166.513L48.2703 166.799L47.9544 167.242V167.829L48.0897 168.461L47.7063 168.889L47.789 169.521L46.9994 169.844L46.879 170.401L47.0069 171.04L47.0295 171.634L46.2248 171.987L46.4279 172.634L46.5857 173.258L46.0217 173.694L45.736 174.04L45.36 174.116L44.8186 174.236L44.2772 174.334L43.8486 175.041L43.2394 174.853L42.6603 174.762L42.1114 174.792L41.585 175.356L40.9909 174.86L40.4495 175.101L39.9006 175.146L39.3666 174.988L38.8252 174.913L38.2687 174.965L37.7047 175.01L37.1257 175.078L36.712 174.416L36.118 174.559L35.5615 174.499L35.1479 173.958L34.4937 174.326L33.9973 174.123L33.4785 173.83L32.8769 173.627L32.3806 174.033L31.794 174.146L31.4782 174.695L31.0496 175.041L30.7186 175.477L30.2976 175.86L29.8915 176.266L29.8163 176.86L29.8689 177.485L29.2898 177.845L29.0793 178.357L29.3951 179.019L29.2749 179.545L28.9966 180.041L28.7785 180.56L28.5378 181.094L28.5981 181.658L28.6808 182.207L28.9289 182.748L28.8462 183.237L29.1094 183.666L29.523 184.019L29.9516 184.358L30.4555 184.606L30.8164 185.02L31.0119 185.681L31.5534 185.877L31.9519 186.275L32.4407 186.524L33.1476 186.403L33.4484 186.99L33.9071 187.306L34.5538 187.2L35.0351 187.448L35.539 187.674L35.9826 188.073L36.5617 188.028L37.1031 188.103L37.6821 187.93L38.1484 188.411L38.6748 188.697L39.2238 188.817L39.7802 188.825L40.3066 188.155L40.8406 188.133L41.3594 188.012L41.9686 188.456L42.5175 188.434L42.9988 188.065L43.6003 188.268L44.014 187.636L44.6381 187.922L45.1946 187.937L45.6608 187.539L46.2624 187.712L46.6986 187.208L47.2024 187.012L47.7664 187.042L48.2251 186.576L48.8343 186.877L49.2704 186.305L49.887 186.644L50.3532 186.178L50.8797 186.035L51.5114 186.524L52.0377 186.373L52.5867 186.411L53.1056 186.245L53.6395 186.117L54.1885 186.178L54.7073 185.907L55.2638 185.99L55.7526 185.38L56.3392 185.817L56.858 185.433L57.407 185.396L57.9559 185.411L58.5049 185.516L59.0539 185.388L59.5577 185.854L60.0615 186.035L60.6331 185.877L61.2497 185.696L61.6633 186.163L62.0318 186.621L62.7762 186.336L63.0921 186.854L63.641 187.027L63.7162 187.749L64.3404 187.862L64.7916 188.185L65.0322 188.682L65.333 189.118L65.4834 189.689L66.2655 189.735L66.2806 190.426L66.5814 190.885L67.0927 191.133L67.7094 191.254L68.0778 191.63L68.3184 192.179L68.702 192.555L69.3487 192.57L69.5743 193.216L70.0556 193.472L70.4691 193.863L70.9354 194.179L71.6724 193.878L72.1912 194.013L72.6198 194.382L73.1463 194.525L73.7028 194.555L74.1314 195.014L74.6352 195.209L75.2218 195.179L75.6655 195.525L76.1317 195.788L76.6356 195.999L77.0491 196.36L77.2221 196.954L78.0793 196.871L78.0644 197.6L78.5681 197.924L78.7186 198.495L79.4254 198.743L79.3728 199.405L79.6059 199.909L79.7864 200.443L79.9293 200.984L80.1624 201.496L80.3128 202.037L80.6061 202.541L81.0197 203L80.8542 203.624L80.8166 204.203L81.1776 204.692L81.1475 205.263L81.3355 205.79L81.3731 206.346L81.3431 206.91L81.2077 207.474L81.1475 208.031L81.4859 208.557L81.7416 209.083L81.8769 209.602L82.0273 210.106L82.0574 210.678L82.3055 211.174L82.4711 211.753L82.7944 212.234L83.584 212.159L84.0653 212.37L84.4788 212.685L84.9902 212.828L85.4565 213.069L85.9152 213.37L86.4716 213.332L86.968 213.558L87.5094 213.528L88.0208 213.708L88.5021 214.302L89.081 213.941L89.6075 214.114L90.1564 214.167L90.728 214.25L91.1791 213.836L91.525 213.34L92.0214 213.137L92.6004 213.031L93.2772 213.001L93.375 212.264L93.6608 211.791L94.4654 211.783L94.8112 211.332L95.1797 210.888L95.0595 210.204V209.64L95.4129 209.234L95.7889 208.79L95.8942 208.271L96.195 207.767L95.9919 207.211L96.1724 206.685L95.849 206.158L96.007 205.632L95.9543 205.105L95.5257 204.609L95.6986 204.06L95.9167 203.519L95.6535 202.985L95.9468 202.443L96.037 201.909L95.7212 201.368L96.1272 200.849L95.8115 200.293L95.5858 199.736L95.7588 199.21L95.6986 198.661L95.834 198.134L95.8942 197.593L96.428 197.119L96.3077 196.563L96.0746 195.991L96.2401 195.472L96.5559 194.983L96.5333 194.435L96.3529 193.855L96.962 193.427L96.7815 192.84L97.1274 192.367L97.15 191.825L97.4884 191.359L97.6914 190.855L97.4132 190.238L97.3305 189.659L98.0072 189.283L98.0674 188.742L98.308 188.253L98.3306 187.704L98.4209 187.17L98.6916 186.689L98.6615 186.125L98.7292 185.584L98.8119 185.05L99.2556 184.621L99.1578 184.027L99.5714 183.598L99.7218 183.087L99.9625 182.606L99.9249 182.027L100.203 181.553L100.248 181.004L100.083 180.38L100.842 180.071L100.602 179.417L100.948 178.966L100.752 178.334L101.226 177.921L101.572 177.469L101.271 176.793L102.113 176.514L101.827 175.845L102.264 175.424L102.211 174.838L102.421 174.341L102.459 173.777L103.083 173.424L102.948 172.8L103.459 172.409L103.512 171.852L103.775 171.363L103.587 170.724L104.241 170.378L104.174 169.762L104.061 169.137L104.535 168.724L104.429 168.107L105.053 167.724L105.234 167.19L104.896 166.573L105.332 166.047L104.768 165.52Z" fill="#86F0FD"/>
<path d="M58.2417 81.5371L58.7531 81.695L59.1441 82.0936L59.6405 82.3192L59.9412 82.8456L60.4225 83.0862L60.9339 83.2968L61.5881 83.2817L61.7085 84.0789L62.2574 84.2368L62.6184 84.6579L63.2049 84.7707L63.5508 85.2069L63.9569 85.5753L64.6562 85.5603L64.942 86.0717L65.5887 86.1393L65.6188 86.9741L66.2956 87.0041L66.7994 87.2523L66.9423 87.9291L67.213 88.4329L67.8598 88.5232L68.2959 88.8465L68.6419 89.2752L69.0554 89.6286L69.4164 90.0422L69.7774 90.4483L70.0105 90.9897L70.4391 91.3281L71.161 91.3883L71.2738 92.035L71.5521 92.5163L72.274 92.599L72.4921 93.1404L72.9583 93.4563L73.3794 93.8172L73.778 94.1932L73.6125 95.0505L74.2969 95.1934L74.5751 95.6822L75.1842 95.8852V96.5695L75.7858 96.7801L75.9062 97.3591L75.9437 97.9908L76.6431 98.1412L77.0868 98.4871L77.1921 99.0661L77.7184 99.3594L77.8011 99.946L77.8764 100.54L78.4779 100.796L78.6209 101.337L78.8916 101.796L78.869 102.428L79.3352 102.773L79.5533 103.262L80.1098 103.556L80.373 104.029L80.3278 104.661L80.5009 105.165L81.2378 105.383L81.0724 106.067L81.7191 106.338L81.3806 107.09L81.6814 107.624L82.456 107.406L82.7644 108.052L83.2231 108.338L83.8698 108.188L84.4338 108.203L84.712 109L85.3211 108.887L85.8475 109.023L86.3062 109.346L86.8627 109.368L87.2988 109.805L87.9982 109.301L88.4946 109.504L88.8555 110.256L89.3819 110.354L89.9986 110.075L90.5626 110.008L91.0363 110.354L91.4875 110.827L92.059 110.707L92.653 110.391L93.1343 110.82L93.7058 110.594L94.1871 111.068L94.7361 111L95.2625 111.151L95.8115 111.091L96.3604 110.895L96.8868 111.068L97.4132 111.218L97.9471 111.309L98.481 111.572L99.03 111.015L99.5639 111.203L100.098 110.978L100.647 111.264L101.166 110.88L101.737 111.384L102.249 110.955L102.767 110.752L103.331 110.985L103.85 110.79L104.444 111.233L104.993 111.203L105.49 110.812L105.986 110.519L106.565 110.647L107.129 110.737L107.67 110.624L108.137 110.188L108.663 110.06H109.22L109.784 110.068L110.167 109.391L110.724 109.399L111.408 109.782L111.897 109.511L112.34 109.128L112.776 108.714L113.356 108.737L113.889 108.609L114.371 108.353L114.807 107.985L115.469 108.143L115.845 107.639L116.303 107.338L116.755 107.022L117.326 106.97L117.702 106.503L118.206 106.308L118.838 106.338L119.146 105.774L119.898 106.007L120.101 105.285L120.65 105.15L121.154 104.947L121.447 104.398L122.041 104.323L122.688 104.315L122.943 103.713L123.319 103.307L123.823 103.097L124.32 102.856L124.613 102.352L124.944 101.909L125.312 101.518L126.079 101.593L126.162 100.863L126.959 100.841L126.508 100.209L126.651 99.6527L126.876 99.0661L126.952 98.4946L126.215 98.0284L126.583 97.4042L126.523 96.8402L125.891 96.4191L126.26 95.7423L126.222 95.1558L125.846 94.6895L125.35 94.2985L125.064 93.8473L124.876 93.3585L125.222 92.599L124.951 92.1252L124.463 91.7793L124.034 91.4108L123.688 91.0047L123.507 90.4784L123.327 89.952L122.989 89.5308L122.402 89.3128L122.349 88.666L121.988 88.26L121.763 87.7336L121.387 87.3425L120.733 87.2448L120.229 87.0117L120.184 86.2446L119.447 86.2897L118.988 86.0115L118.65 85.5904L118.086 85.4625L117.672 85.1317L117.424 84.5451L116.973 84.2593L116.303 84.3571L116.025 83.7179L115.454 84.0563L114.935 83.5299L114.378 83.8758L113.844 83.7706L113.31 83.6277L112.776 83.3645L112.22 83.8533L111.679 83.8006L111.137 83.8683L110.618 83.3795L110.062 83.7555L109.528 83.4848L108.994 83.3043L108.452 83.3344L107.911 83.3795L107.362 83.6577L106.836 83.2216L106.279 83.7029L105.738 83.6352L105.219 83.1614L104.677 83.0938L104.113 83.6728L103.587 83.372L103.053 83.0486L102.519 82.9509L101.97 83.2141L101.421 83.4622L100.895 82.9659L100.353 82.996L99.8196 82.808L99.2782 82.8155L98.7368 82.8456L98.1952 82.9734L97.6388 83.3269L97.1199 82.7178L96.5785 82.6726L96.037 82.823L95.4956 82.7629L94.9316 83.2968L94.4203 82.6877L93.8788 82.7178L93.3148 83.2441L92.7734 83.169L92.232 83.2441L91.713 82.635L91.1641 82.8982L90.6227 82.9283L90.1038 82.4546L89.5623 82.432L88.9983 82.9058L88.4569 82.9584L87.9381 82.3794L87.3966 82.4771L86.8552 82.5147L86.2912 82.996L85.7798 82.2891L85.2158 82.9659L84.6819 82.7328L84.1405 82.7629L83.6066 82.5298L83.0651 82.5598L82.5387 82.3042L81.9898 82.3568L81.4633 82.1162L80.8918 82.7478L80.3654 82.4696L79.8391 82.1086L79.2976 82.1011L78.7562 82.1237L78.2148 82.2139L77.6658 82.3718L77.1244 82.3794L76.5754 82.5899L76.049 82.2139L75.5151 82.0861L74.9811 81.9432L74.4171 82.417L73.8908 82.1914L73.3418 82.3794L72.8229 81.7552L72.274 81.9131L71.7326 82.056L71.1911 82.0034L70.6422 82.2666L70.1007 82.229L69.5593 82.2966L69.0179 82.1763L68.4914 81.8003L67.9425 81.9883H67.4086L66.8672 81.9056L66.3332 81.7326L65.7842 81.9357L65.2504 81.7853L64.7239 81.507L64.1825 81.4394L63.6185 82.0259L63.0846 81.9432L62.5507 81.7627L62.0017 81.8981L61.4678 81.7477L60.9414 81.3717L60.3925 81.6349L59.8585 81.3115L59.302 81.6875L58.7606 81.8003L58.2417 81.5371Z" fill="#1974CE"/>
<path d="M86.5989 30.7616L87.1746 30.895L88.0243 30.4904L88.7226 30.6048L89.244 31.3172L89.8872 31.6032L90.7372 31.2205L91.3508 31.5989L92.0491 31.7133L92.583 32.3862L93.2643 32.5534L94.0341 32.4214L94.7366 32.5226L95.2451 33.2747L95.9391 33.4023L96.8396 32.8393L97.3314 33.6441L98.0043 33.8377L98.854 33.4331L99.3752 34.1457L100.12 34.1149L100.705 34.6294L101.533 34.2908L102.155 34.6427L102.639 35.4959L103.362 35.5093L104.25 34.9639L104.834 35.4785L105.512 35.6588L106.168 35.9271L106.858 36.0678L107.437 36.5737L108.182 36.5209L108.796 36.9212L109.561 36.8025L110.256 36.9301L110.878 37.304L111.509 37.6294L112.316 37.3788L112.922 37.8273L113.591 38.034L114.171 38.5399L114.945 38.3947L115.516 38.9271L116.299 38.7555L116.854 39.3625L117.569 39.424L118.212 39.71L118.999 39.5253L119.718 39.5737L120.176 40.4842L121.039 40.0399L121.682 40.3478L122.182 41.1264L122.91 41.1483L123.545 41.4825L124.45 40.8844L125.038 41.364L125.547 42.1379L126.258 42.1907L127.032 42.0675L126.729 42.7198L126.196 43.2039L125.958 43.8992L125.324 44.3144L125.029 44.9622L124.809 45.6704L124.139 46.0596L123.791 46.6686L123.581 47.3943L122.902 47.7662L122.735 48.5132L122.511 49.2127L121.443 49.3219L121.343 50.112L120.748 50.5617L120.829 51.4679L120.115 51.8358L119.427 52.2122L119.088 52.8385L118.961 53.5983L118.755 54.3108L118.386 54.9199L117.751 55.3351L117.425 55.9658L117.343 56.7687L116.792 57.2399L116.347 57.7886L115.535 58.0745L115.037 58.5844L114.65 59.1807L114.784 60.1257L114.511 60.7951L114.097 61.361L113.272 61.6426L113.314 62.5361L112.387 62.7489L112.437 63.6379L111.648 63.9454L111.137 64.4511L110.908 65.1419L110.433 65.6735L110.456 66.5542L110.069 67.1285L109.04 67.2723L108.671 67.8815L108.827 68.8482L108.347 69.3711L107.955 69.9586L107.192 70.2746L107.211 71.1464L106.315 71.3762L105.835 71.8992L105.947 72.8444L105.312 73.2596L104.845 73.7868L104.175 74.176L104.283 75.1127L103.475 75.4072L103.15 76.0378L102.86 76.6943L102.309 77.1654L102.005 77.8177L101.37 78.2329L101.319 79.053L100.626 79.4207L100.739 80.3659L100.324 80.9319L99.2918 81.0669L98.9662 81.6976L98.4197 82.1774L98.5407 83.1182L97.9765 83.5851L97.2001 83.8968L97.5154 84.9799L97.1013 85.5459L96.0203 85.6507L95.7786 86.3373L95.7137 87.1534L95.0967 87.5814L94.6296 88.1086L94.5163 88.8944L93.5853 89.0983L93.5689 89.9444L93.3011 90.6225L92.8339 91.1497L92.1152 91.5088L92.3023 92.4926L91.8573 93.0415L91.5364 93.6807L90.4152 93.7511L89.944 94.2914L90.2504 95.3571L89.39 95.6129L88.9629 96.1745L89.0881 97.1241L87.9892 97.2161L87.7829 97.9286L87.6254 98.6711L87.3351 99.3276L86.3378 99.4885L86.0168 100.128L86.2923 101.176L85.1226 101.217L85.0975 102.045L84.3958 101.646L84.6124 100.697L83.7062 100.414L83.4222 99.7556L83.1818 99.0748L82.7326 98.5235L82.701 97.7132L82.1081 97.247L81.6066 96.7226L81.2704 96.0912L80.7863 95.5579L81.1117 94.5416L80.5449 94.0619L80.2174 93.426L79.3373 93.1297L79.6975 92.0955L78.9304 91.719L78.9597 90.8772L77.8971 90.697L77.6696 89.9985L77.4988 89.2818L76.8886 88.8246L76.3522 88.3182L76.7253 87.2663L75.9366 86.912L75.8485 86.1417L75.1946 85.7069L74.8151 85.1198L74.5399 84.4569L74.5954 83.6016L73.8545 83.2116L73.7315 82.4593L73.4259 81.8231L72.7372 81.4062L72.2183 80.8909L72.1651 80.1026L71.6897 79.5649L71.2056 79.0316L70.717 78.4896L70.394 77.8624L70.2059 77.1546L69.8392 76.5499L69.8076 75.7395L68.7665 75.5372L68.9744 74.5924L68.1596 74.2515L68.4849 73.2352L67.609 72.9258L67.4295 72.2136L67.0892 71.5953L66.8226 70.928L66.06 70.5602L65.9544 69.7989L65.1831 69.4356L64.7643 68.8577L65.2158 67.7654L64.3183 67.4781L63.8081 66.9583L63.3241 66.425L63.6145 65.4267L63.313 64.7773L63.0249 64.1321L62.2623 63.7643L62.1133 63.0254L61.8292 62.3671L61.4714 61.7577L61.1657 61.1216L60.538 60.6733L60.4803 59.8763L59.6177 59.5711L59.251 58.9663L59.3631 58.0709L58.6657 57.6585L58.3078 57.0492L58.2894 56.243L57.2745 56.0272L56.947 55.3913L57.1286 54.46L56.2049 54.1862L56.4606 53.2058L55.4108 53.008L55.7145 52.0139L54.9561 51.6329L54.8942 50.8491L54.3491 50.3473L54.1696 49.6351L53.8031 49.0303L52.9795 48.6939L52.5129 48.1516L52.5422 47.3098L52.132 46.7275L51.9743 45.993L51.2117 45.6253L51.1235 44.855L50.5569 44.3753L50.6166 43.5068L49.9063 43.1121L49.2002 42.7042L49.6517 41.6119L48.6803 41.3737L48.2805 40.5546L49.2643 40.7312L49.8863 40.3337L50.6501 40.4474L51.1988 39.779L51.8577 39.5389L52.6445 39.7398L53.3122 39.4952L54.0304 39.4559L54.7395 39.3773L55.311 38.7964L55.9011 38.2941L56.6922 38.4819L57.2915 38.0189L57.9546 37.7656L58.6361 37.5909L59.3498 37.5209L59.9583 37.0973L60.6855 37.0755L61.4493 37.1891L62.2321 37.4033L62.8675 37.0319L63.4162 36.3635L64.2077 36.5952L64.7611 35.9575L65.5254 36.0929L66.0826 35.4202L66.8242 35.4901L67.5606 35.5076L68.2007 35.1669L68.9972 35.4291L69.6785 35.2325L70.2823 34.7783L70.8673 34.2234L71.6636 34.4857L72.2349 33.8828L73.1047 34.4158L73.6534 33.7475L74.3806 33.7257L74.92 33.018L75.7898 33.551L76.3654 32.9569L76.9599 32.4634L77.8202 32.9351L78.3876 32.3674L79.133 32.4023L79.911 32.5858L80.4778 31.9742L81.1504 31.7821L81.919 31.9264L82.6097 31.769L83.222 31.3104L83.7799 30.6814L84.4756 30.5766L85.1342 30.3145L85.9071 30.4456L86.5989 30.7616Z" fill="url(#paint1_linear_3435_520)"/>
<path d="M126.583 41.8159L127.052 42.4018L126.559 43.0025L126.021 43.6038L125.71 44.2559L125.537 44.9376L125.408 45.6409L125.204 46.3274L125.539 47.1502L125.406 47.8448L125.086 48.5014L125.287 49.2812L124.594 49.8396L124.505 50.556L124.59 51.306L124.386 51.9924L123.728 52.5549L123.787 53.2963L123.805 54.047L123.339 54.6564L123.401 55.4066L122.913 56.0162L122.602 56.6683L122.678 57.4227L122.149 58.0194L122.697 58.8887L122.221 59.5026L121.862 60.1463L121.693 60.8369L121.832 61.604L121.913 62.3674L120.881 62.8318L120.828 63.5521L120.49 64.1956L120.518 64.9418L120.759 65.7344L120.452 66.3954L120.163 67.0473L120.266 67.8104L119.844 68.4414L119.351 69.0421L119.881 69.9205L118.938 70.4062L118.797 71.1053L118.984 71.8808L118.767 72.563L118.972 73.3517L118.456 73.9527L118.635 74.7327L118.16 75.3465L117.809 75.9858L117.907 76.74L117.294 77.3243L117.895 78.2108L117.072 78.7352L117.158 79.4851L116.477 80.0479L117.159 80.9602L116.372 81.4886L116.292 82.2004L116.24 82.9207L116.28 83.6712L115.778 84.2765L116.019 85.0691L115.926 85.7766L115.321 86.3564L115.629 87.1705L114.562 87.631L115.047 88.4877L114.176 89.0037L114.328 89.7751L114.32 90.5393L113.623 90.8091L112.891 90.8838L112.367 91.5114L111.637 91.6084L110.906 91.7052L110.203 91.8772L109.788 92.7615L108.861 92.3673L108.111 92.4066L107.582 93.0033L107.063 93.6399L106.369 93.8296L105.757 94.2228L104.875 93.9392L104.259 94.3236L103.688 94.7963L102.88 94.7208L102.172 94.8618L101.675 95.5426L100.894 95.4977L100.278 95.8821L99.6983 96.3594L99.0962 96.7925L98.471 97.1592L97.5658 96.8092L96.9267 97.1272L96.384 97.6974L95.6854 97.8783L95.184 98.5502L94.4487 98.6382L93.672 98.6022L92.8907 98.5797L92.5041 99.5391L91.6816 99.4149L90.8591 99.2683L90.4953 100.294L89.7828 100.426L89.0979 100.634L88.5689 101.23L87.577 100.69L87.2314 101.752L86.4501 101.707L85.7011 101.768L85.0344 102.011L84.6443 102.033L84.1956 101.638L84.6347 100.953L84.6209 100.234L85.0112 99.5409L84.6912 98.8113L84.8016 98.0948L84.464 97.3742L85.1116 96.6829L84.5519 95.9426L85.0309 95.2487L84.6531 94.5153L84.7727 93.8164L84.5769 93.0899L84.7584 92.3814L84.7003 91.6623L84.509 90.9446L84.7262 90.2403L85.3295 89.5494L85.1692 88.8269L85.1245 88.1121L85.1728 87.4051L85.4787 86.6998L85.4072 85.9763L85.1938 85.2589L84.794 84.5256L85.2596 83.8274L85.2724 83.1164L85.6051 82.4196L85.4582 81.7015L85.4223 80.9821L85.2176 80.2601L85.1817 79.5407L85.5229 78.8395L85.1276 78.1151L85.1938 77.399L85.4331 76.6944L85.1397 75.9734L85.1703 75.2533L85.9023 74.5744L86.0972 73.8703L85.2268 73.1111L86.1185 72.4394L86.1537 71.7281L85.6738 70.9913L86.0643 70.2983L86.2458 69.5899L85.584 68.8462L86.1515 68.1514L85.5387 67.4161L85.7424 66.7074L85.6621 65.9885L86.4163 65.3094L85.9632 64.5813L86.1757 63.868L85.7405 63.1307L86.144 62.4421L86.179 61.7309L85.8013 60.9974L86.1206 60.2964L85.9515 59.5785L86.0311 58.8666L86.7497 58.1834L86.6916 57.4643L86.407 56.7388L86.9349 56.0532L86.5304 55.3112L86.799 54.8151L87.1555 54.2514L87.831 54.0041L88.604 54.0756L89.3213 53.9744L89.835 53.2179L90.5935 53.2186L91.2599 52.9536L91.9033 52.6223L92.6667 52.654L93.4579 52.7608L93.9858 52.0752L94.6428 51.7704L95.2907 51.4478L95.9571 51.1829L96.6787 51.0684L97.4142 51.0026L98.0996 50.8173L98.7842 50.5877L99.3352 49.9686L100.163 50.1906L100.871 50.0274L101.533 49.7758L102.07 49.0857L102.801 49.0334L103.629 49.2553L104.254 48.8442L105.063 49.0086L105.508 48.0529L106.433 48.5938L107.113 48.3553L107.627 47.6211L108.377 47.6262L109.015 47.2638L109.622 46.7951L110.449 47.0171L111.083 46.6459L111.704 46.2481L112.509 46.4037L113.157 46.059L113.666 45.3158L114.452 45.4139L115.243 45.5208L115.822 44.9769L116.488 44.712L117.136 44.3894L117.826 44.1908L118.603 44.2712L119.422 44.4533L119.853 43.4711L120.501 43.1486L121.218 43.0253L121.912 42.8356L122.569 42.5529L123.466 42.9741L124.197 42.8995L124.605 41.8509L125.401 41.9666L126.076 41.7193L126.583 41.8159Z" fill="url(#paint2_linear_3435_520)"/>
<path d="M48.374 40.4684L48.5729 41.3469L48.3015 42.104L48.7605 42.7383L49.0663 43.3965L49.5385 44.0351L48.773 44.8813L49.2407 45.5112L49.5378 46.1738L49.6206 46.8696L49.3231 47.6401L50.1669 48.2086L50.1884 48.9139L49.6678 49.7222L50.2667 50.3286L50.4414 51.0102L50.6468 51.687L50.5329 52.429L50.6157 53.1249L50.8123 53.8062L50.7465 54.5345L51.4067 55.1314L50.8903 55.9264L51.4237 56.5556L51.7776 57.2L51.4188 57.98L52.0396 58.5861L52.0264 59.3094L52.1485 59.996L51.5754 60.8093L52.2354 61.4062L51.9466 62.1722L52.7992 62.7362L52.6502 63.4742L52.6457 64.193L52.781 64.8839L52.4616 65.6546L52.5969 66.3455L53.2658 66.9378L53.3006 67.6474L53.567 68.3148L53.803 68.9869L54.0302 69.6635L53.3478 70.5L53.8548 71.1206L53.6753 71.8634L54.025 72.521L54.2915 73.1884L54.3569 73.8932L54.6847 74.551L54.1115 75.3643L55.1565 75.8953L54.4696 76.723L55.2742 77.3006L54.8541 78.0902L54.9762 78.7768L55.4047 79.4159L55.2383 80.1629L55.4436 80.8398L56.0643 81.446L55.9154 82.184L55.4341 82.983L55.8712 83.6176L55.7529 84.3509L56.295 84.9756L56.2553 85.6904L56.7143 86.3248L56.233 87.1238L56.5315 87.8959L57.5245 87.7482L58.0396 88.2986L58.4946 88.9681L59.2791 88.9719L59.7212 89.659L60.4331 89.8215L61.068 90.1338L61.9082 90.0317L62.3545 90.7057L63.0023 91.0003L63.8681 90.841L64.2804 91.5986L64.8168 92.105L65.7512 91.8221L66.1376 92.6151L67.0122 92.4513L67.2447 93.5661L68.2945 93.0364L68.8781 93.4633L69.2217 94.3445L69.818 94.7318L70.7995 94.3475L71.2545 95.017L72.0562 94.9899L72.357 95.9593L73.0091 96.2407L73.7466 96.3458L74.5441 96.3319L75.196 96.6134L75.8351 96.9125L76.1871 97.7673L76.8048 98.1105L77.581 98.1407L77.9974 98.8852L78.6879 99.0917L79.545 98.9368L79.9573 99.6944L80.6094 99.9759L81.2399 100.301L82.0203 100.318L82.7319 100.459L83.3411 100.829L84.0359 101.022L84.4737 101.722L85.1493 102.135L84.6794 101.33L85.0963 100.641L85.2677 99.9465L85.6057 99.2544L85.2333 98.5313L84.839 97.8085L85.3041 97.128L85.1817 96.4195L84.9014 95.7041L85.6209 95.025L85.2397 94.3064L85.4418 93.6071L85.7053 92.9203L85.1398 92.1865L85.434 91.4948L85.2765 90.7824L85.5926 90.0905L85.8429 89.3994L85.2687 88.6701L85.7733 87.9803L85.4931 87.2649L85.4409 86.5643L85.3404 85.8555L85.3757 85.1539L85.4112 84.4522L85.9377 83.7622L86.052 83.0641L86.1225 82.3664L86.2019 81.6642L86.1233 80.9551L86.1586 80.2536L86.4396 79.5577L85.9927 78.84L86.2386 78.1402L86.3748 77.4417L85.735 76.7131L86.5685 76.0413L86.4461 75.3328L85.9291 74.6071L86.1441 73.9121L85.9735 73.1953L86.728 72.5202L86.1234 71.7955L86.2377 71.0973L86.5755 70.4052L86.883 69.7178L86.1465 68.9729L86.9625 68.3101L86.1954 67.5699L86.5773 66.8772L86.9635 66.1933L86.7404 65.4815L86.2407 64.7469L86.9996 64.0804L87.2017 63.3812L86.7416 62.6592L86.5184 61.9474L87.093 61.2657L86.519 60.5363L87.3876 59.8684L87.1862 59.1565L87.1427 58.4514L86.7001 57.7205L86.9636 57.0336L87.1876 56.3341L86.7275 55.6121L87.4921 54.6782L86.2878 55.1221L85.8822 54.1846L85.0048 54.4932L84.4804 53.8815L83.8071 53.6441L83.2271 53.1602L82.4184 53.3232L81.7618 53.0331L80.9868 53.0906L80.5981 52.1003L79.9589 51.7793L79.1921 51.8104L78.3702 51.9692L77.7058 51.7492L77.2786 50.834L76.5118 50.8651L75.8556 50.5969L75.0975 50.6015L74.5517 50.0339L73.8614 49.8493L73.2393 49.4974L72.4513 49.5725L71.778 49.3351L71.2875 48.6398L70.6268 48.3628L69.7755 48.6359L69.2932 47.8923L68.6072 47.6945L67.7088 48.069L66.9891 47.9768L66.3795 47.5853L65.8718 46.8989L65.3048 46.3973L64.3469 46.9347L63.7206 46.5959L63.2466 45.804L62.4972 45.8041L61.8495 45.5094L61.1764 45.294L60.503 45.0566L59.8337 44.8061L59.3177 44.168L58.3304 44.7977L57.8992 43.9176L57.2004 43.7594L56.3362 44.0502L55.9472 43.0381L55.0322 43.4873L54.55 42.7436L53.7665 42.8275L53.2372 42.1852L52.3646 42.5024L51.857 41.838L51.3365 41.1912L50.4848 41.4424L49.8413 41.1345L49.113 41.0687L48.374 40.4684Z" fill="url(#paint3_linear_3435_520)"/>
<path d="M72.5412 49.3512L72.2834 50.1563L72.6117 50.858L72.0154 51.5619L71.9931 52.2678L72.7378 52.9645L72.5928 53.6674L72.7983 54.3663L72.0836 55.076L71.9738 55.7829L72.8366 56.4738L72.0562 57.1844L72.6257 57.8831L72.2528 58.5932L72.4452 59.2877L72.3571 59.9944L72.1902 60.6976L72.5843 61.3985L72.1764 62.1046L72.8992 62.8015L72.7979 63.504L72.631 64.2072L72.4993 64.9144L72.2227 65.6189L72.4284 66.3176L72.1651 67.0264L72.9756 67.7223L72.3266 68.4313L72.6987 69.1324L72.2556 69.8346L72.9478 70.5363L72.8115 71.2347L72.6272 71.9469L72.71 72.6427L72.9201 73.3502L72.1922 74.0558L72.709 74.7595L72.8006 75.4509L72.1297 76.1602L72.8788 76.8656L72.5234 77.5667L72.8386 78.2641L73.0705 78.9713L72.3864 79.6764L72.8024 80.377L72.6793 81.0797L73.0382 81.7766L72.3017 82.4866L72.8272 83.1859L72.4763 83.8957L72.4058 84.5934L72.7035 85.2998L72.5936 86.0068L72.4925 86.7092L72.5534 87.4053L72.5311 88.1111L72.2985 88.8151L72.583 89.5173L72.7009 90.2172L73.1913 90.9125L72.389 91.6233L72.7963 92.3284L72.6819 93.0266L72.9358 93.7336L72.3262 94.4333L72.9745 95.1355L73.0182 96.2263L71.9623 95.8883L71.5719 95.1304L70.7536 95.2322L70.5868 94.5036L69.8485 94.734L69.2225 94.3855L68.4299 93.6954L67.6885 93.6253L67.0542 93.3568L66.5867 92.7489L65.9865 92.3967L65.6476 91.9099L65.1422 91.4207L65.4138 90.6855L64.8583 90.0348L64.9504 89.3149L65.0339 88.5996L64.789 87.91L65.0826 87.1746L64.3475 86.5392L64.6325 85.8082L64.5452 85.1037L64.5979 84.3931L64.3881 83.7075L64.2351 83.0037L64.3537 82.2924L64.0037 81.6129L64.0261 80.907L63.9912 80.1974L64.1578 79.4723L64.1888 78.762L63.5806 78.1162L63.7255 77.3913L63.7125 76.6815L63.4808 75.9962L63.4199 75.3001L63.499 74.576L63.1535 73.9052L63.5521 73.1598L63.5087 72.4547L62.9924 71.7947L63.518 71.039L63.0762 70.3738L62.7701 69.6937L63.1423 68.9399L62.7968 68.2691L62.9941 67.5392L62.4166 66.8887L62.7408 66.1485L62.2597 65.4925L63.0215 64.7033L62.3828 64.0623L62.4225 63.3475L62.4447 62.6416L62.515 61.922L61.8411 61.2771L62.3974 60.5166L62.3145 59.8208L62.0916 59.131L61.5053 58.485L62.2367 57.7005L62.0575 57.0102L61.7294 56.3305L61.7604 55.6201L61.1696 54.9654L61.0781 54.274L61.5554 53.5101L61.6696 52.79L61.1578 52.1387L60.9348 51.4489L60.6856 50.7726L61.2461 49.999L60.9926 49.3139L60.7215 48.6378L61.0106 47.8937L60.9497 47.1976L61.0026 46.487L60.3287 45.8421L60.468 45.0208L61.2356 45.4411L61.9214 45.2533L62.5445 45.6929L63.2357 45.5794L64.0142 45.0793L64.6701 45.3256L65.3387 45.5324L65.9688 45.8141L66.5455 46.3989L67.2022 46.711L68.098 46.4811L68.5071 47.3396L69.3696 47.2591L70.1556 47.3944L70.5634 48.1433L71.2808 48.4021L71.7006 49.0677L72.5412 49.3512Z" fill="#FF5378"/>
<path d="M107.789 36.4352L106.823 36.2934L106.4 37.1838L105.56 36.9878L105.119 37.8433L104.451 38.066L103.48 37.486L103.102 38.5072L102.176 38.0581L101.763 38.9878L101.081 39.1844L100.21 38.8836L99.5646 39.1718L99.1326 40.0667L98.3653 40.032L97.4938 39.7313L97.0256 40.5125L96.1721 40.2467L95.6404 40.8623L94.9092 40.9192L94.3097 41.3602L93.6012 41.4826L93.0017 41.9237L92.2526 41.9457L91.7705 42.679L90.8763 42.3129L90.1451 42.3698L89.7493 43.3562L89.0318 43.4612L88.3914 43.78L87.7373 44.0508L87.0019 44.1209L86.4111 44.5575L85.6166 44.4706L85.1435 45.2213L84.2543 44.8857L83.6228 45.2219L82.8236 45.0824L82.1697 45.3751L81.4927 45.5805L81.0517 46.4359L80.3161 46.5062L79.7662 47.0649L79.1078 47.3489L78.2091 46.952L77.5143 47.1225L76.8285 47.3103L76.41 48.2313L75.552 47.9568L74.8844 48.2014L74.2303 48.4722L73.6621 48.9742L73.1441 49.6378L72.3219 49.0472L71.5223 49.6133L70.9513 49.1468L70.4187 48.5835L69.763 48.359L69.0563 48.2491L68.3112 48.258L67.664 48.0072L67.2375 47.1577L66.3396 47.576L65.9258 46.6869L65.0452 47.0743L64.4996 46.5286L63.8821 46.2074L63.1713 46.1325L62.4391 46.1018L61.7747 45.8818L61.1572 45.5606L60.9374 45.1337L61.3049 45.0767L62.0503 45.1116L62.5533 44.2904L63.2391 44.1026L63.8795 43.7837L64.6478 43.9061L65.4533 44.1857L66.0565 43.6876L66.7703 43.6397L67.3371 43.0281L68.0279 42.8927L68.7688 42.8969L69.5009 42.9277L70.2234 42.8753L70.8865 42.6219L71.3985 41.8181L72.2588 42.2899L72.8942 41.9186L73.6079 41.8706L74.1519 41.1716L74.815 40.9183L75.4826 40.6737L76.2234 40.6999L76.9508 40.678L77.6643 40.6081L78.2818 40.2019L78.9359 39.9312L79.773 40.2937L80.3813 39.8481L81.1404 39.9311L81.7623 39.5336L82.389 39.1668L83.1621 39.2977L83.7379 38.7256L84.5479 39.0139L85.0783 38.2887L85.8327 38.3411L86.5369 38.2319L87.0352 37.3801L87.8359 37.6291L88.4763 37.3102L89.2494 37.4632L89.9489 37.3234L90.5113 36.7031L91.1061 36.2314L91.8744 36.3538L92.6015 36.3099L93.233 35.9737L93.8547 35.5543L94.5726 35.4931L95.2816 35.4146L96.0641 35.6068L96.6996 35.2354L97.2622 34.637L97.9756 34.5672L98.8172 34.9384L99.4896 34.7244L100.096 34.1473L100.884 34.0722L101.545 34.3711L102.037 35.2199L102.833 35.0526L103.628 34.8634L104.23 35.347L104.845 35.7911L105.522 36.0372L106.259 36.0546L107.067 35.8259L107.789 36.4352Z" fill="#FF7090"/>
<path d="M67.2177 35.7137L67.4281 36.0793L67.9348 36.6781L68.8252 36.3738L69.4131 36.7875L69.9412 37.3422L70.6609 37.4344L71.3981 37.4957L71.8024 38.3236L72.7356 37.9311L73.255 38.4903L73.9882 38.5866L74.4264 39.3309L75.398 38.8416L75.956 39.3257L76.3391 40.2196L77.1612 40.0608L77.86 40.2189L78.4477 40.6327L79.0142 41.0905L79.8109 41.0108L80.4072 41.3981L81.1526 41.433L81.7107 41.9172L82.2644 42.4146L83.0821 42.269L83.734 42.5285L84.2918 43.0127L84.9353 43.2986L85.4592 43.8665L86.226 43.8573L86.6943 44.531L87.5207 44.381L87.9165 45.2352L88.675 45.2524L89.2585 45.6794L90.2259 45.2032L90.5492 46.2161L91.3289 46.1892L91.9209 46.5898L92.7985 46.3031L93.2626 47.012L94.085 46.8751L94.6385 47.3505L95.3246 47.5483L95.6776 48.4908L96.6407 48.0278L97.1177 48.697L97.7779 48.9301L98.5791 48.8592L98.8895 49.9118L99.7288 49.722L100.551 49.5851L100.917 50.5099L101.612 50.7032L102.323 50.7998L103.028 50.7563L103.724 50.3097L104.425 51.0509L105.056 50.307L105.788 50.6138L106.456 50.413L107.228 50.544L107.715 49.8414L108.339 49.5973L108.914 49.2572L109.479 48.8999L110.089 48.6078L110.637 48.2155L110.94 47.5633L111.421 47.1061L111.84 47.0003L111.32 47.0591L110.906 46.1481L109.999 46.5709L109.653 45.4706L108.844 45.6118L108.285 45.0838L107.366 45.5462L106.901 44.7716L106.02 45.1371L105.639 44.0986L104.809 44.3277L104.221 43.892L103.574 43.5974L102.824 43.5976L102.232 43.1751L101.597 42.841L100.983 42.4626L100.14 42.7313L99.4635 42.5508L98.8494 42.1506L98.1212 42.0848L97.6392 41.3631L96.9108 41.2973L96.3437 40.7737L95.5393 40.9455L94.845 40.7961L94.2992 40.2285L93.5625 40.189L92.7793 40.2948L92.2333 39.7273L91.4966 39.6878L91.0823 38.7549L90.3454 38.7156L89.5791 38.7685L89.0505 38.17L88.4028 37.8753L87.5132 38.2453L86.8741 37.9462L86.3622 37.295L85.507 37.6032L85.1012 36.6438L84.305 36.7673L83.4918 36.9436L82.8444 36.6708L82.1287 36.5655L81.5151 36.1871L81.1217 35.1882L80.4489 34.9947L79.6402 35.1576L78.844 35.2811L78.3874 34.4802L77.7611 34.1414L77.0242 34.1021L76.2788 34.0671L75.7626 33.4291L74.9794 33.8986L74.4108 33.9931L73.7429 34.2158L72.8923 33.8052L72.2288 34.0367L71.6851 34.7356L70.9255 34.6308L70.1292 34.3685L69.5487 34.932L68.9955 35.5917L68.2865 35.6703L67.5222 35.5348L67.2177 35.7137Z" fill="#FF7090"/>
<path d="M101.343 50.3347L101.24 51.2475L101.902 51.9978L101.91 52.6988L101.677 53.3809L101.554 54.0837L101.15 54.7546L101.431 55.4699L100.909 56.1468L101.509 56.8846L100.969 57.5485L100.977 58.2496L101.398 58.9809L101.314 59.6743L101.323 60.3754L101.252 61.0731L101.344 61.7863L100.427 62.4241L100.812 63.1514L100.628 63.8416L100.636 64.5428L101.136 65.2774L100.46 65.9341L100.425 66.6358L100.604 67.348L100.49 68.0462L100.222 68.7243L99.9231 69.4072L100.028 70.1247L100.488 70.8467L99.9263 71.5108L100.224 72.2392L99.8422 72.9099L99.649 73.6046L100.078 74.3314L100.337 75.0471L99.9856 75.7349L99.7308 76.4173L100.274 77.1515L99.7606 77.8238L99.8043 78.5288L99.4221 79.1996L99.2069 79.8946L99.3161 80.5989L99.4035 81.3035L99.3813 82.0093L99.5168 82.7221L99.148 83.397L99.1651 84.0936L99.2349 84.8072L99.7347 85.5418L99.1157 86.2023L99.4181 86.9173L99.5318 87.6303L99.2244 88.3177L99.3555 89.0218L98.6578 89.6787L98.6574 90.3843L98.5167 91.0741L98.9592 91.8051L98.5246 92.4809L98.8051 93.1962L98.5064 93.8791L98.9754 94.6185L98.2294 95.2673L98.6806 95.9939L98.3637 96.9837L99.1252 96.1507L99.783 95.8229L100.672 96.1147L101.117 95.2679L101.997 95.5203L102.619 95.1448L103.413 95.1659L103.89 94.424L104.77 94.6763L105.419 94.353L106.323 94.053L106.241 93.0811L106.447 92.3906L106.246 91.6347L106.531 90.9696L106.812 90.2957L106.852 89.5808L106.747 88.8414L106.861 88.1432L106.997 87.4447L106.883 86.7098L107.226 86.0483L107.45 85.3707L107.573 84.668L107.758 83.9778L107.965 83.2872L107.706 82.5278L108.426 81.9362L108.185 81.1678L108.242 80.4658L108.172 79.7305L108.756 79.1099L108.905 78.4157L108.594 77.6393L108.976 76.9905L108.713 76.2223L108.656 75.491L108.757 74.7887L109.499 74.1969L109.491 73.4738L109.798 72.8084L109.996 72.1223L110.185 71.4407L110.005 70.6847L110.01 69.966L110.194 69.2756L110.721 68.6515L110.313 67.8587L110.919 67.2379L110.476 66.4412L110.542 65.7347L110.463 65.0037L110.674 64.3219L111.127 63.681L111.131 62.9623L110.965 62.2104L111.259 61.5408L111.505 60.8629L112.151 60.2547L112.155 59.536L112.208 58.8253L112.511 58.1512L111.804 57.3138L112.463 56.7099L112.951 56.073L112.846 55.3336L113.175 54.6679L112.833 53.8962L112.969 53.1978L112.679 52.4211L113.47 51.8375L113.391 51.1066L113.734 50.4452L113.655 49.7142L113.462 48.9539L114.072 48.3418L113.506 47.5202L113.866 46.8717L114.438 45.9488L113.555 46.4371L112.987 46.9391L112.25 46.9656L111.65 47.3628L110.869 47.2581L110.251 47.5986L109.696 48.1267L109.001 48.2753L108.247 48.223L107.661 48.6902L106.797 48.3411L106.37 49.2446L105.656 49.3145L105.084 49.7859L104.225 49.4456L103.661 49.9782L103.107 50.5064L102.348 50.4453L101.343 50.3347Z" fill="#FF5378"/>
<path d="M92.0318 43.1019L92.6995 43.243L93.4844 42.9049L94.2119 42.905L94.8304 43.3139L95.4612 43.6614L96.244 43.5118L96.7943 44.0881L97.5137 44.1364L97.9487 44.9596L98.8983 44.4925L99.576 44.7167L99.8517 45.7871L100.627 45.7954L101.266 46.0725L101.742 46.6541L102.531 46.6886L103.024 47.2174L103.465 47.8169L104.479 47.5593L104.748 48.402L105.197 48.9531L105.862 49.2388L106.765 49.2587L106.968 50.1022L107.491 50.5605L108.13 50.9034L108.653 51.3836L108.998 52.0325L109.387 52.6152L110.222 52.8462L110.671 53.3975L110.895 54.131L110.953 54.9499L111.241 55.5951L112.021 55.9101L112.539 56.4254L112.623 57.187L112.654 57.9536L113.443 58.3299L113.518 59.074L114.325 59.4851L113.876 60.4327L114.4 60.9786L114.862 61.556L115.019 62.2466L115.203 62.9237L115.53 63.5597L115.95 64.1813L115.631 64.974L116.102 65.5907L115.997 66.3282L116.128 67.0103L116.461 67.6769L116.438 68.3828L116.394 69.0889L116.455 69.785L116.595 70.4845L116.809 71.1789L116.752 71.8807L116.43 72.4982L115.896 72.1671L115.438 71.5765L114.808 71.2948L114.027 71.2779L113.329 71.1196L112.767 70.7144L112.351 70.0357L111.438 70.2745L111.024 69.7054L110.279 69.7142L109.679 70.0676L109.23 70.6514L108.491 70.7786L108.283 71.7453L107.513 71.8334L106.841 72.0693L106.164 72.2965L105.752 73.0158L105.598 72.2463L105.848 71.5552L105.669 70.8431L106.296 70.1563L106.095 69.4443L105.701 68.7434L105.508 68.0489L105.61 67.3464L106.302 66.5712L105.882 65.9057L105.567 65.2301L105.339 64.5536L105.174 63.8675L105.139 63.158L105.222 62.4206L104.977 61.7531L104.96 61.0345L104.759 60.3444L103.977 59.8542L104.558 58.9049L103.842 58.4139L103.998 57.5837L103.627 56.9702L103.404 56.2804L102.541 55.9095L102.505 55.1342L102.343 54.413L101.759 53.9204L101.275 53.3871L101.026 52.6888L100.441 52.2181L100.431 51.3417L99.6036 51.0623L99.4625 50.2532L98.7094 49.9467L98.4424 49.2355L97.5813 49.0617L97.0712 48.5639L96.6828 47.9593L96.519 47.0847L95.8748 46.7331L95.0148 46.6469L94.9369 45.6179L93.8873 45.8058L93.3816 45.2946L92.8716 44.7967L92.6455 43.844L91.7005 44L91.3017 43.2685L90.6926 42.8988L90.0319 42.6219L89.1348 42.3564L90.0329 42.3458L90.71 42.5261L91.403 42.566L92.0318 43.1019Z" fill="url(#paint4_linear_3435_520)"/>
<path d="M81.1847 43.1019L80.517 43.243L79.7321 42.9049L79.0047 42.905L78.3861 43.3139L77.7553 43.6614L76.9726 43.5118L76.4223 44.0881L75.7029 44.1364L75.2679 44.9596L74.3182 44.4925L73.6406 44.7167L73.3648 45.7871L72.5891 45.7954L71.9501 46.0725L71.4743 46.6541L70.6851 46.6886L70.1923 47.2174L69.7512 47.8169L68.7374 47.5593L68.4689 48.402L68.0196 48.9531L67.3544 49.2388L66.4513 49.2587L66.2486 50.1022L65.7259 50.5605L65.0862 50.9034L64.5633 51.3836L64.2181 52.0325L63.83 52.6152L62.9944 52.8462L62.5452 53.3975L62.3216 54.131L62.2637 54.9499L61.9755 55.5951L61.196 55.9101L60.6771 56.4254L60.5935 57.187L60.5625 57.9536L59.7735 58.3299L59.6989 59.074L58.8919 59.4851L59.3406 60.4327L58.817 60.9786L58.3544 61.556L58.1971 62.2466L58.0138 62.9237L57.6863 63.5597L57.2668 64.1813L57.5859 64.974L57.1141 65.5907L57.2192 66.3282L57.0883 67.0103L56.756 67.6769L56.7783 68.3828L56.8224 69.0889L56.7615 69.785L56.6216 70.4845L56.4074 71.1789L56.4647 71.8807L56.7861 72.4982L57.3204 72.1671L57.7787 71.5765L58.4088 71.2948L59.1893 71.2779L59.8878 71.1196L60.4493 70.7144L60.8651 70.0357L61.7781 70.2745L62.1926 69.7054L62.9375 69.7142L63.538 70.0676L63.9868 70.6514L64.7259 70.7786L64.9336 71.7453L65.7039 71.8334L66.3759 72.0693L67.0525 72.2965L67.4646 73.0158L67.6185 72.2463L67.3681 71.5552L67.5476 70.8431L66.9204 70.1563L67.1217 69.4443L67.5157 68.7434L67.7082 68.0489L67.6069 67.3464L66.9149 66.5712L67.3349 65.9057L67.6497 65.2301L67.8771 64.5536L68.0429 63.8675L68.0778 63.158L67.9945 62.4206L68.2393 61.7531L68.2565 61.0345L68.4575 60.3444L69.2393 59.8542L68.6588 58.9049L69.3748 58.4139L69.2181 57.5837L69.5893 56.9702L69.8122 56.2804L70.6757 55.9095L70.7112 55.1342L70.8732 54.413L71.4577 53.9204L71.9417 53.3871L72.191 52.6888L72.7752 52.2181L72.7858 51.3417L73.6129 51.0623L73.7541 50.2532L74.5072 49.9467L74.7742 49.2355L75.6352 49.0617L76.1454 48.5639L76.5337 47.9593L76.6976 47.0847L77.3418 46.7331L78.2018 46.6469L78.2797 45.6179L79.3293 45.8058L79.835 45.2946L80.3449 44.7967L80.5711 43.844L81.516 44L81.9148 43.2685L82.5239 42.8988L83.1846 42.6219L84.0818 42.3564L83.1836 42.3458L82.5065 42.5261L81.8135 42.566L81.1847 43.1019Z" fill="url(#paint5_linear_3435_520)"/>
<path d="M89.2102 38.7967L89.4038 39.237L89.2054 40.2431L89.6906 40.8639L90.3027 41.1108L90.1783 40.5907L90.9403 40.1873L91.2971 39.5957L91.4904 38.9009L91.7278 38.2275L92.1681 37.6701L92.3434 36.9405L93.2699 36.7278L93.6486 36.136L94.2751 35.7472L94.3131 34.9009L94.9705 34.5293L95.3888 33.9722L95.6833 33.3025L96.1146 32.7276L96.4175 32.0315L97.3461 31.9941L97.6622 31.3022L98.2137 30.8749L98.8897 30.6039L99.508 30.2635L99.779 29.4625L100.366 29.083L100.833 28.5121L101.795 28.711L102.404 28.3969L102.925 27.9304L103.611 27.7426L103.844 26.7187L104.503 26.4785L105.369 26.6829L105.749 25.8588L106.349 25.5054L107.126 25.6013L107.745 25.2828L108.327 24.8726L109.178 25.3051L109.669 24.5454L110.296 24.2004L111.14 24.8127L111.739 24.284L111.493 24.9838L110.863 25.4296L110.775 26.2019L110.507 26.8801L109.917 27.3385L109.742 28.0901L109.39 28.7341L108.188 28.6696L107.748 29.2051L107.804 30.2125L107.173 30.5926L106.559 30.9856L106.408 31.8683L105.395 31.8058L105.284 32.767L104.692 33.1816L103.723 33.0968L103.524 34.037L102.718 34.1212L101.971 34.2528L101.522 34.8805L100.989 35.3865L100.089 35.2L99.6185 35.85L99.1803 36.5827L98.3372 36.4438L97.7778 36.9413L97.1965 37.4391L96.3429 37.1512L95.5971 37.0945L95.071 37.8063L94.2933 37.6447L93.5978 37.7494L92.9025 37.876L92.3005 38.4837L91.5723 38.4398L90.9005 38.6977L90.1876 38.8114L89.4613 38.5571L88.8204 38.8321L89.0817 39.425L89.7541 39.9385L89.3781 40.7493L89.534 41.3304L89.5552 42.0139L89.0001 42.4982L89.6405 42.9068L90.5008 42.6512L90.9362 43.5181L91.6818 43.553L92.275 44.0631L92.995 44.1553L93.7232 44.2211L94.4753 44.0763L95.2236 43.9664L95.9164 44.0064L96.5308 44.8143L97.2955 44.244L97.9619 45.003L98.6816 44.7316L99.4011 44.7799L100.114 44.6881L100.802 44.2679L101.493 44.1545L102.203 44.1854L102.973 44.4173L103.613 44.0766L104.185 43.5394L104.913 43.5394L105.544 43.2251L106.321 43.2772L106.768 42.5838L107.692 42.8577L108.01 41.9774L108.629 41.6587L109.305 41.4096L109.821 40.9345L110.328 40.442L111.137 40.3228L111.635 39.8128L112.058 39.2424L112.658 38.8451L113.306 38.478L113.472 37.6872L113.984 37.2034L114.097 36.3956L114.754 36.024L115.031 35.3633L115.732 34.9912L116.013 34.3392L116.348 33.726L117.031 33.2972L116.732 32.503L116.733 31.7974L116.606 31.0802L115.934 30.6106L116.068 29.7807L115.584 29.2254L115.357 28.5488L115.226 27.8448L114.624 27.3392L114.488 26.6265L114.139 26.0128L114.222 25.2097L113.632 24.6645L112.916 24.4934L112.296 24.0188L111.557 24.1021L110.811 24.431L110.135 23.9745L109.416 23.9699L108.707 24.0047L108.018 24.3373L107.375 24.7349L106.48 23.9831L105.76 24.2547L105.258 25.1196L104.523 25.2117L103.955 25.7356L102.992 25.4491L102.611 26.2074L102.006 26.5522L101.459 26.9882L101.116 27.6497L100.422 27.9078L100.11 28.5645L99.3505 28.8234L98.9765 29.4239L98.8764 30.2139L97.7199 30.2585L97.2926 30.8202L96.9228 31.4075L96.9596 32.2924L96.2098 32.6124L96.2513 33.528L95.9174 34.1849L95.0427 34.3488L94.3759 34.6592L94.224 35.52L93.7885 36.1081L93.1261 36.4272L92.3608 36.5678L91.8585 37.069L91.4414 37.7357L90.8907 38.2288L90.1873 38.4257L89.5965 38.8623L89.2102 38.7967Z" fill="#FF5378"/>
<path d="M88.4829 37.2455L88.6106 38.0285L88.7121 38.8029L89.6768 39.2209L90.0746 39.8647L89.9536 40.7427L90.1651 41.5817L91.0124 41.6854L91.7348 41.633L92.4051 41.2437L93.0862 41.0252L93.7448 40.7631L94.4577 40.6495L95.2375 40.6226L95.9268 40.3558L96.4637 39.8147L96.8544 39.1175L97.6992 39.0462L98.1439 38.4754L98.0972 37.5074L98.6798 37.1192L99.5537 36.8896L99.9232 36.2804L100.165 35.6157L100.544 35.0239L100.459 34.1967L100.728 33.5404L101.738 33.3837L102.162 32.879L102.124 31.9285L103.067 31.961L103.066 30.8041L103.961 30.9161L104.329 30.1096L105.195 30.4017L105.705 29.7645L106.341 29.415L107.07 29.5465L107.742 29.3544L108.47 30.082L109.139 29.2632L109.793 29.72L110.509 29.4178L111.189 29.4754L111.892 29.7081L112.68 29.6329L113.372 29.9271L113.914 30.5516L114.37 31.265L115.275 31.0963L115.979 31.3509L116.373 32.0517L116.877 32.4315L116.416 31.9417L116.062 31.3193L116.21 30.4936L115.704 29.9386L115.202 29.3924L115.419 28.5309L115.053 27.926L114.547 27.3711L114.224 26.7439L113.918 26.1077L114.053 25.2777L113.79 24.5972L112.872 24.3978L112.376 23.926L112.065 23.1934L111.662 22.5189L110.841 22.4235L110.361 21.8114L109.717 21.4597L108.97 21.3153L108.207 21.3331L107.618 20.7661L106.809 21.2709L106.179 20.6255L105.446 20.9147L104.756 21.1815L104.027 20.6643L103.351 20.9573L102.661 21.1145L101.901 21.0097L101.252 21.3111L100.494 21.3596L99.9035 21.7961L99.2768 22.163L98.6366 22.5037L97.9077 22.7579L97.9338 23.8357L96.9175 23.8741L96.7517 24.6649L96.2807 25.2271L95.823 25.8156L95.4276 26.4601L95.1244 27.1343L95.3533 27.9423L95.5206 28.738L95.411 29.4668L94.4342 29.8817L94.3553 30.6057L93.8094 31.1294L94.0792 32.0816L93.3742 32.4888L93.1772 33.2406L92.4403 33.565L92.1678 34.2344L91.3813 34.4191L91.4328 35.4397L90.9479 35.9319L90.2586 36.1987L89.854 36.8039L89.0391 36.8268L88.4829 37.2455Z" fill="#FF7090"/>
<path d="M85.5558 37.8086L85.0714 38.7083L84.6806 39.3836L84.5234 40.17L83.8489 40.9363L83.8012 39.8806L82.7782 39.7131L82.338 39.2013L82.1719 38.4932L81.7405 37.9769L81.5264 37.2826L80.8171 36.9755L80.4203 36.4193L80.3101 35.6274L79.7266 35.2224L79.6637 34.351L78.7686 34.2609L78.7268 33.3234L78.0268 33.0557L77.1321 33.0094L76.9902 32.1346L76.6792 31.424L75.6729 31.5675L75.293 30.9365L74.7489 30.5223L74.0066 30.3866L73.6045 29.756L73.2154 29.0856L72.6711 28.6495L72.0366 28.359L71.3333 28.1921L70.802 27.7383L70.0474 27.6861L69.6271 26.9766L68.9373 26.8359L68.3626 26.4264L67.6561 26.3384L66.8641 26.4487L66.4982 25.5459L65.5281 26.1448L64.932 25.7794L64.5396 24.8462L63.6725 25.2597L63.0683 24.9426L62.4216 24.7356L61.9219 24.0009L61.2281 23.8953L60.3766 24.5102L59.8298 23.877L59.0708 24.1577L58.8744 23.862L58.9088 24.186L59.0627 24.9555L59.5554 25.4843L60.0828 25.9732L60.7664 26.3156L60.8166 27.2266L61.3656 27.6934L62.4083 27.6634L62.6107 28.463L63.1595 28.9078L63.3279 29.7911L64.3003 29.7532L64.5426 30.5873L65.0181 31.147L65.6878 31.4415L66.6464 31.3335L66.8205 32.3351L67.3783 32.7973L68.3703 32.562L68.8678 33.1214L69.4084 33.6145L70.0307 33.9884L70.6059 34.4417L71.3907 34.4674L72.0471 34.7576L72.5546 35.4001L73.2454 35.6285L74.004 35.6677L74.563 36.2395L75.22 36.5735L75.995 36.5161L76.7782 36.4103L77.5061 36.4322L78.1504 36.8058L78.8695 36.8322L79.6015 36.841L80.3037 36.9203L80.8551 37.97L81.6799 37.3027L82.3112 38.0577L83.0459 37.9219L83.7571 38.0185L84.4947 37.7599L84.9408 38.0482L84.9608 38.622L84.8864 39.3768L83.9375 39.9096L84.4472 40.7494L84.0658 41.4859L84.5937 42.3824L83.7569 42.7693L82.9026 42.4377L82.2076 42.5862L81.7367 43.5121L80.8719 43.0316L80.3243 43.7876L79.4899 43.2805L78.8138 43.5515L78.2153 44.0802L77.5659 44.3816L76.8644 44.3461L76.1853 44.3762L75.498 44.4326L74.7753 43.7356L74.1282 44.598L73.4405 43.905L72.7518 44.1936L72.049 44.4343L71.3919 44.1004L70.7055 43.8807L69.9412 44.087L69.2086 44.0344L68.6694 43.287L67.8738 43.4543L67.1454 43.3886L66.6292 42.7285L65.7343 43.0241L65.1586 42.527L64.759 41.7297L64.0386 41.5938L63.5197 41.0784L62.6868 41.0665L62.2155 40.4936L61.3346 40.4953L61.3508 39.2855L60.5215 39.1946L60.0764 38.6303L59.5318 38.1722L58.6192 38.0911L58.0704 37.6243L58.0805 36.6381L57.1888 36.469L57.0778 35.6334L56.7458 34.9887L56.1579 34.553L55.9955 33.8099L55.2158 33.473L55.0719 32.8086L55.0147 32.0555L55.5604 31.5099L56.0533 30.9474L55.5246 29.9852L56.1363 29.4607L56.5502 28.8728L56.5057 28.1021L57.0075 27.535L57.3197 26.9003L57.4121 26.1804L57.491 25.4563L57.7399 24.6558L58.7519 24.9943L59.3676 24.4347L60.0646 24.0757L60.7887 23.7909L61.5456 23.6767L62.3316 24.1757L63.0732 23.882L63.8432 23.772L64.5906 23.9822L65.1972 24.4965L65.9012 24.3654L66.5308 24.6033L67.093 25.0743L67.9589 24.5511L68.419 25.2731L68.8819 25.8724L69.619 25.9337L70.1546 26.3743L71.116 26.1437L71.3586 27.0218L72.3001 26.9447L72.5421 27.7569L73.1425 28.1311L73.5137 28.7446L73.8283 29.3982L74.6763 29.5897L75.2251 30.0346L75.1836 30.9598L75.6587 31.4757L76.1424 31.987L76.765 32.3608L76.9323 33.1565L77.7886 33.2996L77.9606 34.1259L78.4531 34.6328L79.4033 34.5733L79.8871 35.0626L80.5216 35.3531L80.8422 36.1469L81.67 36.1063L82.1234 36.6444L82.8384 36.684L83.1525 37.6575L84.0877 37.0767L84.6193 37.5524L85.5558 37.8086Z" fill="#FF5378"/>
<path d="M85.0351 36.5139L84.8792 37.0461L84.4267 37.687L84.4056 38.4804L84.3888 39.2827L83.7427 39.8469L83.6047 40.414L83.1026 40.9371L82.4596 40.3094L81.6961 40.9671L81.0925 40.3301L80.3205 40.6505L79.74 40.1008L78.9578 40.2942L78.4715 39.5857L77.6494 39.7446L77.0704 39.3263L76.4828 38.9346L76.2913 37.942L75.501 37.8199L74.7267 37.5794L74.5719 36.7222L73.8058 36.4334L73.4344 35.798L72.8719 35.3051L72.331 34.7901L72.1819 34.0292L71.9279 33.3223L71.5436 32.7046L70.8211 32.3933L70.4584 31.7314L69.7885 31.4371L69.0463 31.3012L68.5915 30.6537L67.7948 30.7334L67.1608 30.4867L66.4964 30.2668L65.8365 30.0555L65.1832 29.6645L64.4605 29.695L63.7563 29.4405L63.0079 29.1646L62.3301 29.668L61.5593 29.3485L60.9169 29.8557L60.2655 30.0038L59.7106 30.5101L58.8869 30.1517L58.4484 30.8625L57.7524 30.9454L57.1334 31.2201L56.4028 31.3209L55.8109 31.6698L55.5439 32.4356L54.6214 32.9989L55.0838 32.0773L55.2156 31.3702L55.8186 30.8502L55.8711 30.1177L56.3597 29.5464L56.3549 28.7884L56.9534 28.2597L56.6802 27.4084L57.578 26.99L57.2432 26.1043L57.3134 25.3848L58.0619 24.9331L58.1079 24.0166L59.0663 23.9088L59.7818 23.6285L59.8342 22.5103L60.67 22.3995L61.3725 22.1369L61.9944 21.7394L62.6884 21.5032L63.3002 21.0007L64.0458 21.0356L64.7047 20.7954L65.4481 21.0188L66.1122 20.8531L66.7985 20.7091L67.5097 20.442L68.1888 20.7977L68.9256 20.4733L69.6247 20.6534L70.2687 21.0051L71.0977 20.6883L71.4869 21.7224L72.3643 21.4358L72.8236 22.0921L73.7332 21.9322L74.1791 22.5623L74.4212 23.3746L75.3286 23.4033L75.9558 23.8077L75.9011 24.7287L76.424 25.2089L76.3329 26.0163L77.1047 26.4235L77.7286 26.9289L77.6676 27.6877L77.5937 28.4643L77.8512 29.1143L78.2874 29.6832L78.3926 30.4226L78.9028 30.9425L79.326 31.5071L80.0746 31.8049L80.3107 32.499L80.5217 33.2721L81.5252 33.2733L82.0394 33.758L82.3722 34.4684L83.1542 34.6168L83.2677 35.6936L83.942 35.9966L84.517 36.45L85.0351 36.5139Z" fill="#FF7090"/>
<path d="M89.9918 37.623L90.5115 38.2041L90.5729 38.9441L90.1735 39.6237L90.5641 40.4035L89.9183 41.0117L90.028 41.7599L90.0984 42.5172L89.2497 43.0094L89.3502 44.0819L88.5502 43.1493L87.8479 43.048L87.1222 43.2013L86.4043 43.2845L85.7182 43.0867L85.0839 42.8182L84.1759 43.1095L84.2074 42.0792L83.9048 41.706L83.4439 40.8962L84.3223 40.3336L84.3399 39.597L84.0714 38.7764L84.401 38.1106L84.8184 37.4658L84.9953 36.8677L85.5507 37.1327L86.4012 36.4301L87.1232 36.6976L87.8666 36.921L88.6092 37.0786L89.2305 37.7286L89.9918 37.623Z" fill="#FF5378"/>
</g>
<defs>
<linearGradient id="paint0_linear_3435_520" x1="13.7487" y1="-7.22276" x2="13.7487" y2="27.4975" gradientUnits="userSpaceOnUse">
<stop stop-color="#8ACCFF"/>
<stop offset="1" stop-color="#0096FF"/>
</linearGradient>
<linearGradient id="paint1_linear_3435_520" x1="96.0759" y1="15.9385" x2="91.857" y2="115" gradientUnits="userSpaceOnUse">
<stop offset="0.203018" stop-color="#FFC0CF"/>
<stop offset="0.439969" stop-color="#E2F3FF"/>
</linearGradient>
<linearGradient id="paint2_linear_3435_520" x1="90.1066" y1="56.901" x2="120.59" y2="105.128" gradientUnits="userSpaceOnUse">
<stop stop-color="#FF7090"/>
<stop offset="1" stop-color="#E2F3FF"/>
</linearGradient>
<linearGradient id="paint3_linear_3435_520" x1="76.8699" y1="56.6195" x2="48.3121" y2="75.5021" gradientUnits="userSpaceOnUse">
<stop stop-color="#FF98B0"/>
<stop offset="1" stop-color="#E2F3FF"/>
</linearGradient>
<linearGradient id="paint4_linear_3435_520" x1="95.6031" y1="39.0251" x2="113.595" y2="73.9586" gradientUnits="userSpaceOnUse">
<stop stop-color="#FF5378"/>
<stop offset="1" stop-color="#FF7090"/>
</linearGradient>
<linearGradient id="paint5_linear_3435_520" x1="77.6135" y1="39.0251" x2="59.6217" y2="73.9586" gradientUnits="userSpaceOnUse">
<stop stop-color="#FF5378"/>
<stop offset="1" stop-color="#FF7090"/>
</linearGradient>
<clipPath id="clip0_3435_520">
<rect width="171" height="171" fill="white" transform="translate(-0.5 -0.5)"/>
</clipPath>
</defs>
</svg>
