<svg width="143" height="30" viewBox="0 0 143 30" fill="none" xmlns="http://www.w3.org/2000/svg">
<path d="M25.4636 24H20.5653L16.2311 9.92859L11.7484 24H6.85011L0.378452 3.21943H5.1283L9.58127 17.8252L14.2124 3.21943H18.4575L22.9699 17.9439L27.5713 3.21943H31.9352L25.4636 24ZM36.3917 5.80216C35.5803 5.80216 34.9173 5.55477 34.4027 5.06C33.8881 4.56522 33.6308 3.9517 33.6308 3.21943C33.6308 2.48717 33.8881 1.87364 34.4027 1.37887C34.9173 0.884093 35.5803 0.636705 36.3917 0.636705C37.2031 0.636705 37.8562 0.874198 38.351 1.34918C38.8656 1.82417 39.1228 2.4179 39.1228 3.13037C39.1228 3.90222 38.8656 4.54543 38.351 5.06C37.8562 5.55477 37.2031 5.80216 36.3917 5.80216ZM38.5885 8.02865V24H34.1652V8.02865H38.5885ZM46.9099 24.2375C45.663 24.2375 44.436 24.0792 43.2287 23.7625C42.0413 23.4261 41.0814 23.0104 40.3491 22.5157L41.8038 19.1908C42.4965 19.6658 43.3178 20.0418 44.2678 20.3189C45.2177 20.5959 46.1578 20.7345 47.088 20.7345C48.9483 20.7345 49.8785 20.2496 49.8785 19.2798C49.8785 18.8246 49.6212 18.4981 49.1067 18.3002C48.6119 18.1023 47.84 17.9341 46.7911 17.7955C45.5443 17.5976 44.5152 17.37 43.7037 17.1127C42.8923 16.8554 42.1897 16.4003 41.596 15.7471C41.0023 15.094 40.7054 14.1639 40.7054 12.9566C40.7054 11.9473 40.9825 11.0567 41.5366 10.2848C42.1105 9.49319 42.922 8.87966 43.9709 8.44426C45.0396 8.00886 46.2963 7.79116 47.7411 7.79116C48.8098 7.79116 49.8686 7.9198 50.9176 8.17708C51.9863 8.41458 52.8769 8.75102 53.5893 9.18643L52.105 12.4816C50.779 11.69 49.3244 11.2942 47.7411 11.2942C46.7911 11.2942 46.0786 11.4327 45.6037 11.7098C45.1485 11.9869 44.9209 12.3431 44.9209 12.7785C44.9209 13.2733 45.1782 13.6196 45.6927 13.8175C46.2073 14.0154 47.0088 14.2034 48.0973 14.3816C49.3442 14.5795 50.3634 14.8071 51.155 15.0644C51.9467 15.3216 52.6295 15.7768 53.2034 16.4299C53.7971 17.083 54.094 17.9934 54.094 19.1611C54.094 20.1506 53.807 21.0313 53.2331 21.8032C52.6592 22.575 51.8279 23.1787 50.7394 23.6141C49.6707 24.0297 48.3942 24.2375 46.9099 24.2375ZM65.1456 7.79116C67.0456 7.79116 68.5695 8.38489 69.7174 9.57235C70.8652 10.7598 71.4392 12.5212 71.4392 14.8566V24H67.0456V15.569C67.0456 14.3024 66.7784 13.3623 66.244 12.7488C65.7097 12.1155 64.9477 11.7988 63.9582 11.7988C62.8499 11.7988 61.9692 12.165 61.3161 12.8972C60.663 13.6097 60.3364 14.6784 60.3364 16.1034V24H55.9131V1.9726H60.3364V9.6911C60.9301 9.07757 61.6327 8.61249 62.4442 8.29583C63.2754 7.95938 64.1759 7.79116 65.1456 7.79116ZM83.5313 7.79116C84.9365 7.79116 86.213 8.1375 87.3609 8.83019C88.5088 9.50308 89.4093 10.4629 90.0624 11.7098C90.7353 12.9368 91.0717 14.3717 91.0717 16.0143C91.0717 17.657 90.7353 19.1017 90.0624 20.3486C89.4093 21.5756 88.5088 22.5355 87.3609 23.2282C86.213 23.901 84.9365 24.2375 83.5313 24.2375C81.5918 24.2375 80.0679 23.5943 78.9596 22.3079V29.7592H74.5363V8.02865H78.7518V9.86922C79.8403 8.48384 81.4335 7.79116 83.5313 7.79116ZM82.7595 20.4376C83.8876 20.4376 84.8078 20.0418 85.5203 19.2502C86.2526 18.4387 86.6187 17.3601 86.6187 16.0143C86.6187 14.6685 86.2526 13.5998 85.5203 12.8082C84.8078 11.9967 83.8876 11.591 82.7595 11.591C81.6314 11.591 80.7012 11.9967 79.9689 12.8082C79.2565 13.5998 78.9002 14.6685 78.9002 16.0143C78.9002 17.3601 79.2565 18.4387 79.9689 19.2502C80.7012 20.0418 81.6314 20.4376 82.7595 20.4376ZM100.403 24.2375C98.7999 24.2375 97.3651 23.8911 96.0985 23.1985C94.8318 22.486 93.8324 21.5063 93.1001 20.2595C92.3877 19.0127 92.0314 17.5976 92.0314 16.0143C92.0314 14.431 92.3877 13.016 93.1001 11.7692C93.8324 10.5223 94.8318 9.55256 96.0985 8.85987C97.3651 8.1474 98.7999 7.79116 100.403 7.79116C101.986 7.79116 103.411 8.1474 104.678 8.85987C105.944 9.55256 106.934 10.5223 107.647 11.7692C108.359 13.016 108.715 14.431 108.715 16.0143C108.715 17.5976 108.359 19.0127 107.647 20.2595C106.934 21.5063 105.944 22.486 104.678 23.1985C103.411 23.8911 101.986 24.2375 100.403 24.2375ZM100.403 20.4376C101.531 20.4376 102.451 20.0418 103.164 19.2502C103.896 18.4387 104.262 17.3601 104.262 16.0143C104.262 14.6685 103.896 13.5998 103.164 12.8082C102.451 11.9967 101.531 11.591 100.403 11.591C99.2749 11.591 98.3447 11.9967 97.6125 12.8082C96.8802 13.5998 96.5141 14.6685 96.5141 16.0143C96.5141 17.3601 96.8802 18.4387 97.6125 19.2502C98.3447 20.0418 99.2749 20.4376 100.403 20.4376ZM118.009 24.2375C116.406 24.2375 114.971 23.8911 113.704 23.1985C112.437 22.486 111.438 21.5063 110.706 20.2595C109.993 19.0127 109.637 17.5976 109.637 16.0143C109.637 14.431 109.993 13.016 110.706 11.7692C111.438 10.5223 112.437 9.55256 113.704 8.85987C114.971 8.1474 116.406 7.79116 118.009 7.79116C119.592 7.79116 121.017 8.1474 122.283 8.85987C123.55 9.55256 124.54 10.5223 125.252 11.7692C125.965 13.016 126.321 14.431 126.321 16.0143C126.321 17.5976 125.965 19.0127 125.252 20.2595C124.54 21.5063 123.55 22.486 122.283 23.1985C121.017 23.8911 119.592 24.2375 118.009 24.2375ZM118.009 20.4376C119.137 20.4376 120.057 20.0418 120.769 19.2502C121.502 18.4387 121.868 17.3601 121.868 16.0143C121.868 14.6685 121.502 13.5998 120.769 12.8082C120.057 11.9967 119.137 11.591 118.009 11.591C116.881 11.591 115.95 11.9967 115.218 12.8082C114.486 13.5998 114.12 14.6685 114.12 16.0143C114.12 17.3601 114.486 18.4387 115.218 19.2502C115.95 20.0418 116.881 20.4376 118.009 20.4376ZM133.121 3.21943V20.0814H143.006V24H128.549V3.21943H133.121Z" fill="#181818"/>
</svg>
