<svg xmlns="http://www.w3.org/2000/svg" width="118" height="26" viewBox="0 0 118 26" fill="none">
  <path d="M47.33 20.5868H44.3851L41.7796 12.1152L39.0854 20.5868H36.1404L32.25 8.07509H35.1061L37.7826 16.8689L40.5677 8.07509H43.1198L45.8339 16.94L48.6012 8.07509H51.2244L47.334 20.5868H47.33ZM53.8989 9.63066C53.4114 9.63066 53.0126 9.48241 52.7028 9.18395C52.3929 8.88549 52.2389 8.51587 52.2389 8.07509C52.2389 7.63432 52.3929 7.2647 52.7028 6.96624C53.0126 6.66777 53.4114 6.51953 53.8989 6.51953C54.3864 6.51953 54.7792 6.66184 55.0773 6.94845C55.3872 7.23505 55.5411 7.59281 55.5411 8.02173C55.5411 8.48622 55.3872 8.87363 55.0773 9.18395C54.7792 9.48241 54.3864 9.63066 53.8989 9.63066ZM55.2214 10.9728V20.5888H52.5626V10.9728H55.2214ZM60.223 20.7311C59.473 20.7311 58.7348 20.6362 58.0104 20.4445C57.2958 20.2409 56.7195 19.9919 56.2793 19.6934L57.1537 17.6911C57.5702 17.9777 58.0637 18.2031 58.6361 18.3711C59.2065 18.5371 59.773 18.6221 60.3316 18.6221C61.4507 18.6221 62.0093 18.3296 62.0093 17.7465C62.0093 17.4717 61.8554 17.276 61.5455 17.1574C61.2474 17.0389 60.7836 16.9361 60.1539 16.8531C59.4039 16.7345 58.7861 16.5961 58.2985 16.4419C57.811 16.2878 57.3886 16.013 57.0313 15.6197C56.6741 15.2263 56.4964 14.667 56.4964 13.9396C56.4964 13.3328 56.6622 12.7952 56.9958 12.3307C57.3412 11.8543 57.8288 11.4847 58.4584 11.2218C59.1019 10.9589 59.8559 10.8285 60.7244 10.8285C61.3678 10.8285 62.0034 10.9055 62.635 11.0617C63.2785 11.204 63.8134 11.4076 64.2417 11.6685L63.3496 13.653C62.5521 13.1766 61.6777 12.9375 60.7263 12.9375C60.1559 12.9375 59.7276 13.0205 59.4414 13.1885C59.167 13.3545 59.0308 13.57 59.0308 13.8329C59.0308 14.1313 59.1848 14.3389 59.4947 14.4574C59.8046 14.576 60.2862 14.6907 60.9395 14.7974C61.6896 14.916 62.3015 15.0544 62.7772 15.2085C63.2528 15.3627 63.6634 15.6375 64.0088 16.0308C64.3661 16.4241 64.5437 16.9717 64.5437 17.6753C64.5437 18.2703 64.372 18.802 64.0266 19.2665C63.6812 19.7309 63.1818 20.0946 62.5265 20.3575C61.883 20.6085 61.1172 20.7331 60.223 20.7331V20.7311ZM71.1876 10.8285C72.3305 10.8285 73.2463 11.1862 73.9371 11.9017C74.628 12.6173 74.9714 13.6767 74.9714 15.084V20.5888H72.3305V15.5129C72.3305 14.75 72.1706 14.1847 71.8488 13.8151C71.5271 13.4336 71.0692 13.2438 70.4751 13.2438C69.8079 13.2438 69.2789 13.4652 68.8861 13.906C68.4933 14.3349 68.2979 14.9793 68.2979 15.8371V20.5908H65.6392V7.32795H68.2979V11.9749C68.6552 11.6053 69.0776 11.3246 69.5651 11.1348C70.0645 10.9332 70.6073 10.8304 71.1896 10.8304L71.1876 10.8285ZM82.241 10.8285C83.0858 10.8285 83.8536 11.038 84.5445 11.4531C85.2353 11.8583 85.7761 12.4354 86.1689 13.1865C86.5736 13.9258 86.7749 14.7895 86.7749 15.7778C86.7749 16.7661 86.5736 17.6358 86.1689 18.3869C85.7761 19.1261 85.2353 19.7033 84.5445 20.1203C83.8536 20.5255 83.0858 20.7271 82.241 20.7271C81.0745 20.7271 80.1586 20.3397 79.4915 19.5649V24.0517H76.8327V10.9688H79.3671V12.0777C80.0224 11.2435 80.9797 10.8265 82.241 10.8265V10.8285ZM81.7772 18.4422C82.4562 18.4422 83.0088 18.2031 83.4372 17.7267C83.8773 17.2385 84.0984 16.5882 84.0984 15.7778C84.0984 14.9674 83.8773 14.325 83.4372 13.8467C83.0088 13.3585 82.4562 13.1134 81.7772 13.1134C81.0982 13.1134 80.5396 13.3585 80.0994 13.8467C79.6711 14.323 79.456 14.9674 79.456 15.7778C79.456 16.5882 79.6691 17.2365 80.0994 17.7267C80.5396 18.2031 81.0982 18.4422 81.7772 18.4422ZM92.3865 20.7311C91.4232 20.7311 90.5607 20.5216 89.7988 20.1045C89.0369 19.6756 88.4369 19.0866 87.9967 18.3355C87.5684 17.5844 87.3532 16.7325 87.3532 15.7798C87.3532 14.8271 87.5664 13.9752 87.9967 13.2241C88.4369 12.473 89.0389 11.8899 89.7988 11.4728C90.5607 11.0439 91.4232 10.8285 92.3865 10.8285C93.3497 10.8285 94.1945 11.0439 94.9564 11.4728C95.7183 11.8899 96.3124 12.473 96.7407 13.2241C97.169 13.9752 97.3842 14.8271 97.3842 15.7798C97.3842 16.7325 97.169 17.5844 96.7407 18.3355C96.3124 19.0866 95.7183 19.6756 94.9564 20.1045C94.1945 20.5216 93.3379 20.7311 92.3865 20.7311ZM92.3865 18.4422C93.0655 18.4422 93.6181 18.2031 94.0465 17.7267C94.4866 17.2385 94.7077 16.5882 94.7077 15.7778C94.7077 14.9674 94.4866 14.325 94.0465 13.8467C93.6181 13.3585 93.0655 13.1134 92.3865 13.1134C91.7075 13.1134 91.1489 13.3585 90.7087 13.8467C90.2686 14.323 90.0475 14.9674 90.0475 15.7778C90.0475 16.5882 90.2686 17.2365 90.7087 17.7267C91.1489 18.2031 91.7075 18.4422 92.3865 18.4422ZM102.972 20.7311C102.009 20.7311 101.146 20.5216 100.384 20.1045C99.6225 19.6756 99.0225 19.0866 98.5823 18.3355C98.154 17.5844 97.9388 16.7325 97.9388 15.7798C97.9388 14.8271 98.152 13.9752 98.5823 13.2241C99.0225 12.473 99.6245 11.8899 100.384 11.4728C101.146 11.0439 102.009 10.8285 102.972 10.8285C103.935 10.8285 104.78 11.0439 105.542 11.4728C106.304 11.8899 106.898 12.473 107.326 13.2241C107.755 13.9752 107.97 14.8271 107.97 15.7798C107.97 16.7325 107.757 17.5844 107.326 18.3355C106.898 19.0866 106.304 19.6756 105.542 20.1045C104.78 20.5216 103.923 20.7311 102.972 20.7311ZM102.972 18.4422C103.651 18.4422 104.204 18.2031 104.632 17.7267C105.072 17.2385 105.293 16.5882 105.293 15.7778C105.293 14.9674 105.074 14.325 104.632 13.8467C104.204 13.3585 103.651 13.1134 102.972 13.1134C102.293 13.1134 101.735 13.3585 101.294 13.8467C100.854 14.323 100.633 14.9674 100.633 15.7778C100.633 16.5882 100.854 17.2365 101.294 17.7267C101.735 18.2031 102.293 18.4422 102.972 18.4422ZM112.058 8.07707V18.2288H118.001V20.5888H109.308V8.07707H112.058Z" fill="#323232"/>
  <path d="M17.9967 6.66825C12.5743 6.85328 10.2235 9.77093 5.54704 9.40281C4.21482 9.29764 2.2827 8.89446 0 7.44927C0.973849 12.5717 1.9477 17.6942 2.92155 22.8166L11.7583 25.8336C14.7051 24.8286 17.65 23.8216 20.5969 22.8166C21.5708 17.6942 22.5446 12.5717 23.5185 7.44927C22.2739 7.05389 20.3418 6.59034 17.9967 6.67019V6.66825Z" fill="url(#paint0_linear_4003_4910)"/>
  <path d="M15.3965 1.92043C15.3965 0.860882 14.5823 0 13.5793 0C13.5773 0 13.5754 0 13.5715 0C13.5695 0 13.5676 0 13.5656 0C12.5704 0 11.7621 0.755707 11.7601 1.68671C11.7601 0.753759 10.9518 0 9.9546 0C9.95265 0 9.95071 0 9.94876 0C9.94681 0 9.94486 0 9.94097 0C8.9379 0 8.12376 0.858935 8.12376 1.92043C8.12376 1.92822 8.12376 1.93601 8.12376 1.94185C8.11403 2.27491 8.20167 2.68198 8.49577 3.25655C9.33913 4.91015 10.8077 5.8353 11.7601 6.3047C12.7125 5.8353 14.1811 4.91015 15.0245 3.25655C15.3166 2.68393 15.4043 2.27686 15.3965 1.94185C15.3965 1.93406 15.3965 1.92627 15.3965 1.92043Z" fill="#FF5378"/>
  <defs>
    <linearGradient id="paint0_linear_4003_4910" x1="11.7592" y1="6.66113" x2="11.7592" y2="25.8336" gradientUnits="userSpaceOnUse">
      <stop stop-color="#88F3FE"/>
      <stop offset="1" stop-color="#0073FF"/>
    </linearGradient>
  </defs>
</svg>