<svg xmlns="http://www.w3.org/2000/svg" width="118" height="27" viewBox="0 0 118 27" fill="none">
  <path d="M47.33 21.2362H44.3851L41.7796 12.7646L39.0854 21.2362H36.1404L32.25 8.72451H35.1061L37.7826 17.5183L40.5677 8.72451H43.1198L45.8339 17.5894L48.6012 8.72451H51.2244L47.334 21.2362H47.33ZM53.8989 10.2801C53.4114 10.2801 53.0126 10.1318 52.7028 9.83337C52.3929 9.5349 52.2389 9.16528 52.2389 8.72451C52.2389 8.28373 52.3929 7.91411 52.7028 7.61565C53.0126 7.31719 53.4114 7.16895 53.8989 7.16895C54.3864 7.16895 54.7792 7.31126 55.0773 7.59786C55.3872 7.88446 55.5411 8.24222 55.5411 8.67114C55.5411 9.13563 55.3872 9.52304 55.0773 9.83337C54.7792 10.1318 54.3864 10.2801 53.8989 10.2801ZM55.2214 11.6222V21.2382H52.5626V11.6222H55.2214ZM60.223 21.3805C59.473 21.3805 58.7348 21.2856 58.0104 21.0939C57.2958 20.8903 56.7195 20.6413 56.2793 20.3428L57.1537 18.3405C57.5702 18.6271 58.0637 18.8525 58.6361 19.0205C59.2065 19.1865 59.773 19.2715 60.3316 19.2715C61.4507 19.2715 62.0093 18.979 62.0093 18.3959C62.0093 18.1211 61.8554 17.9255 61.5455 17.8069C61.2474 17.6883 60.7836 17.5855 60.1539 17.5025C59.4039 17.3839 58.7861 17.2455 58.2985 17.0913C57.811 16.9372 57.3886 16.6624 57.0313 16.2691C56.6741 15.8758 56.4964 15.3164 56.4964 14.589C56.4964 13.9822 56.6622 13.4446 56.9958 12.9801C57.3412 12.5037 57.8288 12.1341 58.4584 11.8712C59.1019 11.6083 59.8559 11.4779 60.7244 11.4779C61.3678 11.4779 62.0034 11.555 62.635 11.7111C63.2785 11.8534 63.8134 12.057 64.2417 12.3179L63.3496 14.3024C62.5521 13.826 61.6777 13.5869 60.7263 13.5869C60.1559 13.5869 59.7276 13.6699 59.4414 13.8379C59.167 14.0039 59.0308 14.2194 59.0308 14.4823C59.0308 14.7807 59.1848 14.9883 59.4947 15.1069C59.8046 15.2255 60.2862 15.3401 60.9395 15.4468C61.6896 15.5654 62.3015 15.7038 62.7772 15.858C63.2528 16.0121 63.6634 16.2869 64.0088 16.6802C64.3661 17.0736 64.5437 17.6211 64.5437 18.3247C64.5437 18.9197 64.372 19.4514 64.0266 19.9159C63.6812 20.3804 63.1818 20.7441 62.5265 21.0069C61.883 21.258 61.1172 21.3825 60.223 21.3825V21.3805ZM71.1876 11.4779C72.3305 11.4779 73.2463 11.8356 73.9371 12.5512C74.628 13.2667 74.9714 14.3261 74.9714 15.7334V21.2382H72.3305V16.1624C72.3305 15.3994 72.1706 14.8341 71.8488 14.4645C71.5271 14.083 71.0692 13.8932 70.4751 13.8932C69.8079 13.8932 69.2789 14.1146 68.8861 14.5554C68.4933 14.9843 68.2979 15.6287 68.2979 16.4865V21.2402H65.6392V7.97736H68.2979V12.6243C68.6552 12.2547 69.0776 11.974 69.5651 11.7842C70.0645 11.5826 70.6073 11.4799 71.1896 11.4799L71.1876 11.4779ZM82.241 11.4779C83.0858 11.4779 83.8536 11.6874 84.5445 12.1025C85.2353 12.5077 85.7761 13.0848 86.1689 13.8359C86.5736 14.5752 86.7749 15.4389 86.7749 16.4272C86.7749 17.4155 86.5736 18.2852 86.1689 19.0363C85.7761 19.7755 85.2353 20.3527 84.5445 20.7697C83.8536 21.1749 83.0858 21.3766 82.241 21.3766C81.0745 21.3766 80.1586 20.9891 79.4915 20.2143V24.7012H76.8327V11.6182H79.3671V12.7271C80.0224 11.893 80.9797 11.4759 82.241 11.4759V11.4779ZM81.7772 19.0916C82.4562 19.0916 83.0088 18.8525 83.4372 18.3761C83.8773 17.8879 84.0984 17.2376 84.0984 16.4272C84.0984 15.6168 83.8773 14.9744 83.4372 14.4961C83.0088 14.0079 82.4562 13.7628 81.7772 13.7628C81.0982 13.7628 80.5396 14.0079 80.0994 14.4961C79.6711 14.9725 79.456 15.6168 79.456 16.4272C79.456 17.2376 79.6691 17.8859 80.0994 18.3761C80.5396 18.8525 81.0982 19.0916 81.7772 19.0916ZM92.3865 21.3805C91.4232 21.3805 90.5607 21.171 89.7988 20.7539C89.0369 20.325 88.4369 19.736 87.9967 18.9849C87.5684 18.2338 87.3532 17.3819 87.3532 16.4292C87.3532 15.4765 87.5664 14.6246 87.9967 13.8735C88.4369 13.1224 89.0389 12.5393 89.7988 12.1222C90.5607 11.6933 91.4232 11.4779 92.3865 11.4779C93.3497 11.4779 94.1945 11.6933 94.9564 12.1222C95.7183 12.5393 96.3124 13.1224 96.7407 13.8735C97.169 14.6246 97.3842 15.4765 97.3842 16.4292C97.3842 17.3819 97.169 18.2338 96.7407 18.9849C96.3124 19.736 95.7183 20.325 94.9564 20.7539C94.1945 21.171 93.3379 21.3805 92.3865 21.3805ZM92.3865 19.0916C93.0655 19.0916 93.6181 18.8525 94.0465 18.3761C94.4866 17.8879 94.7077 17.2376 94.7077 16.4272C94.7077 15.6168 94.4866 14.9744 94.0465 14.4961C93.6181 14.0079 93.0655 13.7628 92.3865 13.7628C91.7075 13.7628 91.1489 14.0079 90.7087 14.4961C90.2686 14.9725 90.0475 15.6168 90.0475 16.4272C90.0475 17.2376 90.2686 17.8859 90.7087 18.3761C91.1489 18.8525 91.7075 19.0916 92.3865 19.0916ZM102.972 21.3805C102.009 21.3805 101.146 21.171 100.384 20.7539C99.6225 20.325 99.0225 19.736 98.5823 18.9849C98.154 18.2338 97.9388 17.3819 97.9388 16.4292C97.9388 15.4765 98.152 14.6246 98.5823 13.8735C99.0225 13.1224 99.6245 12.5393 100.384 12.1222C101.146 11.6933 102.009 11.4779 102.972 11.4779C103.935 11.4779 104.78 11.6933 105.542 12.1222C106.304 12.5393 106.898 13.1224 107.326 13.8735C107.755 14.6246 107.97 15.4765 107.97 16.4292C107.97 17.3819 107.757 18.2338 107.326 18.9849C106.898 19.736 106.304 20.325 105.542 20.7539C104.78 21.171 103.923 21.3805 102.972 21.3805ZM102.972 19.0916C103.651 19.0916 104.204 18.8525 104.632 18.3761C105.072 17.8879 105.293 17.2376 105.293 16.4272C105.293 15.6168 105.074 14.9744 104.632 14.4961C104.204 14.0079 103.651 13.7628 102.972 13.7628C102.293 13.7628 101.735 14.0079 101.294 14.4961C100.854 14.9725 100.633 15.6168 100.633 16.4272C100.633 17.2376 100.854 17.8859 101.294 18.3761C101.735 18.8525 102.293 19.0916 102.972 19.0916ZM112.058 8.72648V18.8782H118.001V21.2382H109.308V8.72648H112.058Z" fill="#323232"/>
  <path d="M17.9967 7.31766C12.5743 7.50269 10.2235 10.4203 5.54704 10.0522C4.21482 9.94705 2.2827 9.54388 0 8.09869C0.973849 13.2211 1.9477 18.3436 2.92155 23.466L11.7583 26.483C14.7051 25.478 17.65 24.471 20.5969 23.466C21.5708 18.3436 22.5446 13.2211 23.5185 8.09869C22.2739 7.7033 20.3418 7.23975 17.9967 7.31961V7.31766Z" fill="url(#paint0_linear_1243_2461)"/>
  <path d="M15.3965 2.56984C15.3965 1.5103 14.5823 0.649414 13.5793 0.649414C13.5773 0.649414 13.5754 0.649414 13.5715 0.649414C13.5695 0.649414 13.5676 0.649414 13.5656 0.649414C12.5704 0.649414 11.7621 1.40512 11.7601 2.33612C11.7601 1.40317 10.9518 0.649414 9.9546 0.649414C9.95265 0.649414 9.95071 0.649414 9.94876 0.649414C9.94681 0.649414 9.94486 0.649414 9.94097 0.649414C8.9379 0.649414 8.12376 1.50835 8.12376 2.56984C8.12376 2.57764 8.12376 2.58543 8.12376 2.59127C8.11403 2.92433 8.20167 3.33139 8.49577 3.90597C9.33913 5.55956 10.8077 6.48472 11.7601 6.95411C12.7125 6.48472 14.1811 5.55956 15.0245 3.90597C15.3166 3.33334 15.4043 2.92627 15.3965 2.59127C15.3965 2.58348 15.3965 2.57569 15.3965 2.56984Z" fill="#FF5378"/>
  <defs>
    <linearGradient id="paint0_linear_1243_2461" x1="11.7592" y1="7.31055" x2="11.7592" y2="26.483" gradientUnits="userSpaceOnUse">
      <stop stop-color="#88F3FE"/>
      <stop offset="1" stop-color="#0073FF"/>
    </linearGradient>
  </defs>
</svg>