<svg xmlns="http://www.w3.org/2000/svg" viewBox="0 0 28 28" fill="none">
<path d="M23.3333 7.00065C23.6306 7.00098 23.9166 7.11484 24.1329 7.31897C24.3491 7.52311 24.4792 7.8021 24.4966 8.09895C24.5141 8.39579 24.4175 8.68809 24.2266 8.91612C24.0358 9.14415 23.765 9.2907 23.4698 9.32582L23.3333 9.33398H23.2388L22.1666 22.1673C22.1666 23.0601 21.8255 23.9191 21.2131 24.5686C20.6006 25.2182 19.7631 25.6091 18.8719 25.6615L18.6666 25.6673H9.33326C7.46893 25.6673 5.94526 24.2102 5.84259 22.459L5.83676 22.2642L4.75993 9.33398H4.66659C4.36924 9.33365 4.08322 9.21979 3.867 9.01566C3.65077 8.81153 3.52065 8.53254 3.50323 8.23569C3.4858 7.93884 3.58238 7.64654 3.77324 7.41851C3.96409 7.19049 4.23482 7.04394 4.53009 7.00882L4.66659 7.00065H23.3333ZM12.2628 12.9973C12.0183 12.8518 11.7291 12.8006 11.4496 12.8534C11.1701 12.9062 10.9194 13.0592 10.7449 13.2838C10.5703 13.5084 10.4838 13.7891 10.5016 14.073C10.5195 14.3569 10.6404 14.6245 10.8418 14.8255L12.3491 16.334L10.8418 17.8425L10.7449 17.9522C10.5636 18.1866 10.4784 18.4814 10.5065 18.7764C10.5346 19.0715 10.6739 19.3448 10.8963 19.5409C11.1186 19.7369 11.4072 19.841 11.7035 19.8319C11.9998 19.8229 12.2815 19.7014 12.4914 19.4922L13.9999 17.9848L15.5084 19.4922L15.6181 19.589C15.8526 19.7703 16.1473 19.8556 16.4424 19.8274C16.7375 19.7993 17.0108 19.66 17.2068 19.4376C17.4028 19.2153 17.5069 18.9267 17.4979 18.6304C17.4888 18.3342 17.3673 18.0524 17.1581 17.8425L15.6508 16.334L17.1581 14.8255L17.2549 14.7158C17.4362 14.4813 17.5215 14.1866 17.4934 13.8915C17.4653 13.5965 17.3259 13.3231 17.1036 13.1271C16.8813 12.9311 16.5926 12.827 16.2964 12.8361C16.0001 12.8451 15.7184 12.9666 15.5084 13.1758L13.9999 14.6832L12.4914 13.1758L12.3818 13.079L12.2628 12.9973ZM16.3333 2.33398C16.9521 2.33398 17.5456 2.57982 17.9832 3.0174C18.4208 3.45499 18.6666 4.04848 18.6666 4.66732C18.6663 4.96468 18.5524 5.25069 18.3483 5.46691C18.1441 5.68314 17.8651 5.81326 17.5683 5.83069C17.2715 5.84811 16.9792 5.75153 16.7511 5.56068C16.5231 5.36982 16.3765 5.0991 16.3414 4.80382L16.3333 4.66732H11.6666L11.6584 4.80382C11.6233 5.0991 11.4768 5.36982 11.2487 5.56068C11.0207 5.75153 10.7284 5.84811 10.4316 5.83069C10.1347 5.81326 9.85572 5.68314 9.65158 5.46691C9.44745 5.25069 9.33359 4.96468 9.33326 4.66732C9.33308 4.07865 9.5554 3.51166 9.95567 3.08001C10.3559 2.64837 10.9046 2.38397 11.4916 2.33982L11.6666 2.33398H16.3333Z" fill="white"/>
</svg>