<svg width="24" height="24" viewBox="0 0 24 24" fill="none" xmlns="http://www.w3.org/2000/svg">
<path d="M11.499 2C17.299 2 22 5.664 22 10.185C22 14.705 17.299 18.369 11.5 18.369C10.9226 18.368 10.3458 18.3312 9.773 18.259L5.365 21.142C4.864 21.407 4.687 21.378 4.893 20.729L5.785 17.051C2.905 15.591 1 13.061 1 10.185C1 5.665 5.7 2 11.5 2M17.408 10.06L18.878 8.636C18.9628 8.54791 19.0101 8.43033 19.01 8.30804C19.0098 8.18575 18.9622 8.0683 18.8772 7.98041C18.7922 7.89252 18.6763 7.84107 18.5541 7.83689C18.4319 7.83271 18.3128 7.87613 18.222 7.958L16.294 9.824V8.282C16.294 8.15682 16.2443 8.03676 16.1558 7.94825C16.0672 7.85973 15.9472 7.81 15.822 7.81C15.6968 7.81 15.5768 7.85973 15.4882 7.94825C15.3997 8.03676 15.35 8.15682 15.35 8.282V10.839C15.3334 10.9121 15.3334 10.9879 15.35 11.061V12.5C15.35 12.6252 15.3997 12.7452 15.4882 12.8338C15.5768 12.9223 15.6968 12.972 15.822 12.972C15.9472 12.972 16.0672 12.9223 16.1558 12.8338C16.2443 12.7452 16.294 12.6252 16.294 12.5V11.137L16.721 10.724L18.149 12.757C18.1847 12.8078 18.23 12.851 18.2823 12.8842C18.3347 12.9175 18.3931 12.9401 18.4542 12.9508C18.5153 12.9615 18.5779 12.96 18.6384 12.9465C18.699 12.933 18.7562 12.9077 18.807 12.872C18.8578 12.8363 18.901 12.791 18.9342 12.7387C18.9675 12.6863 18.9901 12.6279 19.0008 12.5668C19.0115 12.5057 19.01 12.4431 18.9965 12.3826C18.983 12.322 18.9577 12.2648 18.922 12.214L17.408 10.06ZM14.45 11.984H12.99V8.297C12.9844 8.17571 12.9323 8.06123 12.8445 7.97737C12.7567 7.89351 12.6399 7.84672 12.5185 7.84672C12.3971 7.84672 12.2803 7.89351 12.1925 7.97737C12.1047 8.06123 12.0526 8.17571 12.047 8.297V12.456C12.047 12.716 12.257 12.928 12.518 12.928H14.45C14.5752 12.928 14.6952 12.8783 14.7838 12.7898C14.8723 12.7012 14.922 12.5812 14.922 12.456C14.922 12.3308 14.8723 12.2108 14.7838 12.1222C14.6952 12.0337 14.5752 11.984 14.45 11.984ZM8.593 10.893L9.289 9.185L9.927 10.892L8.593 10.893ZM11.116 11.38L11.118 11.364C11.1177 11.2451 11.0723 11.1308 10.991 11.044L9.945 8.244C9.90115 8.11057 9.81763 7.99369 9.70559 7.90899C9.59355 7.8243 9.45833 7.7758 9.318 7.77C9.17677 7.76994 9.03882 7.81259 8.92227 7.89237C8.80573 7.97215 8.71605 8.08531 8.665 8.217L7.003 12.292C6.95566 12.4079 6.9563 12.5379 7.00478 12.6533C7.05325 12.7687 7.1456 12.8602 7.2615 12.9075C7.3774 12.9548 7.50736 12.9542 7.62279 12.9057C7.73822 12.8572 7.82966 12.7649 7.877 12.649L8.209 11.836H10.279L10.577 12.636C10.5973 12.6958 10.6295 12.7509 10.6715 12.7981C10.7135 12.8452 10.7645 12.8835 10.8216 12.9105C10.8787 12.9376 10.9406 12.9529 11.0037 12.9557C11.0668 12.9584 11.1298 12.9484 11.189 12.9263C11.2481 12.9042 11.3023 12.8704 11.3482 12.8271C11.394 12.7837 11.4308 12.7315 11.4561 12.6737C11.4815 12.6158 11.495 12.5535 11.4958 12.4903C11.4967 12.4272 11.4848 12.3645 11.461 12.306L11.116 11.38ZM7.793 8.302C7.79326 8.24003 7.78127 8.17861 7.7577 8.12129C7.73414 8.06397 7.69947 8.01188 7.6557 7.96801C7.61192 7.92414 7.5599 7.88936 7.50263 7.86568C7.44536 7.84199 7.38397 7.82987 7.322 7.83H4.077C3.95182 7.83 3.83176 7.87973 3.74325 7.96825C3.65473 8.05676 3.605 8.17682 3.605 8.302C3.605 8.42718 3.65473 8.54724 3.74325 8.63575C3.83176 8.72427 3.95182 8.774 4.077 8.774H5.237V12.51C5.237 12.6352 5.28673 12.7552 5.37525 12.8438C5.46376 12.9323 5.58382 12.982 5.709 12.982C5.83418 12.982 5.95424 12.9323 6.04275 12.8438C6.13127 12.7552 6.181 12.6352 6.181 12.51V8.774H7.321C7.38306 8.77426 7.44455 8.76224 7.50194 8.73861C7.55932 8.71498 7.61146 8.68023 7.65534 8.63634C7.69923 8.59246 7.73398 8.54032 7.75761 8.48294C7.78124 8.42555 7.79326 8.36406 7.793 8.302Z" fill="currentColor"/>
</svg>
