<svg viewBox="0 0 24 24" fill="none" xmlns="http://www.w3.org/2000/svg">
<path d="M19 4.96033H17V3.96033C17 3.69511 16.8946 3.44076 16.7071 3.25322C16.5196 3.06568 16.2652 2.96033 16 2.96033C15.7348 2.96033 15.4804 3.06568 15.2929 3.25322C15.1054 3.44076 15 3.69511 15 3.96033V4.96033H9V3.96033C9 3.69511 8.89464 3.44076 8.70711 3.25322C8.51957 3.06568 8.26522 2.96033 8 2.96033C7.73478 2.96033 7.48043 3.06568 7.29289 3.25322C7.10536 3.44076 7 3.69511 7 3.96033V4.96033H5C4.20435 4.96033 3.44129 5.2764 2.87868 5.83901C2.31607 6.40162 2 7.16468 2 7.96033V19.9603C2 20.756 2.31607 21.519 2.87868 22.0816C3.44129 22.6443 4.20435 22.9603 5 22.9603H19C19.7956 22.9603 20.5587 22.6443 21.1213 22.0816C21.6839 21.519 22 20.756 22 19.9603V7.96033C22 7.16468 21.6839 6.40162 21.1213 5.83901C20.5587 5.2764 19.7956 4.96033 19 4.96033ZM20 19.9603C20 20.2255 19.8946 20.4799 19.7071 20.6674C19.5196 20.855 19.2652 20.9603 19 20.9603H5C4.73478 20.9603 4.48043 20.855 4.29289 20.6674C4.10536 20.4799 4 20.2255 4 19.9603V12.9603H20V19.9603ZM20 10.9603H4V7.96033C4 7.69511 4.10536 7.44076 4.29289 7.25322C4.48043 7.06568 4.73478 6.96033 5 6.96033H7V7.96033C7 8.22554 7.10536 8.4799 7.29289 8.66743C7.48043 8.85497 7.73478 8.96033 8 8.96033C8.26522 8.96033 8.51957 8.85497 8.70711 8.66743C8.89464 8.4799 9 8.22554 9 7.96033V6.96033H15V7.96033C15 8.22554 15.1054 8.4799 15.2929 8.66743C15.4804 8.85497 15.7348 8.96033 16 8.96033C16.2652 8.96033 16.5196 8.85497 16.7071 8.66743C16.8946 8.4799 17 8.22554 17 7.96033V6.96033H19C19.2652 6.96033 19.5196 7.06568 19.7071 7.25322C19.8946 7.44076 20 7.69511 20 7.96033V10.9603Z" fill="#75777E"/>
</svg>
