<svg width="24" height="25" viewBox="0 0 24 25" fill="none" xmlns="http://www.w3.org/2000/svg">
<path d="M17.2902 10.2703C17.1977 10.1776 17.0878 10.1041 16.9668 10.0539C16.8459 10.0037 16.7162 9.97791 16.5852 9.97791C16.4543 9.97791 16.3246 10.0037 16.2036 10.0539C16.0826 10.1041 15.9727 10.1776 15.8802 10.2703L12.0002 14.1503L8.12022 10.2703C7.93324 10.0834 7.67965 9.97833 7.41522 9.97833C7.1508 9.97833 6.8972 10.0834 6.71022 10.2703C6.52324 10.4573 6.4182 10.7109 6.4182 10.9753C6.4182 11.2398 6.52324 11.4934 6.71022 11.6803L11.3002 16.2703C11.3927 16.3631 11.5026 16.4366 11.6236 16.4868C11.7446 16.537 11.8743 16.5628 12.0052 16.5628C12.1362 16.5628 12.2659 16.537 12.3868 16.4868C12.5078 16.4366 12.6177 16.3631 12.7102 16.2703L17.3002 11.6803C17.6802 11.3003 17.6802 10.6603 17.2902 10.2703Z" fill="currentColor"/>
</svg>
