<svg width="24" height="24" viewBox="0 0 24 24" fill="none" xmlns="http://www.w3.org/2000/svg">
<path d="M6.70978 14.69C6.80229 14.7827 6.91218 14.8562 7.03315 14.9064C7.15413 14.9566 7.28381 14.9824 7.41478 14.9824C7.54575 14.9824 7.67543 14.9566 7.7964 14.9064C7.91738 14.8562 8.02726 14.7827 8.11978 14.69L11.9998 10.81L15.8798 14.69C16.0668 14.877 16.3203 14.982 16.5848 14.982C16.8492 14.982 17.1028 14.877 17.2898 14.69C17.4768 14.503 17.5818 14.2494 17.5818 13.985C17.5818 13.7206 17.4768 13.467 17.2898 13.28L12.6998 8.68998C12.6073 8.59727 12.4974 8.52373 12.3764 8.47355C12.2554 8.42336 12.1257 8.39753 11.9948 8.39753C11.8638 8.39753 11.7341 8.42336 11.6132 8.47355C11.4922 8.52373 11.3823 8.59727 11.2898 8.68998L6.69978 13.28C6.31978 13.66 6.31978 14.3 6.70978 14.69Z" fill="#0087FF"/>
</svg>
