<svg xmlns="http://www.w3.org/2000/svg" viewBox="0 0 25 25" fill="none">
<path d="M9.25 13.9375C9.84674 13.9375 10.419 14.1746 10.841 14.5965C11.2629 15.0185 11.5 15.5908 11.5 16.1875V19.6875C11.5 20.2842 11.2629 20.8565 10.841 21.2785C10.419 21.7004 9.84674 21.9375 9.25 21.9375H5.75C5.15326 21.9375 4.58097 21.7004 4.15901 21.2785C3.73705 20.8565 3.5 20.2842 3.5 19.6875V16.1875C3.5 15.5908 3.73705 15.0185 4.15901 14.5965C4.58097 14.1746 5.15326 13.9375 5.75 13.9375H9.25ZM19.25 13.9375C19.8467 13.9375 20.419 14.1746 20.841 14.5965C21.2629 15.0185 21.5 15.5908 21.5 16.1875V19.6875C21.5 20.2842 21.2629 20.8565 20.841 21.2785C20.419 21.7004 19.8467 21.9375 19.25 21.9375H15.75C15.1533 21.9375 14.581 21.7004 14.159 21.2785C13.7371 20.8565 13.5 20.2842 13.5 19.6875V16.1875C13.5 15.5908 13.7371 15.0185 14.159 14.5965C14.581 14.1746 15.1533 13.9375 15.75 13.9375H19.25ZM9.25 15.4375H5.75C5.55109 15.4375 5.36032 15.5165 5.21967 15.6572C5.07902 15.7978 5 15.9886 5 16.1875V19.6875C5 20.1015 5.336 20.4375 5.75 20.4375H9.25C9.44891 20.4375 9.63968 20.3585 9.78033 20.2178C9.92098 20.0772 10 19.8864 10 19.6875V16.1875C10 15.9886 9.92098 15.7978 9.78033 15.6572C9.63968 15.5165 9.44891 15.4375 9.25 15.4375ZM19.25 15.4375H15.75C15.5511 15.4375 15.3603 15.5165 15.2197 15.6572C15.079 15.7978 15 15.9886 15 16.1875V19.6875C15 20.1015 15.336 20.4375 15.75 20.4375H19.25C19.4489 20.4375 19.6397 20.3585 19.7803 20.2178C19.921 20.0772 20 19.8864 20 19.6875V16.1875C20 15.9886 19.921 15.7978 19.7803 15.6572C19.6397 15.5165 19.4489 15.4375 19.25 15.4375ZM9.25 3.9375C9.84674 3.9375 10.419 4.17455 10.841 4.59651C11.2629 5.01847 11.5 5.59076 11.5 6.1875V9.6875C11.5 10.2842 11.2629 10.8565 10.841 11.2785C10.419 11.7004 9.84674 11.9375 9.25 11.9375H5.75C5.15326 11.9375 4.58097 11.7004 4.15901 11.2785C3.73705 10.8565 3.5 10.2842 3.5 9.6875V6.1875C3.5 5.59076 3.73705 5.01847 4.15901 4.59651C4.58097 4.17455 5.15326 3.9375 5.75 3.9375H9.25ZM19.25 3.9375C19.8467 3.9375 20.419 4.17455 20.841 4.59651C21.2629 5.01847 21.5 5.59076 21.5 6.1875V9.6875C21.5 10.2842 21.2629 10.8565 20.841 11.2785C20.419 11.7004 19.8467 11.9375 19.25 11.9375H15.75C15.1533 11.9375 14.581 11.7004 14.159 11.2785C13.7371 10.8565 13.5 10.2842 13.5 9.6875V6.1875C13.5 5.59076 13.7371 5.01847 14.159 4.59651C14.581 4.17455 15.1533 3.9375 15.75 3.9375H19.25ZM9.25 5.4375H5.75C5.55109 5.4375 5.36032 5.51652 5.21967 5.65717C5.07902 5.79782 5 5.98859 5 6.1875V9.6875C5 10.1015 5.336 10.4375 5.75 10.4375H9.25C9.44891 10.4375 9.63968 10.3585 9.78033 10.2178C9.92098 10.0772 10 9.88641 10 9.6875V6.1875C10 5.98859 9.92098 5.79782 9.78033 5.65717C9.63968 5.51652 9.44891 5.4375 9.25 5.4375ZM19.25 5.4375H15.75C15.5511 5.4375 15.3603 5.51652 15.2197 5.65717C15.079 5.79782 15 5.98859 15 6.1875V9.6875C15 10.1015 15.336 10.4375 15.75 10.4375H19.25C19.4489 10.4375 19.6397 10.3585 19.7803 10.2178C19.921 10.0772 20 9.88641 20 9.6875V6.1875C20 5.98859 19.921 5.79782 19.7803 5.65717C19.6397 5.51652 19.4489 5.4375 19.25 5.4375Z" fill="#18191D"/>
</svg>