<svg width="20" height="21" viewBox="0 0 20 21" fill="none" xmlns="http://www.w3.org/2000/svg">
<path d="M10.5 2.79368C10.3558 2.6855 10.1803 2.62701 10 2.62701C9.81969 2.62701 9.64425 2.6855 9.5 2.79368C9.15283 3.05966 8.83268 3.35916 8.54417 3.68785C8.10833 4.17868 7.5 5.00618 7.5 5.96035C7.5 6.62339 7.76339 7.25927 8.23223 7.72811C8.70107 8.19696 9.33696 8.46035 10 8.46035H5C4.33696 8.46035 3.70107 8.72374 3.23223 9.19258C2.76339 9.66142 2.5 10.2973 2.5 10.9603V12.627C2.5 13.657 3.67583 14.2453 4.5 13.627L5.05583 13.2103C5.20008 13.1022 5.37552 13.0437 5.55583 13.0437C5.73614 13.0437 5.91159 13.1022 6.05583 13.2103L6.2775 13.377C6.71024 13.7016 7.23657 13.877 7.7775 13.877C8.31843 13.877 8.84476 13.7016 9.2775 13.377L9.5 13.2103C9.64425 13.1022 9.81969 13.0437 10 13.0437C10.1803 13.0437 10.3558 13.1022 10.5 13.2103L10.7225 13.377C11.1552 13.7016 11.6816 13.877 12.2225 13.877C12.7634 13.877 13.2898 13.7016 13.7225 13.377L13.9442 13.2103C14.0884 13.1022 14.2639 13.0437 14.4442 13.0437C14.6245 13.0437 14.7999 13.1022 14.9442 13.2103L15.5 13.627C16.3242 14.2453 17.5 13.657 17.5 12.627V10.9603C17.5 10.2973 17.2366 9.66142 16.7678 9.19258C16.2989 8.72374 15.663 8.46035 15 8.46035H10C10.663 8.46035 11.2989 8.19696 11.7678 7.72811C12.2366 7.25927 12.5 6.62339 12.5 5.96035C12.5 5.00618 11.8917 4.17868 11.4558 3.68785C11.1675 3.36285 10.8475 3.05451 10.5 2.79368ZM3.33333 15.4728V17.627C3.33333 18.069 3.50893 18.493 3.82149 18.8055C4.13405 19.1181 4.55797 19.2937 5 19.2937H15C15.442 19.2937 15.8659 19.1181 16.1785 18.8055C16.4911 18.493 16.6667 18.069 16.6667 17.627V15.4728C16.4727 15.5429 16.2643 15.5632 16.0605 15.5319C15.8567 15.5006 15.664 15.4187 15.5 15.2937L14.9442 14.877C14.7999 14.7688 14.6245 14.7103 14.4442 14.7103C14.2639 14.7103 14.0884 14.7688 13.9442 14.877L13.7225 15.0437C13.2898 15.3682 12.7634 15.5437 12.2225 15.5437C11.6816 15.5437 11.1552 15.3682 10.7225 15.0437L10.5 14.877C10.3558 14.7688 10.1803 14.7103 10 14.7103C9.81969 14.7103 9.64425 14.7688 9.5 14.877L9.2775 15.0437C8.84476 15.3682 8.31843 15.5437 7.7775 15.5437C7.23657 15.5437 6.71024 15.3682 6.2775 15.0437L6.05583 14.877C5.91159 14.7688 5.73614 14.7103 5.55583 14.7103C5.37552 14.7103 5.20008 14.7688 5.05583 14.877L4.5 15.2937C4.33601 15.4187 4.1433 15.5006 3.93949 15.5319C3.73568 15.5632 3.52727 15.5429 3.33333 15.4728Z" fill="#50B7FF"/>
</svg>
