<svg width="56" height="56" viewBox="0 0 56 56" fill="none" xmlns="http://www.w3.org/2000/svg">
<path opacity="0.7" d="M44.5491 4.12163L44.8397 4.07418L44.8615 3.79224L45.0334 3.66384L45.2958 3.62476L45.4021 3.42935L45.7301 3.46006L45.7832 3.21162L45.9769 3.10275L46.0675 2.8906L46.3581 2.87944L46.5081 2.72591L46.6487 2.56121L46.7986 2.4021L46.9299 2.22624L47.2611 2.28207L47.2892 2.00571L47.4329 1.85497L47.6454 1.79077L47.7141 1.6819L47.4267 1.87731L47.2204 1.75169L47.0111 1.62887L46.7955 1.53954L46.5456 1.60933L46.3237 1.5535L46.1269 1.38601H45.8926L45.6426 1.44463L45.4614 1.36926L45.5926 1.24085L45.4552 1.02591L45.5052 0.799805L45.7457 0.989624L45.9738 1.02033L46.2269 0.942169L46.4487 1.00358L46.6706 1.07337L46.8955 1.1264L47.1392 1.09012L47.386 1.04824L47.5766 1.25481L47.8203 1.21294L48.064 1.18223L48.2921 1.21852L48.4827 1.42788L48.8545 1.34135L48.7264 1.63724L48.5327 1.79356L48.3702 1.88568V2.18995L48.0515 2.16483L47.9765 2.39093L47.7453 2.45793L47.6704 2.68124L47.386 2.69241V2.9883L47.0267 2.92968L47.033 3.23674L46.7205 3.22279L46.5487 3.35119L46.5081 3.61638L46.305 3.71408L46.1831 3.88436L45.8832 3.86482L45.7489 4.02114L45.5708 4.14118L45.6395 4.06022L45.8145 4.26121L46.0519 4.22213L46.28 4.23608L46.4768 4.38403L46.7112 4.36728L46.9455 4.35333L47.1423 4.50127L47.3798 4.46778L47.6141 4.4594L47.8078 4.63805H48.0078L48.0953 4.81112L47.9828 4.97861L47.9734 5.22705L47.7172 5.03723L47.4798 5.05677L47.2236 5.15726L47.0142 5.04282L46.8049 4.92837L46.5487 5.02048L46.355 4.84183L46.1238 4.82508L45.9082 4.73296L45.6895 4.66318L45.4645 4.6241L45.2052 4.73296L44.974 4.70505L44.7584 4.60735L44.4272 4.62131L44.6741 4.3617L44.546 4.12443L44.5491 4.12163Z" fill="#989898"/>
<g opacity="0.4">
<path d="M53.1765 26.0081L53.2129 25.878L53.291 25.7427L53.2667 25.6195L53.0914 25.5207L53.2424 25.3715L53.0653 25.2743L53.0219 25.1564L53.1192 25.0141L53.2285 24.8684L53.0619 24.773L53.173 24.6256L53.0601 24.5215L52.8917 24.4278L52.9542 24.289L52.9056 24.1728L53.0011 24.0271L52.883 23.9247L52.8379 23.8068L52.9698 23.6507L52.7858 23.5657L52.7302 23.4512L52.6521 23.3436L52.6018 23.2274L52.699 23.0765L52.8188 22.9169L52.5132 22.8683L52.6834 22.6948L52.5549 22.6012L52.5879 22.4624L52.5167 22.3531V22.2265L52.4038 22.1293L52.5184 21.968L52.3344 21.8934L52.4386 21.7321L52.3882 21.6176L52.1712 21.5569L52.1781 21.4251L52.0844 21.3262L52.251 21.1406L52.1573 21.04L52.1174 20.9237L52.0687 20.8092L52.0844 20.6705L52.0028 20.5681L51.9958 20.438L52.0201 20.2958L51.7753 20.2559L51.7111 20.1466L51.6086 20.0547L51.6694 19.8968L51.7389 19.7355L51.7059 19.614L51.6468 19.503L51.5461 19.4093L51.4663 19.3087L51.3517 19.2237L51.2649 19.1266L51.4541 18.9046L51.3569 18.8109L51.2128 18.7398L51.1485 18.6322L51.1885 18.4744L51.1381 18.3599V18.2194L50.8794 18.2089L50.928 18.0441L50.9541 17.8898L50.9124 17.7701L50.6832 17.751L50.6138 17.6469L50.4436 17.6001L50.4193 17.47L50.3117 17.3902L50.2804 17.2653L50.4332 17.0294L50.211 17.0172L50.2231 16.8628L49.9957 16.8594L50.0217 16.6963L49.9367 16.6026L49.9228 16.4638L49.7682 16.417L49.9019 16.1742L49.7752 16.1082L49.6293 16.0579L49.6849 15.8636L49.4279 15.8983L49.553 15.6485L49.355 15.6399L49.1501 15.6433L49.1953 15.4491L49.1554 15.319L49.1085 15.1958L49.0842 15.0518L48.8185 15.1143L48.8272 14.9408L48.8133 14.7864L48.5581 14.8471L48.6432 14.5991L48.572 14.4915L48.3688 14.5141L48.3619 14.3441L48.3081 14.2192L48.2247 14.1238L48.1032 14.0682L47.8758 14.1272L47.7733 14.0544L47.7751 13.867L47.5511 13.9329L47.4973 13.8046L47.3618 13.7751L47.3341 13.6138L47.2281 13.5461L47.1847 13.3987L47.0007 13.4351L47.0111 13.213L46.8201 13.2633L46.6864 13.2373L46.6378 13.0899L46.6448 12.854L46.4052 12.991L46.4104 12.7499L46.2802 12.7187L46.1934 12.6198L45.9763 12.7412L45.9416 12.5504L45.8461 12.4637L45.7489 12.3804L45.5631 12.4637L45.4746 12.363L45.353 12.3266L45.294 12.1566L45.1898 12.0803L45.0787 12.0196L44.8999 12.1185L44.8426 11.9242L44.6585 12.0473L44.5057 12.1011L44.3998 12.03L44.2661 12.0387L44.254 11.6865L44.0335 11.9571L43.9328 11.8669L43.8842 11.5894L43.7331 11.6588L43.5925 11.6987L43.438 11.7958L43.3737 11.5373L43.2036 11.7091L43.0959 11.6223L42.9657 11.6414L42.898 11.3361L42.7591 11.3916L42.6219 11.4437L42.5073 11.3656L42.3511 11.5686L42.2469 11.4142L42.1097 11.5148L42.0038 11.3378L41.8667 11.4541L41.7434 11.4367L41.634 11.2164L41.4986 11.3743L41.3736 11.3691L41.2538 11.2286L41.1218 11.4593L41.002 11.1782L40.8753 11.3743L40.7485 11.1436L40.6235 11.2181L40.4985 11.239L40.37 11.2095L40.2485 11.2875L40.1252 11.3448L39.9933 11.2598L39.8683 11.2685L39.7572 11.4367L39.6269 11.3864L39.5019 11.3933L39.3856 11.4697L39.2658 11.5148L39.1043 11.2702L38.9811 11.3014L38.9099 11.6397L38.7675 11.5495L38.6425 11.5581L38.5227 11.5946L38.4203 11.7125L38.264 11.5842L38.1616 11.6952L38.0261 11.6622L37.8734 11.5686L37.8213 11.8687L37.6372 11.664L37.5678 11.8773L37.441 11.8843L37.2796 11.7854L37.2049 11.9641L37.0243 11.8114L36.8906 11.8097L36.875 12.1531L36.6736 11.9554L36.5556 12.0005L36.4878 12.1792L36.3055 12.0491L36.2552 12.2676L36.1823 12.4168L36.0573 12.4376L35.8993 12.3839L35.7135 12.2728L35.644 12.429L35.5798 12.5886L35.4183 12.5365L35.2985 12.5764L35.1857 12.6337L35.0693 12.6822L34.9721 12.7655L34.9513 12.9962L34.7534 12.8887L34.6075 12.8852L34.5901 13.1124L34.3714 12.9771L34.3349 13.1679L34.262 13.2894L34.1248 13.3015L33.9182 13.2044L33.913 13.4368L33.8297 13.5357L33.5953 13.4021L33.6283 13.6849L33.5015 13.7178L33.4356 13.8427L33.3383 13.9208L33.1074 13.8098L33.1439 14.0752L32.8695 13.9104L32.8904 14.1498L32.8053 14.2452L32.5917 14.1706L32.4876 14.2417L32.5101 14.4742L32.4303 14.573L32.3226 14.6372L32.2185 14.7083L32.0066 14.6494L32.0084 14.8454L31.9094 14.9217L31.6924 14.8627L31.807 15.1819L31.675 15.2201L31.399 15.1039L31.3243 15.2097L31.2531 15.3172L31.2948 15.5427L31.0569 15.4785L31.076 15.6763L31.0673 15.8428L30.892 15.8446L30.8659 15.9937L30.8277 16.1291L30.6385 16.1221L30.5447 16.2054L30.3798 16.2245L30.3242 16.3442L30.1767 16.3806L30.1506 16.5263L30.1697 16.7084L29.9388 16.6772L30.0586 16.9409L29.8798 16.9548L29.8954 17.1282L29.812 17.2202L29.7565 17.3347L29.4839 17.2809L29.6072 17.5324L29.2842 17.4474L29.2131 17.5515L29.1367 17.6521L29.1332 17.8048L29.1801 17.9921L29.0863 18.0788L28.8519 18.0702L29.0064 18.3269L28.9092 18.4119L28.8415 18.516L28.6696 18.5541L28.6314 18.679L28.4543 18.7155L28.3675 18.8109L28.4526 19.0104L28.2894 19.0589L28.4144 19.2792L28.2373 19.3157L28.0602 19.2845L28.1852 19.0572L28.0897 18.9687L27.8466 18.9774L27.9317 18.771L27.9265 18.6235L27.7216 18.6114L27.798 18.405L27.7477 18.2853L27.5098 18.3009L27.5445 18.1205L27.3188 18.1309L27.3258 17.9696L27.2754 17.8499L27.2824 17.6851L27.1626 17.6191L27.1331 17.4804L26.9143 17.496L26.8987 17.3451L26.7372 17.3173L26.6712 17.208L26.5896 17.1144L26.5306 16.9999L26.5705 16.7969L26.4143 16.7674L26.2389 16.757L26.1903 16.6304L26.1885 16.4604L25.9542 16.5107L26.0479 16.2453L25.7614 16.3494L25.6902 16.2435L25.567 16.1915L25.5444 16.0354L25.5791 15.8203L25.3881 15.8376L25.3934 15.6485L25.3256 15.5341H25.1555L25.1329 15.3693L24.9142 15.4265L24.7909 15.3779L24.8204 15.1507L24.5773 15.2426L24.5304 15.1056L24.402 15.0657L24.4106 14.8523L24.2804 14.8159L24.1832 14.7361L24.1207 14.6112L23.9644 14.606L23.9436 14.4256L23.6832 14.5661L23.5582 14.5279L23.5339 14.3458L23.3845 14.3441L23.2804 14.2747L23.3151 13.9971L23.1831 13.9694L23.0894 13.8809L22.9349 13.8896L22.848 13.7907L22.7543 13.704L22.5564 13.789L22.4105 13.7907L22.4661 13.449L22.2699 13.5374L22.2543 13.3084L21.9834 13.5374L22.0129 13.22L21.907 13.1506L21.69 13.2946L21.5823 13.2304L21.5771 12.9632L21.3254 13.1905L21.2854 12.9823L21.1917 12.8887L21.0146 12.9737L20.8705 12.9927L20.808 12.8262L20.768 12.599L20.5701 12.7464L20.5111 12.5608L20.4225 12.4411L20.275 12.4689L20.0683 12.6631L20.0249 12.422H19.8912L19.7471 12.4567L19.6933 12.2243L19.5353 12.3023L19.4693 12.0959L19.2645 12.3266L19.1759 12.193L19.044 12.1982L18.9572 12.0456L18.7887 12.1809L18.6689 12.1497L18.6134 11.8652L18.4641 11.938L18.3582 11.8409L18.2071 11.9363L18.0699 11.9797L17.9449 11.971L17.8512 11.801L17.7349 11.7333L17.5925 11.8166L17.4935 11.6449L17.3598 11.6813L17.2261 11.7229L17.0838 11.8392L16.9779 11.6882L16.8529 11.6726L16.74 11.5495L16.6063 11.6171L16.4796 11.6327L16.3407 11.7941L16.2209 11.7229L16.1063 11.5495L15.9708 11.7281L15.858 11.4627L15.7243 11.6865L15.5976 11.7698L15.476 11.5911L15.351 11.7212L15.2243 11.4818L15.0993 11.6102L14.976 11.6275L14.8475 11.5495L14.7294 11.7316L14.5992 11.6241L14.4742 11.6258L14.3562 11.7212L14.2207 11.6171L14.087 11.5477L13.9568 11.5252L13.8544 11.7299L13.7259 11.7021L13.594 11.6657L13.5019 11.9016L13.3665 11.8374L13.2502 11.8999L13.0922 11.7264L12.9984 11.8999L12.83 11.7073L12.7224 11.8097L12.6494 12.0543L12.4654 11.8149L12.396 12.0543L12.2519 11.9988L12.1442 12.0786L12.04 12.1688L11.9445 12.278L11.7518 12.0786L11.6789 12.2624L11.5001 12.1167L11.3785 12.1531L11.3351 12.4029L11.1598 12.2884L11.0104 12.2538L10.9723 12.4966L10.8525 12.5348L10.6875 12.4637L10.5469 12.4584L10.4722 12.6007L10.3038 12.5365L10.217 12.6527L10.1962 12.8956L10.0885 12.9563L9.94614 12.9494L9.76384 12.8748L9.6423 12.9147L9.63536 13.161L9.42527 13.043L9.42701 13.2946L9.302 13.3275L9.20998 13.4177L9.06587 13.4212L8.97559 13.5114L8.91135 13.6398L8.71863 13.5773L8.65786 13.7092L8.60925 13.8549L8.53806 13.9676L8.27068 13.8132L8.15956 13.8757L8.15088 14.07L8.104 14.2122L7.90607 14.1654L7.81058 14.2469L7.78454 14.41L7.74113 14.5522L7.55015 14.521L7.48591 14.6355L7.35569 14.6771L7.40083 14.9096L7.25846 14.9391L7.20637 15.064L7.11088 15.142L7.01192 15.2201L6.91469 15.2964L6.69245 15.2548L6.71155 15.4456L6.63863 15.5479L6.43896 15.5323L6.49799 15.7526L6.19763 15.6537L6.14033 15.7717L6.22193 16.0059L5.95976 15.9486L6.06567 16.2002L5.85385 16.188L5.78788 16.2956L5.80871 16.4708L5.66981 16.5211L5.57258 16.6026L5.51008 16.7136L5.34514 16.7483L5.4389 16.9704L5.41112 17.1039L5.2809 17.1647L5.24965 17.293L4.99442 17.2705L5.00658 17.4283L4.94233 17.5359L4.90067 17.659L4.79996 17.744L4.84163 17.9175L4.62113 17.9262L4.71142 18.1291L4.47182 18.1309L4.44577 18.261L4.44057 18.4032L4.40758 18.5281L4.40931 18.6721L4.32771 18.7692L4.05165 18.7588L4.12284 18.941L4.08985 19.0659L3.89365 19.1023L3.92491 19.2602L3.89886 19.3885L3.70093 19.4284L3.92317 19.68L3.81552 19.765L3.65058 19.8239L3.73392 20.0009L3.4787 20.02L3.61759 20.2212L3.52557 20.3166L3.53252 20.4554L3.43008 20.5456L3.19569 20.5803L3.17312 20.7069L3.16791 20.8405L3.15228 20.9706L3.17312 21.1128L2.92484 21.1475L2.95783 21.2967L3.12624 21.4962L3.07763 21.6089L2.85018 21.6575L2.71476 21.739L2.87622 21.9316L2.66614 21.9888L2.71823 22.1415L2.55329 22.2178L2.48384 22.3271L2.58454 22.4936L2.64531 22.6463L2.3814 22.6914L2.38314 22.825L2.44043 22.9741L2.35188 23.0782L2.48384 23.2482L2.30153 23.3245L2.41439 23.4876L2.35536 23.6004L2.28938 23.7096L2.14354 23.7998L2.28591 23.9664L2.02026 24.0254L2.09666 24.1745L2.16611 24.3185L2.11228 24.433L2.18521 24.577L2.1609 24.6967L1.88137 24.7609L1.94908 24.9014L1.86921 25.0107L1.93172 25.1494L2.022 25.2917L1.93172 25.3992L1.87963 25.5137L1.84838 25.6334L1.96297 25.7722L1.7442 25.8676L1.73379 25.9908L1.80497 26.1191L1.69559 26.2388L1.82928 26.3689L1.76157 26.4904L1.63309 26.61L1.65739 26.7367L1.88831 26.8668L1.7442 26.9882L1.86921 27.1131L1.8831 27.2363L1.64003 27.3577L1.79108 27.4809L1.67823 27.604L1.83275 27.7272L1.6001 27.8538L1.64524 27.977L1.64698 28.1001L1.6244 28.225L1.87269 28.343L1.7442 28.4696L1.81886 28.5911L1.71295 28.7194L1.79629 28.8391L1.70774 28.9675L1.76157 29.0889L1.63482 29.2225L1.74247 29.3387L1.87442 29.4549L1.9213 29.5746L1.8206 29.7082L1.98554 29.8175L1.84664 29.9545L2.01506 30.0638L1.81018 30.2078L2.01506 30.3119L2.02026 30.435L1.94387 30.5686L1.97512 30.69L1.78587 30.8375L2.06888 30.9277L2.00985 31.0613L2.1227 31.1705L2.04457 31.3058L1.98554 31.4412L2.05499 31.5556L1.95776 31.6962L2.12791 31.795L2.1036 31.9234L2.15743 32.0414L2.00811 32.1923L2.04457 32.312L2.1418 32.4213L2.10881 32.5548L2.36751 32.6312L2.37098 32.756L2.2807 32.9L2.29806 33.0232L2.36404 33.1359L2.28591 33.2817L2.50988 33.358L2.53072 33.4811L2.27723 33.6685L2.29112 33.7934L2.56023 33.8558L2.45953 34.0102L2.621 34.097L2.68871 34.208L2.77726 34.3121L2.52551 34.5098L2.56891 34.6278L2.70087 34.7197L2.80504 34.8203L2.93699 34.9105L2.82414 35.0736L2.8224 35.2054L2.83629 35.3321L3.06895 35.3893L2.99776 35.5437L3.08457 35.646L2.93526 35.8264L3.09673 35.9045L3.19048 36.0034L3.25819 36.1127L3.19569 36.2671L3.20264 36.3972L3.23736 36.5186L3.3398 36.614L3.26514 36.7753L3.55335 36.7979L3.54641 36.9349L3.62975 37.0355L3.59676 37.183L3.73045 37.2628L3.73913 37.3929L3.83809 37.4883L3.73045 37.6687L3.74607 37.7988L3.97873 37.8335L3.75649 38.0694L3.85546 38.1631L4.00304 38.2325L4.18187 38.288L4.24611 38.3955L4.32077 38.4979L4.15409 38.7182L4.38153 38.7459L4.38501 38.883L4.5187 38.9558L4.30688 39.2039L4.42494 39.2854L4.66975 39.2993L4.75482 39.3964L4.63849 39.6011L4.83122 39.641L4.84163 39.7781L4.89198 39.8926L5.01873 39.9637L4.96317 40.1406L5.19582 40.1493L5.26701 40.2534L5.11943 40.4858L5.22187 40.5708L5.45626 40.5743L5.34514 40.7894L5.57779 40.7911L5.4198 41.0392L5.52744 41.119L5.72364 41.1415L5.60557 41.367L5.71669 41.4451L5.95803 41.4347L6.04484 41.5266L5.96844 41.7296L6.01359 41.851L6.1438 41.9135L6.19242 42.0314L6.28097 42.1216L6.44591 42.1581L6.37993 42.361L6.58307 42.3662L6.60043 42.5085L6.76537 42.5414L6.80531 42.6663L6.74107 42.8745L6.75843 43.0202L6.88864 43.0774L7.02581 43.1295L7.20637 43.1434L7.1647 43.3394L7.25325 43.4296L7.23242 43.61L7.46334 43.5805L7.63001 43.6013L7.64043 43.7557L7.69946 43.8719L7.64043 44.0905L7.80711 44.1096L7.89218 44.2033L7.95122 44.3195L8.11963 44.3351L8.19081 44.4392L8.19255 44.6109L8.3627 44.6213L8.55195 44.6144L8.60751 44.7341L8.61619 44.8989L8.76377 44.9301L8.77419 45.0966L8.8037 45.2441L8.96344 45.2614L8.97906 45.4262L9.23429 45.343L9.19609 45.5633L9.41312 45.5164L9.46521 45.6431L9.48083 45.8113L9.52597 45.9484L9.78641 45.846L9.87669 45.9345L9.88537 46.1114L10.0955 46.0629L10.1996 46.1322L10.2291 46.2884L10.1857 46.533L10.3819 46.4948L10.4236 46.6405L10.4931 46.755L10.6354 46.7793L10.6997 46.899L10.8768 46.8799L11.033 46.8816L11.0018 47.1245L11.198 47.0759L11.3212 47.121L11.4306 47.1835L11.5469 47.2355V47.4454L11.6963 47.4523L11.6858 47.6796L11.9254 47.5634L11.9081 47.7993L12.0609 47.8027L12.1789 47.8513L12.356 47.8166L12.4411 47.912L12.4776 48.0803L12.6408 48.0629L12.7484 48.1254L12.8005 48.2728L12.8404 48.4394L12.9064 48.5677L13.1616 48.4047L13.1842 48.6007L13.2641 48.71L13.3891 48.7464L13.4915 48.8193L13.62 48.8505L13.6721 49.0066L13.7936 49.0465L13.9568 49.017L14.1287 48.9719L14.2068 49.0864L14.3145 49.1489L14.4621 49.1419L14.5003 49.3275L14.5767 49.449L14.7416 49.4091V49.671L14.9048 49.6311L15.0888 49.5548L15.2069 49.5964L15.2503 49.7838L15.351 49.8601L15.5212 49.8028L15.6705 49.7872L15.6878 50.0283L15.7625 50.1585L15.8684 50.2296L16.1219 49.9971L16.1323 50.2608L16.2 50.4082L16.3181 50.4534L16.457 50.4551L16.615 50.4117L16.74 50.4412L16.8563 50.4863L16.9588 50.5609L17.1029 50.547L17.1723 50.6979L17.3425 50.6199L17.4623 50.6598L17.5508 50.7673L17.6585 50.835L17.8182 50.7795L17.8876 50.9373L17.9779 51.0518L18.0804 51.1299L18.254 51.0327L18.3252 51.1958L18.4189 51.2999L18.5491 51.312L18.7349 51.1784L18.8651 51.1889L18.9155 51.4109L19.044 51.423L19.1898 51.3936L19.2558 51.5774L19.3739 51.6208L19.5544 51.4838L19.6707 51.5341L19.7037 51.8203L19.9051 51.6191L19.992 51.7544L20.1343 51.7214L20.1986 51.9278L20.3184 51.966L20.4677 51.9122L20.6361 51.7925L20.6726 52.0978L20.8253 52.0267L20.9816 51.9434L21.1118 51.94L21.1413 52.2834L21.275 52.2713L21.4469 52.1291L21.5789 52.1204L21.6744 52.2401L21.7421 52.4656L21.94 52.221L22.0702 52.2141L22.1292 52.4777L22.2977 52.332L22.3758 52.5246L22.513 52.4916L22.5963 52.6755L22.7786 52.4621L22.8637 52.6391L22.9609 52.764L23.1154 52.6616L23.2161 52.7744L23.3897 52.5818L23.4887 52.705L23.5859 52.8403L23.6918 52.9444L23.8603 52.7553L23.9818 52.7813L24.1068 52.7882L24.2353 52.7865L24.3082 53.0536L24.4662 52.8906L24.5739 52.9929L24.6937 53.0328L24.8308 52.9739L24.9211 53.1785L25.0722 53.0415L25.2006 53.0363L25.3222 53.0693L25.4385 53.1265L25.5409 53.2844L25.7093 53.0155L25.8153 53.1421L25.9524 53.0606L26.0531 53.2323L26.1677 53.3L26.2962 53.2757L26.4351 53.1664L26.567 53.1126L26.6556 53.4023L26.7737 53.4665L26.9021 53.4283L27.0219 53.4839L27.1695 53.2687L27.2685 53.5099L27.4091 53.3416L27.5168 53.5185L27.5254 53.4006L27.5289 53.326L27.5393 53.4943L27.6626 53.4509L27.7841 53.411L27.9109 53.4266L28.0203 53.2653L28.1418 53.2254L28.2929 53.4544L28.4005 53.2965L28.5099 53.1733L28.6418 53.2271L28.7686 53.2323L28.9092 53.3312L29.0099 53.1595L29.128 53.0953L29.2669 53.1959L29.4023 53.2531L29.4995 53.0797L29.6471 53.2098L29.7513 53.0797L29.8468 52.9045L29.9822 52.9617L30.1003 52.9166L30.26 53.104L30.3694 53.0103L30.4857 52.9582L30.6038 52.9114L30.7427 52.9756L30.8573 52.9131L30.9857 52.9183L31.1281 52.9895L31.2444 52.934L31.3451 52.8125L31.4406 52.6703L31.5604 52.6373L31.7184 52.7726L31.7879 52.5211L31.925 52.561L32.0396 52.5072L32.2133 52.6928L32.307 52.5489L32.4598 52.6477L32.5101 52.3372L32.715 52.6339L32.7619 52.3164L32.9355 52.4881L33.0779 52.5367L33.1265 52.2383L33.2654 52.273L33.3887 52.2522L33.5293 52.2904L33.6092 52.1152L33.7081 52.0128L33.8453 52.0389L33.9755 52.0406L34.1544 52.1967L34.2811 52.1811L34.3019 51.8324L34.4512 51.8914L34.5832 51.8931L34.7464 51.992L34.8766 51.9851L34.9357 51.7648L35.0832 51.8116L35.1805 51.7075L35.2985 51.6728L35.3975 51.5792L35.5919 51.7561L35.6857 51.6468L35.7586 51.4803L35.9132 51.5393L36.0104 51.4421L36.1302 51.4074L36.2187 51.2895L36.3212 51.2114L36.4757 51.2669L36.5642 51.149L36.7535 51.2929L36.8004 51.0674L36.908 51.005L37.0348 50.9842L37.1598 50.9599L37.2709 50.9044L37.4393 50.9842L37.4532 50.6962L37.5973 50.717L37.7692 50.8003L37.8664 50.7083L38.014 50.7361L38.0921 50.6043L38.2519 50.6528L38.2727 50.3961L38.4723 50.5297L38.5262 50.3475L38.6581 50.3371L38.8387 50.4256L38.8734 50.207L39.0314 50.2469L39.1095 50.1203L39.2016 50.0249L39.2537 49.8514L39.4342 49.9329L39.5384 49.8618L39.6026 49.7144L39.8058 49.8323L39.9325 49.8028L40.0593 49.7751L40.1287 49.638L40.245 49.5912L40.2954 49.4212L40.4482 49.4386L40.5194 49.3102L40.6079 49.213L40.7069 49.135L40.7833 49.0188L40.91 48.9893L41.0906 49.0482L41.2 48.9875L41.2243 48.7846L41.4135 48.8557L41.4344 48.6527L41.5958 48.6753L41.799 48.7638L41.7556 48.4602L41.9674 48.5608L42.0316 48.4272L42.1236 48.3388H42.2729L42.3945 48.2971L42.4744 48.1878L42.5212 48.0352L42.7435 48.1375L42.7747 47.9623L42.9605 48.0074L42.9362 47.7559L42.9952 47.6241L43.2609 47.7785L43.3112 47.6327L43.4328 47.5876L43.5508 47.5356L43.5317 47.2997L43.6411 47.239L43.7609 47.1887L43.8581 47.1089L44.0213 47.1141L44.1359 47.0568L44.1255 46.8417L44.1741 46.7029L44.3564 46.7307L44.5353 46.7515L44.5839 46.611L44.7783 46.6474L44.8183 46.5017L44.9537 46.4653L45.0648 46.4011L45.1603 46.3196L45.0544 46.0091L45.1481 45.9275L45.2575 45.8599L45.4624 45.9033L45.4693 45.7229L45.6065 45.6882L45.7471 45.6552L45.7211 45.4453L45.8791 45.428L46.0631 45.4401L46.0753 45.2718L46.0996 45.1174L46.1569 44.9977L46.3027 44.9665L46.3583 44.8468L46.5059 44.8156L46.5944 44.7254L46.7333 44.6855L46.8167 44.5918L46.9104 44.5068L46.8965 44.323L46.9799 44.2293L47.157 44.2206L47.1413 44.0385L47.2108 43.9327L47.3531 43.891L47.4591 43.8164L47.5511 43.7297L47.7264 43.7141L47.7907 43.6031L47.7924 43.44L47.9452 43.4036L47.933 43.2318L47.9383 43.074L48.1206 43.0601L48.256 43.0063L48.2508 42.8415L48.2942 42.7166L48.4921 42.7114L48.3897 42.4755L48.6293 42.4981L48.532 42.2708L48.7855 42.3003L48.6675 42.0592L48.8897 42.0644L49.0147 41.9985L49.0824 41.8927L48.9453 41.6446L49.1606 41.6394L49.1276 41.4659L49.3724 41.4781L49.2856 41.2699L49.2786 41.1155L49.4557 41.0808L49.6432 41.0513L49.6936 40.9351L49.5981 40.7269L49.8498 40.7339L49.9297 40.635L49.8742 40.4529L50.0617 40.4182L49.9071 40.1823L49.9228 40.0452L50.1658 40.04L50.2926 39.9654L50.2127 39.7763L50.3846 39.726L50.3013 39.5387L50.52 39.5161L50.4731 39.3479L50.5982 39.2733L50.6676 39.1692L50.8117 39.1033L50.7162 38.9107L50.6624 38.7407L50.8603 38.7043L50.9697 38.6193L50.8308 38.4077L51.0878 38.3973L50.9385 38.1822L51.0739 38.111L51.1294 37.9983L51.2545 37.9202L51.2996 37.804L51.4246 37.7259L51.4802 37.6132L51.2979 37.3946L51.4194 37.3131L51.4333 37.1847L51.7267 37.1778L51.725 37.0407L51.6382 36.869L51.8882 36.8378L51.942 36.725L51.8274 36.5429L51.7875 36.3937L51.9698 36.3312L52.0618 36.2324L52.1399 36.1283L52.0844 35.9739L52.1174 35.8525L52.2806 35.7796L52.3066 35.6547L52.2024 35.4865L52.1243 35.3269L52.1573 35.2072L52.4177 35.1638L52.5184 35.0649L52.4889 34.9227L52.4143 34.7683L52.3517 34.6174L52.6382 34.5757L52.4229 34.3797L52.4785 34.267L52.7667 34.2201L52.5948 34.0415L52.7129 33.9443L52.6782 33.8055L52.758 33.698L52.7997 33.58L52.7945 33.4499L52.8032 33.325L52.9247 33.2244L52.8118 33.0718L52.9507 32.9746L53.015 32.8619L53.1452 32.7613L53.0115 32.6051L53.232 32.5219L53.0445 32.3571L53.1782 32.2565L53.2285 32.1368L53.0827 31.9841L53.1035 31.8609L53.3622 31.7777L53.0636 31.6025L53.2893 31.5105L53.3761 31.3961L53.1765 31.2417L53.4195 31.148L53.4525 31.0248L53.4925 30.9034L53.3674 30.7612L53.3535 30.6345L53.3813 30.5114L53.2963 30.3761L53.2216 30.2442L53.449 30.1384L53.3188 30.0031L53.2563 29.873L53.5862 29.7689L53.2702 29.6249L53.522 29.5122L53.3831 29.3803L53.3171 29.2537L53.4386 29.1323L53.6001 29.0109L53.4734 28.8825L53.3206 28.7559L53.3101 28.631L53.5098 28.5043L53.581 28.3777L53.3622 28.2563L53.4265 28.1296L53.5133 28.0013L53.39 27.8798L53.4317 27.7515L53.3709 27.6283L53.2719 27.5086L53.4907 27.3698L53.4786 27.2449L53.522 27.1148L53.2338 27.0108L53.4786 26.8633L53.2667 26.7575L53.3952 26.6187L53.3379 26.4973L53.3223 26.3724L53.4317 26.2319L53.3345 26.1157L53.1765 26.0081Z" fill="url(#paint0_linear_4982_5739)"/>
<path d="M43.535 30.0702L43.6322 30.0859L43.5801 30.2038L43.6513 30.3409L43.6582 30.4675L43.5836 30.5785L43.4395 30.6757L43.37 30.7867L43.4846 30.9359V31.0625L43.337 31.1544L43.5384 31.3296L43.2381 31.3834L43.3995 31.5517L43.41 31.6835L43.1148 31.7303L43.1217 31.8604L43.2641 32.0304L43.0888 32.1068L43.0297 32.2161L43.212 32.4069L42.9377 32.4468L43.0193 32.6046L42.9933 32.7278L42.8804 32.8197L42.9342 32.9724L42.7919 33.0539L42.7832 33.1858L42.7988 33.3297L42.6043 33.3835L42.6182 33.5275L42.6738 33.6905L42.58 33.786L42.3335 33.812L42.4446 34.0028L42.4967 34.1693L42.3891 34.2578L42.2172 34.3116L42.2727 34.4833L42.0661 34.5145L42.0054 34.6255L42.1442 34.8476L41.8647 34.8337L41.9481 35.028L41.8821 35.1355L41.7223 35.1858L41.8144 35.3923L41.731 35.4894L41.5939 35.5501L41.4376 35.6004L41.547 35.8259L41.3022 35.8121L41.231 35.9162L41.2536 36.0862L41.0695 36.1087L40.9688 36.1902L40.8942 36.2926L40.8716 36.4314L40.724 36.4747L40.8212 36.7124L40.7865 36.8477L40.6441 36.8963L40.4931 36.9344L40.4341 37.0472L40.25 37.0558L40.3611 37.3195L40.2934 37.4288L40.1493 37.4687L39.8837 37.3958L39.8958 37.5797L39.7292 37.5919L39.776 37.8122L39.6493 37.8625L39.6285 38.0221L39.4045 37.97L39.3142 38.055L39.4027 38.3326L39.276 38.3829L39.1319 38.4106L39.0885 38.5494L39.0104 38.6518L38.894 38.7073L38.7326 38.7402L38.7881 38.5217L38.7065 38.4297L38.4166 38.4766L38.5416 38.2441L38.5051 38.1244L38.4009 38.0429L38.2777 37.9718L38.1301 37.9093L38.0693 37.7983L38.0849 37.6491L38.1214 37.4947L37.8957 37.4583L37.9287 37.3074L37.8506 37.2033L37.7446 37.1061L37.696 36.9882L37.8922 36.7974L37.762 36.7054L37.7568 36.5788L37.7412 36.4556L37.6544 36.3464L37.7742 36.2006L37.5537 36.1052L37.4738 35.9855L37.5693 35.8502L37.6769 35.7201L37.5485 35.597L37.4321 35.4686L37.6092 35.3472L37.4339 35.2067L37.5346 35.0887L37.6387 34.9742L37.5311 34.8302L37.7915 34.7504L37.7099 34.6082L37.6978 34.4764L37.8193 34.381L37.6891 34.211L37.7481 34.0965L37.9235 34.0271L37.9287 33.8952L38.012 33.7964L37.8888 33.6021L38.1509 33.5899L38.1353 33.4425L38.045 33.2482L38.3176 33.2603L38.3124 33.1112L38.4999 33.0869L38.5537 32.9759L38.6562 32.8978L38.7274 32.7989L38.6423 32.5769L38.6527 32.4225L38.9687 32.5266L38.7985 32.2091L38.9027 32.1311L39.1614 32.2056L39.1718 32.0409L39.2378 31.9281L39.2968 31.8067L39.3906 31.7217L39.5486 31.713L39.7483 31.7581L39.8073 31.6384L39.7569 31.3661L39.9444 31.4077L40.0556 31.3487L40.1667 31.2897L40.3056 31.2759L40.4375 31.2533L40.4862 31.0989L40.6285 31.0954L40.6025 30.7971L40.8178 30.9272L40.9063 30.8266L40.9671 30.6687L41.1754 30.8127L41.2171 30.6063L41.3386 30.5716L41.4359 30.4796L41.5296 30.3756L41.6703 30.3842L41.7935 30.3547L41.9428 30.3981L42.0349 30.2801L42.1286 30.1605L42.2901 30.2524L42.4134 30.2316L42.5696 30.3252L42.6252 30.0494L42.8058 30.2524L42.8978 30.1067L43.0401 30.1709L43.1478 30.0789L43.2363 29.8604L43.3735 29.9037L43.5228 30.0408L43.535 30.0702Z" fill="#64676F"/>
<path d="M11.1388 30.0642L10.967 30.0972L11.0399 30.2117L10.9409 30.3539L11.0798 30.4563L11.1718 30.5638L11.125 30.6974L11.0781 30.8327L11.1267 30.9489L11.3732 31.0218L11.3628 31.1484L11.1684 31.3219L11.4253 31.3861L11.2031 31.5717L11.2986 31.6758L11.5642 31.7296L11.3298 31.9256L11.3472 32.0505L11.5312 32.1233L11.5451 32.25L11.4896 32.3991L11.6319 32.4824L11.5503 32.642L11.6719 32.7322L11.8872 32.786L11.724 32.9803L11.8785 33.0566L11.8906 33.1867L11.8785 33.3289L11.9549 33.4347L12.1216 33.4989L12.1163 33.6394L12.0243 33.8199L12.1771 33.8892L12.316 33.9621L12.2066 34.1564L12.4566 34.172L12.5417 34.2691L12.5209 34.4218L12.6129 34.5155L12.6945 34.6143L12.7587 34.7202L12.7657 34.8607L12.8438 34.9595L12.9376 35.0515L12.9931 35.1625L12.9358 35.3464L13.0574 35.4175L13.139 35.5146L13.0643 35.7159L13.2779 35.7263L13.3803 35.8095L13.4393 35.9206L13.5991 35.9605L13.6755 36.0611L13.547 36.3109L13.8248 36.2606L13.6842 36.526L13.8717 36.5416L13.8474 36.7203L14.113 36.6682L14.1668 36.7862L14.2016 36.9197L14.2484 37.0446L14.4498 37.036L14.5349 37.1262L14.4307 37.3881L14.5228 37.4748L14.6148 37.5633L14.8492 37.5147L14.7867 37.7489L14.9794 37.7368L15.0297 37.8634L15.0575 38.0143L15.186 38.0629L15.1756 38.252L15.4881 38.108L15.4586 38.3214L15.5437 38.4133L15.7503 38.3699L15.7468 38.5608H15.9117L15.9517 38.8036L15.9933 38.5955L16.0489 38.481L16.1548 38.4046L16.3597 38.3873L16.2885 38.193L16.4795 38.1618L16.4986 38.0247L16.3649 37.8096L16.5611 37.7715L16.6739 37.6865L16.6028 37.5147L16.5802 37.3708L16.7278 37.2979L16.8458 37.2077L16.7764 37.0498L16.7521 36.9128L16.9326 36.8399L17.0524 36.7411L17.1028 36.6214L17.0872 36.4861L17.0629 36.3525L16.9604 36.2085L16.9309 36.0802L17.1566 35.9795L17.0681 35.846L17.2209 35.7263L17.2625 35.5979L17.0229 35.473L17.1479 35.3429L16.976 35.2284L16.9674 35.107L17.1931 34.9526L17.1445 34.8294L16.8892 34.7496L16.891 34.6247L17.0212 34.4652L16.8458 34.3836L16.9899 34.2102L16.9014 34.1061L16.7121 34.0419L16.924 33.8233L16.8476 33.7158L16.6948 33.6464V33.5041L16.4899 33.4712L16.5437 33.2977L16.2937 33.2994L16.2607 33.178L16.2816 33.0167L16.2399 32.8935L16.2347 32.7426L16.1114 32.6767L16.0159 32.5934L15.8215 32.5917L15.7867 32.4599L15.7416 32.335L15.6912 32.2101L15.5107 32.2118L15.5159 32.0297L15.4377 31.9308L15.3544 31.8371L15.1999 31.8215L15.2051 31.622L14.929 31.7608L15.0228 31.4451L14.8474 31.4659L14.7971 31.3219L14.6634 31.2907L14.5366 31.2525L14.5002 31.0808L14.2918 31.1727L14.1634 31.1467L14.1477 30.9264L14.0001 30.9316L13.922 30.8154L13.8474 30.6835L13.6078 30.8778L13.5019 30.8154L13.4532 30.6246L13.3195 30.6193L13.1459 30.7078L13.106 30.4806L12.9845 30.4459L12.9115 30.2846L12.7483 30.3626L12.6563 30.2447L12.5504 30.1614L12.349 30.3869L12.2865 30.1527L12.1181 30.2915L12.0417 30.0972L11.9323 30.0105L11.7865 30.0764L11.6371 30.1787L11.5573 29.9411L11.3889 30.1597L11.2882 30.0139L11.1909 29.8145L11.1388 30.0642Z" fill="#64676F"/>
<path d="M16.8183 36.3451L16.7696 36.4856L16.6099 36.5186L16.6498 36.7267L16.5162 36.7874L16.471 36.9158L16.4936 37.0841L16.3703 37.1587L16.4033 37.3217L16.195 37.3564L16.2054 37.4987L16.1637 37.6132L16.004 37.6895L16.1845 37.8699L16.0231 37.9532L15.9363 38.0624L15.9467 38.1908L15.7817 38.3001L16.0265 38.4441L15.8095 38.5603L15.7453 38.6904L15.9936 38.8066L16.0613 38.9211L16.1064 39.0356L15.8963 39.1935L16.0561 39.3045L15.9692 39.4242L15.8929 39.53L15.9363 39.6722L15.8408 39.7728L15.6932 39.8596L15.8078 40.0226L15.8165 40.1527L15.6967 40.2482L15.6706 40.3696L15.4918 40.4546L15.5942 40.6072L15.6793 40.7529L15.6185 40.8657V40.9941L15.589 41.1138L15.4432 41.2109L15.3598 41.3237L15.2834 41.4364L15.5664 41.6134L15.4796 41.7226L15.3789 41.8319L15.3303 41.9516L15.3737 42.0835L15.2435 42.191L15.1706 42.3072L15.3494 42.4529L15.207 42.5622L15.1793 42.6854L15.4223 42.8311L15.1793 42.9334L15.3841 43.0722L15.2175 43.185L15.1081 43.3029L15.2748 43.4348L15.049 43.551L15.0681 43.6759L15.372 43.8077L15.1966 43.9274L15.2626 44.0506L15.0352 44.1755L15.0404 44.2986L15.1897 44.4201L15.1428 44.545L15.1185 44.6699L15.2348 44.7878L15.3095 44.9058L15.2001 45.0359L15.2626 45.1539L15.4189 45.2614L15.313 45.3967L15.1272 45.5372L15.2105 45.6552L15.2904 45.7731L15.3234 45.8946L15.3286 46.0195L15.4345 46.1322L15.2591 46.2779L15.3199 46.3959L15.3876 46.5121L15.5664 46.6075L15.3182 46.7758L15.4814 46.8712L15.5682 46.977L15.5317 47.1123L15.4605 47.2615L15.4571 47.3933L15.6116 47.4749L15.8112 47.5304L15.714 47.6986L15.6237 47.8808L15.8998 47.879L15.9467 47.9883L15.8859 48.1705L15.9988 48.2451L16.0248 48.3838L16.1672 48.4272L16.3564 48.4151L16.3234 48.618L16.4936 48.6163L16.4988 48.8019L16.7141 48.7238L16.7887 48.8262L16.7766 49.0795L16.9381 49.0534L17.0474 49.1159L17.228 49.0222L17.2645 49.2495L17.4398 49.1384L17.5423 49.2148L17.6447 49.2998L17.7593 49.3518L17.8652 49.4576L17.9815 49.5235L18.1291 49.4073L18.2489 49.4489L18.3704 49.494L18.492 49.5617L18.6222 49.5235L18.7489 49.4489L18.874 49.5496L18.999 49.4819L19.1327 49.664L19.249 49.4576L19.3757 49.4802L19.4834 49.3171L19.6431 49.5964L19.7299 49.3032L19.8497 49.2755H19.973L20.1101 49.3275L20.2421 49.3449L20.3723 49.3535L20.5234 49.4264L20.6171 49.2963L20.7751 49.3605L20.7734 49.017L20.8758 48.9528L21.0251 48.9927L21.2265 49.1298L21.2092 48.8158L21.4245 48.9684L21.5582 48.9528L21.5894 48.7568L21.7248 48.7447L21.8516 48.7117L22.0113 48.7238L21.9801 48.4584L22.0877 48.3995L22.178 48.3162H22.336L22.4488 48.2572L22.593 48.2277L22.6502 48.1046L22.6086 47.8843L22.8048 47.9033L22.9194 47.8374L22.9471 47.6969L22.9524 47.5425L22.9767 47.4107L23.2145 47.4263L23.1538 47.2389L23.185 47.1175L23.2406 47.0117H23.5097L23.5218 46.8764L23.5652 46.7584L23.5479 46.6162L23.4888 46.467L23.784 46.4202L23.5496 46.238L23.718 46.1409L23.6625 46.0091L23.7458 45.8894L23.8778 45.7697L23.883 45.6413L23.5618 45.5129L23.8153 45.3863L23.7562 45.2614L23.7128 45.1382L23.5583 45.0203L23.5375 44.8971L23.7076 44.7635L23.6277 44.6421L23.5809 44.519L23.6798 44.3871L23.5323 44.2726L23.7632 44.1304L23.7666 44.0038L23.6312 43.8875L23.7319 43.754L23.6538 43.6343L23.6798 43.5059L23.5253 43.3914V43.2648L23.7319 43.1191L23.5323 43.0098L23.4819 42.8883L23.5982 42.7496L23.3569 42.6472L23.3395 42.5223L23.6139 42.3662L23.6156 42.2378L23.4194 42.132L23.4559 42.0019L23.3621 41.8857L23.3204 41.7643L23.3812 41.6307L23.4489 41.4954L23.4611 41.367L23.4732 41.2369L23.1885 41.1502L23.4524 40.9871L23.2788 40.8553L23.3725 41.0149L23.4524 41.145L23.6347 41.0565L23.7406 41.1311L23.8673 41.1554L24.0305 41.0964L24.0948 41.2734L24.2458 41.2335L24.3604 41.2907L24.4785 41.3323L24.6348 41.2629L24.666 41.5648L24.8136 41.5266L24.9785 41.4156L25.0636 41.5752L25.1574 41.7157L25.2841 41.7417L25.4629 41.5422L25.5862 41.5648L25.6695 41.7764L25.7928 41.8094L25.9022 41.9239L26.055 41.8024L26.2026 41.681L26.2981 41.8961L26.4213 41.962L26.562 41.8493L26.6731 41.9898L26.8155 41.825L26.9439 41.799L27.0533 42.0019L27.1783 42.0366L27.3033 42.0973L27.4318 42.0626L27.5586 42.0782L27.687 41.7747L27.8103 41.7868L27.9423 42.1112L28.0621 41.8978L28.1836 41.8389L28.3069 41.8163L28.4406 41.9481L28.5656 41.9412L28.6906 41.9256L28.8104 41.8614L28.951 41.9846L29.0778 41.9776L29.1628 41.6845L29.3139 41.8441L29.4545 41.9187L29.5344 41.6654L29.6906 41.8042L29.8209 41.8076L29.9025 41.5977H30.0309L30.149 41.5578L30.3296 41.7539L30.4355 41.6567L30.5362 41.5526L30.6508 41.4971L30.781 41.4954L30.8591 41.3271L30.9963 41.3497L31.1491 41.4052L31.2671 41.3636L31.3019 41.1016L31.5206 41.3219L31.5866 41.1485L31.7255 41.1589L31.8766 41.1918L31.9651 41.0843L32.0606 40.9906L32.1387 40.8622L32.2707 40.8501L32.4651 40.9611L32.4287 40.6142L32.6474 40.7686L32.7464 40.687L32.795 40.517L33.0207 40.6645L33.0138 40.4025L33.1961 40.2985L33.1648 40.5153L33.0746 40.6506L33.1683 40.7599L33.2308 40.8761L33.1509 41.0079L33.3767 41.1068L33.3037 41.2387L33.1683 41.3705L33.203 41.4902L33.1145 41.6151L33.2395 41.7313L33.1822 41.8527L33.2812 41.9724L33.3176 42.0956L33.1319 42.2136L33.3836 42.3437L33.3767 42.4686L33.1058 42.5744L33.3697 42.7149L33.1961 42.8242L33.1527 42.9421L33.203 43.0705L33.2742 43.2041L33.1058 43.3047L33.0068 43.4105L33.3089 43.5909L33.1944 43.6967L33.1614 43.8181L33.1301 43.9378L33.0659 44.0506L32.9027 44.1356L32.9166 44.2657L32.9235 44.3958L32.927 44.5259L32.802 44.6144L32.9652 44.8017L32.7933 44.8728L32.6214 44.9405L32.6127 45.0689L32.8072 45.277L32.4877 45.284L32.4582 45.4054L32.5954 45.5893L32.3766 45.6448L32.4026 45.7853L32.4617 45.9275L32.4304 46.0437L32.2307 46.1461L32.4634 46.2831L32.4808 46.3959L32.288 46.5433L32.4634 46.6353L32.4078 46.781L32.5068 46.8799L32.6006 46.9718L32.4478 47.1956L32.5919 47.2632L32.6336 47.3933L32.9166 47.3396L32.8106 47.5859L32.993 47.5928L33.1128 47.6483L33.1353 47.8045L33.1944 47.9294L33.3975 47.879L33.4722 47.9831L33.5069 48.1497L33.6006 48.2381L33.8333 48.0994L33.8142 48.3786L33.9479 48.3995L34.0955 48.3873L34.2066 48.4428L34.3611 48.4012L34.4167 48.5885L34.559 48.566L34.7083 48.5157L34.7396 48.8158L34.9254 48.6423L35.033 48.7117L35.1459 48.7724L35.2882 48.7082L35.3768 48.8921L35.5244 48.7846L35.6424 48.8158L35.7588 48.8921L35.8942 48.7898L36.0053 48.9251L36.1251 49.0413L36.2571 48.8782L36.3803 48.8435L36.5019 48.8609L36.6373 49.0465L36.7501 48.8661L36.8821 48.9268L36.9967 48.8331L37.1443 48.958L37.2745 48.9511L37.3526 48.7273L37.4759 48.7152L37.646 48.8453L37.7884 48.8696L37.9152 48.8383L37.9759 48.6371L38.1548 48.7343L38.1825 48.4845L38.3249 48.4931L38.4551 48.4671L38.6235 48.5105L38.5923 48.2034L38.7156 48.167L38.8319 48.1184L38.9968 48.1375L39.0298 47.9675L39.2416 48.0404L39.3163 47.9259L39.3423 47.7611L39.4951 47.7437L39.6653 47.742L39.5403 47.4263L39.8302 47.5408L39.8406 47.3743L39.9483 47.2997L39.8736 47.0689L40.0889 47.088L40.0906 46.9284L40.1775 46.8382L40.2157 46.7116L40.3927 46.6838L40.4379 46.5607L40.3737 46.3751L40.6376 46.389L40.7261 46.2918L40.7105 46.1392L40.7383 46.0108L40.8459 45.9241L40.8667 45.7957L40.8928 45.6708L40.9188 45.5459L40.898 45.4071L41.0056 45.3134L41.0925 45.2094L41.2504 45.1192L41.1497 44.9648L41.0317 44.8139L41.2313 44.7236L41.306 44.6074L41.2157 44.4686L41.2782 44.349L41.1393 44.2119L41.3824 44.1026L41.2557 43.9708L41.1845 43.8442L41.2383 43.721L41.3529 43.5944L41.3789 43.4677L41.3147 43.3428L41.4067 43.211L41.1272 43.1034L41.3668 42.9595L41.273 42.8415L41.2591 42.7149L41.0438 42.616L41.1341 42.4772L41.0473 42.3645L41.1949 42.2153L41.0334 42.1147L41.1932 41.9586L41.0543 41.8562L41.1879 41.7001L40.9848 41.6151L41.0768 41.4659L40.8667 41.3861L40.8546 41.2612L40.8164 41.1415L40.8199 41.0131L40.8251 40.883L40.8529 40.7443L40.9275 40.5934L40.7365 40.5188L40.6862 40.4043L40.5698 40.3123L40.5751 40.1805L40.4691 40.0851L40.5334 39.9307L40.3476 39.8683L40.4761 39.5942L40.3285 39.6948L40.2382 39.5144L40.0559 39.785L39.9917 39.4745L39.8493 39.5473L39.7035 39.641L39.634 39.36L39.4621 39.5768L39.3753 39.3773L39.2538 39.3478L39.1027 39.4589L38.969 39.4901L38.884 39.2802L38.7381 39.3687L38.6287 39.275L38.5246 39.1622L38.3544 39.3739L38.2242 39.3912L38.1252 39.242L38.0228 39.1171L37.8995 39.0963L37.7606 39.1536L37.6148 39.2438L37.5349 39.0026L37.4134 38.9714L37.2467 39.1796L37.1668 38.9454L37.0297 39.0009L36.8838 39.0981L36.7745 39.0078L36.6338 39.0842L36.5227 39.0026L36.4446 38.7528L36.323 38.7303L36.1546 38.9419L36.073 38.7077L35.9098 38.8934L35.8334 38.6366L35.6928 38.706L35.5782 38.647L35.4515 38.6401L35.3108 38.7129L35.2153 38.5482L35.0955 38.5169L34.9236 38.7494L34.8334 38.5568L34.6771 38.7112L34.5781 38.5603L34.4792 38.4128L34.3472 38.4458L34.2048 38.5239L34.1059 38.373L33.9739 38.399L33.8506 38.3747L33.7326 38.3278L33.6319 38.1925L33.4999 38.2186L33.3784 38.1891L33.2551 38.1613L33.085 38.392L32.9791 38.281L32.8419 38.3348L32.7499 38.144L32.6214 38.1509L32.4964 38.144L32.3505 38.2463L32.2273 38.2255L32.0988 38.2359L31.9998 38.085L31.887 38.0104L31.7394 38.1162L31.6404 37.9618L31.5432 37.7988L31.3904 37.9393L31.2914 37.7832L31.1161 38.0538L31.0449 37.7467L30.88 37.9514L30.8053 37.6652L30.6508 37.8109L30.5501 37.6687L30.3886 37.863L30.2532 37.9081L30.182 37.5941L30.0223 37.7727L29.8955 37.7745L29.8122 37.5264L29.6438 37.7606L29.5153 37.7675L29.4215 37.5785L29.2948 37.5698L29.1663 37.5785L29.0361 37.5923L28.918 37.5455L28.7895 37.5438L28.668 37.516L28.5656 37.3651L28.4545 37.2714L28.2999 37.4275L28.1558 37.5264L28.0586 37.346L27.9319 37.3356L27.8225 37.2281L27.6593 37.4397L27.5811 37.1413L27.4388 37.235L27.3207 37.1778L27.187 37.2194L27.0412 37.3339L26.9162 37.3131L26.8293 37.0598L26.7061 37.0424L26.5932 36.9505L26.4196 37.235L26.3241 37.032L26.2008 37.006L26.0498 37.1552L25.9404 37.0424L25.8067 37.0893L25.6765 37.1066L25.5602 37.0303L25.4247 37.0875L25.3327 36.8551L25.1921 36.9505L25.0619 36.9609L24.9751 36.6955L24.8119 36.9418L24.6921 36.8811L24.5653 36.8829L24.4507 36.7961L24.3361 36.7129L24.1851 36.8811L24.0878 36.6747L23.9455 36.7701L23.8482 36.5637L23.7093 36.6504L23.593 36.5689L23.4697 36.5463L23.31 36.7805L23.1989 36.6608L23.0739 36.6452L22.9471 36.6504L22.8187 36.6643L22.7284 36.3798L22.56 36.7024L22.4506 36.5671L22.3204 36.5984L22.2283 36.3173L22.0651 36.614L21.9558 36.47L21.8325 36.4492L21.7214 36.3121L21.5859 36.3971L21.4436 36.5342L21.329 36.437L21.2074 36.3919L21.0755 36.444H20.9487L20.8463 36.215L20.7039 36.3815L20.572 36.444L20.4695 36.2046L20.3341 36.3069L20.2247 36.1092L20.0893 36.2167L19.9487 36.4075L19.8393 36.1977L19.7126 36.2133L19.5806 36.3069L19.4573 36.2774L19.3254 36.3746L19.209 36.2098L19.0771 36.3555L18.9556 36.2774L18.834 36.1612L18.7125 36.0068L18.5857 36.0155L18.459 36.0259L18.3323 36.0554L18.2072 36.1803L18.0822 36.0918L17.9538 36.0242L17.827 36.0606L17.7176 36.2844L17.603 36.3746L17.478 36.3382L17.3478 36.2809L17.1985 36.1872L17.0492 36.1543L16.9641 36.3052L16.8183 36.3451Z" fill="#64676F"/>
<path d="M16.9641 35.4844L16.8096 35.7307L16.8634 36.0291L16.6308 36.1123L16.5839 36.3292L16.478 36.5044L16.4016 36.6987L16.1221 36.7576L16.0335 36.945L15.8773 37.089L15.7991 37.2832L15.6081 37.4099L15.7679 37.736L15.5752 37.8626L15.3633 37.9823L15.2592 38.1627L15.3442 38.4316L15.1116 38.5478L15.1897 38.8098L14.8824 38.9L14.872 39.1203L14.8685 39.3389L14.7348 39.5071L14.6098 39.6806L14.5664 39.8835L14.6202 40.1177L14.4397 40.2756L14.3459 40.4647L14.4032 40.6954L14.4292 40.914L14.2539 41.0805L14.2174 41.2834L14.0126 41.4517L14.0421 41.6685L14.148 41.8975L13.9535 42.0745L13.9952 42.2913L13.9466 42.4943L14.0403 42.718L13.9327 42.9123L13.9379 43.1239L13.8598 43.3234L13.8997 43.5368L13.7313 43.7328L13.8025 43.9479L13.8146 44.1561L13.99 44.3608L13.7104 44.5811L13.8667 44.7806L14.0507 44.961L13.8112 45.216L13.9084 45.412L14.049 45.5889L14.1237 45.7815L14.2591 45.9463L14.1775 46.2256L14.391 46.3453L14.4327 46.5742L14.5265 46.7772L14.7088 46.9038L14.8529 47.0652L15.1967 46.9888L15.3303 47.1415L15.3894 47.419L15.6134 47.4572L15.8425 47.4641L15.9085 47.8076L16.1828 47.7018L16.3773 47.7729L16.6065 47.7243L16.8027 47.7729L16.9277 48.1407L17.1777 47.9655L17.3774 48.0227L17.5857 48.0175L17.7802 48.1944L17.9955 48.0782L18.2021 48.0574L18.4156 48.2031L18.6083 47.9585L18.8341 48.1285L19.0459 48.1181L19.2698 48.1563L19.4348 47.9325L19.598 47.7573L19.848 47.8857L19.9782 47.6411L20.2369 47.7538L20.4574 47.7417L20.5963 47.5457L20.7717 47.4399L20.8568 47.1935L21.1797 47.3028L21.1988 47.001L21.3655 46.8917L21.5113 46.7564L21.5738 46.5638L21.8829 46.4927L21.7058 46.21L22.027 46.0608L21.7318 45.8318L21.7527 45.6358L21.7839 45.4189L21.5981 45.268L21.7648 44.9627L21.5773 44.8153L21.4505 44.6401L21.3064 44.4718L21.2995 44.2359L21.1363 44.0746L21.2439 43.7987L21.1276 43.6183L21.0998 43.4084L20.8724 43.254L20.8325 43.0459L20.7943 42.8377L20.6762 42.633L20.7196 42.4162L20.8793 42.2063L20.8411 41.9964L20.7474 41.7761L20.7456 41.561L20.9887 41.391L20.8359 41.1429L20.8897 40.9365L20.9939 40.7457L20.9904 40.5202L21.263 40.3935L21.3637 40.2097L21.2995 39.9564L21.4505 39.7933L21.5096 39.5904L21.6103 39.4048L21.8325 39.2851L21.8933 39.0821L21.9575 38.8792L22.0166 38.6693L22.2753 38.5825L22.2944 38.3084L22.0426 38.2616L21.9159 38.05L21.6641 38.076L21.5495 37.8366L21.2648 37.9268L21.1033 37.7776L20.8967 37.7187L20.7943 37.455L20.5078 37.5487L20.3915 37.3145L20.2126 37.2017L19.9261 37.2937L19.8688 36.945L19.5615 37.0803L19.4956 36.7455L19.3063 36.6518L19.0372 36.7143L18.8341 36.6449L18.6396 36.5599L18.5719 36.232L18.3826 36.1349L18.1917 36.0447H17.9538L17.7958 35.8903L17.5354 35.9354L17.3027 35.925L17.1378 35.7827L16.9641 35.4844Z" fill="#88F3FE"/>
<path d="M16.9641 35.4844L16.8096 35.7307L16.8634 36.0291L16.6308 36.1123L16.5839 36.3292L16.478 36.5044L16.4016 36.6987L16.1221 36.7576L16.0335 36.945L15.8773 37.089L15.7991 37.2832L15.6081 37.4099L15.7679 37.736L15.5752 37.8626L15.3633 37.9823L15.2592 38.1627L15.3442 38.4316L15.1116 38.5478L15.1897 38.8098L14.8824 38.9L14.872 39.1203L14.8685 39.3389L14.7348 39.5071L14.6098 39.6806L14.5664 39.8835L14.6202 40.1177L14.4397 40.2756L14.3459 40.4647L14.4032 40.6954L14.4292 40.914L14.2539 41.0805L14.2174 41.2834L14.0126 41.4517L14.0421 41.6685L14.148 41.8975L13.9535 42.0745L13.9952 42.2913L13.9466 42.4943L14.0403 42.718L13.9327 42.9123L13.9379 43.1239L13.8598 43.3234L13.8997 43.5368L13.7313 43.7328L13.8025 43.9479L13.8146 44.1561L13.99 44.3608L13.7104 44.5811L13.8667 44.7806L14.0507 44.961L13.8112 45.216L13.9084 45.412L14.049 45.5889L14.1237 45.7815L14.2591 45.9463L14.1775 46.2256L14.391 46.3453L14.4327 46.5742L14.5265 46.7772L14.7088 46.9038L14.8529 47.0652L15.1967 46.9888L15.3303 47.1415L15.3894 47.419L15.6134 47.4572L15.8425 47.4641L15.9085 47.8076L16.1828 47.7018L16.3773 47.7729L16.6065 47.7243L16.8027 47.7729L16.9277 48.1407L17.1777 47.9655L17.3774 48.0227L17.5857 48.0175L17.7802 48.1944L17.9955 48.0782L18.2021 48.0574L18.4156 48.2031L18.6083 47.9585L18.8341 48.1285L19.0459 48.1181L19.2698 48.1563L19.4348 47.9325L19.598 47.7573L19.848 47.8857L19.9782 47.6411L20.2369 47.7538L20.4574 47.7417L20.5963 47.5457L20.7717 47.4399L20.8568 47.1935L21.1797 47.3028L21.1988 47.001L21.3655 46.8917L21.5113 46.7564L21.5738 46.5638L21.8829 46.4927L21.7058 46.21L22.027 46.0608L21.7318 45.8318L21.7527 45.6358L21.7839 45.4189L21.5981 45.268L21.7648 44.9627L21.5773 44.8153L21.4505 44.6401L21.3064 44.4718L21.2995 44.2359L21.1363 44.0746L21.2439 43.7987L21.1276 43.6183L21.0998 43.4084L20.8724 43.254L20.8325 43.0459L20.7943 42.8377L20.6762 42.633L20.7196 42.4162L20.8793 42.2063L20.8411 41.9964L20.7474 41.7761L20.7456 41.561L20.9887 41.391L20.8359 41.1429L20.8897 40.9365L20.9939 40.7457L20.9904 40.5202L21.263 40.3935L21.3637 40.2097L21.2995 39.9564L21.4505 39.7933L21.5096 39.5904L21.6103 39.4048L21.8325 39.2851L21.8933 39.0821L21.9575 38.8792L22.0166 38.6693L22.2753 38.5825L22.2944 38.3084L22.0426 38.2616L21.9159 38.05L21.6641 38.076L21.5495 37.8366L21.2648 37.9268L21.1033 37.7776L20.8967 37.7187L20.7943 37.455L20.5078 37.5487L20.3915 37.3145L20.2126 37.2017L19.9261 37.2937L19.8688 36.945L19.5615 37.0803L19.4956 36.7455L19.3063 36.6518L19.0372 36.7143L18.8341 36.6449L18.6396 36.5599L18.5719 36.232L18.3826 36.1349L18.1917 36.0447H17.9538L17.7958 35.8903L17.5354 35.9354L17.3027 35.925L17.1378 35.7827L16.9641 35.4844Z" fill="url(#paint1_linear_4982_5739)"/>
<path d="M39.4552 34.5391L39.4344 34.8947L39.6705 34.971L39.7886 35.1393L39.9205 35.2971L39.9865 35.5001L40.023 35.7221L40.306 35.7794L40.2834 36.0378L40.4379 36.1801L40.714 36.2547L40.7539 36.4698L40.9154 36.6155L40.8755 36.8722L41.1168 36.978L41.1046 37.2157L41.063 37.4655L41.2956 37.5817L41.4519 37.7361L41.5213 37.9321L41.4484 38.1871L41.6637 38.3207L41.6047 38.5635L41.6689 38.7561L41.662 38.9747L41.9814 39.0839L41.9988 39.2956L41.9762 39.5176L42.1169 39.6928L42.0231 39.9305L42.1794 40.1022L42.2106 40.3069L42.1933 40.5203L42.3426 40.7007L42.4676 40.888L42.4572 41.1014L42.294 41.3338L42.544 41.509L42.4728 41.7293L42.4554 41.941L42.6481 42.1283L42.4346 42.3608L42.6082 42.5533L42.5231 42.7684L42.6412 42.9697L42.695 43.1795L42.4867 43.386L42.4693 43.5907L42.6863 43.8179L42.6325 44.0261L42.3252 44.1805L42.3512 44.3921L42.3408 44.6003L42.2679 44.7928L42.1273 44.9524L42.0214 45.1224L41.9537 45.3167L42.0144 45.6151L41.8929 45.7955L41.5265 45.7469L41.5283 46.0418L41.3165 46.1181L41.1359 46.2239L40.9814 46.361L40.8755 46.5882L40.5681 46.4616L40.4865 46.7652L40.266 46.786L40.0282 46.7391L39.865 46.9039L39.7018 47.1034L39.4656 47.0236L39.2365 46.9317L39.0472 47.041L38.8423 47.0809L38.6479 47.2856L38.4308 47.2075L38.2208 47.1884L38.0176 47.0392L37.811 47.041L37.587 47.1797L37.3961 47.0375L37.212 46.9091L36.9863 46.9698L36.7901 46.9126L36.5783 46.9039L36.3422 46.9594L36.2137 46.7114L36.0418 46.5952L35.9029 46.4217L35.7241 46.3367L35.5366 46.2673L35.3317 46.2101L35.2397 46.0088L35.0487 45.9256L34.7327 45.9204L34.8681 45.5752L34.6302 45.478L34.4462 45.315L34.4896 45.0721L34.5 44.8518L34.3837 44.6107L34.6841 44.4563L34.8212 44.2898L34.7952 44.0521L34.7622 43.7954L35.0973 43.7277L35.1824 43.5282L35.0331 43.2142L35.3925 43.1449L35.4393 42.9246L35.4532 42.6956L35.58 42.5048L35.5227 42.2706L35.5991 42.0711L35.6737 41.8664L35.5921 41.6461L35.7067 41.4397L35.6841 41.2263L35.6268 41.0181L35.4654 40.8256L35.5261 40.6087L35.4532 40.411L35.3508 40.2219L35.5591 39.953L35.231 39.8299L35.2553 39.6044L35.257 39.3823L35.2518 39.1585L34.9115 39.0718L34.908 38.8463L34.8455 38.6468L34.9028 38.3849L34.8282 38.1854L34.5782 38.0813L34.5556 37.8523L34.4584 37.665L34.4115 37.4447L34.0625 37.3146L34.408 37.3371L34.5035 37.0613L34.8004 37.1741L34.9862 37.0769L35.1598 36.9503L35.2709 36.7057L35.4775 36.6432L35.7189 36.6519L35.9272 36.5929L36.0869 36.442L36.3092 36.4125L36.4012 36.1315L36.5852 36.0257L36.7866 35.9528L37.0089 35.9268L37.12 35.6788L37.4447 35.847L37.5089 35.5088L37.7277 35.4723L37.9256 35.3977L38.1531 35.3752L38.3232 35.2468L38.443 35.0161L38.7399 35.1289L38.9153 35.0092L39.0333 34.7767L39.1844 34.6102L39.4552 34.5391Z" fill="#88F3FE"/>
<path d="M39.4552 34.5391L39.4344 34.8947L39.6705 34.971L39.7886 35.1393L39.9205 35.2971L39.9865 35.5001L40.023 35.7221L40.306 35.7794L40.2834 36.0378L40.4379 36.1801L40.714 36.2547L40.7539 36.4698L40.9154 36.6155L40.8755 36.8722L41.1168 36.978L41.1046 37.2157L41.063 37.4655L41.2956 37.5817L41.4519 37.7361L41.5213 37.9321L41.4484 38.1871L41.6637 38.3207L41.6047 38.5635L41.6689 38.7561L41.662 38.9747L41.9814 39.0839L41.9988 39.2956L41.9762 39.5176L42.1169 39.6928L42.0231 39.9305L42.1794 40.1022L42.2106 40.3069L42.1933 40.5203L42.3426 40.7007L42.4676 40.888L42.4572 41.1014L42.294 41.3338L42.544 41.509L42.4728 41.7293L42.4554 41.941L42.6481 42.1283L42.4346 42.3608L42.6082 42.5533L42.5231 42.7684L42.6412 42.9697L42.695 43.1795L42.4867 43.386L42.4693 43.5907L42.6863 43.8179L42.6325 44.0261L42.3252 44.1805L42.3512 44.3921L42.3408 44.6003L42.2679 44.7928L42.1273 44.9524L42.0214 45.1224L41.9537 45.3167L42.0144 45.6151L41.8929 45.7955L41.5265 45.7469L41.5283 46.0418L41.3165 46.1181L41.1359 46.2239L40.9814 46.361L40.8755 46.5882L40.5681 46.4616L40.4865 46.7652L40.266 46.786L40.0282 46.7391L39.865 46.9039L39.7018 47.1034L39.4656 47.0236L39.2365 46.9317L39.0472 47.041L38.8423 47.0809L38.6479 47.2856L38.4308 47.2075L38.2208 47.1884L38.0176 47.0392L37.811 47.041L37.587 47.1797L37.3961 47.0375L37.212 46.9091L36.9863 46.9698L36.7901 46.9126L36.5783 46.9039L36.3422 46.9594L36.2137 46.7114L36.0418 46.5952L35.9029 46.4217L35.7241 46.3367L35.5366 46.2673L35.3317 46.2101L35.2397 46.0088L35.0487 45.9256L34.7327 45.9204L34.8681 45.5752L34.6302 45.478L34.4462 45.315L34.4896 45.0721L34.5 44.8518L34.3837 44.6107L34.6841 44.4563L34.8212 44.2898L34.7952 44.0521L34.7622 43.7954L35.0973 43.7277L35.1824 43.5282L35.0331 43.2142L35.3925 43.1449L35.4393 42.9246L35.4532 42.6956L35.58 42.5048L35.5227 42.2706L35.5991 42.0711L35.6737 41.8664L35.5921 41.6461L35.7067 41.4397L35.6841 41.2263L35.6268 41.0181L35.4654 40.8256L35.5261 40.6087L35.4532 40.411L35.3508 40.2219L35.5591 39.953L35.231 39.8299L35.2553 39.6044L35.257 39.3823L35.2518 39.1585L34.9115 39.0718L34.908 38.8463L34.8455 38.6468L34.9028 38.3849L34.8282 38.1854L34.5782 38.0813L34.5556 37.8523L34.4584 37.665L34.4115 37.4447L34.0625 37.3146L34.408 37.3371L34.5035 37.0613L34.8004 37.1741L34.9862 37.0769L35.1598 36.9503L35.2709 36.7057L35.4775 36.6432L35.7189 36.6519L35.9272 36.5929L36.0869 36.442L36.3092 36.4125L36.4012 36.1315L36.5852 36.0257L36.7866 35.9528L37.0089 35.9268L37.12 35.6788L37.4447 35.847L37.5089 35.5088L37.7277 35.4723L37.9256 35.3977L38.1531 35.3752L38.3232 35.2468L38.443 35.0161L38.7399 35.1289L38.9153 35.0092L39.0333 34.7767L39.1844 34.6102L39.4552 34.5391Z" fill="url(#paint2_linear_4982_5739)"/>
<path d="M12.1943 22.9669L12.0901 22.7952L12.005 22.5939L11.8106 22.4916L11.7446 22.2644L11.4373 22.2904L11.2689 22.1776L11.1699 21.9747L11.0258 21.8255L10.9529 21.5583L10.7653 21.4508L10.5587 21.3831L10.3035 21.4317L10.1386 21.2895L9.93196 21.2461L9.69062 21.3641L9.54651 21.031L9.3208 21.1229L9.11072 21.2235L8.89543 20.9824L8.72007 21.3155L8.50825 21.2652L8.33463 21.3901L8.07246 21.2478L7.96828 21.5358L7.74084 21.5254L7.48735 21.4994L7.35713 21.6867L7.23733 21.8706L6.94738 21.8411L6.75119 21.9417V22.247L6.64528 22.4309L6.39005 22.4795L6.29977 22.6737L6.12267 22.8004L6.04975 23.0068L5.85356 23.123L5.78758 23.3312L5.65389 23.4943L5.72334 23.7735L5.58792 23.9331L5.46638 24.1014L5.29449 24.2488L5.10872 24.3963L5.0792 24.6114L5.13302 24.8577L4.84134 24.9722L4.86217 25.2029L4.92815 25.4423L4.65209 25.5811L4.62257 25.791L4.74585 26.0356L4.83787 26.2628L4.51319 26.4172L4.53576 26.6288L4.4993 26.8318L4.45763 27.0348L4.6573 27.2551L4.40381 27.4476L4.62257 27.6575L4.54444 27.8605L4.56528 28.0634L4.71807 28.256L4.43853 28.4884L4.53576 28.6844L4.6 28.8839L4.81529 29.047L4.64167 29.2985L4.70418 29.4963L4.91079 29.6455L4.82571 29.8953L4.96461 30.0618L4.94551 30.3029L5.21289 30.3931L5.17122 30.662L5.40388 30.7557L5.59833 30.8597L5.60875 31.1199L5.8605 31.1633L5.96294 31.3489L6.2008 31.3767L6.34144 31.5207L6.51332 31.6282L6.60361 31.8901L6.84147 31.8954L7.07065 31.9006L7.23212 32.0532L7.36581 32.2978L7.62972 32.1833L7.79119 32.3863L8.03773 32.2683L8.21135 32.4834L8.44401 32.3672L8.63673 32.5667L8.85897 32.4505L9.06558 32.3169L9.28434 32.5112L9.48401 32.3776L9.67673 32.27L9.8764 32.2249L10.0882 32.2197L10.3504 32.3325L10.4841 32.1105L10.7219 32.1434L10.9494 32.1243L11.0518 31.8901L11.2532 31.8225L11.3053 31.5519L11.465 31.4339L11.663 31.3541L11.8314 31.2379L12.0727 31.1755L12.1786 30.9916L12.2186 30.7678L12.222 30.5301L12.3731 30.4157L12.3279 30.2266L12.5467 30.0115L12.2654 29.8137L12.4773 29.5986L12.5294 29.3905L12.3123 29.1892L12.3991 28.9776L12.3158 28.7729L12.2602 28.5665L12.413 28.3549L12.387 28.1467L12.2307 27.9437L12.2533 27.7356L12.4547 27.5222L12.2568 27.321L12.2446 27.1128L12.1682 26.9081L12.3627 26.693L12.1682 26.4918L12.229 26.2819L12.1873 26.0755L12.3002 25.8656L12.3644 25.6557L12.2672 25.451L12.3714 25.2393L12.3748 25.0312L12.3193 24.8248L12.2394 24.6201L12.4321 24.4067L12.2359 24.2055L12.1074 24.0008L12.2811 23.7874L12.3644 23.5775L12.1821 23.3746L12.1092 23.1699L12.1943 22.9669Z" fill="#88F3FE"/>
<path d="M12.1943 22.9669L12.0901 22.7952L12.005 22.5939L11.8106 22.4916L11.7446 22.2644L11.4373 22.2904L11.2689 22.1776L11.1699 21.9747L11.0258 21.8255L10.9529 21.5583L10.7653 21.4508L10.5587 21.3831L10.3035 21.4317L10.1386 21.2895L9.93196 21.2461L9.69062 21.3641L9.54651 21.031L9.3208 21.1229L9.11072 21.2235L8.89543 20.9824L8.72007 21.3155L8.50825 21.2652L8.33463 21.3901L8.07246 21.2478L7.96828 21.5358L7.74084 21.5254L7.48735 21.4994L7.35713 21.6867L7.23733 21.8706L6.94738 21.8411L6.75119 21.9417V22.247L6.64528 22.4309L6.39005 22.4795L6.29977 22.6737L6.12267 22.8004L6.04975 23.0068L5.85356 23.123L5.78758 23.3312L5.65389 23.4943L5.72334 23.7735L5.58792 23.9331L5.46638 24.1014L5.29449 24.2488L5.10872 24.3963L5.0792 24.6114L5.13302 24.8577L4.84134 24.9722L4.86217 25.2029L4.92815 25.4423L4.65209 25.5811L4.62257 25.791L4.74585 26.0356L4.83787 26.2628L4.51319 26.4172L4.53576 26.6288L4.4993 26.8318L4.45763 27.0348L4.6573 27.2551L4.40381 27.4476L4.62257 27.6575L4.54444 27.8605L4.56528 28.0634L4.71807 28.256L4.43853 28.4884L4.53576 28.6844L4.6 28.8839L4.81529 29.047L4.64167 29.2985L4.70418 29.4963L4.91079 29.6455L4.82571 29.8953L4.96461 30.0618L4.94551 30.3029L5.21289 30.3931L5.17122 30.662L5.40388 30.7557L5.59833 30.8597L5.60875 31.1199L5.8605 31.1633L5.96294 31.3489L6.2008 31.3767L6.34144 31.5207L6.51332 31.6282L6.60361 31.8901L6.84147 31.8954L7.07065 31.9006L7.23212 32.0532L7.36581 32.2978L7.62972 32.1833L7.79119 32.3863L8.03773 32.2683L8.21135 32.4834L8.44401 32.3672L8.63673 32.5667L8.85897 32.4505L9.06558 32.3169L9.28434 32.5112L9.48401 32.3776L9.67673 32.27L9.8764 32.2249L10.0882 32.2197L10.3504 32.3325L10.4841 32.1105L10.7219 32.1434L10.9494 32.1243L11.0518 31.8901L11.2532 31.8225L11.3053 31.5519L11.465 31.4339L11.663 31.3541L11.8314 31.2379L12.0727 31.1755L12.1786 30.9916L12.2186 30.7678L12.222 30.5301L12.3731 30.4157L12.3279 30.2266L12.5467 30.0115L12.2654 29.8137L12.4773 29.5986L12.5294 29.3905L12.3123 29.1892L12.3991 28.9776L12.3158 28.7729L12.2602 28.5665L12.413 28.3549L12.387 28.1467L12.2307 27.9437L12.2533 27.7356L12.4547 27.5222L12.2568 27.321L12.2446 27.1128L12.1682 26.9081L12.3627 26.693L12.1682 26.4918L12.229 26.2819L12.1873 26.0755L12.3002 25.8656L12.3644 25.6557L12.2672 25.451L12.3714 25.2393L12.3748 25.0312L12.3193 24.8248L12.2394 24.6201L12.4321 24.4067L12.2359 24.2055L12.1074 24.0008L12.2811 23.7874L12.3644 23.5775L12.1821 23.3746L12.1092 23.1699L12.1943 22.9669Z" fill="url(#paint3_linear_4982_5739)"/>
<path d="M43.1408 21.1626L43.3005 21.0429L43.278 20.7498L43.6339 20.7984L43.7468 20.6284L43.8666 20.4584L44.0037 20.3074L44.1808 20.2016L44.2659 19.9726L44.4551 19.879L44.7104 19.905L44.8163 19.676L44.9951 19.565L45.1618 19.4141L45.4448 19.6101L45.5733 19.2979L45.8059 19.3985L45.99 19.166L46.2105 19.1834L46.4275 19.2042L46.615 19.4314L46.8181 19.4488L47.0768 19.2822L47.2366 19.4817L47.464 19.4852L47.556 19.7697L47.8182 19.7246L48.0509 19.7541L48.1776 19.9432L48.2418 20.1964L48.4346 20.2866L48.5526 20.4601L48.8096 20.5L48.9034 20.6977L49.0804 20.8209L49.0214 21.1297L49.4155 21.0985L49.4312 21.3448L49.6343 21.4627L49.6847 21.6796L49.6204 21.9554L49.7472 22.1202L49.9833 22.2329L50.0822 22.4186L49.9451 22.7065L50.0857 22.8696L50.2993 23.0084L50.3687 23.2061L50.5163 23.3778L50.4729 23.6103L50.3618 23.8583L50.5232 24.0283L50.6865 24.2036L50.6153 24.4308L50.6344 24.6372L50.6674 24.8367L50.683 25.0397L50.7351 25.2392L50.9434 25.43L50.7663 25.6451L50.6969 25.8498L50.8861 26.0545L50.6552 26.2505L50.7889 26.4639L50.8375 26.6755L50.7524 26.8732L50.5319 27.0415L50.683 27.2774L50.6743 27.4891L50.3896 27.6192L50.5684 27.8915L50.4555 28.0702L50.4364 28.2887L50.3531 28.4813L50.0597 28.5559L50.1552 28.856L49.7975 28.8577L49.8374 29.1422L49.7211 29.3174L49.4433 29.3348L49.294 29.4649L49.2645 29.7476L49.1134 29.8951L48.9224 30.0009L48.7297 30.0998L48.4589 30.0408L48.3339 30.268L48.1342 30.3461L47.8703 30.2472L47.7713 30.6132L47.5439 30.6167L47.273 30.4051L47.0768 30.4727L46.8772 30.5352L46.6862 30.7485L46.4639 30.5473L46.2539 30.7034L46.0316 30.8058L45.8285 30.6601L45.601 30.7104L45.3719 30.7295L45.2 30.5334L45.0003 30.4554L44.851 30.2802L44.6531 30.2316L44.5159 30.0633L44.3058 30.0304L44.061 30.0286L44.0141 29.7494L43.6912 29.8222L43.6235 29.588L43.3926 29.5256L43.2571 29.3643L43.1026 29.2185L43.1807 28.908L42.8578 28.8751L43.0384 28.5923L43.0418 28.4206L43.0523 28.2124L42.9707 28.0025L42.83 27.7909L42.8648 27.5845L43.0662 27.3832L42.8022 27.1664L42.8404 26.96L42.8457 26.7518L42.9759 26.5489L42.9464 26.3407L43.0818 26.136L43.113 25.9296L42.9411 25.7162L43.0609 25.5132L42.8491 25.2981L42.9932 25.0952L42.8613 24.8836L43.0957 24.6823L43.0696 24.4742L42.8682 24.2608L43.0592 24.0578L43.1443 23.8531L42.988 23.6415L43.1738 23.4386L43.2085 23.2321L43.0123 23.0188L43.153 22.8141L42.9707 22.6007L43.0818 22.3977L43.12 22.1896L43.2328 21.9866L43.1842 21.7767L43.2537 21.572L43.08 21.3587L43.1408 21.1626Z" fill="#88F3FE"/>
<path d="M43.1408 21.1626L43.3005 21.0429L43.278 20.7498L43.6339 20.7984L43.7468 20.6284L43.8666 20.4584L44.0037 20.3074L44.1808 20.2016L44.2659 19.9726L44.4551 19.879L44.7104 19.905L44.8163 19.676L44.9951 19.565L45.1618 19.4141L45.4448 19.6101L45.5733 19.2979L45.8059 19.3985L45.99 19.166L46.2105 19.1834L46.4275 19.2042L46.615 19.4314L46.8181 19.4488L47.0768 19.2822L47.2366 19.4817L47.464 19.4852L47.556 19.7697L47.8182 19.7246L48.0509 19.7541L48.1776 19.9432L48.2418 20.1964L48.4346 20.2866L48.5526 20.4601L48.8096 20.5L48.9034 20.6977L49.0804 20.8209L49.0214 21.1297L49.4155 21.0985L49.4312 21.3448L49.6343 21.4627L49.6847 21.6796L49.6204 21.9554L49.7472 22.1202L49.9833 22.2329L50.0822 22.4186L49.9451 22.7065L50.0857 22.8696L50.2993 23.0084L50.3687 23.2061L50.5163 23.3778L50.4729 23.6103L50.3618 23.8583L50.5232 24.0283L50.6865 24.2036L50.6153 24.4308L50.6344 24.6372L50.6674 24.8367L50.683 25.0397L50.7351 25.2392L50.9434 25.43L50.7663 25.6451L50.6969 25.8498L50.8861 26.0545L50.6552 26.2505L50.7889 26.4639L50.8375 26.6755L50.7524 26.8732L50.5319 27.0415L50.683 27.2774L50.6743 27.4891L50.3896 27.6192L50.5684 27.8915L50.4555 28.0702L50.4364 28.2887L50.3531 28.4813L50.0597 28.5559L50.1552 28.856L49.7975 28.8577L49.8374 29.1422L49.7211 29.3174L49.4433 29.3348L49.294 29.4649L49.2645 29.7476L49.1134 29.8951L48.9224 30.0009L48.7297 30.0998L48.4589 30.0408L48.3339 30.268L48.1342 30.3461L47.8703 30.2472L47.7713 30.6132L47.5439 30.6167L47.273 30.4051L47.0768 30.4727L46.8772 30.5352L46.6862 30.7485L46.4639 30.5473L46.2539 30.7034L46.0316 30.8058L45.8285 30.6601L45.601 30.7104L45.3719 30.7295L45.2 30.5334L45.0003 30.4554L44.851 30.2802L44.6531 30.2316L44.5159 30.0633L44.3058 30.0304L44.061 30.0286L44.0141 29.7494L43.6912 29.8222L43.6235 29.588L43.3926 29.5256L43.2571 29.3643L43.1026 29.2185L43.1807 28.908L42.8578 28.8751L43.0384 28.5923L43.0418 28.4206L43.0523 28.2124L42.9707 28.0025L42.83 27.7909L42.8648 27.5845L43.0662 27.3832L42.8022 27.1664L42.8404 26.96L42.8457 26.7518L42.9759 26.5489L42.9464 26.3407L43.0818 26.136L43.113 25.9296L42.9411 25.7162L43.0609 25.5132L42.8491 25.2981L42.9932 25.0952L42.8613 24.8836L43.0957 24.6823L43.0696 24.4742L42.8682 24.2608L43.0592 24.0578L43.1443 23.8531L42.988 23.6415L43.1738 23.4386L43.2085 23.2321L43.0123 23.0188L43.153 22.8141L42.9707 22.6007L43.0818 22.3977L43.12 22.1896L43.2328 21.9866L43.1842 21.7767L43.2537 21.572L43.08 21.3587L43.1408 21.1626Z" fill="url(#paint4_linear_4982_5739)"/>
<path d="M44.6773 22.9816L44.7433 22.7439L44.5367 22.5826L44.686 22.312L44.4187 22.1784L44.3891 21.9633L44.252 21.7898L44.2242 21.573L44.3214 21.2972L44.2034 21.1133L44.0645 20.9433L43.9342 20.7699L43.7693 20.6172L43.8492 20.324L43.6634 20.1835L43.3561 20.128L43.2675 19.9788L43.2033 19.7325L43.0592 19.5521L42.7779 19.6614L42.6668 19.4116L42.4359 19.4168L42.2987 19.2156L42.1181 19.1063L41.8699 19.1618L41.639 19.1826L41.5313 18.8877L41.323 18.8548L41.0938 18.8773L40.9167 18.7576L40.6667 18.8582L40.5173 18.6501L40.276 18.7333L40.0868 18.6501L39.8975 18.5616L39.7291 18.3951L39.4843 18.5182L39.3402 18.2337L39.1127 18.2927L38.8888 18.35L38.6926 18.2823L38.4703 18.3465L38.2689 18.3135L38.1075 18.0256L37.8887 18.088L37.6908 18.0048L37.4755 18.0672L37.2585 18.1609L37.0605 18.0724L36.8574 18.0221L36.6525 17.9978L36.439 18.121L36.241 17.9076L36.0344 17.9024L35.8261 17.9787L35.6177 17.8764L35.4128 18.0186L35.2045 17.9631L34.9892 17.8486L34.7809 17.892L34.5916 18.1418L34.3711 18.0204L34.1784 18.1696L33.977 18.2112L33.7356 18.0013L33.5533 18.1852L33.3294 18.1106L33.1557 18.3014L32.9023 18.1175L32.7078 18.2077L32.5047 18.258L32.2946 18.2892L32.1626 18.5824L31.9248 18.5165L31.7494 18.6483L31.515 18.6084L31.3449 18.7507L31.1174 18.7351L30.9386 18.853L30.6955 18.8044L30.5393 18.9762L30.3951 19.1705L30.2181 19.2884L29.9837 19.2676L29.8569 19.4949L29.6069 19.4411L29.4819 19.6701L29.2041 19.5556L29.0947 19.8192L28.902 19.8973L28.6745 19.899L28.4922 19.9996L28.2197 19.8938L28.1363 20.2234L27.9158 20.2356L27.7596 20.4056L27.5286 20.3952L27.3064 20.4004L27.131 20.5235L26.8949 20.4871L26.7491 20.7005L26.539 20.7247L26.3532 20.8219L26.1049 20.723L25.9139 20.7976L25.7386 20.9277L25.525 20.9312L25.3879 21.2157L25.1813 21.2486L24.9521 21.1862L24.7489 21.2261L24.5562 21.3128L24.3305 21.2504L24.169 21.4897L23.9642 21.5227L23.7072 21.2764L23.5023 21.2955L23.3391 21.5713L23.1134 21.4689L22.9276 21.632L22.7262 21.6962L22.5266 21.7794L22.287 21.5106L22.0838 21.5418L21.8876 21.6632L21.6862 21.7517L21.4866 21.8679L21.2695 21.7274L21.0595 21.6979L20.8511 21.6823L20.6514 21.8939L20.4414 21.7864L20.2365 21.8419L20.0281 21.6441L19.8215 21.7725L19.6149 21.828L19.4066 21.8523L19.2017 21.7378L18.9968 21.6927L18.7919 21.6771L18.5819 21.7291L18.3822 21.5921L18.16 21.8367L17.9568 21.7673L17.745 21.7916L17.5453 21.6875L17.33 21.7638L17.1269 21.7014L16.9151 21.7309L16.7276 21.5383L16.5262 21.4776L16.2952 21.6493L16.1303 21.3232L15.9202 21.3458L15.6997 21.4204L15.4723 21.5244L15.2657 21.5036L15.0556 21.4915L14.8941 21.2122L14.6545 21.3648L14.4601 21.2694L14.2396 21.3145L14.0954 20.978L13.8802 21.0006L13.6319 21.1654L13.4218 21.1497L13.2621 20.9086L13.0259 21.0075L12.8349 20.9034L12.6353 20.8427L12.413 20.8653L12.2307 20.6814L12.1248 20.9589L11.9581 21.0752L11.6387 21.0162L11.5102 21.2035L11.531 21.4915L11.2446 21.5591L11.3783 21.7291L11.0484 21.7968L11.005 22.0032L11.0588 22.253L10.7723 22.3519L10.7376 22.56L10.8556 22.8272L10.8036 23.0249L10.5674 23.1568L10.4702 23.3407L10.4754 23.5575L10.3886 23.7466L10.3521 23.9495L10.4094 24.175L10.1941 24.3346L10.307 24.5688L10.1976 24.7544L10.2705 24.9747L10.1941 25.169L9.99101 25.3477L9.89204 25.5454L9.93892 25.7588L9.99621 25.9704L10.1177 26.1803L9.95454 26.3798L9.96322 26.5863L9.83301 26.7962L10.0361 26.9974L10.1594 27.1934L10.083 27.4033L10.0691 27.6115L9.90767 27.8387L10.0466 28.0295L10.0813 28.2342L10.0848 28.4441L10.2393 28.6263L10.2671 28.8344L10.2063 29.0669L10.3747 29.2369L10.5709 29.3947L10.5952 29.6029L10.5622 29.8353L10.7115 30.0019L10.6872 30.236L10.6942 30.4616L10.873 30.6125L10.8678 30.8484L11.1734 30.9282L11.1074 31.2005L11.3696 31.2925L11.4269 31.4989L11.439 31.7366L11.4928 31.9517L11.8175 31.9863L11.9321 32.1581L11.9512 32.4009L12.2151 32.4617L12.3557 32.6126L12.4078 32.8363L12.3801 33.133L12.6353 33.1902L12.7117 33.4019L12.8228 33.5857L13.0207 33.6881L13.1318 33.8737L13.368 33.9309L13.585 34.0055L13.5954 34.3004L13.8576 34.323L14.0382 34.4305L14.2066 34.552L14.3837 34.6612L14.4392 34.9232L14.6545 34.9874L14.7049 35.2649L15.0122 35.2025L15.0591 35.4904L15.2796 35.5425L15.4653 35.6396L15.7101 35.6517L15.8629 35.7957L15.9688 36.0091L16.1998 36.0386L16.3786 36.1461L16.5019 36.3387L16.6182 36.5503L16.7606 36.7221L17.0818 36.5937L17.1859 36.8313L17.3457 36.9788L17.5488 37.0482L17.7294 37.1557L17.936 37.2147L18.0766 37.4055L18.2798 37.4714L18.5159 37.4645L18.759 37.435L18.9256 37.5738L19.1166 37.657L19.3406 37.664L19.4812 37.8739L19.6531 38.0144L19.891 37.9797L20.0108 38.2677L20.2486 38.2295L20.4969 38.1514L20.7018 38.1965L20.8598 38.3978L21.0542 38.4793L21.2921 38.4116L21.5161 38.3891L21.6654 38.6424L21.8512 38.7742L22.0526 38.8401L22.3286 38.5747L22.4832 38.8453L22.6689 38.9893L22.879 39.0205L23.0978 39.0032L23.3235 38.9338L23.5336 38.9425L23.7419 38.9685L23.9451 39.0222L24.1638 38.9789L24.3583 39.1142L24.584 38.998L24.7923 39.0101L24.9955 39.0934L25.2038 39.1298L25.4191 39.0344L25.6205 39.1645L25.8271 39.2478L26.0337 39.2911L26.249 39.1437L26.4556 39.2738L26.664 39.3414L26.8741 39.3067L27.0824 39.1142L27.2908 39.076L27.5026 39.2616L27.7127 39.22L27.9175 39.135L28.1328 39.2755L28.3412 39.2651L28.5374 39.0621L28.744 39.0587L28.9697 39.3033L29.1572 39.0327L29.3708 39.1142L29.5704 39.0205L29.7927 39.1749L29.9993 39.1523L30.1955 39.0327L30.3795 38.8436L30.6226 39.0951L30.8118 38.9563L30.9994 38.8019L31.1955 38.7291L31.4508 39.0118L31.647 38.9268L31.8171 38.7083L32.0116 38.6267L32.2321 38.6736L32.4751 38.8262L32.6158 38.5001L32.8068 38.4116L33.0637 38.5972L33.2217 38.3683L33.4631 38.4793L33.6471 38.3613L33.8902 38.455L34.0187 38.1566L34.2617 38.2416L34.4892 38.2729L34.6454 38.0803L34.8711 38.0942L34.9927 37.8132L35.2201 37.8357L35.4545 37.8669L35.6767 37.8635L35.7896 37.5825L35.9806 37.5027L36.1629 37.4038L36.3417 37.298L36.6334 37.4367L36.7411 37.1748L36.9633 37.1557L37.1577 37.0794L37.3036 36.9094L37.5744 36.9771L37.6804 36.7359L37.847 36.6093L38.0328 36.5156L38.229 36.441L38.4808 36.4497L38.4981 36.0924L38.7308 36.0698L38.8471 35.8721L39.1058 35.8807L39.3037 35.8009L39.4478 35.6431L39.5364 35.4176L39.6544 35.2337L39.9913 35.3204L40.184 35.225L40.309 35.0481L40.4948 34.9405V34.6318L40.8038 34.6578L40.8281 34.382L41.0955 34.3542L41.1563 34.1217L41.2448 33.9188L41.5105 33.8789L41.6494 33.7228L41.7605 33.5424L41.8733 33.3637L42.0261 33.218L42.0383 32.963L42.1425 32.7826L42.4619 32.7618L42.4689 32.5102L42.5001 32.2778L42.6772 32.1511L42.8126 31.9916L43.0245 31.884L43.0054 31.6238L43.0765 31.426L43.2866 31.3116L43.4585 31.171L43.4255 30.9143L43.6582 30.805V30.5691L43.613 30.3158L43.7745 30.1667L43.8422 29.9706L44.1235 29.8718L44.1409 29.6515L44.1929 29.4485L44.2485 29.249L44.4065 29.0859L44.4412 28.8795L44.5384 28.6939L44.6964 28.5256L44.7312 28.3175L44.6947 28.0902L44.6339 27.8595L44.6756 27.6583L44.8857 27.4952L44.7034 27.2454L44.811 27.0581L44.8197 26.8499L45.068 26.6782L44.9777 26.4562L45.134 26.2636L44.8649 26.0329L45.2138 25.8473L44.9291 25.627L45.1444 25.424L45.2295 25.2159L44.9499 25.0129L45.0124 24.8047L45.0107 24.5966L45.0697 24.3832L44.9013 24.1924L44.8041 23.9998L44.8371 23.7882L44.8406 23.5783L44.9986 23.3355L44.9742 23.1238L44.6773 22.9816Z" fill="#88F3FE"/>
<path d="M44.6773 22.9816L44.7433 22.7439L44.5367 22.5826L44.686 22.312L44.4187 22.1784L44.3891 21.9633L44.252 21.7898L44.2242 21.573L44.3214 21.2972L44.2034 21.1133L44.0645 20.9433L43.9342 20.7699L43.7693 20.6172L43.8492 20.324L43.6634 20.1835L43.3561 20.128L43.2675 19.9788L43.2033 19.7325L43.0592 19.5521L42.7779 19.6614L42.6668 19.4116L42.4359 19.4168L42.2987 19.2156L42.1181 19.1063L41.8699 19.1618L41.639 19.1826L41.5313 18.8877L41.323 18.8548L41.0938 18.8773L40.9167 18.7576L40.6667 18.8582L40.5173 18.6501L40.276 18.7333L40.0868 18.6501L39.8975 18.5616L39.7291 18.3951L39.4843 18.5182L39.3402 18.2337L39.1127 18.2927L38.8888 18.35L38.6926 18.2823L38.4703 18.3465L38.2689 18.3135L38.1075 18.0256L37.8887 18.088L37.6908 18.0048L37.4755 18.0672L37.2585 18.1609L37.0605 18.0724L36.8574 18.0221L36.6525 17.9978L36.439 18.121L36.241 17.9076L36.0344 17.9024L35.8261 17.9787L35.6177 17.8764L35.4128 18.0186L35.2045 17.9631L34.9892 17.8486L34.7809 17.892L34.5916 18.1418L34.3711 18.0204L34.1784 18.1696L33.977 18.2112L33.7356 18.0013L33.5533 18.1852L33.3294 18.1106L33.1557 18.3014L32.9023 18.1175L32.7078 18.2077L32.5047 18.258L32.2946 18.2892L32.1626 18.5824L31.9248 18.5165L31.7494 18.6483L31.515 18.6084L31.3449 18.7507L31.1174 18.7351L30.9386 18.853L30.6955 18.8044L30.5393 18.9762L30.3951 19.1705L30.2181 19.2884L29.9837 19.2676L29.8569 19.4949L29.6069 19.4411L29.4819 19.6701L29.2041 19.5556L29.0947 19.8192L28.902 19.8973L28.6745 19.899L28.4922 19.9996L28.2197 19.8938L28.1363 20.2234L27.9158 20.2356L27.7596 20.4056L27.5286 20.3952L27.3064 20.4004L27.131 20.5235L26.8949 20.4871L26.7491 20.7005L26.539 20.7247L26.3532 20.8219L26.1049 20.723L25.9139 20.7976L25.7386 20.9277L25.525 20.9312L25.3879 21.2157L25.1813 21.2486L24.9521 21.1862L24.7489 21.2261L24.5562 21.3128L24.3305 21.2504L24.169 21.4897L23.9642 21.5227L23.7072 21.2764L23.5023 21.2955L23.3391 21.5713L23.1134 21.4689L22.9276 21.632L22.7262 21.6962L22.5266 21.7794L22.287 21.5106L22.0838 21.5418L21.8876 21.6632L21.6862 21.7517L21.4866 21.8679L21.2695 21.7274L21.0595 21.6979L20.8511 21.6823L20.6514 21.8939L20.4414 21.7864L20.2365 21.8419L20.0281 21.6441L19.8215 21.7725L19.6149 21.828L19.4066 21.8523L19.2017 21.7378L18.9968 21.6927L18.7919 21.6771L18.5819 21.7291L18.3822 21.5921L18.16 21.8367L17.9568 21.7673L17.745 21.7916L17.5453 21.6875L17.33 21.7638L17.1269 21.7014L16.9151 21.7309L16.7276 21.5383L16.5262 21.4776L16.2952 21.6493L16.1303 21.3232L15.9202 21.3458L15.6997 21.4204L15.4723 21.5244L15.2657 21.5036L15.0556 21.4915L14.8941 21.2122L14.6545 21.3648L14.4601 21.2694L14.2396 21.3145L14.0954 20.978L13.8802 21.0006L13.6319 21.1654L13.4218 21.1497L13.2621 20.9086L13.0259 21.0075L12.8349 20.9034L12.6353 20.8427L12.413 20.8653L12.2307 20.6814L12.1248 20.9589L11.9581 21.0752L11.6387 21.0162L11.5102 21.2035L11.531 21.4915L11.2446 21.5591L11.3783 21.7291L11.0484 21.7968L11.005 22.0032L11.0588 22.253L10.7723 22.3519L10.7376 22.56L10.8556 22.8272L10.8036 23.0249L10.5674 23.1568L10.4702 23.3407L10.4754 23.5575L10.3886 23.7466L10.3521 23.9495L10.4094 24.175L10.1941 24.3346L10.307 24.5688L10.1976 24.7544L10.2705 24.9747L10.1941 25.169L9.99101 25.3477L9.89204 25.5454L9.93892 25.7588L9.99621 25.9704L10.1177 26.1803L9.95454 26.3798L9.96322 26.5863L9.83301 26.7962L10.0361 26.9974L10.1594 27.1934L10.083 27.4033L10.0691 27.6115L9.90767 27.8387L10.0466 28.0295L10.0813 28.2342L10.0848 28.4441L10.2393 28.6263L10.2671 28.8344L10.2063 29.0669L10.3747 29.2369L10.5709 29.3947L10.5952 29.6029L10.5622 29.8353L10.7115 30.0019L10.6872 30.236L10.6942 30.4616L10.873 30.6125L10.8678 30.8484L11.1734 30.9282L11.1074 31.2005L11.3696 31.2925L11.4269 31.4989L11.439 31.7366L11.4928 31.9517L11.8175 31.9863L11.9321 32.1581L11.9512 32.4009L12.2151 32.4617L12.3557 32.6126L12.4078 32.8363L12.3801 33.133L12.6353 33.1902L12.7117 33.4019L12.8228 33.5857L13.0207 33.6881L13.1318 33.8737L13.368 33.9309L13.585 34.0055L13.5954 34.3004L13.8576 34.323L14.0382 34.4305L14.2066 34.552L14.3837 34.6612L14.4392 34.9232L14.6545 34.9874L14.7049 35.2649L15.0122 35.2025L15.0591 35.4904L15.2796 35.5425L15.4653 35.6396L15.7101 35.6517L15.8629 35.7957L15.9688 36.0091L16.1998 36.0386L16.3786 36.1461L16.5019 36.3387L16.6182 36.5503L16.7606 36.7221L17.0818 36.5937L17.1859 36.8313L17.3457 36.9788L17.5488 37.0482L17.7294 37.1557L17.936 37.2147L18.0766 37.4055L18.2798 37.4714L18.5159 37.4645L18.759 37.435L18.9256 37.5738L19.1166 37.657L19.3406 37.664L19.4812 37.8739L19.6531 38.0144L19.891 37.9797L20.0108 38.2677L20.2486 38.2295L20.4969 38.1514L20.7018 38.1965L20.8598 38.3978L21.0542 38.4793L21.2921 38.4116L21.5161 38.3891L21.6654 38.6424L21.8512 38.7742L22.0526 38.8401L22.3286 38.5747L22.4832 38.8453L22.6689 38.9893L22.879 39.0205L23.0978 39.0032L23.3235 38.9338L23.5336 38.9425L23.7419 38.9685L23.9451 39.0222L24.1638 38.9789L24.3583 39.1142L24.584 38.998L24.7923 39.0101L24.9955 39.0934L25.2038 39.1298L25.4191 39.0344L25.6205 39.1645L25.8271 39.2478L26.0337 39.2911L26.249 39.1437L26.4556 39.2738L26.664 39.3414L26.8741 39.3067L27.0824 39.1142L27.2908 39.076L27.5026 39.2616L27.7127 39.22L27.9175 39.135L28.1328 39.2755L28.3412 39.2651L28.5374 39.0621L28.744 39.0587L28.9697 39.3033L29.1572 39.0327L29.3708 39.1142L29.5704 39.0205L29.7927 39.1749L29.9993 39.1523L30.1955 39.0327L30.3795 38.8436L30.6226 39.0951L30.8118 38.9563L30.9994 38.8019L31.1955 38.7291L31.4508 39.0118L31.647 38.9268L31.8171 38.7083L32.0116 38.6267L32.2321 38.6736L32.4751 38.8262L32.6158 38.5001L32.8068 38.4116L33.0637 38.5972L33.2217 38.3683L33.4631 38.4793L33.6471 38.3613L33.8902 38.455L34.0187 38.1566L34.2617 38.2416L34.4892 38.2729L34.6454 38.0803L34.8711 38.0942L34.9927 37.8132L35.2201 37.8357L35.4545 37.8669L35.6767 37.8635L35.7896 37.5825L35.9806 37.5027L36.1629 37.4038L36.3417 37.298L36.6334 37.4367L36.7411 37.1748L36.9633 37.1557L37.1577 37.0794L37.3036 36.9094L37.5744 36.9771L37.6804 36.7359L37.847 36.6093L38.0328 36.5156L38.229 36.441L38.4808 36.4497L38.4981 36.0924L38.7308 36.0698L38.8471 35.8721L39.1058 35.8807L39.3037 35.8009L39.4478 35.6431L39.5364 35.4176L39.6544 35.2337L39.9913 35.3204L40.184 35.225L40.309 35.0481L40.4948 34.9405V34.6318L40.8038 34.6578L40.8281 34.382L41.0955 34.3542L41.1563 34.1217L41.2448 33.9188L41.5105 33.8789L41.6494 33.7228L41.7605 33.5424L41.8733 33.3637L42.0261 33.218L42.0383 32.963L42.1425 32.7826L42.4619 32.7618L42.4689 32.5102L42.5001 32.2778L42.6772 32.1511L42.8126 31.9916L43.0245 31.884L43.0054 31.6238L43.0765 31.426L43.2866 31.3116L43.4585 31.171L43.4255 30.9143L43.6582 30.805V30.5691L43.613 30.3158L43.7745 30.1667L43.8422 29.9706L44.1235 29.8718L44.1409 29.6515L44.1929 29.4485L44.2485 29.249L44.4065 29.0859L44.4412 28.8795L44.5384 28.6939L44.6964 28.5256L44.7312 28.3175L44.6947 28.0902L44.6339 27.8595L44.6756 27.6583L44.8857 27.4952L44.7034 27.2454L44.811 27.0581L44.8197 26.8499L45.068 26.6782L44.9777 26.4562L45.134 26.2636L44.8649 26.0329L45.2138 25.8473L44.9291 25.627L45.1444 25.424L45.2295 25.2159L44.9499 25.0129L45.0124 24.8047L45.0107 24.5966L45.0697 24.3832L44.9013 24.1924L44.8041 23.9998L44.8371 23.7882L44.8406 23.5783L44.9986 23.3355L44.9742 23.1238L44.6773 22.9816Z" fill="url(#paint5_linear_4982_5739)"/>
<path d="M17.0627 23.3196L17.2902 23.2571L17.4673 23.408L17.7225 23.2294L17.9308 23.2398L18.0923 23.4774L18.292 23.5312L18.542 23.356L18.726 23.4878L18.9465 23.4445L19.1115 23.6821L19.3216 23.6908L19.5681 23.5069L19.7452 23.6908L19.9153 23.9146L20.1254 23.925L20.3286 23.9753L20.5577 23.866L20.78 23.7931L20.9484 24.0655L21.1533 24.1089L21.3755 24.0169L21.57 24.121L21.7922 24.0256L21.9988 24.0464L22.2158 23.9788L22.3912 24.2632L22.6013 24.2494L22.8287 24.0742L23.0371 24.0794L23.2246 24.291L23.4277 24.3552L23.6569 24.121L23.8427 24.3847L24.0597 24.2927L24.2733 24.1973L24.466 24.4506L24.6917 24.1505L24.8966 24.2095L25.0945 24.402L25.3046 24.3482L25.5129 24.3639L25.7178 24.4818L25.9279 24.3777L26.1397 24.2181L26.3429 24.4627L26.5547 24.2372L26.7613 24.3881L26.9679 24.2806L27.1762 24.4922L27.3846 24.5287L27.5929 24.513L27.7961 24.2615L28.0079 24.4714L28.2162 24.4836L28.4177 24.2667L28.626 24.3031L28.8309 24.2164L29.0496 24.4402L29.2458 24.2129L29.4559 24.2494L29.6573 24.1557L29.8622 24.1019L30.0723 24.1314L30.2841 24.173L30.5115 24.3916L30.7199 24.3604L30.9057 24.1297L31.1227 24.1956L31.3137 24.0239L31.522 24.0221L31.7443 24.121L31.9352 23.9701L32.1679 24.1418L32.345 23.8972L32.5672 23.9874L32.7721 23.9458L32.9822 23.9441L33.1662 23.7723L33.378 23.7758L33.5986 23.8296L33.8295 23.9354L34.0152 23.7845L34.1975 23.6284L34.4493 23.8226L34.642 23.7238L34.8018 23.467L35.017 23.4809L35.2601 23.611L35.4008 23.2814L35.6404 23.3924L35.8365 23.3126L36.0275 23.2172L36.2602 23.2797L36.4685 23.2537L36.6769 23.219L36.8575 23.075L37.0467 22.9692L37.3002 23.0993L37.4999 23.0229L37.6822 22.8963L37.8749 22.8078L38.0381 22.624L38.2221 22.5147L38.4287 22.473L38.6579 22.5025L38.8524 22.4193L39.0555 22.3638L39.2621 22.3187L39.4531 22.2285L39.6788 22.2354L39.8212 22.0116L40.059 22.048L40.2448 21.944L40.5139 22.0585L40.7153 21.996L40.8213 21.6907L41.0904 21.7965L41.2831 21.7063L41.4098 21.4652L41.6251 21.4322L41.8092 21.3264L42.0123 21.2605L42.2293 21.2345L42.3457 20.9777L42.5436 20.9032L42.7259 20.7973L42.9204 20.7141L43.1131 20.6291L43.3961 20.7262L43.6218 20.7054L43.7919 20.4851L43.6339 20.2804L43.627 20.0584L43.5437 19.8658L43.5367 19.6403L43.4273 19.4582L43.3249 19.2725L43.1791 19.1078L42.9881 18.969L42.9065 18.7764L42.8162 18.5873L42.9412 18.2838L42.5992 18.23L42.7381 17.9108L42.4446 17.838L42.4307 17.602L42.3682 17.3939L42.1651 17.2724L42.0592 17.0903L41.8387 16.9862L41.9168 16.6757L41.698 16.5734L41.5001 16.4571L41.4203 16.2542L41.3925 16.0096L41.1477 15.9333L41.1025 15.6974L40.816 15.6644L40.7709 15.425L40.7101 15.1978L40.5435 15.0625L40.2223 15.0763L40.1094 14.8959L40.0226 14.6878L40.0035 14.4033L39.8021 14.3079L39.6007 14.2142L39.4965 14.0147L39.1823 14.0494L39.0121 13.928L38.9131 13.7181L38.8229 13.4943L38.552 13.4995L38.4912 13.2393L38.3211 13.1161L38.2117 12.9114L37.9877 12.8611L37.8679 12.6634L37.604 12.6807L37.4113 12.5923L37.2116 12.5194L37.0137 12.4431L36.8227 12.3598L36.7394 12.0909L36.498 12.0927L36.3904 11.8585L36.189 11.7908L35.9511 11.7943L35.8348 11.5636L35.6803 11.3988L35.3903 11.5185L35.274 11.2722L35.0882 11.1698L34.8018 11.3034L34.7167 10.9669L34.4337 11.1056L34.2566 10.9877L34.0152 11.0362L33.8954 10.7552L33.6454 10.8368L33.5274 10.5332L33.2444 10.7309L33.1298 10.3944L32.8607 10.5644L32.72 10.2938L32.4874 10.3458L32.3155 10.1776L32.0689 10.2973L31.8415 10.3632L31.6731 10.1568L31.4439 10.2261L31.2894 9.93298L31.0793 9.90522L30.8414 10.044L30.6435 9.959L30.4508 9.8341L30.2337 9.86533L30.008 9.98502L29.8014 9.96767L29.6174 9.73522L29.4004 9.7942L29.199 9.704L28.9715 9.95379L28.7684 9.88441L28.567 9.78553L28.3621 9.69186L28.152 9.71441L27.9419 9.8341L27.7353 9.77859L27.5287 9.71267L27.3238 9.83063L27.1137 9.77339L26.8967 9.5791L26.6918 9.66584L26.4922 9.80461L26.2821 9.79941L26.0859 9.93471L25.8567 9.72482L25.6536 9.80114L25.4609 9.93645L25.2542 9.95206L25.0563 10.0405L24.8167 9.84451L24.6535 10.1342L24.4417 10.1221L24.2333 10.1377H24.0215L23.7923 10.0596L23.6291 10.2921L23.3774 10.1255L23.169 10.1585L23.0006 10.3476L22.8287 10.5072L22.5857 10.4135L22.3652 10.4013L22.2106 10.6164L21.9745 10.5575L21.8269 10.7778L21.6099 10.7882L21.3842 10.776L21.2158 10.9218L21.0074 10.9634L20.8737 11.1906L20.6845 11.2722L20.4588 11.267L20.2678 11.3485L20.0456 11.3624L19.8251 11.3832L19.7469 11.7024L19.5438 11.7596L19.2643 11.6659L19.0455 11.6989L18.9413 11.947L18.8024 12.1274L18.5489 12.1031L18.3441 12.1673L18.1444 12.2453L18.0229 12.4448L17.7833 12.4604L17.6166 12.5905L17.5298 12.8351L17.436 13.0624L17.094 12.9409L17.0367 13.2185H16.7762L16.7589 13.5377L16.5662 13.6261L16.3925 13.7441L16.1963 13.8326L16.0748 14.0112L15.9533 14.1864L15.6963 14.2142L15.4706 14.2784L15.4324 14.542L15.2952 14.6999L15.0487 14.7485L15.0279 15.0156L14.9463 15.2203L14.6025 15.1856L14.4584 15.3348L14.29 15.4649L14.2639 15.7147L14.1528 15.8916L14.0903 16.105L13.8594 16.1865L13.9045 16.478L13.7865 16.6428L13.5851 16.7503L13.4288 16.8926L13.2899 17.0487L13.3159 17.3089L12.9756 17.3384L12.9947 17.5934L12.9149 17.7859L12.7708 17.9403L12.7187 18.1467L12.5017 18.263L12.4079 18.4486L12.5173 18.7348L12.3766 18.8926L12.2013 19.0366L12.0016 19.1719L11.9929 19.394L12.012 19.6282L11.8506 19.7825L11.7204 19.9525L11.578 20.1208L11.5936 20.3463L11.4373 20.5111L11.4061 20.7193L11.3054 20.9049L11.2603 21.1061L11.3193 21.3403L11.5207 21.4027L11.6995 21.5172L11.9582 21.4253L12.1093 21.6178L12.2812 21.7549L12.5017 21.7601L12.644 21.9787L12.9097 21.8555L13.0451 22.1036L13.2465 22.1591L13.4271 22.284L13.6649 22.2302L13.9167 22.133L14.0747 22.3256L14.2535 22.4557L14.4914 22.3915L14.6754 22.4991L14.8768 22.5528L15.106 22.5181L15.3074 22.5702L15.4793 22.7315L15.6529 22.8876L15.8786 22.8564L16.0505 23.0212L16.2988 22.905L16.5019 22.9501L16.6738 23.1253L16.8596 23.2502L17.0627 23.3196Z" fill="#64676F"/>
<path d="M4.75637 51.2972L4.50983 51.3371L4.54629 51.1584L4.36572 51.1445L4.47684 50.9138L4.37961 50.8357L4.14175 50.8583L4.22335 50.6536L4.22508 50.5131L4.02368 50.4957L4.14348 50.3344L4.15911 50.2425L3.96465 50.1228L4.12265 50.0447L3.99417 49.8643L4.14001 49.7984L4.21119 49.6909L4.31537 49.5243L4.20946 49.4029L4.19383 49.252L3.9716 49.2502L3.95944 49.1011L3.79797 49.075L3.732 48.9675L3.64866 48.8755L3.58963 48.7611L3.63303 48.5598L3.48024 48.5286L3.30662 48.5095L3.27016 48.3794L3.29273 48.2129L3.05487 48.2198L3.21113 47.9891L2.90729 47.9995L2.88124 47.8677L2.79443 47.7497L2.86562 47.6005L3.03924 47.4739L2.90729 47.3456L3.07397 47.2658L3.14689 47.1825L3.10175 47.0298L3.24585 47.0316L3.20592 46.8165L3.27363 46.7089L3.47851 46.8026L3.46462 46.5459L3.6122 46.5632L3.7563 46.499L3.77193 46.7176L3.89694 46.761L3.98028 46.8512L4.02368 46.9813L4.173 47.0073L4.16084 47.1877L4.44038 47.0958L4.5567 47.1582L4.54108 47.3403L4.68692 47.375L4.772 47.4652L4.66956 47.7237L4.78936 47.7827L4.85707 47.8902L5.00812 47.9215L5.06368 48.0394L5.12792 48.1504L5.34148 48.1262L5.48211 48.1678L5.32412 48.4748L5.53767 48.4505L5.4769 48.6709L5.80679 48.5425L5.67136 48.8304L5.74602 48.9311L5.99777 48.8669L6.0759 48.964L5.98909 49.2173L6.30335 49.0924L6.26515 49.2988L6.31724 49.422L6.51343 49.4081L6.65407 49.4445L6.64886 49.6215L6.59503 49.8452L6.83463 49.788L6.8138 49.9805L6.84505 50.1228L6.98916 50.1557L7.25827 50.0638L7.19751 50.3015L7.31904 50.357L7.46488 50.3847L7.41453 50.6172L7.58989 50.612L7.56211 50.8253L7.84338 50.7022L7.86769 50.8583L7.98922 50.9086L8.00138 51.0821L8.20973 51.0283L8.30348 51.1064L8.23577 51.3874L8.39897 51.3804L8.45627 51.5123L8.63163 51.4863L8.77226 51.5001L8.88164 51.5574L8.89727 51.7517L8.9754 51.8575L9.13687 51.8349L9.1577 52.0309L9.29313 52.05L9.43029 52.0622L9.60565 52.0101L9.64038 52.1905L9.74802 52.253L9.80185 52.4091L9.94942 52.4004L10.071 52.4334L10.2619 52.3415L10.3418 52.4525L10.3748 52.6554L10.5693 52.5462L10.564 52.8341L10.7759 52.6832L10.9252 52.6589L10.9599 52.8723L11.1283 52.8064L11.1405 53.0752L11.3089 53.0128L11.4252 53.0457L11.5138 53.1654L11.6839 53.0353L11.7673 53.1793L11.8818 53.2209L12.0242 53.1724L12.1076 53.3181L12.1944 53.4343L12.2881 53.5089L12.4739 53.384L12.559 53.4811L12.6197 53.5922L12.8663 53.5297L12.875 53.6945L12.9653 53.809L12.7899 53.9634L12.9444 54.0796L12.7083 54.1681L12.7604 54.2947L12.9357 54.4786L12.6354 54.4959L12.7777 54.6972L12.6336 54.7579L12.5937 54.8862L12.5347 55.0181L12.4531 55.1621L12.236 54.9851L12.1527 55.1621L12.0138 54.9817L11.9044 54.973L11.7586 55.1794L11.6683 54.9903L11.5763 54.8793L11.3974 55.0458L11.2846 54.9921L11.2186 54.829L11.1318 54.7249L10.9807 54.7648L10.9269 54.5948L10.7863 54.6018L10.5814 54.7301L10.4668 54.6798L10.3922 54.5567L10.354 54.3676L10.255 54.2895L10.0484 54.4196L10.0276 54.182L9.82442 54.3277L9.72719 54.2479L9.60912 54.2409L9.50842 54.1507L9.4164 54.2062L9.40599 54.3294L9.20979 54.3606L9.22195 54.5063L9.2341 54.6694L9.1577 54.8273L8.91811 54.6364L8.84171 54.6174L8.68545 54.7284L8.52746 54.7544L8.47537 54.5515L8.35557 54.4959L8.18715 54.5289L8.03437 54.5393L7.9927 54.3485L7.86248 54.3259L7.78435 54.2132L7.56906 54.3173L7.50482 54.1837L7.36939 54.1559L7.27216 54.0761L7.18014 53.9894L7.08812 53.9009L7.10548 53.6772L6.91797 53.7136L6.80859 53.6477L6.8138 53.4482L6.59503 53.5124L6.69053 53.2123L6.57594 53.155L6.33981 53.2314L6.40926 52.9729L6.15056 53.0648L6.18008 52.8549L6.07764 52.7803H5.90228L5.86929 52.6364L5.79984 52.5288L5.69914 52.4525L5.69393 52.2842L5.45781 52.3363L5.3328 52.2807L5.29981 52.1402L5.18001 52.0795L5.26335 51.8367L5.10882 51.8089L5.02201 51.717L4.91784 51.6441L4.86749 51.5227L4.69213 51.5071L4.75637 51.2972Z" fill="#BDBFC6"/>
<path d="M52.2201 42.6562L52.326 42.9442L52.517 42.8141L52.5101 43.076L52.6525 43.0865L52.7618 43.1506L52.8348 43.2599L52.9754 43.2964L53.0987 43.3605L53.0934 43.5184L53.1316 43.6086L53.2983 43.7161L53.2306 43.8428L53.2063 43.9642L53.241 44.1012L53.2306 44.2348L52.9389 44.2556L52.9042 44.3684L53.1421 44.6182L52.9823 44.6789L52.9111 44.7812L52.8643 44.8957L52.9007 45.0414L52.7202 45.1022L52.8295 45.182L52.8556 45.3034L52.8816 45.4821L53.1386 45.319L53.0969 45.5896L53.314 45.5324L53.3799 45.6555L53.3105 45.829L53.4841 45.9123L53.2879 46.0389L53.2271 46.1222L53.4806 46.3546H53.1959L53.1334 46.457L53.1768 46.6443L52.9528 46.6287L53.0101 46.8438L53.0014 47.0155L52.8868 47.0901L52.715 47.0971L52.5049 47.0433L52.4771 47.2098L52.4372 47.3798L52.267 47.3503L52.1489 47.392L52.0378 47.4371L51.9232 47.4475L51.8069 47.4717L51.6246 47.6227L51.5812 47.3972L51.5204 47.2705L51.3051 47.3451L51.3572 47.0936L51.1645 47.1248L51.0516 47.1387L50.9527 47.0953L50.753 46.9774L50.7374 47.2115L50.6523 47.3104L50.4179 47.1786L50.4457 47.4613L50.3138 47.4891L50.2321 47.6105L50.1158 47.6764L49.9144 47.5203L49.8641 47.7857L49.68 47.5255L49.5793 47.7389L49.4422 47.758L49.3623 47.5481L49.2651 47.496L49.055 47.6053L48.9265 47.5515L48.8293 47.4509L48.7355 47.3434L48.8084 47.137L48.6313 47.0693L48.6886 46.9201L48.9091 46.9912L48.7946 46.6721L48.9213 46.6322L49.2043 46.731L49.2703 46.6183L49.331 46.5038L49.2668 46.2852L49.5081 46.3286L49.4682 46.1326L49.4613 45.9678L49.6349 45.9487L49.6453 45.7995L49.6713 45.6625L49.8589 45.6538L49.9439 45.5636L50.1071 45.5341L50.1523 45.4127L50.2964 45.3676L50.3103 45.2219L50.2808 45.0432L50.5117 45.064L50.3797 44.8055L50.5586 44.7847L50.5395 44.6112L50.6211 44.5176L50.6749 44.4013L50.9475 44.4534L50.8242 44.2019L51.1454 44.2903L51.2166 44.188L51.2947 44.0926L51.3017 43.9399L51.2635 43.7526L51.3624 43.671L51.5934 43.6971L51.4597 43.4299L51.5638 43.3536L51.642 43.2565L51.8191 43.2408L51.8711 43.1229L52.0517 43.1194L52.1507 43.0518L52.1177 42.8401L52.2201 42.6562Z" fill="#BDBFC6"/>
<path d="M6.98796 53.2635L7.06088 53.4075L6.96366 53.5306L7.08346 53.6833V53.8238L6.96192 53.9209L6.70322 53.9244L6.69628 54.0528L6.67544 54.1829L6.48272 54.1499L6.5921 54.4986L6.39417 54.4084L6.27958 54.3373L6.21534 54.2575L6.0122 54.3477L5.93581 54.2297L5.77087 54.2436L5.69621 54.1256L5.65107 53.9712L5.54516 53.9001L5.34723 53.9487L5.35244 53.7336L5.15103 53.7787L5.03471 53.7145L5.01214 53.5393L4.99998 53.3554L4.80726 53.3832L4.80379 53.1976L4.651 53.175L4.44092 53.1421L4.48432 52.9634L4.46696 52.8211L4.6128 52.7171L4.56593 52.5661L4.60239 52.436L4.80726 52.4031L4.74649 52.2088L4.81247 52.0839L4.88713 51.9469L5.02255 51.8428L5.21354 51.9469L5.26736 52.129L5.51391 51.9434L5.49828 52.1862L5.65628 52.1828L5.70663 52.3129L5.82643 52.3632L5.89414 52.469L6.03998 52.4898L6.02609 52.6876L6.22055 52.6563L6.21534 52.8472L6.31778 52.9165L6.53307 52.8541L6.59558 52.9686L6.72579 52.9963L6.69801 53.2427L6.83518 53.2617L6.98796 53.2635Z" fill="#BDBFC6"/>
<path d="M17.6167 28.4356L17.4257 28.4252L17.3945 28.3055L17.4379 28.1737L17.3511 28.0626L17.6115 27.8909L17.4205 27.7972L17.3927 27.6671L17.5108 27.5526L17.6271 27.4746H17.7574L17.9049 27.5821L18.0612 27.7244L18.1341 27.4035L18.2886 27.5405L18.4189 27.544L18.5421 27.5145L18.6654 27.4833L18.8078 27.5544L18.9154 27.426L19.03 27.3445L19.1845 27.485L19.3147 27.4919L19.3859 27.1693L19.5283 27.2335L19.695 27.4416L19.813 27.3757L19.8946 27.1034L20.0613 27.315L20.1829 27.2664L20.294 27.1606L20.3929 26.9767L20.5752 27.2734L20.6586 27.0114L20.7923 27.0322L20.9155 26.9975L21.0492 27.0201L21.1499 26.8536L21.301 26.9767L21.4 26.7963L21.5597 26.9577L21.6534 26.7564L21.8132 26.9195L21.9521 26.9733L22.0424 26.7443L22.209 26.9559L22.3427 26.9698L22.4347 26.7564L22.5528 26.6836L22.7056 26.8154L22.8098 26.6697L22.9712 26.8518L23.0511 26.5673L23.1883 26.609L23.3081 26.5465L23.4522 26.6177L23.5529 26.4529L23.6727 26.3921L23.8116 26.4442L23.9783 26.6489L24.0946 26.5656L24.2109 26.4823L24.3672 26.6194L24.4331 26.2568L24.5877 26.3956L24.73 26.4563L24.8655 26.4754L24.961 26.2742L25.1051 26.3071L25.2353 26.4147L25.204 26.5465L25.1294 26.6853L25.1589 26.805L25.336 26.9004L25.1884 27.0531L25.3464 27.2352L25.1502 27.3289L25.0044 27.2317L24.855 27.1242L24.7543 27.2907L24.605 27.1797L24.4939 27.2907L24.3949 27.4572L24.2526 27.3948L24.131 27.4382L23.9852 27.341L23.8758 27.4538L23.7543 27.4954L23.5998 27.3566L23.5025 27.537L23.381 27.5873L23.2647 27.6602L23.1431 27.7018L22.9955 27.596L22.841 27.4659L22.7646 27.7678L22.6032 27.5839L22.4938 27.7036L22.3549 27.6585L22.2368 27.7209L22.1049 27.7088L21.992 27.8111L21.8392 27.681L21.7403 27.8545L21.5892 27.7331L21.4659 27.7712L21.3722 27.9794L21.2385 27.9551L21.1222 28.0349L20.9572 27.8441L20.8409 27.9221L20.7159 27.9447L20.5909 27.9759L20.4537 27.9378L20.3339 28.0019L20.202 27.9863L20.0631 27.9395L19.9728 28.1719L19.8512 28.2136L19.7366 28.2986L19.5908 28.2066L19.4432 28.1077L19.313 28.1147L19.1897 28.1494L19.0734 28.2257L18.9519 28.2812L18.8373 28.3749L18.7175 28.4373L18.5456 28.1997L18.4275 28.2691L18.3182 28.3922L18.1931 28.4252L18.049 28.3454L17.9206 28.3627L17.7817 28.3246L17.6671 28.5692L17.6167 28.4356Z" fill="#64676F"/>
<path d="M37.4184 28.5162L37.3889 28.4416L37.2448 28.5144L37.1076 28.5491L37.0156 28.3531L36.8507 28.5266L36.7343 28.4537L36.5954 28.4971L36.4843 28.4017L36.3836 28.2542L36.217 28.4346L36.1024 28.36L36.0034 28.2057L35.8419 28.3618L35.7378 28.2404L35.611 28.2178L35.4634 28.3063L35.3506 28.2195L35.2672 27.9958L35.1266 28.0443L34.9755 28.1415L34.854 28.0946L34.7047 28.1848L34.6248 27.9333L34.4894 27.9611L34.3418 28.0443L34.2186 28.0079L34.0831 28.0391L33.9529 28.0374L33.8557 27.8691L33.7289 27.8483L33.5918 27.8795L33.4459 27.9507L33.3452 27.8067L33.2306 27.7252L33.1022 27.713L32.998 27.5812L32.8765 27.5395L32.6924 27.8032L32.6039 27.5881L32.491 27.4996L32.3278 27.6558L32.208 27.602L32.109 27.4511L31.9337 27.6731L31.8608 27.3886L31.7496 27.2897H31.6194L31.4979 27.2412L31.3121 27.5118L31.2236 27.2984L31.0864 27.3348L30.9406 27.4042L30.859 27.1527L30.6923 27.3296L30.5742 27.2672L30.4544 27.2047L30.3433 27.1076L30.2183 27.0764L30.0638 27.1857L29.9353 27.1683L29.812 27.0798L29.8797 26.9584L30.0013 26.8578L30.0169 26.7346L29.8346 26.5716L30.0603 26.4901L29.9405 26.3391L29.9388 26.1396L30.1402 26.1414L30.2669 26.1535L30.3433 26.4224L30.5204 26.1917L30.6367 26.2663L30.7565 26.3131L30.8746 26.379L30.9753 26.5247L31.0951 26.5751L31.2444 26.4779L31.392 26.3964L31.4857 26.5716L31.6281 26.5109L31.7601 26.4987L31.8729 26.5837L31.9806 26.6913L32.1212 26.6392L32.241 26.6965L32.3973 26.5629L32.524 26.5837L32.6316 26.6982L32.7445 26.7919L32.8539 26.8977L33.0153 26.7468L33.0952 26.9931L33.2602 26.8196L33.3418 27.0642L33.5206 26.8266L33.6074 27.0434L33.7463 26.9983L33.8487 27.1371L34.0102 26.9931L34.1613 26.8873L34.229 27.203L34.3922 27.0417L34.4859 27.2204L34.6596 27.0087L34.7759 27.0833L34.8992 27.1267L35.012 27.21L35.1492 27.1787L35.2846 27.1562L35.3801 27.3296L35.5155 27.2984L35.6457 27.3071L35.743 27.4702L35.9027 27.3296L36.0451 27.2759L36.1163 27.5725L36.2395 27.6072L36.3576 27.6731L36.5173 27.5343L36.6597 27.4788L36.7604 27.6332L36.9288 27.4511L37.0538 27.4754L37.1615 27.6003L37.2778 27.6714L37.3993 27.7252L37.5591 27.5898L37.5608 27.8344L37.665 27.8952L37.6702 28.0218L37.6528 28.1449L37.4966 28.2386L37.4757 28.3618L37.4219 28.426L37.4184 28.5162Z" fill="#64676F"/>
<path d="M27.682 28.9762L27.8172 28.918L27.8463 29.108L28.0774 29.0001L28.0072 29.2671L28.1938 29.2398L28.3975 29.2278L28.353 29.4212L28.377 29.5462L28.4009 29.6677L28.3873 29.8012L28.6543 29.8115L28.5858 29.9673L28.5293 30.1025L28.7758 30.171L28.5636 30.3165L28.543 30.4174L28.6851 30.5475L28.5464 30.6109L28.4609 30.6468L28.4164 30.6571L28.3256 30.7153L28.2144 30.9173L28.0843 30.9327L27.961 30.7923L27.8275 30.9823L27.7025 30.9139L27.5725 30.9703L27.4578 30.8591L27.3362 30.8659L27.2215 30.7701L27.0915 30.9002L26.9853 30.7084L26.8484 30.8454L26.7149 30.8779L26.6122 30.753L26.6601 30.5612L26.3999 30.5629L26.5848 30.4174L26.5505 30.3079L26.6087 30.2052L26.4393 30.0306L26.6207 29.9638L26.696 29.8663L26.7731 29.7738L26.6977 29.589L26.8056 29.5102L26.8638 29.399L27.0384 29.387L27.136 29.3202L27.2267 29.2517L27.2215 29.0532L27.4013 29.1251L27.4338 28.9145L27.5451 28.7793L27.682 28.9762Z" fill="url(#paint6_linear_4982_5739)"/>
</g>
<path opacity="0.7" d="M40.8142 8.11699L40.7473 7.96342L40.7808 7.82858L40.8742 7.72371L41.0187 7.64318L40.9341 7.45028L41.0398 7.3529L41.1421 7.25364L41.2249 7.14502L41.2143 6.98958L41.2778 6.87159L41.4064 6.78357L41.4399 6.64873L41.4346 6.49517L41.521 6.38654L41.6179 6.28354L41.5791 6.11312L41.6214 5.98202L41.7677 5.90337L41.8171 5.77602L41.803 5.61683L41.8699 5.49885L41.9422 5.38274L42.0057 5.261L42.0162 5.11306L42.0233 4.96323L42.1766 4.88645L42.189 4.73663L42.2083 4.59055L42.2665 4.46507L42.4234 4.39578L42.3758 4.21225L42.485 4.11674L42.6278 4.02684L42.5661 3.91822L42.4639 4.09988L42.3106 3.99313L42.203 4.10363L42.0656 4.07741L41.9563 4.1879L41.8083 4.11299L41.7131 4.28716L41.5527 4.15232L41.4593 4.33585L41.306 4.2366L41.1791 4.26281L41.0768 4.40702H40.9447L40.8266 4.47257L40.675 4.37893L40.5552 4.43886L40.4283 4.46695L40.3243 4.60928L40.1921 4.53249L40.1251 4.422L40.0811 4.28903L40.1198 4.13547L40.0564 4.00624L40 3.84144L40.1674 3.86391L40.282 3.78526L40.4001 3.72345L40.5446 3.78713L40.6662 3.74406L40.7737 3.63356L40.9077 3.64854L41.0222 3.57363L41.1685 3.65229L41.2831 3.583L41.387 3.46127L41.5227 3.48187L41.6585 3.50247L41.7642 3.38635L41.9087 3.45003L42.0303 3.40508L42.1625 3.40883L42.2912 3.39946L42.4163 3.3695L42.5203 3.24028L42.6437 3.20095L42.7758 3.20844L42.8869 3.11293L43.0402 3.21593L43.1442 3.08296L43.2623 3.01367L43.4244 3.03802L43.3751 3.21219L43.5073 3.32268L43.4544 3.47438L43.4297 3.59236L43.5337 3.76466L43.3257 3.8096L43.294 3.94257L43.2164 4.05306L43.2464 4.216L43.1195 4.30027L43.1072 4.4426L43.146 4.60928L43.0737 4.72164L43.0102 4.83963L42.9115 4.93889L42.8181 5.04189L42.7547 5.15987L42.693 5.27786L42.7406 5.45016L42.6172 5.53818L42.6031 5.68051L42.485 5.7704L42.5344 5.94457L42.4181 6.03633L42.3335 6.14496L42.2824 6.26856L42.2101 6.3828L42.1872 6.52138L42.0885 6.62251L42.1326 6.79481L42.1255 6.9465L41.9951 7.0364L41.9158 7.15064V7.30608L41.766 7.38099L41.8329 7.57576L41.6426 7.63756L41.7008 7.70123L41.8171 7.61883L41.9334 7.56265L42.0568 7.54392L42.1731 7.49148L42.3211 7.58325L42.448 7.57201L42.5732 7.54954L42.6683 7.39223L42.8093 7.4559L42.9415 7.47275L43.0296 7.27611L43.1759 7.35477L43.301 7.3323L43.4279 7.31544L43.539 7.22742L43.6553 7.16187L43.7928 7.19933H43.9214L44.0413 7.15064L44.1576 7.07947L44.3268 6.9952L44.3426 7.19184L44.3391 7.33417L44.3462 7.47463L44.4272 7.59823L44.3515 7.69187L44.2898 7.70873L44.1682 7.74805L44.0466 7.78551L43.939 7.88851L43.8104 7.896L43.6659 7.82671L43.5619 7.94657L43.4403 7.98402L43.301 7.93908L43.2094 8.11512L43.0596 8.01024L42.9591 8.14695L42.8358 8.17692L42.7071 8.18254L42.5714 8.15445L42.4463 8.17317L42.344 8.30801L42.1925 8.19752L42.0638 8.20314L41.9545 8.30427L41.847 8.40914L41.7043 8.34922L41.5932 8.44285L41.454 8.40165L41.3465 8.5084L41.2249 8.54773L41.0804 8.48406L40.9447 8.46533L40.8583 8.54773V8.45035L40.8213 8.32861L40.7103 8.20501L40.8213 8.10014L40.8142 8.11699Z" fill="#989898"/>
<defs>
<linearGradient id="paint0_linear_4982_5739" x1="27.6001" y1="11.1436" x2="29.6523" y2="61.6006" gradientUnits="userSpaceOnUse">
<stop stop-color="#75777E"/>
<stop offset="1" stop-color="#F3F5FD"/>
</linearGradient>
<linearGradient id="paint1_linear_4982_5739" x1="18.0024" y1="35.4844" x2="18.0024" y2="48.2031" gradientUnits="userSpaceOnUse">
<stop stop-color="#BDBFC6"/>
<stop offset="1" stop-color="#F3F5FD"/>
</linearGradient>
<linearGradient id="paint2_linear_4982_5739" x1="38.3788" y1="34.5391" x2="38.3788" y2="47.2856" gradientUnits="userSpaceOnUse">
<stop stop-color="#BDBFC6"/>
<stop offset="1" stop-color="#F3F5FD"/>
</linearGradient>
<linearGradient id="paint3_linear_4982_5739" x1="8.47526" y1="20.9824" x2="8.47526" y2="32.5667" gradientUnits="userSpaceOnUse">
<stop stop-color="#BDBFC6"/>
<stop offset="1" stop-color="#E0E2E9"/>
</linearGradient>
<linearGradient id="paint4_linear_4982_5739" x1="46.8728" y1="19.166" x2="46.8728" y2="30.8058" gradientUnits="userSpaceOnUse">
<stop stop-color="#BDBFC6"/>
<stop offset="1" stop-color="#E0E2E9"/>
</linearGradient>
<linearGradient id="paint5_linear_4982_5739" x1="27.5312" y1="17.8486" x2="27.5312" y2="39.3414" gradientUnits="userSpaceOnUse">
<stop stop-color="#BDBFC6"/>
<stop offset="1" stop-color="#F3F5FD"/>
</linearGradient>
<linearGradient id="paint6_linear_4982_5739" x1="27.5879" y1="28.7793" x2="27.5879" y2="30.9823" gradientUnits="userSpaceOnUse">
<stop stop-color="#64676F"/>
<stop offset="1" stop-color="#C0C6D5"/>
</linearGradient>
</defs>
</svg>
