<svg width="24" height="25" viewBox="0 0 24 25" fill="none" xmlns="http://www.w3.org/2000/svg">
<path d="M19.0004 11.5661H7.83041L12.7104 6.68608C13.1004 6.29608 13.1004 5.65608 12.7104 5.26608C12.6179 5.17337 12.508 5.09983 12.387 5.04964C12.2661 4.99946 12.1364 4.97363 12.0054 4.97363C11.8744 4.97363 11.7448 4.99946 11.6238 5.04964C11.5028 5.09983 11.3929 5.17337 11.3004 5.26608L4.71041 11.8561C4.61771 11.9486 4.54416 12.0585 4.49398 12.1795C4.4438 12.3004 4.41797 12.4301 4.41797 12.5611C4.41797 12.692 4.4438 12.8217 4.49398 12.9427C4.54416 13.0637 4.61771 13.1736 4.71041 13.2661L11.3004 19.8561C11.393 19.9487 11.5029 20.0221 11.6239 20.0722C11.7448 20.1223 11.8745 20.1481 12.0054 20.1481C12.1363 20.1481 12.266 20.1223 12.387 20.0722C12.5079 20.0221 12.6178 19.9487 12.7104 19.8561C12.803 19.7635 12.8764 19.6536 12.9265 19.5326C12.9766 19.4117 13.0024 19.282 13.0024 19.1511C13.0024 19.0201 12.9766 18.8905 12.9265 18.7695C12.8764 18.6486 12.803 18.5387 12.7104 18.4461L7.83041 13.5661H19.0004C19.5504 13.5661 20.0004 13.1161 20.0004 12.5661C20.0004 12.0161 19.5504 11.5661 19.0004 11.5661Z" fill="#18191D"/>
</svg>
