<svg viewBox="0 0 16 16" fill="none" xmlns="http://www.w3.org/2000/svg">
<path d="M1.3335 8.00065C1.3335 4.85798 1.3335 3.28665 2.3095 2.30998C3.28683 1.33398 4.8575 1.33398 8.00016 1.33398C11.1428 1.33398 12.7142 1.33398 13.6902 2.30998C14.6668 3.28732 14.6668 4.85798 14.6668 8.00065C14.6668 11.1433 14.6668 12.7147 13.6902 13.6907C12.7148 14.6673 11.1428 14.6673 8.00016 14.6673C4.8575 14.6673 3.28616 14.6673 2.3095 13.6907C1.3335 12.7153 1.3335 11.1433 1.3335 8.00065Z" fill="#BADFFF"/>
<path fill-rule="evenodd" clip-rule="evenodd" d="M4.6095 7.50065H1.3335V8.50065H6.7755C6.66293 8.97526 6.39351 9.39801 6.01083 9.70047C5.62815 10.0029 5.15461 10.1674 4.66683 10.1673C4.53422 10.1673 4.40704 10.22 4.31328 10.3138C4.21951 10.4075 4.16683 10.5347 4.16683 10.6673C4.16683 10.7999 4.21951 10.9271 4.31328 11.0209C4.40704 11.1146 4.53422 11.1673 4.66683 11.1673C5.2551 11.1675 5.83179 11.0038 6.33224 10.6946C6.83269 10.3853 7.23711 9.94283 7.50016 9.41665V14.6673H8.50016V9.41665C8.76321 9.94283 9.16764 10.3853 9.66808 10.6946C10.1685 11.0038 10.7452 11.1675 11.3335 11.1673C11.4661 11.1673 11.5933 11.1146 11.687 11.0209C11.7808 10.9271 11.8335 10.7999 11.8335 10.6673C11.8335 10.5347 11.7808 10.4075 11.687 10.3138C11.5933 10.22 11.4661 10.1673 11.3335 10.1673C10.8457 10.1674 10.3722 10.0029 9.98949 9.70047C9.60681 9.39801 9.33739 8.97526 9.22483 8.50065H14.6668V7.50065H11.3915C11.6248 7.20865 11.8002 6.86398 11.8955 6.48265C12.2542 5.04732 10.9535 3.74732 9.51883 4.10598C9.147 4.19883 8.79956 4.37074 8.50016 4.60998V1.33398H7.50016V4.60998C7.20096 4.37082 6.85375 4.19892 6.48216 4.10598C5.04683 3.74732 3.74683 5.04732 4.1055 6.48265C4.20083 6.86398 4.3755 7.20865 4.6095 7.50065ZM7.50016 7.50065H6.66483C6.29812 7.49467 5.94362 7.36789 5.65627 7.13997C5.36893 6.91205 5.16479 6.59571 5.0755 6.23998C5.03529 6.07912 5.03743 5.91058 5.08172 5.75079C5.12601 5.59099 5.21093 5.4454 5.32822 5.32818C5.4455 5.21097 5.59114 5.12613 5.75096 5.08193C5.91078 5.03773 6.07932 5.03568 6.24016 5.07598C6.59589 5.16528 6.91223 5.36942 7.14015 5.65676C7.36807 5.9441 7.49485 6.2986 7.50083 6.66532L7.50016 7.50065ZM9.3355 7.50065H8.50016V6.67065C8.50498 6.30302 8.63122 5.94729 8.85923 5.65887C9.08725 5.37045 9.40423 5.16552 9.76083 5.07598C9.92163 5.03583 10.0901 5.03798 10.2498 5.08224C10.4095 5.1265 10.5551 5.21136 10.6723 5.32856C10.7895 5.44575 10.8743 5.59129 10.9186 5.75101C10.9628 5.91073 10.965 6.07918 10.9248 6.23998C10.8355 6.59571 10.6314 6.91205 10.3441 7.13997C10.0567 7.36789 9.70221 7.49467 9.3355 7.50065Z" fill="#07A6FF"/>
</svg>
