<svg width="120" height="75" viewBox="0 0 120 75" fill="none" xmlns="http://www.w3.org/2000/svg">
<g clip-path="url(#clip0_3200_7105)">
<path d="M53.5642 34.7747L53.0617 34.5776L52.4742 34.7951L52.0571 34.1391L51.4463 34.4824L50.9287 34.3223L50.4585 33.8142L49.8461 34.3502L49.3443 34.0717L48.8028 34.1115L48.2693 34.0774L47.7437 33.9765L47.2021 34.0238L46.687 33.5672L46.1361 33.8443L45.6111 33.6767L45.0717 33.472L44.5311 33.4007L43.9935 33.8484L43.4661 33.9699L42.9387 34.0915L42.3995 33.8571L41.8786 34.0825L41.3049 33.5364L40.8249 34.1922L40.2978 34.2767L39.7368 33.9902L39.1818 33.8669L38.6963 34.2928L38.1058 33.9838L37.6705 34.6177L37.023 34.0339L36.5311 34.3411L35.9609 34.2622L35.4691 34.5545L35.0636 35.1665L34.393 34.6937L33.9589 35.1719L33.3812 35.1077L32.89 35.3334L32.478 35.8266L31.9218 35.8515L31.4814 36.2037L30.9251 36.236L30.3325 36.1791L29.7614 36.2039L29.3282 36.5857L28.8516 36.8338L28.3096 36.933L27.9931 37.5382L27.2979 37.3322L26.814 37.5727L26.352 37.8505L26.0942 38.523L25.6469 38.8157L25.0023 38.7658L24.3941 38.7977L24.1368 39.4183L23.7991 39.8973L23.3298 40.1602L22.9119 40.4903L22.2667 40.5071L21.7608 40.7252L21.6065 41.4356L20.7999 41.2582L20.4771 41.7226L20.1985 42.2392L19.8025 42.5917L19.2084 42.7201L18.7609 43.0277L18.6954 43.7611L18.3141 44.1359L17.536 44.0923L17.3826 44.7063L17.0454 45.126L16.7155 45.5606L16.4226 46.0104L15.6513 46.0409L15.601 46.7226L15.3743 47.2248L14.7354 47.3899L14.5601 47.9444L13.921 48.1243L13.6648 48.6115L13.4455 49.1212L13.2115 49.6159L12.8006 49.9831L12.6404 50.5229L12.0157 50.7549L12.202 51.5127L11.9902 52.0076L11.203 52.164L11.3823 52.8847L10.8016 53.1689L10.7226 53.7391L10.592 54.2792L10.1071 54.6309L9.66648 55.0127L9.59499 55.5755L9.64167 56.1913L9.42989 56.6862L8.85618 57.0224L8.99898 57.6686L8.70597 58.1257L8.18384 58.4994L8.519 59.1917L7.77498 59.5042L8.10292 60.1742L7.4253 60.5243L7.73854 61.1794L7.3937 61.6287L7.64788 62.2536L7.18462 62.6797L6.70641 63.1204L6.88677 63.7077L6.73411 64.2253L7.01819 64.8208L6.47327 65.261L6.69076 65.8412L6.42709 66.3356L6.95468 66.1918L7.50401 66.1075L7.95942 65.7333L8.47985 65.5598L9.00738 65.4234L9.6576 65.681L10.041 65.0615L10.6407 65.1481L11.1178 64.8408L11.6455 64.6895L12.2092 64.6573L12.6718 64.3053L13.1216 64.5983L13.6623 64.6547L13.9104 65.1239L14.2554 65.5346L14.4215 66.055L14.3342 66.7289L14.6643 67.1468L15.203 67.4405L15.1976 68.0707L15.9748 68.2181L16.3048 68.6435L16.4188 69.1931L16.8085 69.5745L16.8255 70.1899L16.783 70.8346L17.3962 71.0844L17.7338 71.495L18.2203 71.8254L18.3267 72.3823L18.776 72.7346L18.7757 73.6464L18.6196 72.8148L19.0314 72.3438L18.6953 71.7553L18.8332 71.2375L19.3189 70.7894L19.6195 70.31L19.0764 69.653L19.229 69.1428L19.4926 68.6557L19.734 68.1684L20.0567 67.7041L19.7359 67.0712L20.3543 66.7058L20.3737 66.1647L20.3932 65.6163L20.9006 65.2276L21.1197 64.7476L21.1835 64.2144L21.107 63.628L21.5625 63.239L21.6043 62.6833L22.0302 62.2866L21.8873 61.6552L21.907 61.0845L22.5028 60.7633L22.2788 60.072L22.9187 59.7957L23.3741 59.4288L23.3348 58.8132L23.7089 58.4086L23.7878 57.8458L24.3906 57.584L24.3515 56.9461L24.7403 56.5639L25.1364 56.1892L25.4514 55.7618L25.2945 55.0265L25.7275 54.6744L26.1972 54.3595L26.6375 54.0148L26.5178 53.2724L26.8623 52.8676L27.2805 52.5079L27.3819 51.9082L28.102 51.8031L28.3728 51.3384L28.7688 50.971L28.8704 50.3566L29.3989 50.109L29.8759 49.8165L30.2718 49.4566L30.2192 48.6628L30.902 48.5797L31.0554 47.973L31.5323 47.6954L31.8107 47.2084L32.5739 47.2519L32.6248 46.5036L33.2264 46.3752L33.6445 46.0303L33.9303 45.5435L34.2677 45.0941L34.8178 44.9208L35.3678 44.755L35.8444 44.5069L36.0939 43.9382L36.7317 43.914L37.0618 43.4497L37.6336 43.3433L38.0809 43.0506L38.4843 42.6907L38.9974 42.5097L39.3496 42.0605L39.8116 41.7827L40.237 41.4527L40.8594 41.4876L41.314 41.2097L41.6521 40.6862L42.2671 40.7285L42.7653 40.5474L43.1908 40.2025L43.7328 40.1108L44.1221 39.6692L44.6858 39.6369L45.01 39.0021L45.6607 39.193L46.1084 38.8631L46.4983 38.3475L47.1631 38.6348L47.6036 38.2679L48.0876 38.0125L48.5645 37.7348L49.0485 37.4795L49.7125 37.8632L50.1606 37.4741L50.6664 37.2856L51.1505 37.0228L51.6919 36.9903L52.2332 36.9801L52.8458 37.3041L53.2661 36.7071L53.8781 37.0978L54.292 36.3748L54.8403 36.4091L55.3532 36.2429L55.8737 36.062L56.4214 36.1778L56.9828 36.4124L57.1988 36.2956L57.0081 36.0568L56.4142 36.1481L56.1162 35.4487L55.6513 35.1853L55.0423 35.3136L54.4409 35.4271L54.1503 34.7203L53.5642 34.7747Z" fill="#BADFFF"/>
<path d="M63.5356 35.8295L64.0539 35.6496L64.6658 35.852L65.1633 35.5665L65.6561 35.2431L66.2669 35.4996L66.8032 35.4024L67.2903 35.0333L67.8389 34.9733L68.3647 34.7924L68.9368 34.9225L69.4984 35.0307L70.0506 35.0628L70.5747 34.805L71.1522 35.1042L71.6361 34.334L72.193 34.4659L72.7415 34.4058L73.3002 34.553L73.8531 34.7781L74.3794 34.2883L74.9297 34.3052L75.4682 34.6634L76.0208 34.3866L76.5535 34.8226L77.11 34.4527L77.6419 34.7576L78.1817 34.8144L78.7439 34.5519L79.3 34.4909L79.8262 34.7501L80.3467 35.0255L80.8798 35.1527L81.4187 35.2019L81.9604 35.2739L82.5011 35.3384L83.0285 35.4817L83.5779 35.491L84.0928 35.7207L84.6278 35.8013L85.3024 35.2623L85.7484 35.8095L86.3886 35.491L86.7554 36.2719L87.3716 36.0722L87.8101 36.5585L88.4282 36.374L88.8791 36.7738L89.4179 36.8848L89.9672 36.9559L90.444 37.2522L91.1106 37.0231L91.5587 37.4001L92.1528 37.3961L92.5638 37.8472L93.0577 38.0951L93.6413 38.131L94.0799 38.4938L94.6177 38.659L95.1536 38.8089L95.5732 39.2049L96.0109 39.5601L96.4352 39.9323L97.1426 39.7831L97.4107 40.4526L98.0762 40.4012L98.3414 41.048L98.8677 41.2454L99.2731 41.6509L99.846 41.7886L100.42 41.9338L100.661 42.5682L101.438 42.4257L101.592 43.1711L101.981 43.5709L102.451 43.8757L102.927 44.1643L103.624 44.1786L104.088 44.4996L104.464 44.9164L104.854 45.3238L105.135 45.845L105.564 46.1935L106.22 46.3132L106.486 46.844L106.69 47.4288L107.483 47.4157L107.536 48.1505L107.966 48.5066L108.334 48.9244L108.979 49.084L109.173 49.6546L109.305 50.2792L110.12 50.3174L109.941 51.1812L110.295 51.6085L110.641 52.0367L111.3 52.241L111.866 52.5108L112.058 53.0661L112.527 53.4251L112.504 54.1152L112.645 54.6923L113.071 55.0722L113.475 55.4701L114.102 55.7323L114.242 56.3019L114.567 56.7481L114.526 57.4172L114.693 57.9526L114.983 58.4263L115.231 58.9286L115.426 59.445L115.715 59.9111L116.157 60.3043L116.565 60.725L116.658 61.2926L116.655 61.8952L117.363 62.1861L117.43 62.919L116.782 62.5436L116.25 62.4317L115.689 62.7018L115.155 62.5671L114.589 62.9227L114.069 62.6473L113.554 62.3558L113.026 62.2666L112.472 62.4123L111.962 62.0352L111.417 62.1181L110.848 62.4509L110.301 62.588L109.787 62.2422L109.274 61.9041L108.738 61.8777L108.162 62.3351L107.759 62.2613L107.153 62.3594L106.904 62.8457L106.823 63.4349L106.154 63.6488L106.468 64.4981L105.925 64.7891L105.306 65.0354L105.511 65.8132L104.833 66.0129L104.627 66.5325L104.344 66.9922L104.355 67.6471L103.618 67.8077L103.227 68.2035L103.499 69.027L103.089 69.4019L102.412 69.6092L102.32 70.1765L102.105 69.6858L102.103 69.1069L101.539 68.7287L101.499 68.1546L101.651 67.5103L101.116 67.1208L100.899 66.6149L100.521 66.1752L100.386 65.6437L100.22 65.1159L99.9079 64.6526L100.216 63.8964L99.59 63.5799L99.199 63.165L99.2217 62.5367L98.7155 62.19L98.5566 61.6537L98.3615 61.1373L98.1378 60.6399L97.7763 60.2136L97.6953 59.6213L97.4203 59.1456L97.0302 58.7383L96.9835 58.1109L96.6363 57.6751L96.0464 57.4005L95.4517 57.1497L95.5592 56.3951L95.1843 55.9859L95.0206 55.4115L94.6314 55.0118L94.326 54.5399L93.9721 54.1126L93.4991 53.785L92.9986 53.484L92.9378 52.8043L92.0338 52.862L91.6665 52.4518L91.48 51.8803L91.0089 51.5678L90.6074 51.1928L90.5009 50.5187L89.9689 50.2756L89.5388 49.9195L89.3077 49.3612L88.6739 49.2311L88.3942 48.7174L88.0316 48.2835L87.5882 47.9445L87.0381 47.7423L86.8023 47.1459L86.0989 47.1402L85.5974 46.8934L85.2539 46.4262L84.8181 46.0863L84.6127 45.4244L84.2007 45.0275L83.5478 44.9924L83.032 44.755L82.7686 44.1235L82.0279 44.2536L81.5074 44.04L81.0954 43.6431L80.7587 43.1056L80.017 43.2899L79.7928 42.5377L79.3141 42.2262L78.5343 42.5389L78.1747 42.0042L77.5578 42.0109L77.1001 41.6814L76.8284 40.9197L76.0494 41.3017L75.751 40.5741L75.0301 40.864L74.5466 40.5763L74.1977 39.9399L73.5159 40.1709L72.9848 39.9972L72.5711 39.4615L72.0715 39.168L71.4144 39.4114L70.9272 39.0933L70.3369 39.1276L69.864 38.7382L69.374 38.3972L68.6814 38.8535L68.1761 38.5762L67.69 38.2039L67.0727 38.4578L66.5225 38.3791L66.0182 38.0476L65.4306 38.1666L64.8996 37.9311L64.4136 37.4352L63.8346 37.5608L63.2401 37.8119L62.7427 37.3483L62.1424 37.7391L61.618 37.495L61.0862 37.1902L60.5233 37.3215L59.9876 36.9862L59.3704 37.2401L60.0147 37.3303L60.445 36.8756L60.9396 36.6291L61.5411 36.7478L62.1284 36.8142L62.5218 36.2482L63.163 36.501L63.5356 35.8295Z" fill="#BADFFF"/>
<path d="M62.4656 30.3636L62.0626 30.6864L62.6309 30.9804L62.8115 31.5379L62.5988 32.144L62.623 32.7892L63.1957 32.5717L63.6231 32.8793L63.7382 33.2954L63.594 33.6871L63.4424 34.0788L63.878 34.2975L64.321 34.5088L64.6425 34.1927L64.9565 33.8766L64.5798 33.7103L64.2032 33.544L64.0676 32.9127L64.7688 33.2893L65.2097 32.8705L65.25 32.4927L65.123 31.7354L65.7 31.8812L66.1903 31.7593L66.6395 31.2516L66.3159 30.9375L65.9924 30.6159L65.8773 30.2072L66.0803 29.8753L66.4683 29.5746L67.0521 29.802L67.5078 29.3907L67.2523 28.9215L66.8563 28.4066L67.3161 28.3956L67.7833 28.3773L67.2681 27.9281L67.501 27.5669L67.8283 27.4436L67.9999 27.319L67.9246 26.577L68.6746 26.4351L68.7687 25.828L69.1867 25.4905L69.3398 24.9283L69.5514 24.4482L69.7707 23.9385L70.2991 23.6984L71.0856 23.6235L71.4527 23.1744L71.7005 22.8058L72.0369 22.475L72.4505 22.6564L72.8678 22.4153L72.7219 22.1324L72.5105 21.7006L72.1975 21.0233L72.8165 21.4585L73.1466 21.8765L73.7335 21.7332L73.6789 21.1841L73.5566 20.7383L73.7261 19.9835L74.4514 20.1379L74.7081 20.4589L74.9649 20.7724L75.0374 20.091L74.4339 19.5743L75.2279 19.4847L75.3088 18.6921L75.8097 19.0744L76.2178 19.0334L75.8652 18.6449L76.2536 18.3072L76.7679 17.9779L76.9179 17.7716L76.7077 17.2138L77.3383 17.1598L77.7081 17.2593L77.8583 17.0308L78.3285 16.6641L78.2058 16.2701L78.439 15.8792L78.9288 15.8166L79.2912 15.9235L79.8513 16.3137L80.1944 16.0646L80.5376 15.8154L80.1131 15.1668L80.3016 14.7903L80.8145 14.639L81.2249 14.3237L81.7636 13.7425L82.1532 14.1314L82.5067 14.4087L82.8359 14.063L82.7942 13.729L83.2492 13.4067L83.6811 13.1805L83.6923 12.7284L83.6962 12.2688L84.4686 12.1122L84.8814 12.39L85.0727 12.5622L85.33 11.949L85.7068 12.0931L86.0837 12.2371L86.3102 11.7571L86.1951 11.3484L86.0725 10.9396L86.5314 11.0251L86.9904 11.1031L87.1468 11.8903L87.6002 11.7532L87.7667 11.3543L87.6548 10.5675L88.4241 10.7668L88.9294 10.6302L89.2303 10.9886L89.6234 10.9697L89.8583 10.3712L90.1871 10.07L90.3452 9.78223L90.8346 9.77155L91.0906 10.1815L91.6482 9.99344L92.112 9.50807L92.2043 9.11592L92.2966 8.72378L93.0238 8.64098L93.354 9.04412L93.6842 9.44726L93.8729 9.04852L94.0543 8.6423L94.5221 8.54989L95.2581 8.31147L95.6098 8.80376L95.7846 9.17593L95.9593 9.55551L95.9778 9.12567L95.9962 8.70324L96.1934 8.17854L95.8714 8.55391L96.0164 8.94065L96.5154 8.67799L96.7038 9.18372L96.7658 9.74769L96.3916 10.1597L96.0619 10.5646L95.7589 10.4509L95.3078 10.321L95.0904 10.6083L94.8649 10.9697L95.5536 11.0571L95.7196 11.5922L95.2566 11.9887L94.6469 12.1985L94.516 12.7682L94.5497 13.1763L94.5833 13.5843L94.0284 13.4462L93.4735 13.308L93.5198 13.9682L93.9965 14.5802L93.6048 14.436L93.2057 14.2918L92.8221 14.0735L92.431 13.8552L92.62 14.3016L92.8089 14.7481L92.6549 15.4288L92.1302 15.2316L91.6838 15.4132L91.5034 15.7082L91.9979 15.9645L92.1569 16.4477L91.7077 16.0954L91.151 16.1723L90.6428 15.7824L90.2445 16.4092L90.535 17.1234L90.1023 17.446L89.4045 17.5512L89.3035 18.099L89.8558 18.5411L89.5756 19.2356L89.0459 19.624L88.537 19.3084L88.2986 19.4546L88.0425 19.9269L87.6312 20.3386L86.8976 20.3027L86.729 20.9463L86.1202 21.0523L85.819 21.5984L86.0826 21.9936L86.3387 22.3887L85.9702 22.1335L85.5943 21.8708L85.0349 21.3916L85.192 22.0972L85.4237 22.759L84.7657 22.5458L84.3564 22.7277L83.9469 22.9318L83.2306 22.5995L83.2776 23.1708L83.3611 23.8165L82.6803 23.6699L82.6777 23.9738L82.8568 24.7093L82.0943 24.5842L81.6659 24.3952L81.0461 24.0489L80.7804 24.7732L80.4319 24.7851L79.7851 24.9946L79.4772 25.4665L79.6357 26.009L79.2719 26.0653L78.941 25.7437L78.3774 25.7611L78.3893 26.1171L78.4654 26.7553L77.6795 26.7635L77.0987 27.0551L76.5004 26.798L76.0158 27.1201L76.3296 27.701L75.8302 28.023L75.3141 27.685L74.92 27.8225L74.5185 27.96L73.9989 28.0297L73.408 27.7726L72.976 28.0062L72.3126 28.4306L72.1234 28.8886L71.5146 28.9947L71.0964 29.347L70.4902 29.1491L69.9346 29.0925L69.3922 29.2361L68.8716 29.4319L68.477 29.6287L68.31 29.2121L67.8283 29.1932L67.2769 29.5148L67.3839 30.0198L67.4908 30.5248L67.138 30.166L66.7852 29.8071L66.3595 29.292L65.634 29.1672L65.311 29.6686L65.2766 30.2318L64.782 30.8503L64.5423 30.2626L64.1975 29.8371L63.6229 30.2771L63.1146 29.8946L62.5152 29.7709L62.2582 30.347L62.6803 30.4025L62.5067 30.7717L62.333 31.1409L62.7906 31.3895L63.4608 31.0393L63.2918 31.7273L62.6743 31.989L63.3243 32.2762L64.0529 32.0229L63.751 32.6579L63.3068 32.5875L62.8626 32.5096L62.7527 33.2278L63.1273 33.6461L63.6986 33.599L64.0518 33.906L63.8778 34.3123L63.3227 34.2038L63.0349 34.9205L62.5348 35.324L63.0614 35.2988L63.2091 35.3668L63.8667 35.6318L63.5967 35.9928L63.3268 36.3538L63.4567 36.7626L63.5867 37.1715L63.8856 36.8923L64.1846 36.6057L64.5271 36.4307L64.7701 36.6255L64.5648 37.2317L65.2693 37.2154L65.7801 37.3013L66.0123 37.0216L66.2183 37.2086L66.3496 37.4544L66.5384 37.0483L67.0856 37.216L67.529 37.3829L68.1088 37.2024L68.6621 37.5333L69.1203 37.7003L69.5877 37.6598L69.59 38.2603L70.0832 38.6797L70.1078 38.3982L70.5698 38.1278L71.0624 38.6064L71.656 38.5521L72.181 38.7049L72.4505 38.4032L72.72 38.1015L73.1744 38.7207L73.7414 39.1703L74.1665 38.8774L74.3638 38.3378L75.0102 38.1728L75.4275 38.7991L75.3347 39.2431L75.2347 39.6797L75.5579 39.1487L76.0543 39.1973L76.4185 39.0818L76.9529 39.0122L77.4863 39.0612L77.4833 38.5348L77.9953 38.4873L77.9902 39.0877L78.217 39.4455L78.4512 39.8033L78.8456 39.6288L79.24 39.4468L79.4289 39.0332L79.6103 38.6196L80.0812 39.0461L80.2504 39.2033L80.7688 39.267L81.2324 38.8038L81.4135 38.4273L81.602 38.0508L82.3001 37.9084L82.7415 38.3125L82.6623 38.9123L83.0206 39.501L82.7675 38.7501L82.9047 38.3065L83.3661 38.0954L83.8188 38.0399L84.2756 37.5026L84.6427 37.9283L85.0602 38.5323L85.1538 37.9845L85.2474 37.4367L85.9792 37.6875L86.5417 37.7961L87.0782 37.4818L87.1267 37.0078L87.1825 36.5412L87.8256 36.7616L87.9723 36.9556L88.6469 36.9539L88.7985 36.5623L88.9575 36.1781L89.065 36.6165L89.1724 37.0622L89.7369 36.9335L89.8682 36.3193L89.9539 35.8307L90.2306 35.5439L90.7816 35.2595L91.4542 35.5024L91.7845 35.0233L91.5065 34.5836L91.8875 35.1132L92.5672 35.3932L93.325 35.1995L93.388 34.77L93.4436 34.3331L93.6317 34.0011L94.3356 34.0589L94.4299 33.4221L94.2636 32.9314L95.0332 33.0936L95.4454 32.5708L96.2073 32.77L96.1672 32.2581L96.3271 31.7553L96.382 31.3999L96.6943 31.2988L96.9636 31.0119L97.6824 31.0477L97.9317 30.5012L97.8631 29.8482L98.2597 29.4215L98.8447 29.5006L99.1989 29.6964L99.5457 29.8847L99.5269 29.4768L99.5007 29.0688L98.9409 28.6489L99.4103 28.3711L99.9903 28.1685L100.07 27.4648L100.032 26.7676L100.527 26.9942L100.87 26.708L100.902 26.4414L100.787 26.0104L101.204 25.836L101.684 26.0106L101.51 25.5717L101.41 25.1557L101.862 25.1744L102.321 25.1931L102.224 24.4286L102.428 24.0004L102.529 23.3562L103.138 23.2873L103.588 22.735L103.964 22.9532L104.34 23.164L104.038 22.902L103.729 22.6399L103.578 22.1344L104.129 21.8426L104.126 21.3013L104.499 21.0154L104.461 20.3182L105.204 20.0872L104.58 20.2154L104.111 20.5079L103.407 20.4056L103.559 19.9695L103.704 19.5407L103.327 19.3448L102.943 19.1413L103.337 19.0038L103.739 18.8664L103.944 18.275L103.515 18.1602L103.079 18.0453L103.285 17.3649L103.025 17.3924L102.314 17.2529L102.548 16.8546L102.788 16.4637L102.064 16.1832L102.269 15.5622L102.91 15.2488L102.258 15.1395L101.516 15.2519L101.981 14.6405L102.265 14.3537L101.778 14.0234L101.412 13.4865L100.784 13.2217L100.979 13.0232L101.565 12.917L101.34 12.3738L101.184 12.3799L100.6 12.1896L100.88 11.4877L100.52 11.1659L99.7924 11.2857L100.257 10.6669L100.928 10.3093L100.214 10.4738L99.7214 10.0396L99.0471 9.99685L99.2798 9.65038L99.276 9.22776L99.2648 8.79767L98.5983 8.71789L97.9742 8.8757L97.6019 8.19048L96.927 8.21441L96.4581 8.44026L96.4378 8.21027L96.0342 7.71013L95.5195 8.09128L95.2582 8.30406L94.9304 8.48662L94.4686 7.86737L93.8818 8.00326L93.1974 8.27176L92.6962 7.92648L92.7943 8.60196L92.298 8.55327L91.6624 8.32547L91.2147 7.78789L90.5608 7.96028L90.1511 8.18663L90.037 8.52669L89.5987 8.6416L89.1326 8.52644L88.4055 8.587L87.9546 8.42749L87.5788 9.03964L86.9219 8.68563L86.3947 8.78495L86.4862 9.35659L86.252 9.87356L85.8382 9.71437L85.5872 9.58621L85.1693 9.90887L84.5107 9.76984L84.1341 10.4635L84.1129 11.2121L83.3968 10.865L82.9179 11.3874L82.5895 10.7692L81.9383 10.6229L81.6761 10.9468L81.4139 11.2634L81.668 11.9031L81.8926 12.513L81.4568 12.3239L81.0211 12.1275L81.386 12.8052L81.0362 12.9654L80.7494 12.6886L80.3422 12.6259L79.9349 12.5705L79.9727 13.3641L80.4276 13.924L79.805 13.9039L79.4806 13.6935L79.3713 14.3376L78.8694 14.0739L78.3287 14.0248L78.2044 14.691L77.7051 14.9907L77.0723 15.3041L77.7964 15.592L77.6133 16.2058L77.8926 16.4825L77.4487 16.3823L77.1582 16.543L77.1007 17.2023L76.5843 16.894L76.1945 17.4096L75.4319 17.2845L75.1092 17.7489L74.7627 18.3909L75.109 18.6459L75.4553 18.9009L75.749 19.2296L76.0429 19.5509L75.329 19.8043L75.5077 20.5843L74.7611 20.3333L74.0649 20.2458L74.2141 21.0181L73.9169 21.0898L73.8337 21.2818L73.7619 21.8817L73.4158 22.4867L73.0159 22.424L72.6236 22.3614L72.0884 22.5199L71.3901 22.6845L71.1041 23.1936L70.5453 23.5225L70.7772 24.1547L71.1671 24.5064L71.5113 25.0135L70.8206 25.1485L70.2647 25.1437L69.8383 25.585L69.5882 25.353L69.0876 25.8158L69.0096 26.2674L69.3098 26.7148L68.6795 26.7243L68.1056 27.0901L67.6375 27.2047L66.9412 27.1395L66.8327 27.6946L66.9919 28.1556L66.3395 28.1501L66.0542 28.5777L65.6742 28.7969L65.4144 28.8392L64.9249 28.8572L64.2966 28.6443L63.6866 28.8838L63.9852 29.5239L63.8177 30.0341L63.0479 29.8941L62.6226 30.2093L62.4656 30.3636Z" fill="#8ACCFF"/>
<path d="M61.2434 27.997L61.1572 28.3809L61.6234 28.5432L61.9892 28.9838L62.4729 28.8672L63.0745 29.0684L62.8719 29.8359L62.9349 30.4097L63.2092 30.9776L62.5738 31.191L62.3419 31.8602L63.0001 31.6245L63.4643 32.0206L63.843 31.8277L64.2292 31.6424L63.7834 31.7442L63.3452 31.8386L63.1752 32.3198L62.6724 32.9114L63.0797 32.8997L63.4947 32.8806L64.0608 32.8326L64.2974 33.3927L64.52 33.817L64.4543 34.4499L64.1868 34.87L64.3112 34.4336L64.9751 34.4016L65.3871 33.847L65.9173 33.5799L66.5063 33.4944L66.9014 34.0408L67.0995 34.6911L67.2839 34.2929L67.4683 33.8948L68.1238 33.9607L68.6662 34.0407L68.8204 33.6498L68.967 33.2513L69.5999 33.3321L70.2195 33.1865L70.5623 32.7897L71.0395 32.5449L71.3991 32.827L71.8947 33.0876L71.9362 32.643L71.9776 32.1983L72.5219 32.0521L73.0366 31.8378L73.2388 32.0054L73.8113 32.0857L74.1446 31.9075L74.4529 32.0232L74.2762 31.5089L74.3796 30.8838L74.7219 30.5397L75.3497 30.3264L75.5856 30.0795L75.8337 30.1721L76.0879 29.5407L76.4824 29.2725L77.1852 29.105L77.2665 28.4119L77.7723 28.3558L78.1803 28.2612L78.5884 28.1666L78.5393 27.7288L78.4978 27.291L79.1708 27.078L79.3941 26.5369L79.7146 26.0946L79.6975 25.4383L80.2208 25.0958L80.1949 24.5978L80.4322 24.1851L80.0963 23.7749L80.6352 23.3722L81.3762 23.1447L81.0475 22.7799L80.7112 22.4151L81.1832 21.8987L81.8171 21.8512L82.1169 21.175L82.3406 20.5962L82.8016 20.4794L83.123 19.9316L83.8545 19.9378L84.1526 19.4727L84.7709 19.493L85.3906 19.3474L85.4877 18.5639L86.0484 18.2594L86.4865 18.1802L87.0966 18.2683L87.3122 17.7498L87.4365 17.3209L87.7568 16.9088L88.3455 16.8535L88.9176 16.9865L89.4526 17.0439L90.0127 16.7997L90.3765 16.5916L90.5902 16.2993L90.9786 15.8576L91.3922 15.9969L91.8057 16.1437L91.9603 16.59L92.1073 17.0438L92.7198 16.8604L93.23 17.1664L93.1295 16.5697L93.4345 16.1726L93.7698 15.7682L94.3961 15.7358L94.2998 16.4137L94.5977 16.8612L95.3135 16.9427L95.9935 16.8052L96.5104 16.3193L96.8773 16.6392L97.0783 16.9501L97.5672 17.0976L97.9353 17.2742L98.5913 17.2948L99.1644 17.3072L99.1313 17.6463L99.5748 17.8235L99.8548 17.7052L100.202 17.6705L100.146 18.0471L100.351 18.7653L100.752 18.5953L101.153 18.4327L101.422 17.892L102.171 17.5967L102.205 18.0872L102.246 18.5777L102.219 19.03L102.185 19.4747L102.838 19.9252L103.224 19.755L103.61 19.5848L103.289 20.0648L103.594 20.5425L104.238 20.2237L104.725 20.6125L105.126 20.3971L104.651 20.378L104.916 20.3426L105.034 19.7025L105.105 19.3185L104.602 19.1181L103.96 19.2333L103.543 18.5887L104.075 18.1257L104.523 17.7599L104.325 17.1247L103.789 17.1277L103.246 17.1382L103.572 16.8845L103.899 16.6384L103.985 16.2243L103.588 15.9419L103.088 16.1488L102.665 16.2282L102.25 16.3152L102.585 15.9183L102.928 15.514L103.075 15.0627L103.205 14.8828L102.741 14.449L102.136 14.6324L102.126 14.0591L102.739 13.8154L102.198 13.5469L101.72 12.9696L100.983 12.6843L101.477 12.2435L101.48 11.9871L101.075 11.7273L100.714 11.5131L100.362 11.3064L100.766 10.7518L100.927 10.3987L100.94 9.7954L100.48 9.76888L100.02 9.74236L100.071 9.07156L99.8027 8.72989L99.1278 8.27165L99.3828 7.55733L98.956 7.18416L98.5222 6.75813L98.0491 6.52032L98.4695 5.85265L97.9224 6.33824L97.5646 6.73493L97.074 6.77602L96.6549 6.39537L96.5163 5.84364L96.1961 5.35824L95.8014 4.76662L95.2283 4.74668L95.059 5.15251L94.8896 5.55834L94.4498 4.95126L93.9776 4.60032L94.2301 4.18011L93.4961 4.46049L93.2141 3.92262L93.3553 3.28275L92.9817 3.76227L92.5891 3.80419L92.2251 3.14496L91.6231 2.98902L91.3263 3.3108L91.0294 3.63259L90.535 3.22868L90.1384 2.8633L89.6458 2.25577L89.2675 2.39586L88.8816 2.54343L88.3466 2.4861L87.7882 2.51908L87.2232 2.44641L86.6537 2.01923L86.1151 2.38422L85.5605 1.96471L85.1337 2.48903L85.0029 2.80468L84.63 3.1937L84.5893 3.54783L84.4114 3.18431L83.9894 3.13548L84.0692 3.51325L83.6272 4.05253L83.1177 3.65603L83.1302 3.06786L82.7762 3.01961L82.256 2.98503L82.439 3.65027L81.8668 3.53229L81.7196 3.10116L81.5723 2.67756L81.4304 3.40792L81.3521 3.74665L80.6871 3.90693L80.0628 3.70555L79.6754 4.02657L79.3321 4.49126L79.4347 4.83906L79.2922 5.6373L78.8342 5.39207L78.3688 5.13924L78.2042 5.86942L77.4744 5.6596L77.296 6.24636L76.8398 6.67992L76.1311 6.65129L75.5919 7.08415L75.5946 7.6649L74.9683 7.6973L74.8365 8.12608L74.7122 8.54737L73.9582 8.5259L74.4527 8.90719L74.2601 9.38824L73.9286 9.34772L73.6165 9.68446L73.9097 9.80007L73.957 10.4491L73.3443 10.6626L72.7277 10.4462L72.85 11.1411L72.6122 11.6142L72.4485 12.2388L72.6397 12.8136L72.3426 13.1656L71.9807 13.1474L72.4539 13.3852L72.7881 13.9914L72.1548 13.971L71.4981 14.0333L71.2588 14.6799L70.8322 15.1891L71.1619 15.4408L71.4991 15.6925L71.6016 16.0629L71.9597 16.5185L71.6831 17.127L71.1822 17.4848L71.0039 18.064L70.4352 18.4212L70.3332 18.888L70.5415 19.2216L70.5075 19.6738L69.9463 20.0386L69.281 20.2366L69.708 20.5796L69.7629 21.2211L69.2552 21.4959L68.916 21.4779L68.2668 21.5403L67.9233 22.0351L68.5833 22.4706L68.6143 23.2553L68.1177 23.1228L67.6286 22.9829L67.2332 23.3718L66.7225 23.111L66.9733 23.7768L67.1276 24.2533L66.8803 24.0702L66.3446 24.0958L65.918 23.7151L65.4398 24.0655L65.1415 24.5607L65.5827 25.0019L65.1258 25.5184L65.2876 26.01L65.457 26.4942L64.9825 26.4147L64.5005 26.3277L64.2468 26.8987L63.8466 26.9556L63.3877 26.816L62.658 26.5986L62.4336 27.268L62.0007 27.6263L61.5561 27.5773L61.2434 27.997Z" fill="#E2F3FF"/>
<path d="M56.346 29.1573L56.4553 29.3733L56.3767 29.9064L56.298 30.4395L56.1299 31.0386L55.7218 31.0796L55.3136 31.128L55.353 31.7289L55.3409 32.2774L55.357 33.0041L54.9347 32.9634L54.5126 32.9154L54.089 33.0378L53.6653 33.1603L53.349 32.8759L53.0326 32.584L53.4489 32.4541L53.8652 32.3168L54.0984 31.9258L53.8502 31.4641L53.7029 31.3516L53.1874 30.9469L52.8444 31.1738L52.5089 31.3934L52.3587 30.7471L52.6071 30.3044L52.9756 29.6922L52.3383 29.6646L51.7734 29.8303L52.0665 29.3657L52.2781 28.893L51.8367 28.4889L51.365 28.1587L51.2372 27.4904L50.7694 27.5754L50.2943 27.6529L50.4536 27.2243L50.6129 26.7957L50.418 26.1787L49.7589 26.0989L49.3135 26.1619L48.9511 26.055L49.0515 25.5888L49.4201 24.9618L48.724 24.8669L48.2463 25.241L48.0879 24.6836L48.4679 24.4644L48.8553 24.2379L48.2362 23.81L47.6162 23.486L47.3136 23.3277L47.2159 22.6078L46.7932 22.619L46.3705 22.6303L46.1538 21.9612L46.0617 21.4563L45.7277 21.5053L45.3338 21.6132L44.5867 21.4141L44.4794 20.961L44.5945 20.4949L44.7963 20.3038L44.6756 20.5475L44.3451 20.1814L43.9271 19.6366L43.6336 19.2857L43.1915 18.9558L42.7314 19.0186L42.354 18.9264L41.6331 19.1427L41.6323 18.3643L41.2735 17.8349L40.5013 17.9766L40.374 17.2415L40.1709 17.5957L39.6605 17.4579L39.1135 17.2605L38.8971 16.5618L38.1172 16.7257L38.0263 16.0799L38.2751 15.5927L37.8804 15.797L37.3893 16.0078L37.2592 15.6212L37.1216 15.2345L37.0088 14.5515L36.4444 14.6653L35.7607 14.8523L34.9897 14.8532L34.9936 14.3861L35.0049 13.9266L34.2181 14.0459L33.6939 13.7894L33.6305 13.396L33.5672 12.9951L32.9205 13.1898L32.3058 13.1178L32.1103 12.5676L32.2638 11.9461L31.6458 12.2671L31.3618 12.5316L30.7465 12.5264L30.6704 11.8807L30.1974 11.7136L30.2599 11.3286L30.0326 11.9124L29.653 12.0871L29.2735 12.2544L29.1286 11.8602L28.991 11.4736L28.6184 11.6928L28.2533 11.9121L27.9101 11.2939L28.0918 10.8432L27.6402 10.7726L27.1979 11.3472L27.2829 10.9401L27.3605 10.533L27.4237 10.0739L27.4795 9.61473L27.0775 9.81149L26.668 10.0156L26.1711 10.0336L25.5484 10.0284L25.1446 9.56528L25.3333 9.17395L25.5219 8.78263L24.7864 8.96173L24.1585 8.70434L23.6954 9.10076L23.4998 9.44755L22.984 9.06508L22.3919 8.95626L22.3814 8.44463L22.3635 7.92552L21.6577 8.10488L21.2213 7.98256L20.5683 8.05116L20.155 7.83266L19.7069 7.34697L18.9569 7.48889L18.5389 7.81896L18.4118 7.95133L18.5689 7.78214L18.3279 7.35752L18.0395 7.26611L17.691 7.27798L17.2522 7.43737L16.8041 7.81908L16.4442 7.43052L16.3061 7.10314L16.601 7.2984L17.0823 7.3692L17.5324 7.61767L18.1311 7.83033L18.2433 8.58748L17.5578 8.98942L17.8499 9.51827L18.0432 9.45319L18.6887 9.39935L18.7355 9.99285L18.3688 10.3975L18.8649 10.4758L19.2348 10.5679L20.0142 10.4485L19.9144 10.8554L19.822 11.2624L20.2521 11.2512L20.6896 11.2401L20.5523 11.6912L20.4225 12.1349L20.838 12.1013L21.2459 12.0751L21.1685 12.4674L21.0836 12.8596L21.383 13.3959L21.2251 13.6541L21.4591 14.0416L21.7715 13.9182L22.3488 14.0343L22.3502 14.746L22.8228 14.965L22.8194 15.3728L22.8158 15.7879L23.3679 15.3848L23.9477 15.2044L24.2643 15.4591L24.5809 15.7139L24.6219 16.1294L24.6703 16.5376L24.584 17.1003L24.9481 16.9996L25.2049 16.4457L25.6396 16.7682L25.7269 16.9617L25.6416 17.4058L25.5652 17.6646L25.7827 17.3773L26.5019 17.3612L26.5134 17.7616L26.5322 18.1621L27.2453 17.9977L27.2929 18.5096L27.3404 19.0216L27.8851 18.611L28.3314 18.4443L28.0743 19.0352L28.0987 19.6582L28.5933 19.907L28.9825 20.3477L29.6627 20.5611L30.3405 20.1961L30.27 20.6403L30.2492 21.3371L30.6438 21.1402L31.0384 20.9508L31.4323 20.8355L31.8261 20.7277L32.3269 21.1248L32.1371 21.6496L32.3562 22.0444L32.8451 22.093L33.1141 21.8432L33.527 22.1062L33.2428 22.4004L32.9585 22.7019L33.6688 22.871L33.8866 22.5393L34.5228 22.7078L34.3502 22.9435L34.7178 23.3099L35.3714 23.1746L35.805 23.6157L36.0444 24.2405L36.6399 23.9564L37.4125 23.7776L37.7494 24.2623L37.5446 24.8092L38.2256 24.9336L38.5914 24.6327L38.9498 24.3318L39.0726 24.7184L39.1953 25.1123L39.5102 25.5672L40.097 25.4388L40.5682 25.8209L40.683 25.3993L40.6038 25.9991L40.9254 26.5356L41.2607 26.3383L41.5725 26.289L42.1946 26.3684L42.359 27.089L42.9062 27.2567L43.4606 27.4467L43.7816 27.19L44.1099 26.9407L44.6736 26.9084L45.1598 27.2758L45.0291 27.8307L45.4607 27.6342L45.9046 27.7492L46.3484 27.8642L46.5829 27.3175L46.9515 26.6831L47.2423 27.3676L46.7183 27.9563L47.0401 28.4779L47.2447 27.9607L47.7477 28.091L48.2359 28.2212L48.3524 27.592L48.8794 27.5149L49.009 27.9757L49.3193 28.1043L49.8834 28.0276L50.0581 28.3997L50.2255 28.7718L50.7877 28.9175L51.2999 28.8403L51.8001 29.3041L52.2411 28.8779L52.4529 28.383L52.9885 28.1725L53.5307 28.0585L54.0633 28.1964L54.5863 28.5864L55.1003 28.309L55.4175 28.4896L55.6077 28.7952L55.6919 28.4771L56.1612 28.2142L56.3658 28.5644L56.5704 28.9146L56.5424 29.6038L56.3682 30.0323L56.3786 30.5514L56.1588 31.1278L55.7712 31.3692L55.6106 31.9535L55.158 31.9941L54.7433 31.9313L54.3286 31.8759L54.7505 31.961L55.1649 32.0461L55.5329 32.368L55.8416 32.682L55.4483 32.7231L55.1691 33.299L54.3992 33.1665L54.7837 33.2884L55.1683 33.4028L55.4325 33.7164L54.8283 34.1487L54.9626 34.9209L55.2491 35.2347L55.5356 35.5485L54.9023 35.9138L54.289 35.6788L53.6516 35.6512L53.7819 36.0304L53.0395 36.1427L52.9088 36.6976L52.4014 36.2114L51.6223 36.2864L51.4564 36.6186L51.3042 37.0769L50.6908 36.8567L50.5165 37.2927L50.3423 37.7286L50.1602 37.349L49.9781 36.9693L49.7213 36.6558L49.4644 36.3422L49.4904 36.7798L49.5089 37.2174L49.2237 37.6302L48.7302 37.2553L48.4614 36.6006L48.4116 37.2229L48.2357 37.859L47.86 37.5815L47.4916 37.3115L47.0721 37.8195L46.4726 37.7032L46.2845 38.0278L46.014 38.4481L45.5255 38.355L44.9232 38.5649L44.9802 37.9649L44.4408 37.7527L44.2744 37.2694L43.8995 37.763L43.2436 38.1726L43.2551 38.573L43.0631 38.475L42.7701 38.0573L42.6919 37.6712L42.6662 38.0787L42.269 38.5795L41.6861 38.2483L41.5719 38.6032L41.2687 38.5117L40.758 38.411L40.7318 38.0104L40.7055 37.6098L40.473 37.9267L40.2404 38.2509L39.8397 38.2994L39.5113 38.5561L39.0744 38.5005L38.481 38.5325L38.2904 38.2714L37.9232 37.868L37.6533 38.2141L37.3835 38.5603L36.7559 38.2658L36.4444 38.2706L36.0062 38.3707L35.631 38.9013L35.7308 38.4944L35.8307 38.0801L35.1807 37.7928L34.7824 37.5596L34.3331 38.0896L33.6127 38.2318L33.2404 38.4214L32.8607 38.6183L32.3911 38.0435L32.0544 37.5291L31.4314 37.5609L31.039 37.4983L30.419 37.1742L30.1477 36.816L29.4961 36.7141L29.3156 37.0166L28.8344 36.9384L28.6823 36.5219L28.3448 36.1039L28.2237 35.5246L27.9452 36.0115L27.3421 36.3178L27.4141 35.6956L27.0674 35.4851L26.7079 35.0447L26.4493 34.9461L26.2576 34.8184L25.837 34.5776L25.5495 35.2647L24.981 34.9855L24.5792 35.1601L24.17 35.3345L24.0398 34.9479L23.9023 34.5538L23.6629 33.9364L23.0253 33.931L22.2673 34.1396L22.274 33.3538L22.3001 32.8944L21.9554 32.4615L21.6026 32.1026L20.8597 32.2817L20.4554 31.8705L20.1994 31.4532L19.6758 31.1299L19.8339 30.8495L19.9189 30.4351L20.004 30.0206L19.7196 30.337L19.4352 30.6534L18.814 30.4702L18.4691 30.9269L18.8884 30.4412L18.7683 29.7433L18.315 29.8655L17.8544 29.9802L18.0815 29.4261L18.3832 28.8207L17.6656 28.6367L17.0053 28.6904L16.6688 28.1538L16.3246 27.6541L15.8975 27.3169L16.2632 27.0234L16.0305 26.4951L15.4814 26.5498L15.078 26.917L14.8343 26.8037L14.5411 26.4083L14.6334 26.0162L14.7256 25.624L14.4411 25.0878L14.2139 24.7745L13.8105 24.2596L13.3804 24.2708L12.8622 24.1848L12.8726 23.829L12.5651 23.3742L12.7155 23.1234L12.302 22.9271L11.6328 23.1587L11.7355 22.4108L12.2721 22.0817L11.716 22.0844L11.3867 21.5775L10.6949 21.846L10.8244 21.4393L10.9613 21.0327L11.4418 21.1999L11.8758 20.7217L11.5472 20.1406L10.8384 19.7936L11.5647 19.822L11.7895 19.5347L11.9032 19.2466L11.6844 18.8221L11.3439 18.7525L11.3927 18.2414L11.8846 17.9416L12.363 18.3534L12.5792 18.2144L12.3592 17.9234L12.3335 17.4561L12.2932 16.9664L12.5359 16.3161L12.4577 15.9225L12.7565 15.6656L13.2693 15.5142L13.594 15.6949L13.4782 15.3603L13.3478 14.9959L13.5664 14.5752L13.9042 14.0739L13.5465 13.4259L13.9799 13.0218L13.8052 12.6422L13.6379 12.2627L14.0448 12.3625L14.4442 12.4697L14.8617 12.1915L14.978 11.5994L14.6627 11.189L14.4797 10.9057L14.6412 10.225L15.339 10.1197L15.3368 9.49697L15.6366 9.12141L16.1737 8.72563L16.5549 8.35817L16.9725 8.07258L17.5573 8.17391L18.0218 7.60699L18.3155 7.9431L18.6018 8.27914L18.9089 7.90365L19.216 7.53556L19.4324 8.2417L19.7714 8.48181L20.2782 8.16732L20.3194 7.67836L20.7371 7.38536L21.0893 7.81834L21.1724 8.50852L21.8624 8.44764L22.4274 8.26709L22.8524 7.98156L23.1133 7.80584L23.5368 7.70564L23.9912 7.45001L24.5965 7.75169L25.0962 7.40007L25.5308 7.72995L26.1304 7.83883L26.0898 8.25365L26.0493 8.66848L26.5132 8.16086L26.7242 7.76231L26.5422 8.24266L26.7239 8.6742L27.0333 8.90664L27.23 8.43383L27.8691 8.25391L28.2691 8.29437L28.5191 8.54114L28.8815 8.64059L29.254 9.30357L29.73 9.12226L30.2153 9.60085L30.6746 9.64181L31.0702 9.32638L31.5864 8.77472L32.1838 9.14306L32.4308 9.73825L32.8886 9.95713L32.8036 10.3642L33.3671 10.3541L33.9888 10.4854L34.2665 10.9548L34.5782 10.9204L35.0561 10.5167L35.178 10.9996L35.3 11.4751L35.746 11.3455L36.1919 11.2158L36.2376 11.9427L36.8289 12.1553L36.4644 12.3005L36.564 12.7981L36.7251 13.0293L37.288 13.1008L37.704 12.9931L38.2078 13.0418L38.329 13.6063L37.9098 14.0847L38.585 14.0162L39.2121 14.3774L38.8664 14.9305L38.6601 15.6479L39.1365 15.4295L39.6128 15.2111L40.2618 15.617L40.5596 16.3461L40.4521 16.7826L40.9105 16.9199L41.4441 16.9467L41.9842 17.0773L41.7215 17.4606L41.4513 17.8512L41.6751 18.5574L42.3032 18.8074L42.7143 19.2779L43.1521 19.2297L43.59 19.1815L43.4457 19.5881L43.3088 19.9947L43.4067 20.685L44.1328 20.7356L44.746 20.9855L44.7073 21.1853L44.186 21.4626L44.5907 21.8145L44.7688 21.8012L45.264 21.9759L45.7294 22.1726L45.9554 22.6267L45.9292 23.0936L45.903 23.5604L46.3793 23.342L46.8483 23.1162L47.5964 23.1967L47.5757 23.886L48.0246 24.2827L47.6629 24.9765L48.0643 24.8539L48.4656 24.7313L48.7368 25.1043L48.555 25.555L48.9203 26.1956L49.1311 25.8119L49.342 25.4282L49.9932 25.5671L50.7583 25.3883L50.73 26.1072L50.4304 26.4605L50.1234 26.8212L50.9024 26.761L51.3555 26.6611L51.8563 26.1686L52.3354 26.5063L52.5897 27.1164L52.9512 27.3196L52.9246 27.8383L53.5704 27.74L54.1099 27.9448L54.4537 28.4963L55.1671 28.2948L55.1848 28.8287L55.1951 29.3626L55.9207 29.4799L56.346 29.1573Z" fill="#8ACCFF"/>
<path d="M56.9686 26.7116L56.3502 27.0697L56.5534 27.583L56.1511 27.8168L55.7487 28.058L55.9757 28.3936L56.1952 28.7365L56.0361 29.1429L56.2534 29.7378L56.0113 30.3214L55.4605 30.5688L54.7804 30.3407L55.438 30.6057L55.1078 31.0774L55.0605 31.4032L54.4606 31.3314L54.6033 31.9924L54.4058 32.5542L54.6303 33.1862L53.9537 33.4103L53.4263 33.5319L53.1539 33.3072L52.8365 33.1414L52.3397 33.152L51.729 33.4804L51.2431 33.076L50.6485 33.2563L50.2681 32.6526L50.242 32.2297L49.5836 32.0685L49.6066 32.8545L48.9844 32.7825L48.4652 32.8152L47.9615 32.7664L47.8844 32.2394L47.7192 31.6153L47.0428 31.8171L46.6046 31.9098L46.3801 32.1525L45.9328 31.5779L45.7755 30.8871L45.4393 30.3208L44.8469 30.2416L44.2248 30.1548L44.0373 30.4127L43.6773 30.0315L43.2682 30.1912L42.8517 30.3507L42.6654 29.5855L42.3658 29.0715L42.0285 28.6238L41.8391 28.2367L41.4244 28.1812L40.9232 27.836L40.4762 28.0917L40.3631 27.4383L39.9174 27.5457L39.4716 27.6606L39.3589 26.9627L39.7028 26.6172L39.4336 26.0218L39.5497 25.4371L39.0295 25.581L38.5726 25.2657L37.9801 25.194L37.896 24.615L38.1234 24.0312L38.4009 23.6555L38.0147 23.7264L37.3469 23.7948L37.657 23.0709L37.3581 22.4827L36.9004 22.249L36.5814 22.2685L36.494 22.0899L36.6237 21.6535L36.7578 21.5731L36.6676 21.7281L36.0858 21.2709L35.8014 21.5799L35.5097 21.8813L35.4541 21.4509L35.3984 21.0204L36.1131 20.6632L36.1182 20.0701L35.4914 19.6645L35.1527 20.2695L34.6267 20.228L34.1953 20.3949L34.3419 19.7141L34.2639 19.2908L34.186 18.8602L33.4971 18.795L33.1905 19.1038L32.8813 18.8491L32.3268 18.6665L32.1544 18.0126L31.3816 18.2285L31.3782 17.7539L31.3674 17.2794L30.6986 17.4665L30.0385 17.4905L29.6641 17.0574L29.8176 16.4433L29.605 17.0346L29.079 16.9931L28.7794 16.479L28.0614 16.3469L27.69 16.4327L27.2755 16.3476L26.89 16.3444L26.3903 16.696L25.7191 16.29L25.4184 15.9019L25.0444 16.2991L24.3029 16.315L23.7536 16.3993L23.418 16.6263L23.0825 16.8533L23.1383 16.3867L23.1868 15.92L22.9225 15.6064L22.6509 15.2928L22.5955 15.7074L22.54 16.1221L22.2394 16.6015L21.7066 16.4858L21.4349 16.1869L21.163 15.8955L20.9079 16.2566L20.6602 16.6178L19.9203 16.441L19.5681 16.8828L19.0173 17.145L18.5896 17.7493L18.4182 16.9769L17.9284 17.0394L18.0287 17.4406L17.6122 17.6002L17.2063 17.3818L16.7443 16.7847L16.687 17.4292L17.0538 17.8846L16.5705 18.0436L16.2126 18.2852L15.9647 17.7938L15.3139 17.6104L14.7781 17.8505L14.9675 18.2376L14.7337 18.7101L14.695 18.9025L14.1237 18.957L14.0976 19.409L14.0715 19.861L13.4357 19.6555L12.9884 19.0734L13.1981 19.6979L12.9945 20.104L12.4263 19.7878L11.8514 19.3974L11.8232 20.094L11.7234 20.4935L11.6018 20.8483L11.1266 20.9333L11.2935 20.4899L11.3865 20.0088L11.9527 19.68L11.9805 19.0352L12.5323 18.6544L12.1055 18.2726L11.8198 17.8773L12.2282 17.7918L12.6367 17.7063L12.4207 16.9557L12.1939 16.5979L11.9746 16.2328L12.7061 16.5207L13.2134 16.1395L13.0791 15.3747L13.1039 15.0636L13.4468 14.8515L13.8691 14.8773L14.2916 14.8957L13.9675 14.6409L13.6435 14.3786L13.2913 13.9531L13.4736 13.4357L13.8495 12.8161L13.7934 12.4375L14.1094 11.899L14.5721 11.5396L14.4645 11.1087L14.357 10.6704L14.7504 10.6219L15.1511 10.5808L14.8003 9.97729L15.2232 9.93639L15.6387 9.90284L15.926 9.24546L15.6314 9.02055L15.4197 8.62583L15.2155 8.23117L15.5991 8.44942L15.9902 8.66773L16.2599 8.3364L16.2263 7.92836L16.1927 7.52032L16.6001 7.56084L17.0149 7.60884L17.5443 8.12488L17.4451 7.58284L17.5062 7.36836L18.1087 7.13622L18.2084 6.74414L17.6104 6.44252L17.8804 6.07413L18.1167 6.19475L18.4171 6.61246L18.8166 6.71223L19.2235 6.81206L19.0045 6.40986L18.7928 6.01514L18.6727 5.31723L18.8922 5.66012L19.1192 5.99566L19.8667 6.14286L19.865 5.47561L19.8388 5.06022L20.1422 5.12952L20.5236 5.62205L21.2002 5.38314L21.3765 4.70998L21.8761 4.36577L22.4898 4.55632L22.7471 3.93575L23.1753 4.15437L23.6035 4.36559L23.3726 3.62226L23.7516 3.50685L23.8525 3.85615L24.2261 3.50346L24.5489 3.03913L25.2635 2.69674L25.6248 2.92963L26.2633 2.82384L26.3464 3.51402L26.8688 3.10328L27.3521 2.94427L28.0294 2.62381L28.4264 2.14529L28.838 2.57136L29.6022 2.49628L29.7992 2.86864L30.0037 3.23365L30.4761 2.60748L30.9839 3.04178L31.5664 3.41741L31.8243 2.73753L32.2282 2.31837L32.4024 2.75726L32.5841 3.1888L33.1939 2.96414L33.6643 3.45002L33.9865 3.04499L34.3086 2.64738L34.6365 3.33223L34.8377 4.0753L35.5412 4.17023L35.575 3.68863L36.324 3.66532L36.5142 3.08866L37.0812 3.53829L37.3438 4.04465L37.1782 4.34721L37.7024 4.60372L37.9456 3.89406L38.5725 4.28489L38.5675 4.87053L38.6243 5.16756L38.9627 5.48181L39.4295 5.50801L39.9084 5.86793L40.0356 5.72073L40.2042 5.95198L40.0885 6.47738L40.5304 6.82215L40.703 7.45378L41.2509 7.53998L41.3258 8.31905L41.6175 8.02498L41.9165 7.73096L42.3411 7.48991L42.9503 7.33939L43.4644 7.92201L43.5264 8.47857L43.1317 8.68281L42.7371 8.87963L43.1656 9.06119L43.5941 9.23534L43.2346 9.66229L42.8752 10.0818L43.2969 10.1892L43.726 10.2892L44.1256 10.3816L44.3302 10.7243L45.0542 11.0344L44.7176 11.3874L44.3735 11.7404L44.7853 12.1368L45.1372 12.6068L45.0499 13.2882L45.2183 13.5417L45.9163 13.4067L45.9574 13.8074L45.9985 14.2081L45.609 14.6719L44.8509 14.9027L45.4405 15.3154L45.781 15.3776L46.1183 15.8179L46.5837 16.0146L46.1359 16.3592L45.7597 17.0159L46.2362 17.6427L46.8067 17.6846L47.4327 17.3118L47.3306 17.9781L47.3987 18.6978L47.8605 18.4423L48.6453 18.5601L48.4126 18.8992L48.1725 19.2456L47.9991 19.5852L48.4953 19.6413L48.9478 19.6155L48.9373 19.9712L48.8371 20.4226L49.0852 20.8918L49.6761 21.1489L50.2453 21.3464L50.2367 21.4872L50.0994 21.9457L50.1792 22.154L50.3918 22.4375L50.8553 21.9744L51.2066 22.5111L51.2035 22.8818L51.2364 23.3788L51.7998 23.3761L52.2032 23.0163L52.9002 23.0074L53.0058 23.6681L52.7792 24.1555L52.7513 24.8299L53.2894 25.1977L53.5961 25.7415L54.3165 25.5919L55.0505 25.5907L55.505 25.3277L55.9521 25.0572L55.9113 25.5017L55.8778 25.9462L55.8673 26.3094L56.4843 26.1144L56.9686 26.7116Z" fill="#E2F3FF"/>
<path d="M64.548 27.7904L64.8933 28.164L65.1862 28.5891L64.8982 29.3354L64.5763 29.7034L64.0404 29.9435L64.6881 30.505L64.1799 30.99L64.6537 31.0607L64.6566 31.5945L64.4299 32.1042L64.6027 32.7136L64.1836 33.1696L64.1788 33.7405L64.1315 34.0663L63.9782 34.6581L63.3929 34.616L63.2994 35.149L63.3395 35.6757L63.4998 35.9959L63.9852 36.4597L62.9008 36.6951L63.3913 37.4258L63.0043 37.6005L62.5092 37.4109L62.0506 38.1632L61.6573 37.337L60.9476 37.1011L60.6335 36.5425L60.0403 36.5597L60.041 37.3529L59.424 37.5479L58.9378 37.1731L58.5371 36.3468L58.087 36.9657L57.8106 37.2154L57.3216 37.1742L56.6901 37.3394L56.7105 36.6797L56.4626 36.1883L55.9619 36.6585L55.079 36.74L54.8776 36.0044L54.4783 35.8898L53.7572 36.1209L54.0004 35.4112L54.121 35.175L54.0203 34.8183L53.3122 34.3823L54.2679 34.472L54.657 34.0453L54.7282 33.5195L54.3458 33.153L53.645 32.7319L54.4041 32.3899L54.8264 32.4231L54.9344 31.9273L55.0498 31.439L55.6348 31.5181L55.0398 30.868L55.9554 30.431L55.5518 29.9308L55.2867 29.721L55.6676 29.3906L56.1102 28.7864L55.3367 28.1942L55.5206 27.4914L55.6322 26.5731L56.2453 26.8378L56.7593 26.553L57.1845 27.1126L57.4976 26.9077L57.725 26.3239L58.291 26.8996L58.7882 26.8445L59.2325 26.9002L59.249 27.5749L59.7264 27.238L60.0657 26.5662L60.0142 27.3887L60.1112 28.1902L60.6785 27.7353L60.9267 27.3223L61.2166 28.1032L61.8983 28.146L62.3969 27.9204L62.5341 27.4768L62.4189 27.9577L62.8446 28.458L63.2709 28.0242L63.5993 27.7601L64.0011 27.593L64.548 27.7904Z" fill="#BADFFF"/>
</g>
<defs>
<clipPath id="clip0_3200_7105">
<rect width="120" height="75" fill="white"/>
</clipPath>
</defs>
</svg>
