<svg xmlns="http://www.w3.org/2000/svg" viewBox="0 0 56 56" fill="none">
  <path d="M14.9715 33.8333V25.6667V33.8333ZM14.9715 25.6667V11.0833C14.9715 10.0004 15.4017 8.96175 16.1675 8.19598C16.9333 7.43021 17.9719 7 19.0548 7C20.1378 7 21.1764 7.43021 21.9422 8.19598C22.708 8.96175 23.1382 10.0004 23.1382 11.0833V23.3333L30.3179 24.4487C34.8189 25.123 37.0682 25.4613 38.6525 26.4087C41.2705 27.979 43.1675 30.3333 43.1675 33.7727C43.1675 36.1667 42.5748 37.7743 41.1375 42.091C40.2229 44.8303 39.7679 46.1977 39.0235 47.2827C37.7973 49.0681 35.9883 50.3714 33.9065 50.9693C32.6442 51.3333 31.1999 51.3333 28.3135 51.3333H25.0352C20.8702 51.3333 18.7888 51.3333 17.0015 50.5517C16.1932 50.1986 15.4391 49.7328 14.7615 49.168C13.2635 47.9197 12.3348 46.0577 10.4705 42.3313C8.96085 39.312 8.20718 37.8047 8.16985 36.2367C8.15349 35.531 8.24396 34.8269 8.43818 34.1483C8.86752 32.641 9.97818 31.3717 12.2042 28.8283L14.9715 25.6667Z" fill="url(#paint0_linear_3190_9819)"/>
  <path d="M14.9715 33.8333V25.6667M14.9715 25.6667V11.0833C14.9715 10.0004 15.4017 8.96175 16.1675 8.19598C16.9333 7.43021 17.9719 7 19.0548 7C20.1378 7 21.1764 7.43021 21.9422 8.19598C22.708 8.96175 23.1382 10.0004 23.1382 11.0833V23.3333L30.3179 24.4487C34.8189 25.123 37.0682 25.4613 38.6525 26.4087C41.2705 27.979 43.1675 30.3333 43.1675 33.7727C43.1675 36.1667 42.5748 37.7743 41.1375 42.091C40.2228 44.8303 39.7679 46.1977 39.0235 47.2827C37.7973 49.0681 35.9883 50.3714 33.9065 50.9693C32.6442 51.3333 31.1999 51.3333 28.3135 51.3333H25.0352C20.8702 51.3333 18.7888 51.3333 17.0015 50.5517C16.1932 50.1986 15.4391 49.7328 14.7615 49.168C13.2635 47.9197 12.3348 46.0577 10.4705 42.3313C8.96085 39.312 8.20718 37.8047 8.16985 36.2367C8.15349 35.531 8.24396 34.8269 8.43818 34.1483C8.86752 32.641 9.97818 31.3717 12.2042 28.8283L14.9715 25.6667Z" stroke="white" stroke-width="2" stroke-linecap="round" stroke-linejoin="round"/>
  <defs>
    <linearGradient id="paint0_linear_3190_9819" x1="25.6677" y1="7" x2="25.6677" y2="51.3333" gradientUnits="userSpaceOnUse">
      <stop stop-color="#88F3FE"/>
      <stop offset="1" stop-color="#0087FF"/>
    </linearGradient>
  </defs>
</svg>