<svg  viewBox="0 0 24 25" fill="none" xmlns="http://www.w3.org/2000/svg">
<path fill-rule="evenodd" clip-rule="evenodd" d="M7.598 5.44733C7.865 4.13733 9.031 3.21033 10.366 3.21033H13.634C14.969 3.21033 16.134 4.13733 16.402 5.44733C16.4315 5.59158 16.5088 5.7217 16.6212 5.81675C16.7337 5.91179 16.8748 5.96624 17.022 5.97133H17.055C18.458 6.03333 19.536 6.20533 20.436 6.79633C21.003 7.16833 21.491 7.64633 21.871 8.20533C22.344 8.89933 22.552 9.69733 22.652 10.6613C22.75 11.6043 22.75 12.7853 22.75 14.2813V14.3663C22.75 15.8623 22.75 17.0443 22.652 17.9863C22.552 18.9503 22.344 19.7483 21.871 20.4433C21.4889 21.0019 21.0015 21.4805 20.436 21.8523C19.733 22.3133 18.926 22.5173 17.948 22.6143C16.99 22.7103 15.789 22.7103 14.263 22.7103H9.737C8.211 22.7103 7.01 22.7103 6.052 22.6143C5.074 22.5173 4.267 22.3143 3.564 21.8523C2.99844 21.4802 2.51099 21.0013 2.129 20.4423C1.656 19.7483 1.448 18.9503 1.348 17.9863C1.25 17.0443 1.25 15.8623 1.25 14.3663V14.2813C1.25 12.7853 1.25 11.6043 1.348 10.6613C1.448 9.69733 1.656 8.89933 2.129 8.20533C2.51099 7.6464 2.99844 7.16743 3.564 6.79533C4.464 6.20533 5.542 6.03333 6.945 5.97233L6.962 5.97133H6.978C7.12516 5.96624 7.26632 5.91179 7.37879 5.81675C7.49125 5.7217 7.56846 5.59158 7.598 5.44733ZM10.366 4.71033C9.726 4.71033 9.189 5.15333 9.068 5.74633C8.873 6.70633 8.021 7.46233 6.996 7.47133C5.648 7.53133 4.926 7.69633 4.386 8.05033C3.98545 8.31425 3.64004 8.65355 3.369 9.04933C3.093 9.45433 2.927 9.97333 2.839 10.8163C2.751 11.6723 2.75 12.7763 2.75 14.3243C2.75 15.8723 2.75 16.9753 2.84 17.8313C2.927 18.6743 3.093 19.1933 3.37 19.5993C3.638 19.9933 3.983 20.3333 4.387 20.5983C4.804 20.8713 5.338 21.0363 6.201 21.1223C7.075 21.2093 8.201 21.2103 9.778 21.2103H14.222C15.798 21.2103 16.924 21.2103 17.799 21.1223C18.662 21.0363 19.196 20.8723 19.613 20.5983C20.017 20.3333 20.363 19.9933 20.631 19.5983C20.907 19.1933 21.073 18.6743 21.161 17.8313C21.249 16.9753 21.25 15.8713 21.25 14.3243C21.25 12.7773 21.25 11.6723 21.16 10.8163C21.073 9.97333 20.907 9.45433 20.63 9.04933C20.3591 8.65319 20.0136 8.31355 19.613 8.04933C19.075 7.69633 18.353 7.53133 17.003 7.47133C15.979 7.46133 15.127 6.70733 14.932 5.74633C14.868 5.4506 14.7039 5.18602 14.4674 4.99727C14.2309 4.80852 13.9366 4.70717 13.634 4.71033H10.366ZM12 11.7103C11.4033 11.7103 10.831 11.9474 10.409 12.3693C9.98705 12.7913 9.75 13.3636 9.75 13.9603C9.75 14.5571 9.98705 15.1294 10.409 15.5513C10.831 15.9733 11.4033 16.2103 12 16.2103C12.5967 16.2103 13.169 15.9733 13.591 15.5513C14.0129 15.1294 14.25 14.5571 14.25 13.9603C14.25 13.3636 14.0129 12.7913 13.591 12.3693C13.169 11.9474 12.5967 11.7103 12 11.7103ZM8.25 13.9603C8.25 12.9658 8.64509 12.0119 9.34835 11.3087C10.0516 10.6054 11.0054 10.2103 12 10.2103C12.9946 10.2103 13.9484 10.6054 14.6517 11.3087C15.3549 12.0119 15.75 12.9658 15.75 13.9603C15.75 14.9549 15.3549 15.9087 14.6517 16.612C13.9484 17.3152 12.9946 17.7103 12 17.7103C11.0054 17.7103 10.0516 17.3152 9.34835 16.612C8.64509 15.9087 8.25 14.9549 8.25 13.9603ZM17.25 10.9603C17.25 10.7614 17.329 10.5706 17.4697 10.43C17.6103 10.2893 17.8011 10.2103 18 10.2103H19C19.1989 10.2103 19.3897 10.2893 19.5303 10.43C19.671 10.5706 19.75 10.7614 19.75 10.9603C19.75 11.1592 19.671 11.35 19.5303 11.4907C19.3897 11.6313 19.1989 11.7103 19 11.7103H18C17.8011 11.7103 17.6103 11.6313 17.4697 11.4907C17.329 11.35 17.25 11.1592 17.25 10.9603Z" fill="#75777E"/>
</svg>
