<svg width="20" height="20" viewBox="0 0 20 20" fill="none" xmlns="http://www.w3.org/2000/svg">
<g clip-path="url(#clip0_3365_7523)">
<path d="M3.07125 18.8566L12.6141 15.2994C12.8966 15.1996 13.1494 15.0304 13.3493 14.8073C13.5493 14.5842 13.6899 14.3144 13.7582 14.0227C13.8264 13.731 13.8203 13.4269 13.7402 13.1382C13.6601 12.8495 13.5086 12.5856 13.2998 12.3708L7.3141 6.38512C7.09299 6.17788 6.82314 6.02982 6.52955 5.95467C6.23597 5.87951 5.92816 5.8797 5.63467 5.95521C5.34117 6.03072 5.0715 6.17911 4.85064 6.38662C4.62978 6.59413 4.46489 6.85404 4.37125 7.14227L0.82839 16.6851C0.729978 16.9943 0.719814 17.3248 0.799045 17.6394C0.878274 17.954 1.04375 18.2403 1.27685 18.4659C1.50995 18.6916 1.80141 18.8477 2.11843 18.9168C2.43545 18.9858 2.76543 18.9649 3.07125 18.8566Z" fill="#BADFFF"/>
<path d="M17.0709 10.1855C16.4365 9.83145 15.6936 9.7246 14.9852 9.88546M13.8137 6.11403C14.2183 5.50417 14.3859 4.76747 14.2852 4.04261M10.528 1.02832C11.0287 2.56214 10.9628 4.22465 10.3423 5.71403M3.07087 18.8569L12.6137 15.2997C12.8962 15.2 13.149 15.0308 13.349 14.8077C13.5489 14.5846 13.6895 14.3147 13.7578 14.0231C13.8261 13.7314 13.8199 13.4272 13.7398 13.1385C13.6597 12.8499 13.5083 12.586 13.2994 12.3712L7.31373 6.38546C7.09262 6.17822 6.82276 6.03016 6.52918 5.95501C6.23559 5.87985 5.92778 5.88004 5.63429 5.95555C5.3408 6.03106 5.07112 6.17945 4.85026 6.38696C4.6294 6.59447 4.46451 6.85438 4.37087 7.14261L0.828014 16.6855C0.729602 16.9946 0.719439 17.3251 0.798668 17.6397C0.877898 17.9544 1.04338 18.2406 1.27647 18.4663C1.50957 18.692 1.80103 18.8481 2.11805 18.9171C2.43507 18.9861 2.76506 18.9653 3.07087 18.8569ZM18.5709 5.39975C18.3814 5.39975 18.1997 5.32449 18.0658 5.19054C17.9318 5.05659 17.8566 4.8749 17.8566 4.68546C17.8566 4.49602 17.9318 4.31434 18.0658 4.18039C18.1997 4.04643 18.3814 3.97118 18.5709 3.97118C18.7603 3.97118 18.942 4.04643 19.0759 4.18039C19.2099 4.31434 19.2852 4.49602 19.2852 4.68546C19.2852 4.8749 19.2099 5.05659 19.0759 5.19054C18.942 5.32449 18.7603 5.39975 18.5709 5.39975Z" stroke="#07A6FF" stroke-width="1.42857" stroke-linecap="round" stroke-linejoin="round"/>
</g>
<defs>
<clipPath id="clip0_3365_7523">
<rect width="20" height="20" fill="white" transform="matrix(-1 0 0 1 20 0)"/>
</clipPath>
</defs>
</svg>
