<svg xmlns="http://www.w3.org/2000/svg"  viewBox="0 0 28 28" fill="none">
  <path d="M17.5706 11.4685C18.2283 11.2496 18.9393 11.2496 19.5971 11.4685C20.0264 11.612 20.3811 11.8629 20.7252 12.1639C21.0542 12.4532 21.4276 12.8394 21.8744 13.3014C22.408 13.8559 22.9423 14.4097 23.4774 14.9627C24.0001 15.5017 24.2101 16.071 24.2077 16.8317C24.2007 18.7672 24.1599 20.0949 23.6046 21.1834C23.073 22.2258 22.2252 23.0732 21.1826 23.6042C19.6134 24.4045 17.6067 24.2085 15.9057 24.2085H12.0954C10.8214 24.2085 9.81106 24.2085 8.99789 24.142C8.16489 24.0744 7.46139 23.932 6.81856 23.6054C5.77572 23.074 4.92788 22.2262 4.39656 21.1834C4.05239 20.5079 3.91823 19.7729 3.84823 18.878C3.74556 17.5247 4.89356 16.4292 5.77673 15.539C6.13489 15.1774 6.51289 14.874 6.98189 14.7014C7.69346 14.4411 8.47416 14.4411 9.18573 14.7014C9.65473 14.874 10.0327 15.1774 10.3909 15.539C10.7386 15.889 11.1282 16.3557 11.5996 16.9215C11.6404 16.9717 11.7046 17.0184 11.7641 16.9565L15.2932 13.3014C15.7412 12.8394 16.1134 12.4532 16.4424 12.1639C16.7866 11.8629 17.1424 11.612 17.5706 11.4685ZM17.5974 13.4787C17.3291 13.7144 17.0059 14.048 16.5276 14.5439L13.0229 18.1722C12.8431 18.3585 12.626 18.5049 12.3859 18.6017C12.1457 18.6986 11.8879 18.7437 11.6291 18.7343C11.3703 18.7248 11.1164 18.6609 10.884 18.5468C10.6516 18.4327 10.4458 18.2708 10.2801 18.0719C9.77723 17.4699 9.43539 17.0604 9.14839 16.7722C8.86839 16.4887 8.70506 16.3895 8.58489 16.3452C8.26133 16.2268 7.90629 16.2268 7.58273 16.3452C7.46256 16.3895 7.30039 16.4887 7.01923 16.7722C6.58756 17.2062 6.20606 17.6904 5.81523 18.1605C5.62739 18.3857 5.57606 18.5047 5.59706 18.7905C5.65539 19.5559 5.76856 20.0214 5.95523 20.3889C6.31871 21.1021 6.89863 21.682 7.61189 22.0455C7.96773 22.2264 8.41689 22.3384 9.14023 22.3979C9.87523 22.4574 10.8132 22.4585 12.1339 22.4585H15.8672C17.2579 22.4585 19.0931 22.7059 20.3892 22.0455C21.1025 21.682 21.6824 21.1021 22.0459 20.3889C22.3749 19.7414 22.4496 18.8687 22.4577 16.8259C22.4589 16.5062 22.4099 16.3755 22.1801 16.1387L20.6401 14.5439C20.1617 14.048 19.8397 13.7155 19.5702 13.4787C18.9694 12.9514 18.2239 12.928 17.5974 13.4787Z" fill="currentColor"/>
  <path d="M12.0952 3.7915H15.9055C17.1795 3.7915 18.1898 3.7915 19.003 3.858C19.836 3.92567 20.5395 4.068 21.1835 4.39467C22.2261 4.92649 23.0735 5.77474 23.6043 6.81784C23.9322 7.4595 24.0745 8.16417 24.1422 8.99717C24.2087 9.81034 24.2087 10.8207 24.2087 12.0947V15.905C24.2087 17.179 24.2087 18.1893 24.1422 19.0025C24.0745 19.8355 23.9322 20.539 23.6055 21.183C23.0737 22.2256 22.2254 23.073 21.1823 23.6038C20.5407 23.9317 19.836 24.074 19.003 24.1417C18.1898 24.2082 17.1795 24.2082 15.9055 24.2082H12.0952C10.8212 24.2082 9.81083 24.2082 8.99766 24.1417C8.16466 24.074 7.46116 23.9317 6.81833 23.605C5.77549 23.0737 4.92764 22.2258 4.39633 21.183C4.06849 20.539 3.92616 19.8355 3.85849 19.0025C3.79199 18.1893 3.79199 17.179 3.79199 15.905V12.0947C3.79199 10.8207 3.79199 9.81034 3.85849 8.99717C3.92616 8.16417 4.06849 7.46067 4.39516 6.81784C4.92678 5.77482 5.77505 4.92696 6.81833 4.39584C7.45999 4.068 8.16466 3.92567 8.99766 3.858C9.81083 3.7915 10.8212 3.7915 12.0952 3.7915ZM9.13999 5.60217C8.41666 5.6605 7.96749 5.77367 7.61166 5.9545C6.8984 6.31799 6.31848 6.89791 5.95499 7.61117C5.77416 7.967 5.66216 8.41617 5.60266 9.1395C5.54316 9.8745 5.54199 10.8125 5.54199 12.1332V15.8665C5.54199 17.1883 5.54199 18.1263 5.60266 18.8602C5.66099 19.5835 5.77416 20.0327 5.95499 20.3885C6.31848 21.1018 6.8984 21.6817 7.61166 22.0452C7.96749 22.226 8.41666 22.338 9.13999 22.3975C9.87499 22.457 10.813 22.4582 12.1337 22.4582H15.867C17.1888 22.4582 18.1268 22.4582 18.8607 22.3975C19.584 22.3392 20.0332 22.226 20.389 22.0452C21.1023 21.6817 21.6822 21.1018 22.0457 20.3885C22.2265 20.0327 22.3385 19.5835 22.398 18.8602C22.4575 18.1252 22.4587 17.1872 22.4587 15.8665V12.1332C22.4587 10.8125 22.4587 9.87334 22.398 9.1395C22.3397 8.41617 22.2265 7.967 22.0457 7.61117C21.6822 6.89791 21.1023 6.31799 20.389 5.9545C20.0332 5.77367 19.584 5.66167 18.8607 5.60217C18.1257 5.54267 17.1877 5.5415 15.867 5.5415H12.1337C10.813 5.5415 9.87383 5.5415 9.13999 5.60217Z" fill="currentColor"/>
  <path d="M11.6663 9.0415C11.2796 9.0415 10.9086 9.19515 10.6351 9.46864C10.3617 9.74213 10.208 10.1131 10.208 10.4998C10.208 10.8866 10.3617 11.2575 10.6351 11.531C10.9086 11.8045 11.2796 11.9582 11.6663 11.9582C12.0531 11.9582 12.424 11.8045 12.6975 11.531C12.971 11.2575 13.1247 10.8866 13.1247 10.4998C13.1247 10.1131 12.971 9.74213 12.6975 9.46864C12.424 9.19515 12.0531 9.0415 11.6663 9.0415ZM8.45801 10.4998C8.45801 9.64893 8.79603 8.83288 9.39771 8.2312C9.99939 7.62952 10.8154 7.2915 11.6663 7.2915C12.5172 7.2915 13.3333 7.62952 13.935 8.2312C14.5367 8.83288 14.8747 9.64893 14.8747 10.4998C14.8747 11.3507 14.5367 12.1668 13.935 12.7685C13.3333 13.3702 12.5172 13.7082 11.6663 13.7082C10.8154 13.7082 9.99939 13.3702 9.39771 12.7685C8.79603 12.1668 8.45801 11.3507 8.45801 10.4998Z" fill="currentColor"/>
</svg>