<svg width="16" height="17" viewBox="0 0 16 17" fill="none" xmlns="http://www.w3.org/2000/svg">
<path d="M8.4 1.96634C8.2846 1.87979 8.14425 1.83301 8 1.83301C7.85575 1.83301 7.7154 1.87979 7.6 1.96634C7.32226 2.17913 7.06614 2.41873 6.83533 2.68167C6.48667 3.07434 6 3.73634 6 4.49967C6 5.03011 6.21071 5.53882 6.58579 5.91389C6.96086 6.28896 7.46957 6.49967 8 6.49967H4C3.46957 6.49967 2.96086 6.71039 2.58579 7.08546C2.21071 7.46053 2 7.96924 2 8.49967V9.83301C2 10.657 2.94067 11.1277 3.6 10.633L4.04467 10.2997C4.16006 10.2131 4.30042 10.1663 4.44467 10.1663C4.58891 10.1663 4.72927 10.2131 4.84467 10.2997L5.022 10.433C5.36819 10.6927 5.78926 10.833 6.222 10.833C6.65474 10.833 7.07581 10.6927 7.422 10.433L7.6 10.2997C7.7154 10.2131 7.85575 10.1663 8 10.1663C8.14425 10.1663 8.2846 10.2131 8.4 10.2997L8.578 10.433C8.92419 10.6927 9.34526 10.833 9.778 10.833C10.2107 10.833 10.6318 10.6927 10.978 10.433L11.1553 10.2997C11.2707 10.2131 11.4111 10.1663 11.5553 10.1663C11.6996 10.1663 11.8399 10.2131 11.9553 10.2997L12.4 10.633C13.0593 11.1277 14 10.657 14 9.83301V8.49967C14 7.96924 13.7893 7.46053 13.4142 7.08546C13.0391 6.71039 12.5304 6.49967 12 6.49967H8C8.53043 6.49967 9.03914 6.28896 9.41421 5.91389C9.78929 5.53882 10 5.03011 10 4.49967C10 3.73634 9.51333 3.07434 9.16467 2.68167C8.934 2.42167 8.678 2.17501 8.4 1.96634ZM2.66667 12.1097V13.833C2.66667 14.1866 2.80714 14.5258 3.05719 14.7758C3.30724 15.0259 3.64638 15.1663 4 15.1663H12C12.3536 15.1663 12.6928 15.0259 12.9428 14.7758C13.1929 14.5258 13.3333 14.1866 13.3333 13.833V12.1097C13.1782 12.1657 13.0115 12.1819 12.8484 12.1569C12.6854 12.1319 12.5312 12.0663 12.4 11.9663L11.9553 11.633C11.8399 11.5465 11.6996 11.4997 11.5553 11.4997C11.4111 11.4997 11.2707 11.5465 11.1553 11.633L10.978 11.7663C10.6318 12.026 10.2107 12.1663 9.778 12.1663C9.34526 12.1663 8.92419 12.026 8.578 11.7663L8.4 11.633C8.2846 11.5465 8.14425 11.4997 8 11.4997C7.85575 11.4997 7.7154 11.5465 7.6 11.633L7.422 11.7663C7.07581 12.026 6.65474 12.1663 6.222 12.1663C5.78926 12.1663 5.36819 12.026 5.022 11.7663L4.84467 11.633C4.72927 11.5465 4.58891 11.4997 4.44467 11.4997C4.30042 11.4997 4.16006 11.5465 4.04467 11.633L3.6 11.9663C3.46881 12.0663 3.31464 12.1319 3.15159 12.1569C2.98854 12.1819 2.82182 12.1657 2.66667 12.1097Z" fill="#8ACCFF"/>
</svg>
