<svg width="20" height="21" viewBox="0 0 20 21" fill="none" xmlns="http://www.w3.org/2000/svg">
<path d="M1.66699 10.4993C1.66699 6.57102 1.66699 4.60685 2.88699 3.38602C4.10866 2.16602 6.07199 2.16602 10.0003 2.16602C13.9287 2.16602 15.8928 2.16602 17.1128 3.38602C18.3337 4.60768 18.3337 6.57102 18.3337 10.4993C18.3337 14.4277 18.3337 16.3918 17.1128 17.6118C15.8937 18.8327 13.9287 18.8327 10.0003 18.8327C6.07199 18.8327 4.10783 18.8327 2.88699 17.6118C1.66699 16.3927 1.66699 14.4277 1.66699 10.4993Z" fill="#BADFFF"/>
<path fill-rule="evenodd" clip-rule="evenodd" d="M5.76199 9.87435H1.66699V11.1243H8.46949C8.32879 11.7176 7.99201 12.246 7.51366 12.6241C7.03531 13.0022 6.44338 13.2078 5.83366 13.2077C5.6679 13.2077 5.50893 13.2735 5.39172 13.3907C5.27451 13.508 5.20866 13.6669 5.20866 13.8327C5.20866 13.9984 5.27451 14.1574 5.39172 14.2746C5.50893 14.3918 5.6679 14.4577 5.83366 14.4577C6.569 14.4579 7.28986 14.2533 7.91542 13.8667C8.54098 13.4802 9.04651 12.9271 9.37533 12.2693V18.8327H10.6253V12.2693C10.9541 12.9271 11.4597 13.4802 12.0852 13.8667C12.7108 14.2533 13.4317 14.4579 14.167 14.4577C14.3328 14.4577 14.4917 14.3918 14.6089 14.2746C14.7261 14.1574 14.792 13.9984 14.792 13.8327C14.792 13.6669 14.7261 13.508 14.6089 13.3907C14.4917 13.2735 14.3328 13.2077 14.167 13.2077C13.5573 13.2078 12.9653 13.0022 12.487 12.6241C12.0086 12.246 11.6719 11.7176 11.5312 11.1243H18.3337V9.87435H14.2395C14.5312 9.50935 14.7503 9.07852 14.8695 8.60185C15.3178 6.80768 13.692 5.18268 11.8987 5.63102C11.4339 5.74708 10.9996 5.96196 10.6253 6.26102V2.16602H9.37533V6.26102C9.00133 5.96206 8.56732 5.74719 8.10283 5.63102C6.30866 5.18268 4.68366 6.80768 5.13199 8.60185C5.25116 9.07852 5.46949 9.50935 5.76199 9.87435ZM9.37533 9.87435H8.33116C7.87277 9.86687 7.42964 9.7084 7.07046 9.4235C6.71128 9.1386 6.45611 8.74317 6.34449 8.29852C6.29423 8.09743 6.29691 7.88676 6.35228 7.68702C6.40764 7.48728 6.51379 7.30528 6.66039 7.15876C6.807 7.01224 6.98905 6.9062 7.18882 6.85095C7.38859 6.7957 7.59927 6.79314 7.80032 6.84352C8.24498 6.95513 8.64041 7.21031 8.92531 7.56949C9.21021 7.92866 9.36868 8.37179 9.37616 8.83018L9.37533 9.87435ZM11.6695 9.87435H10.6253V8.83685C10.6313 8.37731 10.7891 7.93265 11.0742 7.57212C11.3592 7.2116 11.7554 6.95543 12.2012 6.84352C12.4022 6.79332 12.6127 6.79601 12.8124 6.85134C13.012 6.90666 13.194 7.01274 13.3404 7.15923C13.4869 7.30572 13.593 7.48765 13.6483 7.6873C13.7037 7.88694 13.7064 8.09752 13.6562 8.29852C13.5445 8.74317 13.2894 9.1386 12.9302 9.4235C12.571 9.7084 12.1279 9.86687 11.6695 9.87435Z" fill="#07A6FF"/>
</svg>
