<svg width="24" height="25" viewBox="0 0 24 25" fill="none" xmlns="http://www.w3.org/2000/svg">
<path d="M2.5 12.9603C2.5 8.24633 2.5 5.88933 3.964 4.42433C5.43 2.96033 7.786 2.96033 12.5 2.96033C17.214 2.96033 19.571 2.96033 21.035 4.42433C22.5 5.89033 22.5 8.24633 22.5 12.9603C22.5 17.6743 22.5 20.0313 21.035 21.4953C19.572 22.9603 17.214 22.9603 12.5 22.9603C7.786 22.9603 5.429 22.9603 3.964 21.4953C2.5 20.0323 2.5 17.6743 2.5 12.9603Z" fill="white"/>
<path fill-rule="evenodd" clip-rule="evenodd" d="M7.414 12.2103H2.5V13.7103H10.663C10.4942 14.4222 10.09 15.0564 9.516 15.5101C8.94199 15.9638 8.23167 16.2105 7.5 16.2103C7.30109 16.2103 7.11032 16.2893 6.96967 16.43C6.82902 16.5707 6.75 16.7614 6.75 16.9603C6.75 17.1592 6.82902 17.35 6.96967 17.4907C7.11032 17.6313 7.30109 17.7103 7.5 17.7103C8.38241 17.7106 9.24744 17.465 9.99812 17.0012C10.7488 16.5374 11.3554 15.8736 11.75 15.0843V22.9603H13.25V15.0843C13.6446 15.8736 14.2512 16.5374 15.0019 17.0012C15.7526 17.465 16.6176 17.7106 17.5 17.7103C17.6989 17.7103 17.8897 17.6313 18.0303 17.4907C18.171 17.35 18.25 17.1592 18.25 16.9603C18.25 16.7614 18.171 16.5707 18.0303 16.43C17.8897 16.2893 17.6989 16.2103 17.5 16.2103C16.7683 16.2105 16.058 15.9638 15.484 15.5101C14.91 15.0564 14.5058 14.4222 14.337 13.7103H22.5V12.2103H17.587C17.937 11.7723 18.2 11.2553 18.343 10.6833C18.881 8.53033 16.93 6.58033 14.778 7.11833C14.2203 7.2576 13.6991 7.51546 13.25 7.87433V2.96033H11.75V7.87433C11.3012 7.51558 10.7804 7.25773 10.223 7.11833C8.07 6.58033 6.12 8.53033 6.658 10.6833C6.801 11.2553 7.063 11.7723 7.414 12.2103ZM11.75 12.2103H10.497C9.94693 12.2014 9.41518 12.0112 8.98416 11.6693C8.55315 11.3274 8.24694 10.8529 8.113 10.3193C8.05269 10.078 8.05591 9.82522 8.12234 9.58553C8.18877 9.34584 8.31616 9.12745 8.49208 8.95163C8.66801 8.7758 8.88647 8.64854 9.1262 8.58225C9.36592 8.51595 9.61873 8.51288 9.86 8.57333C10.3936 8.70727 10.8681 9.01348 11.21 9.44449C11.5519 9.87551 11.742 10.4073 11.751 10.9573L11.75 12.2103ZM14.503 12.2103H13.25V10.9653C13.2572 10.4139 13.4466 9.88029 13.7886 9.44766C14.1306 9.01502 14.6061 8.70762 15.141 8.57333C15.3822 8.51309 15.6349 8.51632 15.8745 8.58272C16.114 8.64911 16.3324 8.77639 16.5081 8.95218C16.6839 9.12798 16.8112 9.34629 16.8776 9.58586C16.944 9.82544 16.9472 10.0781 16.887 10.3193C16.7531 10.8529 16.4469 11.3274 16.0158 11.6693C15.5848 12.0112 15.0531 12.2014 14.503 12.2103Z" fill="#18191D"/>
</svg>
