<svg width="24" height="25" viewBox="0 0 24 25" fill="none" xmlns="http://www.w3.org/2000/svg">
<path fill-rule="evenodd" clip-rule="evenodd" d="M18.4941 4.36744C20.5891 5.58844 22.0631 8.06744 21.9981 10.9594C21.9171 14.5694 19.1081 17.7534 14.3191 20.5974C13.6091 21.0194 12.8611 21.5664 12.0001 21.5664C11.1551 21.5664 10.3751 21.0094 9.68007 20.5964C4.89307 17.7534 2.08307 14.5684 2.00207 10.9594C1.93707 8.06744 3.41107 5.58944 5.50607 4.36744C7.46607 3.22644 9.92807 3.21944 12.0001 4.90444C14.0721 3.21944 16.5341 3.22544 18.4941 4.36744ZM17.4871 6.09644C16.0931 5.28444 14.3511 5.31344 12.8431 6.83944C12.7325 6.9504 12.6011 7.03845 12.4565 7.09853C12.3118 7.1586 12.1567 7.18953 12.0001 7.18953C11.8434 7.18953 11.6883 7.1586 11.5437 7.09853C11.399 7.03845 11.2676 6.9504 11.1571 6.83944C9.64907 5.31344 7.90707 5.28444 6.51307 6.09644C5.06907 6.93844 3.95307 8.72444 4.00207 10.9164C4.05807 13.4274 6.04207 16.1104 10.7021 18.8784C11.1101 19.1214 11.5361 19.4324 12.0001 19.5614C12.4641 19.4324 12.8901 19.1214 13.2981 18.8784C17.9581 16.1104 19.9421 13.4284 19.9981 10.9154C20.0481 8.72544 18.9311 6.93844 17.4871 6.09644Z" fill="#18191D"/>
</svg>
