<svg width="56" height="56" viewBox="0 0 56 56" fill="none" xmlns="http://www.w3.org/2000/svg">
<g clip-path="url(#clip0_4878_2563)">
<circle cx="27.9624" cy="27.9624" r="29.9624" fill="#18191D"/>
<path d="M45.1979 21.4442L44.9803 21.3392L44.8027 21.4817L44.6227 21.4642L44.4451 21.4842L44.2651 21.3341L44.0875 21.3667L43.9074 21.3692L43.7299 21.4442L43.5498 21.4717L43.3723 21.6693L43.1922 21.5567L43.0146 21.6267L42.8346 21.7193L42.657 21.7768L42.477 21.3216L42.2994 21.7318L42.1194 21.5442L41.9418 21.7568L41.7617 21.7293L41.5842 21.4792L41.4041 21.7418L41.2241 21.3942L41.0465 21.6768L40.8664 21.7168L40.6864 21.6968L40.5088 21.6993L40.3288 21.3241L40.1487 21.5242L39.9686 21.7543L39.7911 21.4942L39.611 21.6793L39.431 21.6042L39.2509 21.6217L39.0709 21.5267L38.8908 21.4742L38.7107 21.4367L38.5307 21.5642L38.3506 21.6843L38.1706 21.5767L37.9905 21.4817L37.8104 21.7918L37.6304 21.7543L37.4503 21.6117L37.2703 21.4592L37.0902 21.7893L36.9101 21.3392L36.7326 21.5267L36.5525 21.4442L36.3725 21.4992L36.1924 21.3367L36.0124 21.7668L35.8348 21.3141L35.6547 21.5817L35.4747 21.6067L35.2971 21.3066H35.1171L34.937 21.7143L34.7569 21.7243L34.5794 21.6893L34.3993 21.6968L34.2193 21.6167L34.0392 21.4717L33.8616 21.3392L33.6816 21.3742L33.5015 21.7518L33.3215 21.4392L33.1439 21.7793L32.9639 21.3216L32.7838 21.4292L32.6037 21.3842L32.4237 21.5317L32.2436 21.7668L32.0636 21.7393L31.8835 21.7443L31.7034 21.3316L31.5234 21.5317L31.3433 21.5392L31.1633 21.4417L30.9832 21.4267L30.8031 21.3166L30.6231 21.4242L30.443 21.3592L30.263 21.5942L30.0829 21.4792L29.9028 21.4092L29.7228 21.6493L29.5427 21.6618L29.3627 21.5217L29.1826 21.7618L29.0026 21.7468L28.8225 21.6317L28.6424 21.3542L28.4624 21.6918L28.2848 21.7343L28.1048 21.7443L27.9247 21.5567L27.7446 21.3417L27.5646 21.4592L27.3845 21.5167L27.2045 21.6868L27.0244 21.3091L26.8443 21.5192L26.6643 21.6493L26.4817 21.3667L26.3017 21.6117L26.1216 21.5417L25.9415 21.3116L25.7615 21.7093L25.5814 21.3392L25.4014 21.3567L25.2213 21.7043L25.0412 21.7993L24.8612 21.4192L24.6811 21.5042L24.5011 21.3892L24.321 21.7793L24.141 21.7068L23.9609 21.6468L23.7808 21.3166L23.5983 21.3091L23.4182 21.3642L23.2382 21.3592L23.0581 21.5367L22.878 21.3667L22.6955 21.7018L22.5154 21.3817L22.3354 21.4892L22.1553 21.7318L21.9777 21.4692L21.7977 21.7168L21.6176 21.4017L21.4376 21.5992L21.2575 21.7893L21.0775 21.7868L20.8974 21.6643L20.7173 21.6142L20.5373 21.6568L20.3572 21.4367L20.1747 21.7268L19.9946 21.3742L19.817 21.7593L19.637 21.5092L19.4569 21.3667L19.2769 21.5992L19.0968 21.5292L18.9167 21.3492L18.7367 21.4067L18.5591 21.5417L18.3791 21.6593L18.199 21.3617L18.0164 21.6768L17.8364 21.3842L17.6563 21.4942L17.4738 21.5517L17.2937 21.3642L17.1137 21.6267L16.9336 21.5667L16.7535 21.6468L16.5735 21.4992L16.3934 21.7468L16.2109 21.6618L16.0308 21.7368L15.8507 21.7268L15.6682 21.6393L15.4881 21.6543L15.3081 21.5217L15.1255 21.6468L14.9454 21.6092L14.7654 21.5742L14.5828 21.6092L14.4028 21.3191L14.2202 21.4267L14.0401 21.5717L13.8601 21.4542L13.68 21.7543L13.5 21.6968L13.3199 21.7618L13.1374 21.3617L12.9573 21.4742L12.7747 21.6042L12.5947 21.6518L12.4146 21.7068L12.232 21.4767L12.0495 21.7343L11.8694 21.5842L11.6869 21.6968L11.5043 21.6518L11.3218 21.5417L11.1417 21.4167L10.9591 21.4117L10.7766 21.5242L10.594 21.7093L10.3589 21.4017L10.3014 21.7443L10.2539 21.9293L10.3114 22.1019L10.3164 22.282L10.644 22.4295L10.454 22.6271L10.689 22.7846L10.514 22.9822L10.6465 23.1472L10.449 23.3473L10.8166 23.4924L10.8141 23.6699L10.4665 23.885L10.624 24.0475L10.449 24.2451L10.6991 24.4002L10.5465 24.5952L10.669 24.7628L10.499 24.9578L10.9716 25.0929L10.9341 25.2754L11.0016 25.4505L10.8441 25.6431L10.7741 25.8306L10.8441 26.0032L10.8141 26.1857L10.8416 26.3633L10.9066 26.5359L11.0467 26.7034L11.0092 26.886L10.8791 27.0785L10.9967 27.2461L11.0092 27.4236L11.1892 27.5862L10.9591 27.7888L11.1617 27.9488L10.9316 28.1514L10.9341 28.3289L11.0817 28.4965L11.1392 28.6691L11.0317 28.8591L11.0092 29.0417L10.9391 29.2267L11.0942 29.3918L11.2792 29.5543L11.3268 29.7294L11.1792 29.9245L11.0342 30.117L11.3993 30.2621L11.1942 30.4596L11.2817 30.6322L11.0667 30.8323L11.3543 30.9848L11.2292 31.1749L11.2867 31.3499L11.4168 31.5175L11.1367 31.7226L11.4918 31.8701L11.3818 32.0602L11.4518 32.2327L11.5543 32.4028L11.6744 32.5703V32.7504L11.5293 32.8429L11.6744 33.073L11.8544 33.063L12.032 32.9255L12.212 33.043L12.3896 32.993H12.5697L12.7472 32.953L12.9273 33.113L13.1048 33.0105L13.2849 33.143L13.4625 32.9004L13.6425 32.8379L13.8226 32.7604L14.0001 32.9455L14.1802 32.963L14.3602 32.998L14.5378 33.0655L14.7179 33.013L14.8979 32.7879L15.078 32.7029L15.258 32.8354L15.4356 32.7604L15.6157 32.7979L15.7957 32.8279L15.9758 33.0105L16.1558 33.168L16.3359 33.0155L16.516 32.8454L16.696 32.8904L16.8761 32.8704L17.0561 33.1255L17.2362 33.078L17.4163 32.9855L17.5938 32.993L17.7739 32.7454L17.9539 32.7179L18.134 32.7104L18.3115 32.8929L18.4916 33.1705L18.6717 33.118L18.8492 33.088L19.0293 32.7654L19.2093 33.018L19.3869 33.1455L19.567 32.7454L19.747 32.7254L19.9246 33.0855L20.1046 32.6954L20.2847 32.9004L20.4622 32.8529L20.6423 32.8254L20.8224 33.1105H20.9999L21.18 32.8279L21.36 32.7379L21.5401 33.0655L21.7177 32.963L21.8977 33.0905L22.0778 33.1255L22.2578 32.7479L22.4379 33.023L22.618 32.7054L22.798 32.953L22.9781 32.8254L23.1581 33.168L23.3382 32.8454L23.5183 32.8004L23.6983 33.0355L23.8784 33.173L24.0584 33.0655L24.2385 33.163L24.4185 32.943L24.5986 33.1155L24.7787 32.7879L24.9562 33.0305L25.1363 33.143L25.3163 33.0355L25.4964 33.173L25.6765 33.038L25.8565 32.9655L26.0341 32.8729L26.2141 32.8104L26.3942 33.133L26.5743 32.993L26.7543 33.118L26.9344 32.8754L27.1144 33.0155L27.2945 32.9054L27.4746 32.7154L27.6546 33.1855L27.8347 32.8229L28.0147 32.9955L28.1948 33.1505L28.3748 32.8454L28.5549 32.7929L28.735 32.8404L28.915 32.7604L29.0951 32.8654L29.2751 32.9104L29.4552 32.988L29.6353 33.1955L29.8153 32.973L29.9954 32.7379L30.1754 33.1705L30.3555 33.0705L30.5356 32.988L30.7156 32.943L30.8957 32.8354L31.0757 32.7254L31.2558 32.9805L31.4358 32.7479L31.6159 33.083L31.796 33.1755L31.976 33.0855L32.1586 32.7779L32.3386 32.7429L32.5162 33.108L32.6963 32.7029L32.8738 33.0555L33.0539 32.7029L33.2339 33.048L33.414 32.9505L33.5941 33.1055L33.7741 32.7429L33.9542 33.048L34.1367 33.068L34.3168 32.9455L34.4944 32.923L34.6744 33.003L34.8545 32.7079L35.0345 32.8854L35.2146 32.8679L35.3947 32.9605L35.5722 32.7454L35.7523 32.9355L35.9323 32.9204L36.1124 33.0355L36.2924 33.073L36.4725 32.7479L36.6526 33.028L36.8326 32.7754L37.0152 33.013L37.1952 32.8804L37.3753 32.8754L37.5554 33.103L37.7354 32.7979L37.9155 32.8154L38.0955 33.0555L38.2756 33.1905L38.4557 32.7829L38.6382 33.0155L38.8183 32.8579L39.0008 32.8504L39.1809 32.7954L39.3609 32.9605L39.541 32.938L39.7211 32.8579L39.9036 32.8254L40.0837 32.938L40.2662 32.923L40.4463 32.7504L40.6264 32.958L40.8064 33.023L40.9865 32.7654L41.1665 33.008L41.3466 33.1955L41.5292 33.0355L41.7092 32.8704L41.8893 32.7029L42.0718 33.168L42.2544 32.9255L42.4345 32.8229L42.617 32.998L42.7971 32.8104L42.9796 32.8304L43.1622 32.7129L43.3423 33.0655L43.5248 32.993L43.7074 32.7754L43.8899 32.9129L44.0375 32.8379L43.8974 32.7504L43.9475 32.5753L43.995 32.4003L44.3126 32.2502L44.2676 32.0677L44.0875 31.8701L44.0825 31.69L44.3351 31.535L44.025 31.3249L44.3326 31.1749L44.05 30.9698L44.2951 30.8123L44.4651 30.6497L44.4601 30.4696L44.4451 30.2871L44.13 30.077L44.215 29.907L44.4776 29.7519L44.19 29.5443L44.3451 29.3793L44.3026 29.1967L44.4376 29.0292L44.6327 28.8691L44.6077 28.6866L44.6302 28.509L44.3001 28.2989L44.6027 28.1464L44.6827 27.9763L44.7502 27.8013L44.8177 27.6287L44.7577 27.4437L44.5301 27.2411L44.6202 27.071L44.7052 26.8985L44.7902 26.7284L44.6977 26.5409L44.7502 26.3658L44.5226 26.1632L44.7677 26.0082L44.8527 25.8356L44.9403 25.6656L44.5777 25.4505L44.6627 25.2779L44.5927 25.0929L45.0053 24.9528L44.7777 24.7503L44.8728 24.5802L44.8352 24.3977L44.6677 24.2026L44.6877 24.025L44.7902 23.855L44.9803 23.6924L45.0203 23.5174L44.7727 23.3123L45.1629 23.1723L45.1103 22.9872L44.7977 22.7771L45.0603 22.6221L44.8828 22.427L44.9203 22.2494L45.2679 22.1044L45.2204 21.9193L44.9078 21.7093L45.1979 21.4442Z" fill="#FFC0CF"/>
<path d="M12.8798 48.9282L13.1824 48.7681L13.3625 48.6431L13.5425 48.9582L13.7226 48.9432L13.9026 48.6481L14.0827 49.0207L14.2628 48.6406L14.4428 49.0357L14.6254 48.9932L14.8054 48.7206L14.9855 48.9632L15.1656 48.9982H15.3456L15.5257 48.7256L15.7057 49.0032L15.8858 48.9432H16.0658L16.2459 48.8981L16.426 48.7656L16.606 48.6731L16.7861 48.8306L16.9661 48.6206L17.1462 48.6331L17.3263 48.6531L17.5088 48.7356L17.6889 48.6806L17.8689 48.8656L18.049 48.7656L18.2291 48.9357L18.4091 48.7406L18.5892 48.9457L18.7692 48.6606L18.9493 48.8406L19.1294 48.8456L19.3094 48.8381L19.4895 48.7781L19.6695 48.6481L19.8496 48.6031L20.0297 48.6406L20.2097 48.6081L20.3898 48.9982L20.5723 48.8406L20.7524 48.8106L20.9325 48.6731L21.1125 48.9132L21.2926 48.6431L21.4726 48.6056L21.6527 48.7106L21.8327 48.558L22.0128 48.7806L22.1929 48.8431L22.3729 48.563L22.553 48.5505L22.733 48.9682L22.9131 48.8406L23.0932 48.9107L23.2732 48.9732L23.4558 48.7581L23.6358 49.0282L23.8159 48.9607L23.996 48.9857L24.176 48.5805L24.3561 48.9432L24.5361 48.9032L24.7162 48.558L24.8962 48.6806L25.0763 49.0232L25.2564 48.7581L25.4364 48.6256L25.6165 48.553L25.7965 48.578L25.9766 48.8081L26.1567 48.5705L26.3392 48.593L26.5193 48.8681L26.6993 48.7156L26.8794 48.7131L27.0595 48.6456L27.2395 48.6756L27.4196 48.7881L27.5996 48.5555L27.7797 48.563L27.9598 48.7056L28.1398 48.8681L28.3199 48.7131L28.4999 48.9032L28.68 48.9432L28.86 48.8631L29.0401 48.6156L29.2202 48.7156L29.4027 48.5855L29.5828 48.548L29.7628 48.6506L29.9429 48.7931L30.123 48.6931L30.303 48.5855L30.4831 48.5956L30.6631 48.8431L30.8432 48.5455L31.0233 48.6031L31.2033 48.6856L31.3834 48.9682L31.5634 48.7806L31.7435 48.6131L31.9236 48.9757L32.1036 48.9982L32.2862 48.6556L32.4662 48.6956L32.6463 48.8681L32.8264 48.9807L33.0064 48.8006L33.1865 48.8956L33.3665 48.7281L33.5466 48.9757L33.7266 48.563L33.9067 48.9182L34.0868 48.7306L34.2668 48.8381L34.4469 48.9757L34.6269 48.6506L34.807 48.6306L34.9871 49.0357L35.1696 48.6756L35.3497 48.6356L35.5297 48.9957L35.7098 48.7231L35.8899 48.9457L36.0699 48.6531L36.25 48.9357L36.43 48.7581L36.6101 48.5905L36.7901 48.8481L36.9702 48.7731L37.1503 48.6806L37.3303 48.8456L37.5104 48.7831L37.6904 48.8881L37.8705 48.548L38.0506 48.5705L38.2331 48.7956L38.4132 48.8431L38.5932 48.6506L38.7733 48.543L38.9534 48.8006L39.1334 48.9982L39.3135 48.8081L39.4935 48.7206L39.6736 49.0407L39.8537 48.8456L40.0337 48.7956L40.2138 48.8381L40.3938 48.9457L40.5739 48.6131L40.754 48.6581L40.934 48.6106L41.1166 48.6481L41.2966 48.6106L41.4767 48.583L41.6568 48.9557L41.8368 48.9207L42.0169 48.9132L42.1969 48.8806L42.377 48.548L42.6046 48.8456L42.402 48.5981L42.8246 48.458L42.4945 48.2479L42.4845 48.0679L42.8772 47.9253L42.7996 47.7378L42.477 47.5277L42.7821 47.3776L42.7721 47.1976L42.8071 47.02L42.8146 46.8425L42.7596 46.6574L42.8371 46.4849L42.7121 46.2923L42.9972 46.1397L42.9847 45.9597L42.9897 45.7796L42.9772 45.5996L42.7271 45.397L42.7496 45.2194L42.7921 45.0419L43.0622 44.8893L43.1898 44.7218L42.7871 44.5042L42.9222 44.3367L43.1722 44.1816L43.2573 44.009L43.0272 43.809L42.9747 43.6239L43.0147 43.4464L42.8421 43.2513L43.0147 43.0887L43.1998 42.9262L42.9797 42.7261L42.9272 42.5411L43.2348 42.391L43.0597 42.1934L43.4448 42.0509L42.9847 41.8283L43.4123 41.6883L43.1873 41.4882L43.0997 41.3007L43.2523 41.1356L43.0822 40.9405L43.1147 40.763L43.4398 40.6129L43.1347 40.4054L43.4748 40.2578L43.3923 40.0703L43.4348 39.8952L43.1948 39.6926L43.5149 39.5426L43.4523 39.3575L43.4348 39.1775L43.4573 38.9999L43.4748 38.8223L43.3048 38.6248L43.3323 38.4472L43.5549 38.2897L43.5849 38.1121L43.4573 37.922L43.5799 37.7545L43.3823 37.5544L43.6474 37.3869L43.4648 37.3969L43.2848 37.5444L43.1072 37.2893L42.9272 37.6144L42.7471 37.3043L42.5695 37.3744L42.3895 37.5294L42.2094 37.5194L42.0294 37.4994L41.8518 37.4094L41.6718 37.3944L41.4917 37.3844L41.3116 37.5144L41.1316 37.4069L40.9515 37.5669L40.7715 37.2393L40.5914 37.5694L40.4113 37.6019L40.2313 37.1968L40.0512 37.2743L39.8712 37.3444L39.6911 37.2718L39.511 37.5394L39.331 37.2193L39.1509 37.5319L38.9709 37.1693L38.7908 37.4044L38.6107 37.4094L38.4307 37.2993L38.2506 37.2393L38.0731 37.1643L37.893 37.4369L37.713 37.5569L37.5329 37.6194L37.3528 37.3819L37.1753 37.1743L36.9952 37.1893L36.8152 37.3043L36.6351 37.2918L36.455 37.5294L36.2775 37.5944L36.0974 37.5319L35.9174 37.642L35.7373 37.2193L35.5597 37.2218L35.3797 37.2168L35.1996 37.1943L35.0196 37.4594L34.8395 37.4694L34.662 37.5069L34.4819 37.3819L34.3018 37.2893L34.1218 37.6019L33.9417 37.3194L33.7617 37.3744L33.5816 37.4969L33.4015 37.5469L33.2215 37.3919L33.0414 37.6044L32.8614 37.3419L32.6813 37.2443L32.4987 37.2043L32.3187 37.4694L32.1386 37.5044L31.9586 37.4394L31.7785 37.3469L31.5984 37.2893L31.4184 37.5119H31.2383L31.0583 37.1593L30.8782 37.2068L30.6982 37.5444L30.5181 37.3043L30.338 37.2118L30.158 37.627L29.9779 37.3644L29.8004 37.5319L29.6203 37.4644L29.4402 37.4094L29.2602 37.2968L29.0801 37.1843L28.9001 37.1893L28.72 37.3269L28.5399 37.4669L28.3574 37.5744L28.1773 37.4644L27.9973 37.5969L27.8172 37.2793L27.6372 37.4069L27.4546 37.3369L27.2745 37.4619L27.0945 37.2743L26.9144 37.4969L26.7344 37.4719L26.5543 37.6069L26.3742 37.4019L26.1942 37.5719L26.0141 37.3719L25.8341 37.4094L25.654 37.3269L25.4739 37.2368L25.2939 37.4869L25.1113 37.3118L24.9313 37.3043L24.7512 37.5669L24.5711 37.2993L24.3886 37.3219L24.2085 37.2543L24.0285 37.3844L23.8484 37.2168L23.6683 37.3869L23.4883 37.5394L23.3082 37.1818L23.1307 37.3344L22.9506 37.1943L22.7705 37.6119L22.5905 37.2993L22.4104 37.4119L22.2279 37.6345L22.0478 37.5344L21.8678 37.2493L21.6877 37.6445L21.5076 37.4569L21.3276 37.5019L21.1475 37.3169L20.9675 37.5244L20.7874 37.3769L20.6073 37.3944L20.4273 37.3719L20.2472 37.4194L20.0672 37.1593L19.8871 37.5219L19.707 37.4769L19.527 37.1593L19.3469 37.4219L19.1644 37.5044L18.9843 37.2143L18.8043 37.2243L18.6242 37.2068L18.4416 37.5344L18.2616 37.3619H18.0815L17.9015 37.5644L17.7214 37.4344L17.5388 37.3319L17.3588 37.1993L17.1762 37.1568L16.9962 37.2293L16.8161 37.4594L16.6335 37.2018L16.4535 37.1793L16.2734 37.1818L16.0909 37.5969L15.9108 37.5319L15.7282 37.5769L15.5482 37.5119L15.3656 37.6044L15.1881 37.1643L15.008 37.3544L14.8254 37.2093L14.6454 37.1543L14.4628 37.2843L14.2828 37.4744L14.1027 37.2018L13.9201 37.4819L13.7376 37.3744L13.5575 37.6094L13.375 37.2893L13.1924 37.4619L13.0098 37.4969L12.8298 37.2843L12.6472 37.5444L12.4647 37.1893L12.2821 37.6245L12.0996 37.6445L11.847 37.1893L11.9245 37.5794L12.1771 37.7345L11.972 37.9346L12.1045 38.0996L11.9745 38.2922L11.8145 38.4872L11.8245 38.6673L12.2496 38.8048L12.037 39.0049L11.9845 39.19L12.032 39.365L12.2221 39.5276L12.1421 39.7151L12.2796 39.8802L12.1471 40.0728L12.3046 40.2378L12.4222 40.4054L12.1696 40.6104L12.1421 40.7905L12.0345 40.9806L12.5097 41.1156L12.0545 41.3382L12.1246 41.5107L12.1846 41.6858L12.3671 41.8483L12.1546 42.0484L12.5372 42.1909L12.3246 42.391L12.2371 42.5786L12.5722 42.7261L12.6422 42.8987L12.4822 43.0937L12.5772 43.2638L12.6272 43.4389L12.7548 43.6064L12.5297 43.809L12.6447 43.9765L12.7473 44.1466L12.5647 44.3442L12.7998 44.5017L12.5822 44.7018L12.5472 44.8843L12.4847 45.0694L12.6347 45.2344L12.6797 45.4095L12.8698 45.5721L12.8573 45.7521L12.7748 45.9397L12.7047 46.1272L12.9298 46.2848L12.9873 46.4598L12.8623 46.6499L12.8973 46.8275L12.8173 47.015L12.7998 47.1951L12.9373 47.3626L13.0924 47.5277L12.9898 47.7153L13.0974 47.8853L12.6872 48.1029L13.0349 48.2504L13.0799 48.4255L12.7523 48.6381L12.8798 48.9282Z" fill="#E2F3FF"/>
<path d="M12.8798 48.9282L13.1824 48.7681L13.3625 48.6431L13.5425 48.9582L13.7226 48.9432L13.9026 48.6481L14.0827 49.0207L14.2628 48.6406L14.4428 49.0357L14.6254 48.9932L14.8054 48.7206L14.9855 48.9632L15.1656 48.9982H15.3456L15.5257 48.7256L15.7057 49.0032L15.8858 48.9432H16.0658L16.2459 48.8981L16.426 48.7656L16.606 48.6731L16.7861 48.8306L16.9661 48.6206L17.1462 48.6331L17.3263 48.6531L17.5088 48.7356L17.6889 48.6806L17.8689 48.8656L18.049 48.7656L18.2291 48.9357L18.4091 48.7406L18.5892 48.9457L18.7692 48.6606L18.9493 48.8406L19.1294 48.8456L19.3094 48.8381L19.4895 48.7781L19.6695 48.6481L19.8496 48.6031L20.0297 48.6406L20.2097 48.6081L20.3898 48.9982L20.5723 48.8406L20.7524 48.8106L20.9325 48.6731L21.1125 48.9132L21.2926 48.6431L21.4726 48.6056L21.6527 48.7106L21.8327 48.558L22.0128 48.7806L22.1929 48.8431L22.3729 48.563L22.553 48.5505L22.733 48.9682L22.9131 48.8406L23.0932 48.9107L23.2732 48.9732L23.4558 48.7581L23.6358 49.0282L23.8159 48.9607L23.996 48.9857L24.176 48.5805L24.3561 48.9432L24.5361 48.9032L24.7162 48.558L24.8962 48.6806L25.0763 49.0232L25.2564 48.7581L25.4364 48.6256L25.6165 48.553L25.7965 48.578L25.9766 48.8081L26.1567 48.5705L26.3392 48.593L26.5193 48.8681L26.6993 48.7156L26.8794 48.7131L27.0595 48.6456L27.2395 48.6756L27.4196 48.7881L27.5996 48.5555L27.7797 48.563L27.9598 48.7056L28.1398 48.8681L28.3199 48.7131L28.4999 48.9032L28.68 48.9432L28.86 48.8631L29.0401 48.6156L29.2202 48.7156L29.4027 48.5855L29.5828 48.548L29.7628 48.6506L29.9429 48.7931L30.123 48.6931L30.303 48.5855L30.4831 48.5956L30.6631 48.8431L30.8432 48.5455L31.0233 48.6031L31.2033 48.6856L31.3834 48.9682L31.5634 48.7806L31.7435 48.6131L31.9236 48.9757L32.1036 48.9982L32.2862 48.6556L32.4662 48.6956L32.6463 48.8681L32.8264 48.9807L33.0064 48.8006L33.1865 48.8956L33.3665 48.7281L33.5466 48.9757L33.7266 48.563L33.9067 48.9182L34.0868 48.7306L34.2668 48.8381L34.4469 48.9757L34.6269 48.6506L34.807 48.6306L34.9871 49.0357L35.1696 48.6756L35.3497 48.6356L35.5297 48.9957L35.7098 48.7231L35.8899 48.9457L36.0699 48.6531L36.25 48.9357L36.43 48.7581L36.6101 48.5905L36.7901 48.8481L36.9702 48.7731L37.1503 48.6806L37.3303 48.8456L37.5104 48.7831L37.6904 48.8881L37.8705 48.548L38.0506 48.5705L38.2331 48.7956L38.4132 48.8431L38.5932 48.6506L38.7733 48.543L38.9534 48.8006L39.1334 48.9982L39.3135 48.8081L39.4935 48.7206L39.6736 49.0407L39.8537 48.8456L40.0337 48.7956L40.2138 48.8381L40.3938 48.9457L40.5739 48.6131L40.754 48.6581L40.934 48.6106L41.1166 48.6481L41.2966 48.6106L41.4767 48.583L41.6568 48.9557L41.8368 48.9207L42.0169 48.9132L42.1969 48.8806L42.377 48.548L42.6046 48.8456L42.402 48.5981L42.8246 48.458L42.4945 48.2479L42.4845 48.0679L42.8772 47.9253L42.7996 47.7378L42.477 47.5277L42.7821 47.3776L42.7721 47.1976L42.8071 47.02L42.8146 46.8425L42.7596 46.6574L42.8371 46.4849L42.7121 46.2923L42.9972 46.1397L42.9847 45.9597L42.9897 45.7796L42.9772 45.5996L42.7271 45.397L42.7496 45.2194L42.7921 45.0419L43.0622 44.8893L43.1898 44.7218L42.7871 44.5042L42.9222 44.3367L43.1722 44.1816L43.2573 44.009L43.0272 43.809L42.9747 43.6239L43.0147 43.4464L42.8421 43.2513L43.0147 43.0887L43.1998 42.9262L42.9797 42.7261L42.9272 42.5411L43.2348 42.391L43.0597 42.1934L43.4448 42.0509L42.9847 41.8283L43.4123 41.6883L43.1873 41.4882L43.0997 41.3007L43.2523 41.1356L43.0822 40.9405L43.1147 40.763L43.4398 40.6129L43.1347 40.4054L43.4748 40.2578L43.3923 40.0703L43.4348 39.8952L43.1948 39.6926L43.5149 39.5426L43.4523 39.3575L43.4348 39.1775L43.4573 38.9999L43.4748 38.8223L43.3048 38.6248L43.3323 38.4472L43.5549 38.2897L43.5849 38.1121L43.4573 37.922L43.5799 37.7545L43.3823 37.5544L43.6474 37.3869L43.4648 37.3969L43.2848 37.5444L43.1072 37.2893L42.9272 37.6144L42.7471 37.3043L42.5695 37.3744L42.3895 37.5294L42.2094 37.5194L42.0294 37.4994L41.8518 37.4094L41.6718 37.3944L41.4917 37.3844L41.3116 37.5144L41.1316 37.4069L40.9515 37.5669L40.7715 37.2393L40.5914 37.5694L40.4113 37.6019L40.2313 37.1968L40.0512 37.2743L39.8712 37.3444L39.6911 37.2718L39.511 37.5394L39.331 37.2193L39.1509 37.5319L38.9709 37.1693L38.7908 37.4044L38.6107 37.4094L38.4307 37.2993L38.2506 37.2393L38.0731 37.1643L37.893 37.4369L37.713 37.5569L37.5329 37.6194L37.3528 37.3819L37.1753 37.1743L36.9952 37.1893L36.8152 37.3043L36.6351 37.2918L36.455 37.5294L36.2775 37.5944L36.0974 37.5319L35.9174 37.642L35.7373 37.2193L35.5597 37.2218L35.3797 37.2168L35.1996 37.1943L35.0196 37.4594L34.8395 37.4694L34.662 37.5069L34.4819 37.3819L34.3018 37.2893L34.1218 37.6019L33.9417 37.3194L33.7617 37.3744L33.5816 37.4969L33.4015 37.5469L33.2215 37.3919L33.0414 37.6044L32.8614 37.3419L32.6813 37.2443L32.4987 37.2043L32.3187 37.4694L32.1386 37.5044L31.9586 37.4394L31.7785 37.3469L31.5984 37.2893L31.4184 37.5119H31.2383L31.0583 37.1593L30.8782 37.2068L30.6982 37.5444L30.5181 37.3043L30.338 37.2118L30.158 37.627L29.9779 37.3644L29.8004 37.5319L29.6203 37.4644L29.4402 37.4094L29.2602 37.2968L29.0801 37.1843L28.9001 37.1893L28.72 37.3269L28.5399 37.4669L28.3574 37.5744L28.1773 37.4644L27.9973 37.5969L27.8172 37.2793L27.6372 37.4069L27.4546 37.3369L27.2745 37.4619L27.0945 37.2743L26.9144 37.4969L26.7344 37.4719L26.5543 37.6069L26.3742 37.4019L26.1942 37.5719L26.0141 37.3719L25.8341 37.4094L25.654 37.3269L25.4739 37.2368L25.2939 37.4869L25.1113 37.3118L24.9313 37.3043L24.7512 37.5669L24.5711 37.2993L24.3886 37.3219L24.2085 37.2543L24.0285 37.3844L23.8484 37.2168L23.6683 37.3869L23.4883 37.5394L23.3082 37.1818L23.1307 37.3344L22.9506 37.1943L22.7705 37.6119L22.5905 37.2993L22.4104 37.4119L22.2279 37.6345L22.0478 37.5344L21.8678 37.2493L21.6877 37.6445L21.5076 37.4569L21.3276 37.5019L21.1475 37.3169L20.9675 37.5244L20.7874 37.3769L20.6073 37.3944L20.4273 37.3719L20.2472 37.4194L20.0672 37.1593L19.8871 37.5219L19.707 37.4769L19.527 37.1593L19.3469 37.4219L19.1644 37.5044L18.9843 37.2143L18.8043 37.2243L18.6242 37.2068L18.4416 37.5344L18.2616 37.3619H18.0815L17.9015 37.5644L17.7214 37.4344L17.5388 37.3319L17.3588 37.1993L17.1762 37.1568L16.9962 37.2293L16.8161 37.4594L16.6335 37.2018L16.4535 37.1793L16.2734 37.1818L16.0909 37.5969L15.9108 37.5319L15.7282 37.5769L15.5482 37.5119L15.3656 37.6044L15.1881 37.1643L15.008 37.3544L14.8254 37.2093L14.6454 37.1543L14.4628 37.2843L14.2828 37.4744L14.1027 37.2018L13.9201 37.4819L13.7376 37.3744L13.5575 37.6094L13.375 37.2893L13.1924 37.4619L13.0098 37.4969L12.8298 37.2843L12.6472 37.5444L12.4647 37.1893L12.2821 37.6245L12.0996 37.6445L11.847 37.1893L11.9245 37.5794L12.1771 37.7345L11.972 37.9346L12.1045 38.0996L11.9745 38.2922L11.8145 38.4872L11.8245 38.6673L12.2496 38.8048L12.037 39.0049L11.9845 39.19L12.032 39.365L12.2221 39.5276L12.1421 39.7151L12.2796 39.8802L12.1471 40.0728L12.3046 40.2378L12.4222 40.4054L12.1696 40.6104L12.1421 40.7905L12.0345 40.9806L12.5097 41.1156L12.0545 41.3382L12.1246 41.5107L12.1846 41.6858L12.3671 41.8483L12.1546 42.0484L12.5372 42.1909L12.3246 42.391L12.2371 42.5786L12.5722 42.7261L12.6422 42.8987L12.4822 43.0937L12.5772 43.2638L12.6272 43.4389L12.7548 43.6064L12.5297 43.809L12.6447 43.9765L12.7473 44.1466L12.5647 44.3442L12.7998 44.5017L12.5822 44.7018L12.5472 44.8843L12.4847 45.0694L12.6347 45.2344L12.6797 45.4095L12.8698 45.5721L12.8573 45.7521L12.7748 45.9397L12.7047 46.1272L12.9298 46.2848L12.9873 46.4598L12.8623 46.6499L12.8973 46.8275L12.8173 47.015L12.7998 47.1951L12.9373 47.3626L13.0924 47.5277L12.9898 47.7153L13.0974 47.8853L12.6872 48.1029L13.0349 48.2504L13.0799 48.4255L12.7523 48.6381L12.8798 48.9282Z" fill="url(#paint0_linear_4878_2563)"/>
<path d="M11.553 33.1104L11.503 33.123L11.4105 33.313L11.4155 33.4906L11.3555 33.6756L11.5655 33.8357L11.6881 34.0032L11.8306 34.1708L11.6606 34.3659L11.543 34.5584L11.6556 34.726L11.8581 34.886L11.7956 35.0736L11.6756 35.2637L11.8181 35.4312L11.8281 35.6088L11.7681 35.7938L11.7406 35.9764L11.9907 36.1339L12.0332 36.309L12.0282 36.4891L11.9907 36.6716L11.6431 36.8842L11.6631 37.0617L11.9282 37.2168L11.9657 37.2618L12.1007 37.6069L12.2808 37.4669L12.4583 37.5044L12.6384 37.3168L12.8185 37.2743L12.996 37.5469L13.1761 37.5794L13.3561 37.3793L13.5362 37.2493L13.7137 37.2818L13.8938 37.5694L14.0739 37.3919L14.2539 37.2543L14.434 37.3318L14.614 37.6244L14.7941 37.2093L14.9742 37.5794L15.1542 37.5419L15.3343 37.6069L15.5143 37.5294L15.6944 37.5219L15.8745 37.5469L16.0545 37.2768L16.2346 37.1918L16.4146 37.2193L16.5947 37.3593L16.7747 37.3693L16.9548 37.6319L17.1349 37.2968L17.3149 37.5269L17.4925 37.1968L17.6725 37.4119L17.8526 37.3618L18.0327 37.5594L18.2127 37.5294L18.3903 37.4219L18.5703 37.3068L18.7504 37.4919L18.9304 37.1743L19.1105 37.3293L19.2881 37.5019L19.4681 37.2993L19.6482 37.1743L19.8282 37.5619L20.0058 37.4344L20.1859 37.1893L20.3659 37.2768L20.546 37.2443L20.726 37.4369L20.9036 37.1743L21.0837 37.3293L21.2637 37.3218L21.4438 37.4869L21.6238 37.4794L21.8039 37.3293L21.984 37.3318L22.164 37.5519L22.3441 37.1993L22.5241 37.6094L22.7042 37.4244L22.8843 37.2518L23.0668 37.2343L23.2469 37.3193L23.4269 37.4594L23.607 37.5344L23.787 37.3318L23.9671 37.2718L24.1472 37.4119L24.3272 37.5594L24.5073 37.4569L24.6873 37.2393L24.8674 37.1643L25.0475 37.2818L25.2275 37.3593L25.4076 37.2143L25.5876 37.3468L25.7652 37.4469L25.9453 37.4244L26.1253 37.5319L26.3054 37.5869L26.4854 37.5269L26.6655 37.1543L26.8456 37.1768L27.0256 37.2368L27.2082 37.6369L27.3882 37.2068L27.5683 37.3718L27.7483 37.6119L27.9284 37.5269L28.111 37.4294L28.291 37.1843L28.4711 37.5719L28.6511 37.2268L28.8312 37.3743L29.0113 37.5844L29.1913 37.2343L29.3714 37.3718L29.5514 37.5044L29.7315 37.5544L29.9116 37.4844L30.0916 37.4994L30.2717 37.2693L30.4542 37.4844L30.6343 37.4494L30.8144 37.5569L30.9944 37.3243L31.177 37.6094L31.357 37.4569L31.5371 37.3793L31.7171 37.1693L31.8972 37.4044L32.0773 37.1868L32.2573 37.4744L32.4349 37.6394L32.6149 37.1643L32.795 37.1668L32.9751 37.2743L33.1551 37.3668L33.3377 37.4869L33.5177 37.4344L33.6978 37.2218L33.8779 37.6069L34.0579 37.5069L34.238 37.6244L34.418 37.5644L34.5981 37.3093L34.7782 37.2618L34.9582 37.1693L35.1383 37.1468L35.3183 37.4694L35.4984 37.6069L35.6784 37.5719L35.8585 37.5644L36.0386 37.3743L36.2186 37.3518L36.4012 37.2993L36.5812 37.5044L36.7613 37.3718L36.9414 37.4644L37.1239 37.4394L37.304 37.4544L37.484 37.5144L37.6641 37.2318L37.8442 37.3894L38.0267 37.4594L38.2068 37.6019L38.3893 37.5719L38.5694 37.5194L38.7495 37.4569L38.932 37.4344L39.1121 37.2643L39.2921 37.4719L39.4747 37.3969L39.6548 37.3193L39.8373 37.2668L40.0174 37.5094L40.1999 37.1568L40.3775 37.6269L40.5575 37.4594L40.7401 37.5994L40.9202 37.4519L41.1027 37.4494L41.2828 37.4294L41.4628 37.1493L41.6454 37.2693L41.828 37.6344L42.008 37.6469L42.1906 37.5069L42.3731 37.2768L42.5557 37.1568L42.7358 37.5294L42.9183 37.4519L43.1009 37.2793L43.2834 37.2093L43.466 37.6069L43.581 37.1793L43.7186 37.2243L43.5235 37.0267L43.7011 36.8642L43.571 36.6716L43.626 36.4966L43.9362 36.3465L43.7236 36.1464L43.9236 35.9864L43.9312 35.8063L43.9537 35.6288L43.8636 35.4412L43.8786 35.2637L43.9212 35.0861L44.0537 34.9185L43.8261 34.7185L43.9837 34.5534L43.8761 34.3634L43.7786 34.1733L43.9036 34.0057L44.1262 33.8482L44.1112 33.6656L44.0362 33.4806L43.8536 33.283L43.9637 33.113L44.1437 32.7403L43.8961 33.1505L43.7161 32.9604L43.5385 33.0879L43.3585 33.0104L43.1809 33.0354L43.0008 32.9804L42.8233 33.113L42.6432 32.6953L42.4657 32.7028L42.2856 32.9679L42.1081 32.8179L41.928 32.9204L41.7479 32.8754L41.5704 32.8053L41.3903 32.9254L41.2103 33.1029L41.0327 33.0129L40.8526 32.9154L40.6726 32.8954L40.4925 32.8754L40.3125 32.7403L40.1349 33.0004L39.9548 32.9304L39.7748 32.9654L39.5947 32.9804L39.4147 33.0104L39.2346 32.9654L39.0546 32.7478L38.8745 32.7253L38.6944 33.0829L38.5144 33.1405L38.3343 32.8854L38.1543 32.9804L37.9767 33.1355L37.7966 33.0729L37.6166 32.8529L37.4365 33.0154L37.259 32.7453L37.0789 32.8304H36.8988L36.7213 33.1505L36.5412 32.8429L36.3612 33.0004L36.1836 33.0329L36.0036 32.7703L35.8235 33.0729L35.6459 32.8504L35.4659 33.133L35.2858 32.7778L35.1083 32.9854L34.9282 33.1855L34.7481 32.8429L34.5706 32.8754L34.3905 32.8904L34.2105 33.0504L34.0304 32.7303L33.8528 32.7178L33.6728 32.9229L33.4927 32.9179L33.3127 32.8754L33.1326 32.7503L32.9526 32.7253L32.7725 33.1905L32.5924 33.0804L32.4124 33.0929L32.2323 32.9104L32.0523 33.183L31.8722 32.7853L31.6921 32.8129L31.5121 33.0404L31.332 33.163L31.152 32.8279L30.9719 32.9379L30.7918 33.0154L30.6143 33.1305L30.4342 33.0979L30.2542 33.0204L30.0741 32.8679L29.8941 32.7978L29.714 33.1855L29.5364 32.9904L29.3564 32.8904L29.1763 33.168L28.9963 32.9929L28.8162 32.7528L28.6361 32.9029L28.4561 33.0879L28.276 33.178L28.096 33.1079L27.9159 33.0779L27.7358 32.9404L27.5558 32.9704L27.3757 32.7678L27.1957 32.8204L27.0156 32.8254L26.8355 32.9279L26.6555 32.8053L26.4754 32.9904L26.2954 32.9779L26.1153 32.8454L25.9352 32.7953L25.7552 33.1755L25.5751 32.7978L25.3951 32.8504L25.215 33.0279L25.035 32.8003L24.8549 32.9954L24.6748 33.1605L24.4948 32.7403L24.3147 32.9554L24.1347 32.7753L23.9546 32.9479L23.7745 33.0579L23.5945 32.8979L23.4119 33.0804L23.2319 32.9279L23.0543 32.8779L22.8742 33.1755L22.6967 33.178L22.5166 33.193L22.3366 32.8704L22.1565 33.1605L21.9765 32.8604L21.7964 33.0679L21.6163 33.1905L21.4338 32.7553L21.2537 33.1054L21.0762 32.8179L20.8961 32.9154L20.716 33.1054L20.536 32.9654L20.3559 32.7303L20.1759 33.0729L19.9983 32.8154L19.8182 33.158L19.6382 33.0879L19.4581 32.9804L19.2781 32.8504L19.098 33.0654L18.9179 33.0129L18.7379 32.8979L18.5553 33.183L18.3753 32.9279L18.1952 33.128L18.0152 33.0979L17.8351 32.8053L17.655 32.7403L17.475 33.1855L17.2949 33.0329L17.1149 32.8354L16.9323 33.0179L16.7522 33.0979L16.5697 32.7678L16.3896 32.8053L16.2096 33.0879L16.0295 32.8929L15.8494 32.8479L15.6669 32.8579L15.4868 32.9754L15.3043 32.8379L15.1242 33.133H14.9441L14.7641 33.0979L14.584 33.0504L14.404 32.9079L14.2239 33.1605L14.0413 32.8879L13.8613 32.7528L13.6812 32.7703L13.4987 33.118L13.3161 33.0479L13.1361 33.178L12.9535 32.7553L12.7734 32.9654L12.5909 33.1054L12.4083 32.7203L12.2283 32.7453L12.0457 32.9229L11.8631 33.153L11.6906 32.9654L11.553 33.1104Z" fill="#FF5378"/>
<path d="M29.9001 48.6837L29.8326 48.7287L29.655 48.6962L29.4775 48.9013L29.2999 49.0238L29.1223 48.6887L28.9448 48.9763L28.7672 48.6612L28.5922 48.5587L28.4146 48.5637L28.2371 49.0013L28.057 48.8412L27.8794 48.6212L27.7019 48.5912L27.5243 48.5587L27.3468 48.9363L27.1667 48.6012L26.9891 48.9138L26.8116 48.9563L26.6315 48.7212L26.454 48.9863L26.2764 48.8888L26.0964 48.6462L25.9163 48.6112L25.7362 48.8387L25.7087 48.6387L25.3536 48.6112L25.4486 48.4311L25.6662 48.2511L25.7337 48.071L25.5562 47.8909L25.6512 47.7109L25.7813 47.5308L25.4011 47.3508L25.4161 47.1707L25.6812 46.9906L25.5387 46.8106L25.7738 46.6305L25.4887 46.4505L25.4786 46.2704L25.6462 46.0903L25.5262 45.9103L25.6362 45.7302L25.5537 45.5502L25.6712 45.3701L25.5587 45.1901L25.5737 45.01L25.4186 44.8324L25.6212 44.6524L25.3661 44.4723L25.6837 44.2923L25.4436 44.1122L25.8013 43.9346L25.5887 43.7546L25.5112 43.5745L25.7637 43.3945L25.6287 43.2144L25.7187 43.0368L25.4786 42.8568L25.6937 42.6767L25.4286 42.4967L25.3136 42.3166L25.7487 42.139L25.3136 41.959L25.4286 41.7789L25.7437 41.5989L25.7913 41.4188L25.6237 41.2388L25.4386 41.0587L25.7537 40.8786L25.5437 40.6986L25.4812 40.5185L25.4611 40.3385L25.4236 40.1584L25.7687 39.9783L25.7112 39.7983L25.6887 39.6157L25.7913 39.4357L25.4561 39.2556L25.5687 39.0755L25.6587 38.8955L25.7012 38.7154L25.3986 38.5354L25.4837 38.3553L25.5187 38.1753L25.6687 37.9952L25.7888 37.8151L25.7512 37.6351L25.6637 37.455L25.3186 37.275L25.4261 37.0949L25.5887 36.9148L25.7012 36.7348L25.6687 36.5547L25.4586 36.3747L25.7387 36.1946L25.5062 36.0145L25.3411 35.8345L25.6762 35.6544L25.5387 35.4744L25.3286 35.2943L25.4711 35.1142L25.3086 34.9317L25.6187 34.7516L25.7062 34.5716L25.3611 34.3915L25.3511 34.2115L25.6612 34.0289L25.6462 33.8488L25.7087 33.6688L25.3586 33.4887L25.3936 33.3087L25.3286 33.1286L25.4011 32.9485L25.7387 32.7685L25.7287 32.5884L25.3111 32.4084L25.7187 32.2283L25.4786 32.0457L25.7187 31.8657L25.4536 31.6856L25.4861 31.5056L25.3586 31.323L25.7787 31.1429L25.5887 30.9629L25.4461 30.7828L25.5312 30.6028L25.7988 30.4227L25.6037 30.2452L25.4261 30.0651L25.5762 29.885L25.6162 29.705L25.4987 29.5224L25.5837 29.3424L25.4111 29.1623L25.4912 28.9822L25.5937 28.8022L25.7762 28.6196L25.6112 28.4396L25.5112 28.2595L25.3936 28.0819L25.3636 27.9019L25.5612 27.7218L25.6037 27.5418L25.3411 27.3617L25.4736 27.1816L25.5087 27.0016L25.5737 26.8215L25.4586 26.6415L25.5437 26.4589L25.3961 26.2789L25.3511 26.0988L25.5812 25.9162L25.6762 25.7362L25.5562 25.5561L25.3286 25.3761L25.6812 25.1935L25.5962 25.0134L25.6787 24.8334L25.5312 24.6533L25.5437 24.4708L25.7837 24.2907L25.6062 24.1081L25.4661 23.9281L25.7237 23.748L25.5587 23.5655L25.3386 23.3854L25.3736 23.2028L25.5687 23.0228L25.6512 22.8402L25.3711 22.6602L25.7888 22.4801L25.7587 22.3L25.6012 22.12L25.7037 21.9374L25.5712 21.7574L25.6337 21.5748L25.4786 21.3948L25.6337 21.2122L25.3411 21.0321L25.7312 20.8496L25.7587 20.6695L25.7037 20.487L25.5012 20.3044L25.3511 20.1218L25.3961 19.9418L25.3986 19.7592L25.7287 19.5767L25.5562 19.3941L25.3611 19.2115L25.4987 18.969L25.7362 19.124L25.9138 18.8564L26.0914 19.2115L26.2689 18.9615L26.4465 19.089L26.624 19.2315L26.8016 19.1165L26.9766 18.9089L27.1542 19.179L27.3318 19.2741L27.5118 18.9815L27.6894 19.0465L27.8669 18.9139L28.0445 19.034H28.222L28.4021 19.2616L28.5797 18.8164L28.7572 18.8489L28.9373 18.984L29.1148 19.1115L29.2924 19.244L29.4725 18.8464L29.6525 19.239L29.8326 18.8989L29.9076 19.1315L30.2552 19.2065L29.8701 19.3866L30.1852 19.5667L30.1802 19.7467L29.7976 19.9268L29.7801 20.1068L30.2227 20.2869L30.0226 20.4669L30.1477 20.647L29.8926 20.8271L30.0051 21.0071L30.0401 21.1872L30.2127 21.3672L30.1627 21.5473L30.1477 21.7274L29.9551 21.9074L29.8501 22.0875L30.1327 22.2675L29.7951 22.4476L30.2202 22.6277L29.9626 22.8077L29.8726 22.9878L29.8926 23.1653L29.9151 23.3454L30.0802 23.5254L29.8326 23.7055L29.8976 23.8856L30.0301 24.0631L29.9376 24.2432L29.7951 24.4232L30.1052 24.6033L29.9076 24.7834L29.8201 24.9609L29.8876 25.141L29.9551 25.321L29.9276 25.5011L30.1977 25.6812L29.8526 25.8587L29.9851 26.0388L29.7976 26.2188L29.8951 26.3989L30.0552 26.5789L29.8026 26.759L29.9976 26.9391L29.8351 27.1191L29.8826 27.2992L30.2202 27.4792L30.1977 27.6593L30.1102 27.8394L30.0226 28.0219L29.9476 28.202L29.7726 28.382L29.8926 28.5621L29.8351 28.7422L29.9876 28.9222L30.1852 29.1023L29.9626 29.2823L30.2327 29.4624L30.1002 29.6425L29.8526 29.8225V30.0026L29.7951 30.1826L30.0201 30.3627L29.8251 30.5427L29.9001 30.7228L30.0777 30.9029L29.7676 31.0829L29.8276 31.263L30.1852 31.443L29.7901 31.6231L30.2352 31.8032L30.0151 31.9832L30.1627 32.1633L29.8501 32.3433L29.9151 32.5234L30.0251 32.706L29.9626 32.886L29.9326 33.0661L29.9201 33.2461L30.1252 33.4287L30.1652 33.6088L30.0576 33.7888L30.1852 33.9689L30.0702 34.1489L30.0276 34.329L29.8601 34.509L29.9851 34.6891L29.9676 34.8692L29.9576 35.0492L30.0101 35.2293L30.1777 35.4093L30.2527 35.5919L30.2352 35.772L30.0051 35.952L29.7776 36.1321L30.0727 36.3146L30.2452 36.4947L30.2477 36.6748L29.8026 36.8548L30.2052 37.0349L30.2477 37.2149L30.1602 37.395L29.9651 37.5751L29.7726 37.7526L29.9551 37.9327L30.2577 38.1152L30.1827 38.2953L29.9051 38.4753L29.8976 38.6554L29.8701 38.838L29.9626 39.018L30.1052 39.1981L29.8976 39.3781L30.0226 39.5582L30.1252 39.7383L29.9726 39.9183L30.1127 40.0959V40.2759L29.9476 40.456L30.0251 40.6361L29.9576 40.8161L29.8751 40.9962L30.1602 41.1762L29.7951 41.3588L29.8976 41.5389L29.8276 41.7214L29.9151 41.9015L29.9301 42.0815L29.8701 42.2616L30.1577 42.4441L30.1252 42.6242L29.9601 42.8043L29.8876 42.9843L30.2327 43.1644L29.8076 43.3469L30.0001 43.527L30.0451 43.7096L30.2127 43.8896L29.8326 44.0722L29.9951 44.2522L29.9626 44.4323L29.9501 44.6149L30.2052 44.7949L29.8376 44.9775L29.9576 45.1575L30.1527 45.3401L29.7876 45.5202L29.9201 45.7002L29.9076 45.8803L29.9651 46.0603L30.0802 46.2429L29.9526 46.423L30.1152 46.6055L29.9876 46.7856L29.9751 46.9681L30.1352 47.1507L30.1652 47.3308L29.8776 47.5133L30.1052 47.6959L30.0126 47.8784L30.0602 48.0585L30.0251 48.2411L30.1952 48.4236L30.0702 48.6337L29.9001 48.6837Z" fill="#FF5378"/>
<path d="M25.1198 17.5668L25.1548 17.2818L24.8897 17.3143L24.5971 17.3868L24.7497 16.9041L24.4946 16.9341L24.4271 16.7241L24.0695 16.8916L24.0069 16.6691L23.9444 16.449L23.6443 16.5515L23.6093 16.2889L23.4368 16.2189L23.3042 16.0914L23.2817 15.8013L23.0791 15.7738L22.9341 15.6612L22.8115 15.5187L22.5265 15.6162L22.3989 15.4787L22.3289 15.2511L22.2138 15.0885L21.8837 15.2786L21.7812 15.0935L21.6762 14.9135L21.5661 14.7409L21.3536 14.7434L21.1335 14.7659L21.0785 14.4883L20.7109 14.7859L20.5908 14.6309L20.5683 14.2783L20.3908 14.2233L20.2857 14.0232L19.9881 14.2258L19.8356 14.1232L19.728 13.9182L19.4955 13.9982L19.2629 14.0882L19.2129 13.7331L19.0553 13.6381L18.7902 13.8306L18.6177 13.7831L18.5051 13.558L18.3726 13.383L18.205 13.3055L18.0575 13.1579L17.7799 13.4705L17.6298 13.3305L17.4698 13.2179L17.2822 13.2204L17.0897 13.2754L16.9671 12.9153L16.7846 12.8828L16.572 13.0829L16.3744 13.2829L16.2194 12.9578L16.0368 12.9503L15.8518 13.0579L15.6792 13.2279L15.5042 13.1954L15.3241 13.1804L15.174 13.348L14.984 13.2654L14.7414 13.0379L14.6464 13.3405L14.3613 13.1054L14.3788 13.5805L14.1637 13.5355L13.9787 13.5705L13.8561 13.7006L13.6961 13.7906L13.5085 13.8631L13.516 14.1057L13.3785 14.2233L13.4035 14.4558L13.1009 14.4758L12.9158 14.5809L13.1134 14.886L12.8933 14.9785L12.8483 15.1561L12.9658 15.3936L12.6557 15.4687L12.7833 15.7012L12.7983 15.8913L12.3806 15.9563L12.4732 16.1714L12.2631 16.3139L12.2931 16.509L12.5907 16.7391L12.2981 16.8841L12.123 17.0542L12.2756 17.2492L12.4131 17.4343L12.5357 17.6119L12.1531 17.8044L12.1405 17.992L12.4306 18.152L12.2456 18.3571L12.4256 18.5172L12.4832 18.6897L12.4582 18.8798L12.6282 19.0273L12.5307 19.2374L12.7032 19.3774L12.7007 19.565L12.7207 19.7501L12.8683 19.8876L12.6157 20.1777L13.0959 20.1827L13.0408 20.3978L12.8983 20.6629L13.0108 20.8129L13.0158 21.018L13.3059 21.0705L13.2709 21.2981L13.4885 21.3831L13.4835 21.7032L13.7286 21.7157L13.9061 21.3906L14.0862 21.4081L14.2662 21.4506L14.4438 21.7082L14.6239 21.3756L14.8039 21.4356L14.9815 21.6607L15.1615 21.5957L15.3416 21.7982L15.5192 21.7307L15.6992 21.7682L15.8793 21.7882L16.0568 21.6732L16.2369 21.3106L16.417 21.6257L16.597 21.3206L16.7746 21.3631L16.9546 21.3556L17.1347 21.4231L17.3122 21.7857L17.4923 21.5657L17.6724 21.6457L17.8499 21.3756L18.03 21.6657L18.21 21.4781L18.3876 21.7782L18.5677 21.3581L18.7477 21.5356L18.9253 21.5657L19.1053 21.4481L19.2854 21.7507L19.4629 21.6932L19.643 21.5006L19.8231 21.5532L20.0006 21.5482L20.1807 21.5432L20.3607 21.5231L20.5383 21.4031L20.7184 21.3281L20.8984 21.6182L21.0785 21.4056L21.256 21.6707H21.4361L21.6162 21.7232L21.7937 21.5882L21.9738 21.7807L22.1538 21.6832L22.3314 21.5281L22.5114 21.3781L22.6915 21.5056L22.8691 21.6107L23.0491 21.3956L23.2292 21.6282L23.4067 21.4231L23.5868 21.6257L23.7669 21.5632L23.9444 21.4556L24.1245 21.8007L24.3045 21.7757L24.4821 21.4881L24.6622 21.5381L24.8422 21.5306L25.0198 21.7382L25.1998 21.4431L25.3799 21.4831L25.575 21.6032L25.5674 21.2556L25.9476 21.4706L25.8976 21.0855L26.1251 21.0905L26.2877 21.0005L26.4652 20.9355L26.7078 20.9605L26.8054 20.7804L26.9054 20.6078L27.0004 20.4253L27.0779 20.2202L27.4281 20.3903L27.3555 19.9801L27.4906 19.8526L27.9657 19.9626L27.6081 20.0252L27.4256 19.7751L27.2505 20.0177L27.0704 19.8551L26.8929 19.9126L26.7153 20.0727L26.5353 19.8926L26.3577 20.1052L26.1776 19.8426L26.0001 20.1327L25.8225 20.2152L25.645 20.0602L25.4649 19.8026L25.2874 20.0101L25.1098 20.1927L24.9297 20.0377L24.7522 20.1152L24.5746 19.9426L24.3946 20.0377L24.2145 20.1152L24.0369 19.9926L23.8544 20.0927L23.6843 19.7426L23.5018 19.8726L23.3217 20.0377L23.1392 20.1302L22.9591 20.1277L22.779 20.1927L22.6115 19.8201L22.4264 19.9576L22.2539 19.7926L22.0688 19.9376L21.8988 19.7076L21.7212 19.6675L21.5411 19.65L21.3411 20.0026L21.1785 19.7201L21.0035 19.625L20.8059 19.9101L20.6258 19.8751L20.4333 20.0652L20.2857 19.6025L20.0957 19.7276L19.9081 19.8051L19.7105 19.9876L19.5705 19.5675L19.3729 19.7451L19.1704 19.9276L19.0003 19.8151L18.8402 19.6475L18.6702 19.5625L18.4626 19.7526L18.2926 19.6675L18.1125 19.655L17.96 19.47L17.7424 19.65L17.6198 19.3499L17.3873 19.565L17.1947 19.5925L17.0447 19.4375L16.9071 19.2674L16.7371 19.2149L16.592 19.0923L16.3269 19.2599L16.1844 19.1249L15.9768 19.1099L15.8393 18.9698L15.9043 18.5797L15.5992 18.6572L15.4841 18.5072L15.2116 18.4546L15.184 18.2321L15.0415 18.057L15.064 17.8344L15.0315 17.6244L15.189 17.4368L15.2941 17.2642L15.179 17.0292L15.2641 16.8491L15.6192 16.8191L15.7767 16.7166L15.8393 16.554L15.9818 16.4565L15.8593 16.0614L15.9968 15.9063L16.2794 16.0313L16.442 16.0013L16.6045 15.9813L16.7721 16.0714L16.9296 16.0564L17.1172 15.7488L17.2672 16.0038L17.4473 15.9638L17.6324 15.9288L17.7674 16.1364L17.96 16.0789L18.1125 16.1889L18.3426 16.0263L18.4276 16.3514L18.6802 16.1389L18.8753 16.1189L18.9578 16.4265L19.1629 16.3765L19.2629 16.6165L19.4304 16.6791L19.5855 16.7666L19.7731 16.7691L20.0231 16.6165L20.1582 16.7616L20.2707 16.9591L20.5283 16.8041L20.6358 17.0117L20.7659 17.1642L21.001 17.0742L21.076 17.3543L21.3636 17.1542L21.5486 17.1867L21.7562 17.1692L21.8487 17.4043L22.0038 17.5018L22.0588 17.8144L22.3689 17.5794L22.4664 17.7969L22.574 17.9845L22.8115 17.9095L23.0716 17.7969L23.2342 17.882L23.3392 18.0795L23.4693 18.2246L23.6443 18.2821L23.8544 18.2696L24.0445 18.3021L24.0745 18.6322L24.252 18.6872L24.4846 18.6472L24.6021 18.8073L24.6196 19.1524L24.9798 18.8873L25.0023 19.2224L25.0973 19.0198L25.1798 19.0348L25.1123 18.8498L25.2448 18.6597L25.1398 18.4746L25.0373 18.2896L25.0298 18.1045L25.0648 17.9145L25.0298 17.7294L25.1198 17.5668Z" fill="url(#paint1_linear_4878_2563)"/>
<path d="M25.1198 17.5668L25.1548 17.2818L24.8897 17.3143L24.5971 17.3868L24.7497 16.9041L24.4946 16.9341L24.4271 16.7241L24.0695 16.8916L24.0069 16.6691L23.9444 16.449L23.6443 16.5515L23.6093 16.2889L23.4368 16.2189L23.3042 16.0914L23.2817 15.8013L23.0791 15.7738L22.9341 15.6612L22.8115 15.5187L22.5265 15.6162L22.3989 15.4787L22.3289 15.2511L22.2138 15.0885L21.8837 15.2786L21.7812 15.0935L21.6762 14.9135L21.5661 14.7409L21.3536 14.7434L21.1335 14.7659L21.0785 14.4883L20.7109 14.7859L20.5908 14.6309L20.5683 14.2783L20.3908 14.2233L20.2857 14.0232L19.9881 14.2258L19.8356 14.1232L19.728 13.9182L19.4955 13.9982L19.2629 14.0882L19.2129 13.7331L19.0553 13.6381L18.7902 13.8306L18.6177 13.7831L18.5051 13.558L18.3726 13.383L18.205 13.3055L18.0575 13.1579L17.7799 13.4705L17.6298 13.3305L17.4698 13.2179L17.2822 13.2204L17.0897 13.2754L16.9671 12.9153L16.7846 12.8828L16.572 13.0829L16.3744 13.2829L16.2194 12.9578L16.0368 12.9503L15.8518 13.0579L15.6792 13.2279L15.5042 13.1954L15.3241 13.1804L15.174 13.348L14.984 13.2654L14.7414 13.0379L14.6464 13.3405L14.3613 13.1054L14.3788 13.5805L14.1637 13.5355L13.9787 13.5705L13.8561 13.7006L13.6961 13.7906L13.5085 13.8631L13.516 14.1057L13.3785 14.2233L13.4035 14.4558L13.1009 14.4758L12.9158 14.5809L13.1134 14.886L12.8933 14.9785L12.8483 15.1561L12.9658 15.3936L12.6557 15.4687L12.7833 15.7012L12.7983 15.8913L12.3806 15.9563L12.4732 16.1714L12.2631 16.3139L12.2931 16.509L12.5907 16.7391L12.2981 16.8841L12.123 17.0542L12.2756 17.2492L12.4131 17.4343L12.5357 17.6119L12.1531 17.8044L12.1405 17.992L12.4306 18.152L12.2456 18.3571L12.4256 18.5172L12.4832 18.6897L12.4582 18.8798L12.6282 19.0273L12.5307 19.2374L12.7032 19.3774L12.7007 19.565L12.7207 19.7501L12.8683 19.8876L12.6157 20.1777L13.0959 20.1827L13.0408 20.3978L12.8983 20.6629L13.0108 20.8129L13.0158 21.018L13.3059 21.0705L13.2709 21.2981L13.4885 21.3831L13.4835 21.7032L13.7286 21.7157L13.9061 21.3906L14.0862 21.4081L14.2662 21.4506L14.4438 21.7082L14.6239 21.3756L14.8039 21.4356L14.9815 21.6607L15.1615 21.5957L15.3416 21.7982L15.5192 21.7307L15.6992 21.7682L15.8793 21.7882L16.0568 21.6732L16.2369 21.3106L16.417 21.6257L16.597 21.3206L16.7746 21.3631L16.9546 21.3556L17.1347 21.4231L17.3122 21.7857L17.4923 21.5657L17.6724 21.6457L17.8499 21.3756L18.03 21.6657L18.21 21.4781L18.3876 21.7782L18.5677 21.3581L18.7477 21.5356L18.9253 21.5657L19.1053 21.4481L19.2854 21.7507L19.4629 21.6932L19.643 21.5006L19.8231 21.5532L20.0006 21.5482L20.1807 21.5432L20.3607 21.5231L20.5383 21.4031L20.7184 21.3281L20.8984 21.6182L21.0785 21.4056L21.256 21.6707H21.4361L21.6162 21.7232L21.7937 21.5882L21.9738 21.7807L22.1538 21.6832L22.3314 21.5281L22.5114 21.3781L22.6915 21.5056L22.8691 21.6107L23.0491 21.3956L23.2292 21.6282L23.4067 21.4231L23.5868 21.6257L23.7669 21.5632L23.9444 21.4556L24.1245 21.8007L24.3045 21.7757L24.4821 21.4881L24.6622 21.5381L24.8422 21.5306L25.0198 21.7382L25.1998 21.4431L25.3799 21.4831L25.575 21.6032L25.5674 21.2556L25.9476 21.4706L25.8976 21.0855L26.1251 21.0905L26.2877 21.0005L26.4652 20.9355L26.7078 20.9605L26.8054 20.7804L26.9054 20.6078L27.0004 20.4253L27.0779 20.2202L27.4281 20.3903L27.3555 19.9801L27.4906 19.8526L27.9657 19.9626L27.6081 20.0252L27.4256 19.7751L27.2505 20.0177L27.0704 19.8551L26.8929 19.9126L26.7153 20.0727L26.5353 19.8926L26.3577 20.1052L26.1776 19.8426L26.0001 20.1327L25.8225 20.2152L25.645 20.0602L25.4649 19.8026L25.2874 20.0101L25.1098 20.1927L24.9297 20.0377L24.7522 20.1152L24.5746 19.9426L24.3946 20.0377L24.2145 20.1152L24.0369 19.9926L23.8544 20.0927L23.6843 19.7426L23.5018 19.8726L23.3217 20.0377L23.1392 20.1302L22.9591 20.1277L22.779 20.1927L22.6115 19.8201L22.4264 19.9576L22.2539 19.7926L22.0688 19.9376L21.8988 19.7076L21.7212 19.6675L21.5411 19.65L21.3411 20.0026L21.1785 19.7201L21.0035 19.625L20.8059 19.9101L20.6258 19.8751L20.4333 20.0652L20.2857 19.6025L20.0957 19.7276L19.9081 19.8051L19.7105 19.9876L19.5705 19.5675L19.3729 19.7451L19.1704 19.9276L19.0003 19.8151L18.8402 19.6475L18.6702 19.5625L18.4626 19.7526L18.2926 19.6675L18.1125 19.655L17.96 19.47L17.7424 19.65L17.6198 19.3499L17.3873 19.565L17.1947 19.5925L17.0447 19.4375L16.9071 19.2674L16.7371 19.2149L16.592 19.0923L16.3269 19.2599L16.1844 19.1249L15.9768 19.1099L15.8393 18.9698L15.9043 18.5797L15.5992 18.6572L15.4841 18.5072L15.2116 18.4546L15.184 18.2321L15.0415 18.057L15.064 17.8344L15.0315 17.6244L15.189 17.4368L15.2941 17.2642L15.179 17.0292L15.2641 16.8491L15.6192 16.8191L15.7767 16.7166L15.8393 16.554L15.9818 16.4565L15.8593 16.0614L15.9968 15.9063L16.2794 16.0313L16.442 16.0013L16.6045 15.9813L16.7721 16.0714L16.9296 16.0564L17.1172 15.7488L17.2672 16.0038L17.4473 15.9638L17.6324 15.9288L17.7674 16.1364L17.96 16.0789L18.1125 16.1889L18.3426 16.0263L18.4276 16.3514L18.6802 16.1389L18.8753 16.1189L18.9578 16.4265L19.1629 16.3765L19.2629 16.6165L19.4304 16.6791L19.5855 16.7666L19.7731 16.7691L20.0231 16.6165L20.1582 16.7616L20.2707 16.9591L20.5283 16.8041L20.6358 17.0117L20.7659 17.1642L21.001 17.0742L21.076 17.3543L21.3636 17.1542L21.5486 17.1867L21.7562 17.1692L21.8487 17.4043L22.0038 17.5018L22.0588 17.8144L22.3689 17.5794L22.4664 17.7969L22.574 17.9845L22.8115 17.9095L23.0716 17.7969L23.2342 17.882L23.3392 18.0795L23.4693 18.2246L23.6443 18.2821L23.8544 18.2696L24.0445 18.3021L24.0745 18.6322L24.252 18.6872L24.4846 18.6472L24.6021 18.8073L24.6196 19.1524L24.9798 18.8873L25.0023 19.2224L25.0973 19.0198L25.1798 19.0348L25.1123 18.8498L25.2448 18.6597L25.1398 18.4746L25.0373 18.2896L25.0298 18.1045L25.0648 17.9145L25.0298 17.7294L25.1198 17.5668Z" fill="url(#paint2_linear_4878_2563)"/>
<path d="M30.261 17.4735L30.5961 17.4985L30.5135 17.1109L30.9637 17.3735L30.8712 16.9683L31.1838 17.0709L31.2938 16.9183L31.2863 16.6082L31.3988 16.4532L31.6439 16.4757L31.7014 16.2456L31.874 16.1706L32.1116 16.1881L32.3667 16.2331L32.4917 16.0956L32.6968 16.0756L32.8343 15.9555L32.7468 15.4979L32.9769 15.5129L33.0994 15.3678L33.302 15.3453L33.3795 15.1252L33.6396 15.1978L33.7596 15.0452L33.9897 15.0777L34.1672 15.0252L34.3673 15.0102L34.4298 14.7526L34.6299 14.7401L34.85 14.7701L34.9475 14.5701L35.1101 14.49L35.2801 14.4275L35.3351 14.1299L35.6277 14.3225L35.7478 14.1549L35.8578 13.9574L36.0529 13.9474L36.2879 14.0474L36.343 13.6998L36.568 13.7748L36.6731 13.5447L36.9457 13.7648L36.9957 13.3547L37.2608 13.5797L37.4483 13.5822L37.5408 13.2571L37.7709 13.3997L37.951 13.3722L38.096 13.1996L38.2311 12.962L38.4787 13.2671L38.6687 13.3146L38.8238 13.1546L39.0013 13.1246L39.1814 13.1471L39.3639 13.1821L39.534 12.977L39.7141 13.1396L39.8941 13.0721L40.0842 12.957L40.2267 13.3146L40.4543 12.9845L40.5618 13.3547L40.8444 12.9695L40.8894 13.4347L41.1445 13.2496L41.3696 13.2121L41.4271 13.4922L41.5171 13.6723L41.8223 13.5647L41.7572 13.9073L42.0148 13.9023L42.1749 14.0049L42.3299 14.1199L42.4825 14.2425L42.5 14.45L42.67 14.5676L42.7275 14.7476L42.7475 14.9427L42.9426 15.0577L42.7501 15.3328L42.8826 15.4754L42.9801 15.6304L43.0351 15.8055L43.0952 15.9805L42.8676 16.2231L42.9151 16.3907L42.9501 16.5632L43.1927 16.7058L43.0977 16.8983L43.2552 17.0659L43.4353 17.2384L43.4928 17.426L43.3127 17.6136L43.4253 17.8011L43.1152 17.9662L43.2777 18.1612L43.3803 18.3613L43.3327 18.5414L43.2227 18.7114L43.1077 18.8765L42.9026 19.0165L43.2627 19.2941L43.0477 19.4267L43.0652 19.6242L42.6525 19.6792L43.0526 20.0118L42.645 20.0544L42.5275 20.2019L42.4725 20.372L42.7025 20.6746L42.3374 20.7021L42.2899 20.8771L42.2549 21.0647L42.1223 21.1947L41.9848 21.3223L42.0898 21.7149L41.8398 21.6374L41.6622 21.4598L41.4821 21.7524L41.3021 21.3398L41.1245 21.6824L40.9445 21.7049L40.7644 21.3848L40.5868 21.5173L40.4068 21.4648L40.2267 21.4898L40.0492 21.4923L39.8691 21.5123L39.6891 21.6749L39.509 21.4998L39.3314 21.7799L39.1514 21.3173L38.9713 21.6899L38.7938 21.4098L38.6137 21.7149L38.4336 21.7299L38.2561 21.4623L38.076 21.6749L37.896 21.5423L37.7184 21.4323L37.5383 21.3448L37.3583 21.6799L37.1807 21.5348L37.0007 21.6424L36.8206 21.7174L36.6431 21.4198L36.463 21.3498L36.2829 21.4648L36.1054 21.3098L35.9253 21.6799L35.7453 21.6449L35.5677 21.4848L35.3876 21.7024L35.2076 21.5699L35.0275 21.3373L34.85 21.5924L34.6699 21.6324L34.4898 21.3998L34.3123 21.3948L34.1322 21.3773L33.9522 21.3223L33.7746 21.6199L33.5946 21.5749L33.4145 21.6924L33.2369 21.3773L33.0569 21.6474L32.8768 21.3673L32.6993 21.4373L32.5192 21.7249L32.3391 21.7774L32.1616 21.3273L31.9815 21.3548L31.8015 21.4023L31.6239 21.4348L31.4438 21.4723L31.2638 21.7524L31.0862 21.5524L30.9062 21.6149L30.7261 21.7974L30.5461 21.6599L30.3685 21.7099L30.1884 21.3523L29.9959 21.5924L29.8033 21.5248L29.6032 21.4898L29.4982 21.3223L29.4932 21.0172L29.2856 20.9897L29.1381 20.8846L28.953 20.8246L28.7505 20.7946L28.723 20.5195L28.5204 20.487L28.4304 20.3019L28.1128 20.427L27.9927 20.2819L27.9227 20.0644L27.5801 19.9593L27.9577 20.0794L28.1453 19.7543L28.3228 19.7217L28.4954 19.9793L28.6804 19.7242L28.853 20.0544L29.0356 19.8193L29.2106 20.1194L29.3882 20.1444L29.5682 20.0444L29.7483 19.7268L29.9233 19.9043L30.1034 19.9843L30.281 19.7443L30.4585 19.8393L30.6386 20.1244L30.8161 19.9768L30.9962 20.1169L31.1738 19.9018L31.3538 20.1569L31.5339 20.1419L31.7114 20.0068L31.894 20.1869L32.0665 19.8943L32.2516 20.2019L32.4317 20.1919L32.6092 20.1819L32.7868 20.1069L32.9643 19.9993L33.1394 19.8668L33.3245 20.0444L33.492 19.7543L33.6846 20.0268L33.8671 20.0819L34.0447 19.9768L34.2173 19.8343L34.4123 20.1069L34.5699 19.7017L34.7649 19.9518L34.925 19.6392L35.1351 20.0594L35.3101 19.9543L35.4627 19.6042L35.6627 19.8343L35.8153 19.5317L36.0304 19.8943L36.2104 19.8843L36.378 19.7393L36.5605 19.7518L36.7406 19.7468L36.8856 19.4667L37.0507 19.3741L37.2958 19.7893L37.4083 19.3641L37.6634 19.7768L37.7934 19.4792L37.9635 19.4116L38.1811 19.5692L38.2786 19.2041L38.4461 19.1516L38.6512 19.2316L38.8413 19.2416L39.0789 19.3591L39.2489 19.2741L39.394 19.1416L39.3915 18.7689L39.7441 18.984L39.7291 18.6564L39.8041 18.4838L40.0017 18.4363L40.3092 18.4238L40.3443 18.2113L40.4568 18.0362L40.1242 17.7861L40.4543 17.6236L40.5593 17.4085L40.4943 17.2084L40.1542 17.1084L40.2342 16.8783L40.2767 16.6332L40.0367 16.5482L39.9916 16.3381L39.8666 16.1831L39.479 16.3306V16.038L39.394 15.8105L39.1239 16.0055L38.9463 16.0906L38.8063 15.883L38.6287 15.6079L38.4436 15.6454L38.2886 15.908L38.106 15.8755L37.9785 16.1406L37.7909 16.0856L37.6284 16.1581L37.3858 15.9255L37.1882 15.888L37.0807 16.1531L36.9281 16.2606L36.7681 16.3406L36.6431 16.5132L36.413 16.3957L36.2454 16.4557L36.0679 16.4857L35.8803 16.5007L35.7628 16.6833L35.4902 16.4782L35.4227 16.7933L35.1526 16.6007L35.1501 17.0609L34.9975 17.1634L34.7374 17.0059L34.6249 17.2034L34.4423 17.2384L34.3423 17.461L34.0972 17.3535L33.8546 17.2584L33.7796 17.5335H33.5796L33.327 17.4235L33.2319 17.6436L33.1819 17.9562L33.0269 18.0487L32.6918 17.7786L32.6392 18.0762L32.4317 18.0712L32.2016 18.0187L32.1091 18.2413L31.914 18.2563L31.884 18.5914L31.6714 18.5764L31.4188 18.4913L31.4288 18.8915L31.1112 18.6939L31.1087 19.0615L30.9237 19.104L30.6036 18.9115L30.406 18.9365L30.3635 19.2016L30.376 19.0315L30.1834 18.8415L30.391 18.6589L30.441 18.4713L30.286 18.2813L30.421 18.0987L30.2335 17.9062L30.4385 17.7236L30.261 17.4735Z" fill="url(#paint3_linear_4878_2563)"/>
<path d="M30.261 17.4735L30.5961 17.4985L30.5135 17.1109L30.9637 17.3735L30.8712 16.9683L31.1838 17.0709L31.2938 16.9183L31.2863 16.6082L31.3988 16.4532L31.6439 16.4757L31.7014 16.2456L31.874 16.1706L32.1116 16.1881L32.3667 16.2331L32.4917 16.0956L32.6968 16.0756L32.8343 15.9555L32.7468 15.4979L32.9769 15.5129L33.0994 15.3678L33.302 15.3453L33.3795 15.1252L33.6396 15.1978L33.7596 15.0452L33.9897 15.0777L34.1672 15.0252L34.3673 15.0102L34.4298 14.7526L34.6299 14.7401L34.85 14.7701L34.9475 14.5701L35.1101 14.49L35.2801 14.4275L35.3351 14.1299L35.6277 14.3225L35.7478 14.1549L35.8578 13.9574L36.0529 13.9474L36.2879 14.0474L36.343 13.6998L36.568 13.7748L36.6731 13.5447L36.9457 13.7648L36.9957 13.3547L37.2608 13.5797L37.4483 13.5822L37.5408 13.2571L37.7709 13.3997L37.951 13.3722L38.096 13.1996L38.2311 12.962L38.4787 13.2671L38.6687 13.3146L38.8238 13.1546L39.0013 13.1246L39.1814 13.1471L39.3639 13.1821L39.534 12.977L39.7141 13.1396L39.8941 13.0721L40.0842 12.957L40.2267 13.3146L40.4543 12.9845L40.5618 13.3547L40.8444 12.9695L40.8894 13.4347L41.1445 13.2496L41.3696 13.2121L41.4271 13.4922L41.5171 13.6723L41.8223 13.5647L41.7572 13.9073L42.0148 13.9023L42.1749 14.0049L42.3299 14.1199L42.4825 14.2425L42.5 14.45L42.67 14.5676L42.7275 14.7476L42.7475 14.9427L42.9426 15.0577L42.7501 15.3328L42.8826 15.4754L42.9801 15.6304L43.0351 15.8055L43.0952 15.9805L42.8676 16.2231L42.9151 16.3907L42.9501 16.5632L43.1927 16.7058L43.0977 16.8983L43.2552 17.0659L43.4353 17.2384L43.4928 17.426L43.3127 17.6136L43.4253 17.8011L43.1152 17.9662L43.2777 18.1612L43.3803 18.3613L43.3327 18.5414L43.2227 18.7114L43.1077 18.8765L42.9026 19.0165L43.2627 19.2941L43.0477 19.4267L43.0652 19.6242L42.6525 19.6792L43.0526 20.0118L42.645 20.0544L42.5275 20.2019L42.4725 20.372L42.7025 20.6746L42.3374 20.7021L42.2899 20.8771L42.2549 21.0647L42.1223 21.1947L41.9848 21.3223L42.0898 21.7149L41.8398 21.6374L41.6622 21.4598L41.4821 21.7524L41.3021 21.3398L41.1245 21.6824L40.9445 21.7049L40.7644 21.3848L40.5868 21.5173L40.4068 21.4648L40.2267 21.4898L40.0492 21.4923L39.8691 21.5123L39.6891 21.6749L39.509 21.4998L39.3314 21.7799L39.1514 21.3173L38.9713 21.6899L38.7938 21.4098L38.6137 21.7149L38.4336 21.7299L38.2561 21.4623L38.076 21.6749L37.896 21.5423L37.7184 21.4323L37.5383 21.3448L37.3583 21.6799L37.1807 21.5348L37.0007 21.6424L36.8206 21.7174L36.6431 21.4198L36.463 21.3498L36.2829 21.4648L36.1054 21.3098L35.9253 21.6799L35.7453 21.6449L35.5677 21.4848L35.3876 21.7024L35.2076 21.5699L35.0275 21.3373L34.85 21.5924L34.6699 21.6324L34.4898 21.3998L34.3123 21.3948L34.1322 21.3773L33.9522 21.3223L33.7746 21.6199L33.5946 21.5749L33.4145 21.6924L33.2369 21.3773L33.0569 21.6474L32.8768 21.3673L32.6993 21.4373L32.5192 21.7249L32.3391 21.7774L32.1616 21.3273L31.9815 21.3548L31.8015 21.4023L31.6239 21.4348L31.4438 21.4723L31.2638 21.7524L31.0862 21.5524L30.9062 21.6149L30.7261 21.7974L30.5461 21.6599L30.3685 21.7099L30.1884 21.3523L29.9959 21.5924L29.8033 21.5248L29.6032 21.4898L29.4982 21.3223L29.4932 21.0172L29.2856 20.9897L29.1381 20.8846L28.953 20.8246L28.7505 20.7946L28.723 20.5195L28.5204 20.487L28.4304 20.3019L28.1128 20.427L27.9927 20.2819L27.9227 20.0644L27.5801 19.9593L27.9577 20.0794L28.1453 19.7543L28.3228 19.7217L28.4954 19.9793L28.6804 19.7242L28.853 20.0544L29.0356 19.8193L29.2106 20.1194L29.3882 20.1444L29.5682 20.0444L29.7483 19.7268L29.9233 19.9043L30.1034 19.9843L30.281 19.7443L30.4585 19.8393L30.6386 20.1244L30.8161 19.9768L30.9962 20.1169L31.1738 19.9018L31.3538 20.1569L31.5339 20.1419L31.7114 20.0068L31.894 20.1869L32.0665 19.8943L32.2516 20.2019L32.4317 20.1919L32.6092 20.1819L32.7868 20.1069L32.9643 19.9993L33.1394 19.8668L33.3245 20.0444L33.492 19.7543L33.6846 20.0268L33.8671 20.0819L34.0447 19.9768L34.2173 19.8343L34.4123 20.1069L34.5699 19.7017L34.7649 19.9518L34.925 19.6392L35.1351 20.0594L35.3101 19.9543L35.4627 19.6042L35.6627 19.8343L35.8153 19.5317L36.0304 19.8943L36.2104 19.8843L36.378 19.7393L36.5605 19.7518L36.7406 19.7468L36.8856 19.4667L37.0507 19.3741L37.2958 19.7893L37.4083 19.3641L37.6634 19.7768L37.7934 19.4792L37.9635 19.4116L38.1811 19.5692L38.2786 19.2041L38.4461 19.1516L38.6512 19.2316L38.8413 19.2416L39.0789 19.3591L39.2489 19.2741L39.394 19.1416L39.3915 18.7689L39.7441 18.984L39.7291 18.6564L39.8041 18.4838L40.0017 18.4363L40.3092 18.4238L40.3443 18.2113L40.4568 18.0362L40.1242 17.7861L40.4543 17.6236L40.5593 17.4085L40.4943 17.2084L40.1542 17.1084L40.2342 16.8783L40.2767 16.6332L40.0367 16.5482L39.9916 16.3381L39.8666 16.1831L39.479 16.3306V16.038L39.394 15.8105L39.1239 16.0055L38.9463 16.0906L38.8063 15.883L38.6287 15.6079L38.4436 15.6454L38.2886 15.908L38.106 15.8755L37.9785 16.1406L37.7909 16.0856L37.6284 16.1581L37.3858 15.9255L37.1882 15.888L37.0807 16.1531L36.9281 16.2606L36.7681 16.3406L36.6431 16.5132L36.413 16.3957L36.2454 16.4557L36.0679 16.4857L35.8803 16.5007L35.7628 16.6833L35.4902 16.4782L35.4227 16.7933L35.1526 16.6007L35.1501 17.0609L34.9975 17.1634L34.7374 17.0059L34.6249 17.2034L34.4423 17.2384L34.3423 17.461L34.0972 17.3535L33.8546 17.2584L33.7796 17.5335H33.5796L33.327 17.4235L33.2319 17.6436L33.1819 17.9562L33.0269 18.0487L32.6918 17.7786L32.6392 18.0762L32.4317 18.0712L32.2016 18.0187L32.1091 18.2413L31.914 18.2563L31.884 18.5914L31.6714 18.5764L31.4188 18.4913L31.4288 18.8915L31.1112 18.6939L31.1087 19.0615L30.9237 19.104L30.6036 18.9115L30.406 18.9365L30.3635 19.2016L30.376 19.0315L30.1834 18.8415L30.391 18.6589L30.441 18.4713L30.286 18.2813L30.421 18.0987L30.2335 17.9062L30.4385 17.7236L30.261 17.4735Z" fill="url(#paint4_linear_4878_2563)"/>
<path d="M31.0569 21.4596L30.9718 21.4946L30.7893 21.7647L30.6092 21.6397L30.4267 21.332L30.2466 21.5696L30.064 21.4696L29.8815 21.6346L29.6989 21.3471L29.5164 21.5471L29.3363 21.6697L29.1538 21.3546L28.9712 21.6096L28.7886 21.4171L28.6086 21.6922L28.426 21.4971L28.2434 21.7247L28.0609 21.4196L27.8783 21.3871L27.6983 21.3821L27.5157 21.4771L27.3357 21.6847L27.1531 21.7747L26.9705 21.3471L26.788 21.4796L26.6054 21.7122L26.4229 21.5171L26.2403 21.5396L26.0577 21.3546L25.8752 21.5896L25.6926 21.4096L25.5101 21.3871L25.3275 21.3696L25.1449 21.3496L24.9599 21.4296L24.7773 21.5721L24.5923 21.8022L24.4397 21.5221L24.3797 21.3746L24.1696 21.1945L24.1821 21.0144L24.3947 20.8344L24.3497 20.6543L24.2496 20.4743L24.2796 20.2942L24.5647 20.1142L24.4147 19.9341L24.1796 19.7565V19.5765L24.4347 19.3989L24.2146 19.2189L24.4822 19.0363L24.2772 18.8562L24.4597 18.6762L24.4272 18.4961L24.3972 18.3161L24.5297 18.136L24.4197 17.9559L24.3472 17.7734L24.2221 17.5933L24.1621 17.4133L24.2146 17.2332L24.1846 17.0506L24.5122 16.8681L24.2596 16.688L24.3797 16.478L24.5898 16.7355L24.7723 16.6455L24.9524 16.498L25.1349 16.3679L25.315 16.5405L25.4976 16.728L25.6801 16.718L25.8627 16.3479L26.0452 16.528L26.2253 16.4354L26.4078 16.3154L26.5904 16.3904L26.773 16.2979L26.953 16.5305L27.1356 16.473L27.3182 16.6155L27.5007 16.678L27.6833 16.4504L27.8633 16.643L28.0459 16.703L28.2259 16.5705L28.4085 16.468L28.5911 16.2904L28.7736 16.603L28.9562 16.6605L29.1387 16.6255L29.3213 16.703L29.5039 16.593L29.6864 16.483L29.869 16.5655L30.0515 16.4955L30.2341 16.6255L30.4167 16.2754L30.6017 16.5005L30.7843 16.458L30.9693 16.6855L31.1294 16.5305L31.2594 16.6855L31.1519 16.8656L30.9568 17.0431L30.9468 17.2232L31.0044 17.4033L31.1394 17.5833L31.3945 17.7634L31.3745 17.9434L31.3345 18.1235L31.3395 18.3036L31.2419 18.4811L31.0994 18.6612L31.2569 18.8412L31.0119 19.0213L31.0869 19.2014L31.2995 19.3814L31.367 19.5615L31.2719 19.744L31.1619 19.9241L30.9994 20.1041L31.1819 20.2867L31.0369 20.4668L31.2794 20.6468L30.9093 20.8269L31.2094 21.0094L31.317 21.1895L31.1919 21.3871L31.0569 21.4596Z" fill="url(#paint5_linear_4878_2563)"/>
<path d="M31.0569 21.4596L30.9718 21.4946L30.7893 21.7647L30.6092 21.6397L30.4267 21.332L30.2466 21.5696L30.064 21.4696L29.8815 21.6346L29.6989 21.3471L29.5164 21.5471L29.3363 21.6697L29.1538 21.3546L28.9712 21.6096L28.7886 21.4171L28.6086 21.6922L28.426 21.4971L28.2434 21.7247L28.0609 21.4196L27.8783 21.3871L27.6983 21.3821L27.5157 21.4771L27.3357 21.6847L27.1531 21.7747L26.9705 21.3471L26.788 21.4796L26.6054 21.7122L26.4229 21.5171L26.2403 21.5396L26.0577 21.3546L25.8752 21.5896L25.6926 21.4096L25.5101 21.3871L25.3275 21.3696L25.1449 21.3496L24.9599 21.4296L24.7773 21.5721L24.5923 21.8022L24.4397 21.5221L24.3797 21.3746L24.1696 21.1945L24.1821 21.0144L24.3947 20.8344L24.3497 20.6543L24.2496 20.4743L24.2796 20.2942L24.5647 20.1142L24.4147 19.9341L24.1796 19.7565V19.5765L24.4347 19.3989L24.2146 19.2189L24.4822 19.0363L24.2772 18.8562L24.4597 18.6762L24.4272 18.4961L24.3972 18.3161L24.5297 18.136L24.4197 17.9559L24.3472 17.7734L24.2221 17.5933L24.1621 17.4133L24.2146 17.2332L24.1846 17.0506L24.5122 16.8681L24.2596 16.688L24.3797 16.478L24.5898 16.7355L24.7723 16.6455L24.9524 16.498L25.1349 16.3679L25.315 16.5405L25.4976 16.728L25.6801 16.718L25.8627 16.3479L26.0452 16.528L26.2253 16.4354L26.4078 16.3154L26.5904 16.3904L26.773 16.2979L26.953 16.5305L27.1356 16.473L27.3182 16.6155L27.5007 16.678L27.6833 16.4504L27.8633 16.643L28.0459 16.703L28.2259 16.5705L28.4085 16.468L28.5911 16.2904L28.7736 16.603L28.9562 16.6605L29.1387 16.6255L29.3213 16.703L29.5039 16.593L29.6864 16.483L29.869 16.5655L30.0515 16.4955L30.2341 16.6255L30.4167 16.2754L30.6017 16.5005L30.7843 16.458L30.9693 16.6855L31.1294 16.5305L31.2594 16.6855L31.1519 16.8656L30.9568 17.0431L30.9468 17.2232L31.0044 17.4033L31.1394 17.5833L31.3945 17.7634L31.3745 17.9434L31.3345 18.1235L31.3395 18.3036L31.2419 18.4811L31.0994 18.6612L31.2569 18.8412L31.0119 19.0213L31.0869 19.2014L31.2995 19.3814L31.367 19.5615L31.2719 19.744L31.1619 19.9241L30.9994 20.1041L31.1819 20.2867L31.0369 20.4668L31.2794 20.6468L30.9093 20.8269L31.2094 21.0094L31.317 21.1895L31.1919 21.3871L31.0569 21.4596Z" fill="url(#paint6_linear_4878_2563)"/>
<path d="M1.36521 36.9172L1.54715 36.751L1.67611 36.949L1.8281 37.0241L1.97089 37.147L2.17815 36.9513L2.31863 37.0833L2.43608 37.3291L2.6088 37.3018L2.79074 37.2381L2.98188 37.1197L3.08551 37.4338L3.25593 37.4202L3.43786 37.3473L3.58065 37.4657L3.72573 37.5795L3.95833 37.2495L4.06657 37.5499L4.27383 37.3519L4.39819 37.5658L4.53176 37.7297L4.74594 37.493L4.92787 37.4293L5.02459 37.782L5.17889 37.8435L5.39997 37.5704L5.51973 37.8116L5.72469 37.6227L5.8859 37.6614L6.03789 37.7342L6.21982 37.6569L6.32115 37.9914L6.48006 38.0347L6.67581 37.8958L6.86004 37.8093L7.00052 37.9436L7.13639 38.0938L7.30912 38.0688L7.48184 38.0438L7.64535 38.062L7.77892 38.2327L7.93552 38.285L8.11745 38.2167L8.28327 38.2236L8.42605 38.3419L8.61719 38.3897L8.80373 38.3123L8.76228 37.9778L9.0939 38.1507L9.06166 37.8184L9.25971 37.8139L9.28965 37.5613L9.642 37.7843L9.71109 37.5909L9.78939 37.4088H9.98744L9.99896 37.1152L10.2638 37.2267L10.3053 36.9718L10.5217 37.0128L10.5862 36.7874L10.8073 36.8398L10.9501 36.751L11.2241 36.9172L11.1873 36.4825L11.459 36.6463L11.5811 36.5211L11.664 36.3095L11.793 36.1843L12.0025 36.2389L12.2535 36.3937L12.3019 36.091L12.4861 36.0955L12.5806 35.8839L12.721 35.7837L12.9744 35.9772L13.1563 35.9886L13.3451 36.025L13.3981 35.6745L13.6192 35.8065L13.7412 35.6404L13.9508 35.7587L14.0498 35.5061L14.2594 35.6312L14.37 35.4059L14.5219 35.3217L14.6739 35.2307L14.8812 35.3786L15.047 35.3468L15.2405 35.4606L15.3925 35.3741L15.5491 35.3035L15.6642 34.9985L15.8346 34.9826L16.0488 35.2671L16.1801 34.9917L16.362 35.0918L16.5186 34.9689L16.6936 35.0258L16.8617 35.0372L17.0299 35.0668L17.1842 34.9007L17.3684 35.1852L17.5342 35.1783L17.6839 34.8574L17.8566 34.9667L18.0247 35.0918L18.1905 35.0372L18.3564 35.1715L18.5222 35.0418L18.6857 35.1214L18.8561 34.9689L19.0196 35.0645L19.1854 35.06L19.3535 35.019L19.5263 34.9189L19.6759 35.2102L19.8487 35.1009L20.0122 35.1305L20.201 34.8938L20.3599 34.9985L20.5326 34.9644L20.6846 35.1146L20.8458 35.1578L21.0416 34.9735L21.2074 35.0008L21.3479 35.1965L21.5068 35.2512L21.7141 35.0395L21.8016 35.4924L22.0111 35.283L22.1723 35.3285L22.3013 35.5197L22.4994 35.39L22.6652 35.415L22.7941 35.5926L22.9576 35.629L23.1511 35.5516L23.3399 35.4947L23.508 35.522L23.5771 35.8725L23.8028 35.7086L23.888 35.984L24.0354 36.066L24.2058 36.0728L24.3509 36.157L24.549 36.1069L24.7977 35.9408L24.8599 36.2184L25.104 36.0819L25.1247 36.4369L25.279 36.4938L25.4563 36.5098L25.5899 36.6054L25.7488 36.6623L25.9745 36.6008L25.9929 36.8921L26.3338 36.6668L26.3222 36.9832L26.4904 37.031L26.5825 37.1812L26.8082 37.163L26.9878 37.213L27.1421 37.2973L27.0339 37.65L27.2549 37.6614L27.2043 37.9277L27.5658 37.8367L27.4898 38.1029L27.7017 38.1553L27.7708 38.3101L27.8146 38.4716L28.0794 38.5285L27.8906 38.7926L28.0149 38.9177L28.1646 39.0452L27.9274 39.2682L28.1623 39.3843L28.031 39.5618L28.0264 39.7189L28.1784 39.8714L28.1692 40.0352L27.9942 40.1786L27.9873 40.3334L28.2613 40.5473L28.1508 40.6953L27.833 40.7658L28.1577 41.0526L28.0472 41.1937L27.8468 41.2825L27.9182 41.5169L27.8076 41.6512L27.5014 41.6216L27.3678 41.6967L27.4461 42.0859L27.2757 42.1792L27.0638 42.145L26.8865 42.1587L26.7091 42.1109L26.5318 41.9061L26.3798 42.0859L26.2209 42.0426L26.0666 41.9243L25.9031 41.9926L25.7511 41.9015L25.5715 42.0358L25.3826 42.1906L25.2306 42.0995L25.0625 42.1086L24.9013 42.0722L24.7724 41.8583L24.5996 41.8924L24.4154 42.0199L24.2473 42.0404L24.1137 41.8219L23.9548 41.7741L23.7706 41.9425L23.6025 41.9994L23.4436 41.9675L23.2939 41.7399L23.1281 41.7832L22.9646 41.6694L22.7987 41.6512L22.6444 41.8788L22.4556 41.6034L22.3358 41.988L22.1378 41.765L22.0042 41.9425L21.7854 41.7331L21.6265 41.7945L21.4976 41.9425L21.3709 42.0745L21.2442 42.186L21.014 42.0836L20.9886 42.384L20.6616 42.1519L20.5718 42.3271L20.4705 42.4773L20.3346 42.5707L20.1872 42.6549L19.95 42.6367L19.8809 42.8187L19.927 43.1009L19.6483 43.0645L19.7681 43.39L19.5286 43.4014L19.5539 43.6244L19.4848 43.7701L19.1716 43.7587L19.2061 43.9704L19.0933 44.0933L18.7824 44.1342L18.7594 44.3163L19.0081 44.5735L18.8699 44.7009L18.8791 44.8648L18.6304 45.0059L18.764 45.1812L18.9828 45.32L18.635 45.5453L18.6765 45.7229L18.7801 45.8753L18.863 46.0301L19.0818 46.0938L19.0864 46.2964L19.4456 46.2099L19.2729 46.59L19.6414 46.4443L19.5884 46.747L19.7888 46.763L19.9039 46.879L19.9845 47.0543L20.1296 47.134L20.4198 46.9701L20.5165 47.1203L20.5672 47.3729L20.8182 47.2341L20.9495 47.332L21.0738 47.4503L21.2373 47.4776L21.265 47.844L21.4584 47.8076L21.6588 47.7439L21.8637 47.6506L21.919 47.9988L22.1055 47.9669L22.2668 48.0011L22.4072 48.1126L22.6398 47.8759L22.7619 48.0603L22.8863 48.2446L23.0981 48.0603L23.2064 48.3402L23.3975 48.231L23.5702 48.1991L23.7429 48.1718L23.8604 48.4699L24.0631 48.2401L24.2289 48.2287L24.3878 48.2901L24.5283 48.5177L24.7171 48.281L24.8783 48.3152L25.028 48.5359L25.1984 48.4586L25.3573 48.6247L25.5346 48.2583L25.6958 48.2833L25.8594 48.5041L26.0298 48.6224L26.1818 48.3106L26.3545 48.429L26.4973 48.2196L26.6746 48.3175L26.8335 48.2788L27.0339 48.454L27.1997 48.4244L27.3517 48.3334L27.4461 48.017L27.6326 48.0876L27.8721 48.347L27.9573 48.0261L28.1807 48.2059L28.2636 47.8941L28.4778 48.0307L28.6183 47.9192L28.7818 47.8827L28.9108 47.7485L29.0973 47.7849L29.3069 47.8782L29.4681 47.8349L29.5809 47.6574L29.7652 47.6802L29.8803 47.5163L29.9563 47.25L30.1981 47.4253L30.3225 47.2864L30.5597 47.4344L30.5781 47.0293L30.76 47.0429L30.9074 46.9655L31.1101 47.0202L31.2483 46.92L31.4187 46.8972L31.5799 46.854L31.7065 46.7243L31.7987 46.5149L32.0428 46.6628L32.1625 46.5217L32.3606 46.5581L32.5655 46.6128L32.5563 46.1849L32.8235 46.3783L32.9916 46.3487L33.0837 46.1439L33.2656 46.1416L33.4222 46.087L33.512 45.8822L33.6479 45.7752L33.8759 45.8753L34.0947 45.9482L34.2375 45.864L34.2881 45.5772L34.4931 45.6204L34.6981 45.6614L34.8017 45.4884L35.0205 45.559L35.1633 45.4679L35.1909 45.1334L35.4765 45.3382L35.5985 45.1994L35.6515 44.9285L35.8495 44.9604L35.9417 44.7692L36.2042 44.9354L36.241 44.6372L36.3654 44.5166L36.6533 44.726L36.7408 44.5348L36.9457 44.578L37.0425 44.4028L37.0908 44.1274L37.3395 44.2571L37.4892 44.1843L37.7149 44.2685L37.7702 44.0045L38.0074 44.1115L38.1041 43.9339L38.2791 43.918L38.4427 43.8725L38.597 43.8133L38.643 43.5357L38.8733 43.629L38.8618 43.233L39.0552 43.2512L39.2901 43.3581L39.3224 43.0509L39.4652 42.9667L39.7761 43.2398L39.8106 42.9257L39.9188 42.7664L40.0962 42.7596L40.2343 42.664L40.4485 42.7436L40.5522 42.5615L40.8147 42.7618L40.8607 42.4341L41.0335 42.425L41.2546 42.5524L41.3628 42.3635L41.5908 42.5547L41.6806 42.2839L41.8717 42.3817L42.0283 42.3544L42.1573 42.1473L42.3139 42.0221L42.4958 42.2771L42.6524 42.2725L42.809 42.2953L42.9679 42.2862L43.1107 42.3635L43.2742 42.3499L43.4124 42.4318L43.6312 42.3112L43.6611 42.6389L43.8914 42.5342L44.0987 42.5046L44.1125 42.7914L44.3175 42.78L44.3267 43.0349L44.5478 43.0122L44.7712 43.0076L44.8011 43.217L44.8771 43.3695L44.9093 43.5561L45.1005 43.5994L45.2156 43.7132L45.4828 43.7155L45.3768 43.9954L45.6969 43.9772L45.6186 44.223L45.6624 44.3823L45.8213 44.4825L46.0976 44.528L45.8259 44.8375L46.1276 44.8853L46.1829 45.0423L46.1621 45.2244L46.0723 45.4247L46.298 45.5271L46.2243 45.7138L46.2197 45.8799L46.2312 46.0392L46.2796 46.1917L46.5191 46.3305L46.6181 46.4944L46.4362 46.6674L46.5191 46.8358L46.3556 46.9906L46.45 47.1658L46.3947 47.3251L46.298 47.4731L46.123 47.5982L46.3832 47.8372L46.0953 47.9214L46.0309 48.0671L46.1414 48.2833L46.1322 48.4586L45.796 48.4904L45.8881 48.7135L45.9664 48.9388L45.7775 49.0275L45.7637 49.2096L45.6624 49.3462L45.6209 49.5169L45.3676 49.5487L45.3722 49.7513L45.2433 49.8651L45.036 49.9152L45.0774 50.1564L45.0498 50.3476L44.9139 50.4546L44.7919 50.5684L44.6376 50.6571L44.4764 50.7345L44.4603 50.9462L44.0503 50.78L43.9513 50.9098L44.0941 51.2899L43.8592 51.2853L43.5828 51.2284L43.4631 51.3399L43.5114 51.6381L43.4769 51.852L43.2374 51.827L42.961 51.7541L43.037 52.1046L42.9265 52.2321L42.7791 52.314L42.5212 52.248L42.5235 52.5234L42.2333 52.4096L42.307 52.7897L42.0951 52.7783L41.7888 52.6281L41.8602 53.0241L41.6507 53.0082L41.5493 53.1539L41.2615 53.0128L41.1578 53.1584L40.9966 53.2085L40.8538 53.2904L40.8792 53.6477L40.5452 53.4088L40.5337 53.716L40.4808 53.9573L40.163 53.732L40.1883 54.1189L39.8405 53.8298L39.8244 54.1462L39.5504 53.9823L39.5665 54.3715L39.251 54.1166L39.1635 54.3101L39.023 54.3965L38.8088 54.3374L38.7397 54.5695L38.5808 54.6196L38.5348 54.92L38.2861 54.7743L38.1939 54.9701L38.0627 55.0862L37.8186 54.9382L37.6942 55.0725L37.5192 55.0816L37.4225 55.2819L37.2543 55.3069L37.1116 55.398L36.8444 55.1704L36.8352 55.6073L36.6602 55.6187L36.4575 55.5504L36.271 55.5163L36.1098 55.5573L36.0522 55.9009L35.7758 55.6005L35.6722 55.8167L35.5525 55.9874L35.3406 55.8691L35.1517 55.819L35.0711 56.124L34.8869 56.0899L34.6796 55.9738L34.5115 55.9897L34.3549 56.0398L34.196 56.0899L34.0463 56.1718L33.9012 56.2697L33.7585 56.3835L33.5581 56.2628L33.3969 56.2992L33.2265 56.3015L33.0883 56.4472L32.911 56.4108L32.782 56.5997L32.584 56.4563L32.4043 56.3971L32.303 56.759L32.1049 56.6042L31.9253 56.5428L31.7756 56.6452L31.6052 56.6293L31.4371 56.6201L31.3012 56.8364L31.1009 56.6156L30.9443 56.6816L30.8107 56.9502L30.661 57.1118L30.4491 56.7203L30.3179 57.0503L30.1244 56.7977L29.9586 56.8068L29.8204 57.1322L29.6546 57.1709L29.475 57.0162L29.3046 56.9524L29.1434 57.0298L28.9845 57.2392L28.8071 56.9593L28.6436 57.0389L28.4755 57.0275L28.312 57.2574L28.1439 57.2096L27.9758 56.9524L27.81 57.1231L27.6418 57.1618L27.4737 57.114L27.3056 57.155L27.1467 56.9433L26.9694 57.1618L26.8059 57.1209L26.6562 56.8409L26.4789 56.9866L26.3269 56.8182L26.138 57.0617L25.9952 56.8227L25.8363 56.7385L25.6475 56.9547L25.5024 56.7704L25.3182 56.8933L25.1362 56.9957L25.0257 56.6133L24.7977 56.9911L24.6733 56.718L24.4845 56.8227L24.3164 56.8204L24.2012 56.5337L23.9871 56.759L23.8581 56.561L23.6739 56.6247L23.4735 56.7476L23.3445 56.5678L23.2202 56.3835L23.0774 56.281L22.9208 56.2219L22.7066 56.3835L22.5178 56.4381L22.4095 56.215L22.2668 56.1126L22.0572 56.2355L21.9029 56.1786L21.8108 55.9214L21.5966 56.0421L21.4884 55.8463L21.3525 55.728L21.2005 55.6665L20.9333 55.9396L20.8481 55.6825L20.7192 55.5504L20.452 55.8122L20.2816 55.8008L20.231 55.4571L20.0168 55.5618L19.9039 55.3957L19.7105 55.4412L19.5838 55.3137L19.4572 55.1795L19.3029 55.1226L19.1762 54.9928L19.0173 54.945L18.8285 54.986L18.6995 54.8563L18.4439 55.0748L18.3794 54.7743L18.2366 54.6856L18.0754 54.6514L17.829 54.8495L17.7829 54.4899L17.5572 54.6287L17.449 54.4421L17.32 54.3123L17.1151 54.3943L17.0091 54.2031L16.8088 54.2714L16.6798 54.1416L16.5439 54.0278L16.3205 54.1803L16.0972 54.3305L15.9383 54.2896L15.8277 54.0984L15.7494 53.8025L15.5145 53.9937L15.3694 53.9072L15.2428 53.7593L15.0562 53.8048L14.8421 53.9482L14.7131 53.8048L14.5956 53.6204L14.4114 53.666L14.2548 53.6091L14.0775 53.6318L13.9761 53.3724L13.838 53.254L13.6676 53.2449L13.4419 53.4588L13.2737 53.4566L13.1402 53.3064L13.0089 53.147L12.8592 53.0537L12.6635 53.1675L12.4815 53.2176L12.3065 53.2381L12.1614 53.1288L12.0486 52.8716L11.816 53.1675L11.7008 52.9103L11.5488 52.8147L11.3692 52.8694L11.2034 52.8512L11.0307 52.8648L10.8879 52.7214L10.6945 52.8648L10.5217 52.8944L10.372 52.7852L10.197 52.8375L10.0243 52.8671L9.92066 52.462L9.69727 52.8261L9.54298 52.7351L9.36795 52.7897L9.21135 52.7192L9.06166 52.5826L8.91197 52.4506L8.72543 52.594L8.59416 52.3095L8.42605 52.3027L8.23029 52.5485L8.10363 52.1934L7.89867 52.5166L7.7697 52.1593L7.57856 52.3687L7.41045 52.3732L7.26536 52.157L7.10185 52.1092L6.90841 52.3641L6.74259 52.3254L6.59751 52.0591L6.42248 52.1001L6.25667 52.0864L6.08625 52.1137L5.91123 52.223L5.73851 52.2958L5.58421 52.1411L5.40458 52.3209L5.24107 52.2981L5.08217 52.1684L4.91405 52.1866L4.74363 52.2936L4.58934 52.05L4.41892 52.1342L4.2508 52.2116L4.0896 52.0933L3.92148 52.1388L3.76028 52.0455L3.58986 52.198L3.42865 52.0045L3.26284 52.0204L3.09933 51.9977L2.92891 52.1798L2.7677 52.0569L2.59959 52.2298L2.43838 51.9203L2.27257 52.223L2.10676 51.8588L1.94095 52.1911L1.77513 52.0091L1.60932 52.0386L1.44581 52.1638L1.2777 51.8406H1.11189L0.952985 52.1524L0.782565 51.8657L0.628268 52.2822L0.457849 52.0842L0.292036 52.0318L0.137739 52.2936L-0.0257679 52.3095L-0.200794 51.9362L-0.325152 52.0728L-0.233035 51.9499L-0.154732 51.7928L-0.334362 51.6062L-0.0672227 51.4719L-0.113281 51.3012L-0.0695244 51.1396L-0.421875 50.9348L-0.0741313 50.8074L-0.0902501 50.6412L-0.387332 50.4432L0.0525315 50.3248L0.0663486 50.161L0.0456229 49.9948L0.0202904 49.8264L-0.286002 49.6261L-0.0303747 49.4896L0.05944 49.3325L0.165377 49.18L-0.12019 48.982L-0.0902501 48.8204L-0.021161 48.6634L0.0156835 48.5018L0.0295006 48.3379L-0.0971586 48.1581L0.135438 48.017L0.163072 47.8554L0.022592 47.6734L-0.0188593 47.5049L0.0202904 47.3433L0.00186637 47.1749L0.308159 47.0429L0.146953 46.8608L0.298948 46.7106L0.368034 46.5536L0.416398 46.3943L0.439428 46.2304L0.386458 46.0597L0.123922 45.864L0.462456 45.7365L0.204527 45.5431L0.232161 45.3815L0.416398 45.2358L0.598329 45.0901L0.453245 44.9081L0.377248 44.7351L0.446337 44.5758L0.563786 44.4233L0.312766 44.2298L0.602936 44.0978L0.699659 43.9431L0.58221 43.7633L0.614451 43.6017L0.453245 43.4196L0.510819 43.2603L0.665116 43.1101L0.526938 42.9303L0.748022 42.7891L0.584512 42.6048L0.805596 42.4637L0.955286 42.3157L0.69275 42.12L0.952985 41.9835L1.02668 41.8264L0.83323 41.6398L0.923045 41.485L0.916137 41.3189L1.01056 41.1618L0.943771 40.9889L1.01286 40.8318L1.07504 40.6725L1.01977 40.5018L0.91153 40.3243L1.00134 40.1695L0.796382 39.9806L1.15104 39.8554L1.05662 39.6779L0.853956 39.4913L0.987527 39.3388L1.19249 39.1977L1.22243 39.0338L1.19019 38.8654L1.11419 38.6924L1.21782 38.5377L1.39054 38.392L1.16716 38.2008L1.37673 38.0597L1.38133 37.8936L1.2017 37.7092L1.21782 37.5453L1.10728 37.3678L1.51951 37.2472L1.53793 37.0833L1.36521 36.9172Z" fill="url(#paint7_linear_4878_2563)"/>
<path d="M1.36521 36.9172L1.54715 36.751L1.67611 36.949L1.8281 37.0241L1.97089 37.147L2.17815 36.9513L2.31863 37.0833L2.43608 37.3291L2.6088 37.3018L2.79074 37.2381L2.98188 37.1197L3.08551 37.4338L3.25593 37.4202L3.43786 37.3473L3.58065 37.4657L3.72573 37.5795L3.95833 37.2495L4.06657 37.5499L4.27383 37.3519L4.39819 37.5658L4.53176 37.7297L4.74594 37.493L4.92787 37.4293L5.02459 37.782L5.17889 37.8435L5.39997 37.5704L5.51973 37.8116L5.72469 37.6227L5.8859 37.6614L6.03789 37.7342L6.21982 37.6569L6.32115 37.9914L6.48006 38.0347L6.67581 37.8958L6.86004 37.8093L7.00052 37.9436L7.13639 38.0938L7.30912 38.0688L7.48184 38.0438L7.64535 38.062L7.77892 38.2327L7.93552 38.285L8.11745 38.2167L8.28327 38.2236L8.42605 38.3419L8.61719 38.3897L8.80373 38.3123L8.76228 37.9778L9.0939 38.1507L9.06166 37.8184L9.25971 37.8139L9.28965 37.5613L9.642 37.7843L9.71109 37.5909L9.78939 37.4088H9.98744L9.99896 37.1152L10.2638 37.2267L10.3053 36.9718L10.5217 37.0128L10.5862 36.7874L10.8073 36.8398L10.9501 36.751L11.2241 36.9172L11.1873 36.4825L11.459 36.6463L11.5811 36.5211L11.664 36.3095L11.793 36.1843L12.0025 36.2389L12.2535 36.3937L12.3019 36.091L12.4861 36.0955L12.5806 35.8839L12.721 35.7837L12.9744 35.9772L13.1563 35.9886L13.3451 36.025L13.3981 35.6745L13.6192 35.8065L13.7412 35.6404L13.9508 35.7587L14.0498 35.5061L14.2594 35.6312L14.37 35.4059L14.5219 35.3217L14.6739 35.2307L14.8812 35.3786L15.047 35.3468L15.2405 35.4606L15.3925 35.3741L15.5491 35.3035L15.6642 34.9985L15.8346 34.9826L16.0488 35.2671L16.1801 34.9917L16.362 35.0918L16.5186 34.9689L16.6936 35.0258L16.8617 35.0372L17.0299 35.0668L17.1842 34.9007L17.3684 35.1852L17.5342 35.1783L17.6839 34.8574L17.8566 34.9667L18.0247 35.0918L18.1905 35.0372L18.3564 35.1715L18.5222 35.0418L18.6857 35.1214L18.8561 34.9689L19.0196 35.0645L19.1854 35.06L19.3535 35.019L19.5263 34.9189L19.6759 35.2102L19.8487 35.1009L20.0122 35.1305L20.201 34.8938L20.3599 34.9985L20.5326 34.9644L20.6846 35.1146L20.8458 35.1578L21.0416 34.9735L21.2074 35.0008L21.3479 35.1965L21.5068 35.2512L21.7141 35.0395L21.8016 35.4924L22.0111 35.283L22.1723 35.3285L22.3013 35.5197L22.4994 35.39L22.6652 35.415L22.7941 35.5926L22.9576 35.629L23.1511 35.5516L23.3399 35.4947L23.508 35.522L23.5771 35.8725L23.8028 35.7086L23.888 35.984L24.0354 36.066L24.2058 36.0728L24.3509 36.157L24.549 36.1069L24.7977 35.9408L24.8599 36.2184L25.104 36.0819L25.1247 36.4369L25.279 36.4938L25.4563 36.5098L25.5899 36.6054L25.7488 36.6623L25.9745 36.6008L25.9929 36.8921L26.3338 36.6668L26.3222 36.9832L26.4904 37.031L26.5825 37.1812L26.8082 37.163L26.9878 37.213L27.1421 37.2973L27.0339 37.65L27.2549 37.6614L27.2043 37.9277L27.5658 37.8367L27.4898 38.1029L27.7017 38.1553L27.7708 38.3101L27.8146 38.4716L28.0794 38.5285L27.8906 38.7926L28.0149 38.9177L28.1646 39.0452L27.9274 39.2682L28.1623 39.3843L28.031 39.5618L28.0264 39.7189L28.1784 39.8714L28.1692 40.0352L27.9942 40.1786L27.9873 40.3334L28.2613 40.5473L28.1508 40.6953L27.833 40.7658L28.1577 41.0526L28.0472 41.1937L27.8468 41.2825L27.9182 41.5169L27.8076 41.6512L27.5014 41.6216L27.3678 41.6967L27.4461 42.0859L27.2757 42.1792L27.0638 42.145L26.8865 42.1587L26.7091 42.1109L26.5318 41.9061L26.3798 42.0859L26.2209 42.0426L26.0666 41.9243L25.9031 41.9926L25.7511 41.9015L25.5715 42.0358L25.3826 42.1906L25.2306 42.0995L25.0625 42.1086L24.9013 42.0722L24.7724 41.8583L24.5996 41.8924L24.4154 42.0199L24.2473 42.0404L24.1137 41.8219L23.9548 41.7741L23.7706 41.9425L23.6025 41.9994L23.4436 41.9675L23.2939 41.7399L23.1281 41.7832L22.9646 41.6694L22.7987 41.6512L22.6444 41.8788L22.4556 41.6034L22.3358 41.988L22.1378 41.765L22.0042 41.9425L21.7854 41.7331L21.6265 41.7945L21.4976 41.9425L21.3709 42.0745L21.2442 42.186L21.014 42.0836L20.9886 42.384L20.6616 42.1519L20.5718 42.3271L20.4705 42.4773L20.3346 42.5707L20.1872 42.6549L19.95 42.6367L19.8809 42.8187L19.927 43.1009L19.6483 43.0645L19.7681 43.39L19.5286 43.4014L19.5539 43.6244L19.4848 43.7701L19.1716 43.7587L19.2061 43.9704L19.0933 44.0933L18.7824 44.1342L18.7594 44.3163L19.0081 44.5735L18.8699 44.7009L18.8791 44.8648L18.6304 45.0059L18.764 45.1812L18.9828 45.32L18.635 45.5453L18.6765 45.7229L18.7801 45.8753L18.863 46.0301L19.0818 46.0938L19.0864 46.2964L19.4456 46.2099L19.2729 46.59L19.6414 46.4443L19.5884 46.747L19.7888 46.763L19.9039 46.879L19.9845 47.0543L20.1296 47.134L20.4198 46.9701L20.5165 47.1203L20.5672 47.3729L20.8182 47.2341L20.9495 47.332L21.0738 47.4503L21.2373 47.4776L21.265 47.844L21.4584 47.8076L21.6588 47.7439L21.8637 47.6506L21.919 47.9988L22.1055 47.9669L22.2668 48.0011L22.4072 48.1126L22.6398 47.8759L22.7619 48.0603L22.8863 48.2446L23.0981 48.0603L23.2064 48.3402L23.3975 48.231L23.5702 48.1991L23.7429 48.1718L23.8604 48.4699L24.0631 48.2401L24.2289 48.2287L24.3878 48.2901L24.5283 48.5177L24.7171 48.281L24.8783 48.3152L25.028 48.5359L25.1984 48.4586L25.3573 48.6247L25.5346 48.2583L25.6958 48.2833L25.8594 48.5041L26.0298 48.6224L26.1818 48.3106L26.3545 48.429L26.4973 48.2196L26.6746 48.3175L26.8335 48.2788L27.0339 48.454L27.1997 48.4244L27.3517 48.3334L27.4461 48.017L27.6326 48.0876L27.8721 48.347L27.9573 48.0261L28.1807 48.2059L28.2636 47.8941L28.4778 48.0307L28.6183 47.9192L28.7818 47.8827L28.9108 47.7485L29.0973 47.7849L29.3069 47.8782L29.4681 47.8349L29.5809 47.6574L29.7652 47.6802L29.8803 47.5163L29.9563 47.25L30.1981 47.4253L30.3225 47.2864L30.5597 47.4344L30.5781 47.0293L30.76 47.0429L30.9074 46.9655L31.1101 47.0202L31.2483 46.92L31.4187 46.8972L31.5799 46.854L31.7065 46.7243L31.7987 46.5149L32.0428 46.6628L32.1625 46.5217L32.3606 46.5581L32.5655 46.6128L32.5563 46.1849L32.8235 46.3783L32.9916 46.3487L33.0837 46.1439L33.2656 46.1416L33.4222 46.087L33.512 45.8822L33.6479 45.7752L33.8759 45.8753L34.0947 45.9482L34.2375 45.864L34.2881 45.5772L34.4931 45.6204L34.6981 45.6614L34.8017 45.4884L35.0205 45.559L35.1633 45.4679L35.1909 45.1334L35.4765 45.3382L35.5985 45.1994L35.6515 44.9285L35.8495 44.9604L35.9417 44.7692L36.2042 44.9354L36.241 44.6372L36.3654 44.5166L36.6533 44.726L36.7408 44.5348L36.9457 44.578L37.0425 44.4028L37.0908 44.1274L37.3395 44.2571L37.4892 44.1843L37.7149 44.2685L37.7702 44.0045L38.0074 44.1115L38.1041 43.9339L38.2791 43.918L38.4427 43.8725L38.597 43.8133L38.643 43.5357L38.8733 43.629L38.8618 43.233L39.0552 43.2512L39.2901 43.3581L39.3224 43.0509L39.4652 42.9667L39.7761 43.2398L39.8106 42.9257L39.9188 42.7664L40.0962 42.7596L40.2343 42.664L40.4485 42.7436L40.5522 42.5615L40.8147 42.7618L40.8607 42.4341L41.0335 42.425L41.2546 42.5524L41.3628 42.3635L41.5908 42.5547L41.6806 42.2839L41.8717 42.3817L42.0283 42.3544L42.1573 42.1473L42.3139 42.0221L42.4958 42.2771L42.6524 42.2725L42.809 42.2953L42.9679 42.2862L43.1107 42.3635L43.2742 42.3499L43.4124 42.4318L43.6312 42.3112L43.6611 42.6389L43.8914 42.5342L44.0987 42.5046L44.1125 42.7914L44.3175 42.78L44.3267 43.0349L44.5478 43.0122L44.7712 43.0076L44.8011 43.217L44.8771 43.3695L44.9093 43.5561L45.1005 43.5994L45.2156 43.7132L45.4828 43.7155L45.3768 43.9954L45.6969 43.9772L45.6186 44.223L45.6624 44.3823L45.8213 44.4825L46.0976 44.528L45.8259 44.8375L46.1276 44.8853L46.1829 45.0423L46.1621 45.2244L46.0723 45.4247L46.298 45.5271L46.2243 45.7138L46.2197 45.8799L46.2312 46.0392L46.2796 46.1917L46.5191 46.3305L46.6181 46.4944L46.4362 46.6674L46.5191 46.8358L46.3556 46.9906L46.45 47.1658L46.3947 47.3251L46.298 47.4731L46.123 47.5982L46.3832 47.8372L46.0953 47.9214L46.0309 48.0671L46.1414 48.2833L46.1322 48.4586L45.796 48.4904L45.8881 48.7135L45.9664 48.9388L45.7775 49.0275L45.7637 49.2096L45.6624 49.3462L45.6209 49.5169L45.3676 49.5487L45.3722 49.7513L45.2433 49.8651L45.036 49.9152L45.0774 50.1564L45.0498 50.3476L44.9139 50.4546L44.7919 50.5684L44.6376 50.6571L44.4764 50.7345L44.4603 50.9462L44.0503 50.78L43.9513 50.9098L44.0941 51.2899L43.8592 51.2853L43.5828 51.2284L43.4631 51.3399L43.5114 51.6381L43.4769 51.852L43.2374 51.827L42.961 51.7541L43.037 52.1046L42.9265 52.2321L42.7791 52.314L42.5212 52.248L42.5235 52.5234L42.2333 52.4096L42.307 52.7897L42.0951 52.7783L41.7888 52.6281L41.8602 53.0241L41.6507 53.0082L41.5493 53.1539L41.2615 53.0128L41.1578 53.1584L40.9966 53.2085L40.8538 53.2904L40.8792 53.6477L40.5452 53.4088L40.5337 53.716L40.4808 53.9573L40.163 53.732L40.1883 54.1189L39.8405 53.8298L39.8244 54.1462L39.5504 53.9823L39.5665 54.3715L39.251 54.1166L39.1635 54.3101L39.023 54.3965L38.8088 54.3374L38.7397 54.5695L38.5808 54.6196L38.5348 54.92L38.2861 54.7743L38.1939 54.9701L38.0627 55.0862L37.8186 54.9382L37.6942 55.0725L37.5192 55.0816L37.4225 55.2819L37.2543 55.3069L37.1116 55.398L36.8444 55.1704L36.8352 55.6073L36.6602 55.6187L36.4575 55.5504L36.271 55.5163L36.1098 55.5573L36.0522 55.9009L35.7758 55.6005L35.6722 55.8167L35.5525 55.9874L35.3406 55.8691L35.1517 55.819L35.0711 56.124L34.8869 56.0899L34.6796 55.9738L34.5115 55.9897L34.3549 56.0398L34.196 56.0899L34.0463 56.1718L33.9012 56.2697L33.7585 56.3835L33.5581 56.2628L33.3969 56.2992L33.2265 56.3015L33.0883 56.4472L32.911 56.4108L32.782 56.5997L32.584 56.4563L32.4043 56.3971L32.303 56.759L32.1049 56.6042L31.9253 56.5428L31.7756 56.6452L31.6052 56.6293L31.4371 56.6201L31.3012 56.8364L31.1009 56.6156L30.9443 56.6816L30.8107 56.9502L30.661 57.1118L30.4491 56.7203L30.3179 57.0503L30.1244 56.7977L29.9586 56.8068L29.8204 57.1322L29.6546 57.1709L29.475 57.0162L29.3046 56.9524L29.1434 57.0298L28.9845 57.2392L28.8071 56.9593L28.6436 57.0389L28.4755 57.0275L28.312 57.2574L28.1439 57.2096L27.9758 56.9524L27.81 57.1231L27.6418 57.1618L27.4737 57.114L27.3056 57.155L27.1467 56.9433L26.9694 57.1618L26.8059 57.1209L26.6562 56.8409L26.4789 56.9866L26.3269 56.8182L26.138 57.0617L25.9952 56.8227L25.8363 56.7385L25.6475 56.9547L25.5024 56.7704L25.3182 56.8933L25.1362 56.9957L25.0257 56.6133L24.7977 56.9911L24.6733 56.718L24.4845 56.8227L24.3164 56.8204L24.2012 56.5337L23.9871 56.759L23.8581 56.561L23.6739 56.6247L23.4735 56.7476L23.3445 56.5678L23.2202 56.3835L23.0774 56.281L22.9208 56.2219L22.7066 56.3835L22.5178 56.4381L22.4095 56.215L22.2668 56.1126L22.0572 56.2355L21.9029 56.1786L21.8108 55.9214L21.5966 56.0421L21.4884 55.8463L21.3525 55.728L21.2005 55.6665L20.9333 55.9396L20.8481 55.6825L20.7192 55.5504L20.452 55.8122L20.2816 55.8008L20.231 55.4571L20.0168 55.5618L19.9039 55.3957L19.7105 55.4412L19.5838 55.3137L19.4572 55.1795L19.3029 55.1226L19.1762 54.9928L19.0173 54.945L18.8285 54.986L18.6995 54.8563L18.4439 55.0748L18.3794 54.7743L18.2366 54.6856L18.0754 54.6514L17.829 54.8495L17.7829 54.4899L17.5572 54.6287L17.449 54.4421L17.32 54.3123L17.1151 54.3943L17.0091 54.2031L16.8088 54.2714L16.6798 54.1416L16.5439 54.0278L16.3205 54.1803L16.0972 54.3305L15.9383 54.2896L15.8277 54.0984L15.7494 53.8025L15.5145 53.9937L15.3694 53.9072L15.2428 53.7593L15.0562 53.8048L14.8421 53.9482L14.7131 53.8048L14.5956 53.6204L14.4114 53.666L14.2548 53.6091L14.0775 53.6318L13.9761 53.3724L13.838 53.254L13.6676 53.2449L13.4419 53.4588L13.2737 53.4566L13.1402 53.3064L13.0089 53.147L12.8592 53.0537L12.6635 53.1675L12.4815 53.2176L12.3065 53.2381L12.1614 53.1288L12.0486 52.8716L11.816 53.1675L11.7008 52.9103L11.5488 52.8147L11.3692 52.8694L11.2034 52.8512L11.0307 52.8648L10.8879 52.7214L10.6945 52.8648L10.5217 52.8944L10.372 52.7852L10.197 52.8375L10.0243 52.8671L9.92066 52.462L9.69727 52.8261L9.54298 52.7351L9.36795 52.7897L9.21135 52.7192L9.06166 52.5826L8.91197 52.4506L8.72543 52.594L8.59416 52.3095L8.42605 52.3027L8.23029 52.5485L8.10363 52.1934L7.89867 52.5166L7.7697 52.1593L7.57856 52.3687L7.41045 52.3732L7.26536 52.157L7.10185 52.1092L6.90841 52.3641L6.74259 52.3254L6.59751 52.0591L6.42248 52.1001L6.25667 52.0864L6.08625 52.1137L5.91123 52.223L5.73851 52.2958L5.58421 52.1411L5.40458 52.3209L5.24107 52.2981L5.08217 52.1684L4.91405 52.1866L4.74363 52.2936L4.58934 52.05L4.41892 52.1342L4.2508 52.2116L4.0896 52.0933L3.92148 52.1388L3.76028 52.0455L3.58986 52.198L3.42865 52.0045L3.26284 52.0204L3.09933 51.9977L2.92891 52.1798L2.7677 52.0569L2.59959 52.2298L2.43838 51.9203L2.27257 52.223L2.10676 51.8588L1.94095 52.1911L1.77513 52.0091L1.60932 52.0386L1.44581 52.1638L1.2777 51.8406H1.11189L0.952985 52.1524L0.782565 51.8657L0.628268 52.2822L0.457849 52.0842L0.292036 52.0318L0.137739 52.2936L-0.0257679 52.3095L-0.200794 51.9362L-0.325152 52.0728L-0.233035 51.9499L-0.154732 51.7928L-0.334362 51.6062L-0.0672227 51.4719L-0.113281 51.3012L-0.0695244 51.1396L-0.421875 50.9348L-0.0741313 50.8074L-0.0902501 50.6412L-0.387332 50.4432L0.0525315 50.3248L0.0663486 50.161L0.0456229 49.9948L0.0202904 49.8264L-0.286002 49.6261L-0.0303747 49.4896L0.05944 49.3325L0.165377 49.18L-0.12019 48.982L-0.0902501 48.8204L-0.021161 48.6634L0.0156835 48.5018L0.0295006 48.3379L-0.0971586 48.1581L0.135438 48.017L0.163072 47.8554L0.022592 47.6734L-0.0188593 47.5049L0.0202904 47.3433L0.00186637 47.1749L0.308159 47.0429L0.146953 46.8608L0.298948 46.7106L0.368034 46.5536L0.416398 46.3943L0.439428 46.2304L0.386458 46.0597L0.123922 45.864L0.462456 45.7365L0.204527 45.5431L0.232161 45.3815L0.416398 45.2358L0.598329 45.0901L0.453245 44.9081L0.377248 44.7351L0.446337 44.5758L0.563786 44.4233L0.312766 44.2298L0.602936 44.0978L0.699659 43.9431L0.58221 43.7633L0.614451 43.6017L0.453245 43.4196L0.510819 43.2603L0.665116 43.1101L0.526938 42.9303L0.748022 42.7891L0.584512 42.6048L0.805596 42.4637L0.955286 42.3157L0.69275 42.12L0.952985 41.9835L1.02668 41.8264L0.83323 41.6398L0.923045 41.485L0.916137 41.3189L1.01056 41.1618L0.943771 40.9889L1.01286 40.8318L1.07504 40.6725L1.01977 40.5018L0.91153 40.3243L1.00134 40.1695L0.796382 39.9806L1.15104 39.8554L1.05662 39.6779L0.853956 39.4913L0.987527 39.3388L1.19249 39.1977L1.22243 39.0338L1.19019 38.8654L1.11419 38.6924L1.21782 38.5377L1.39054 38.392L1.16716 38.2008L1.37673 38.0597L1.38133 37.8936L1.2017 37.7092L1.21782 37.5453L1.10728 37.3678L1.51951 37.2472L1.53793 37.0833L1.36521 36.9172Z" fill="url(#paint8_linear_4878_2563)"/>
</g>
<defs>
<linearGradient id="paint0_linear_4878_2563" x1="27.7309" y1="37.1543" x2="27.7309" y2="49.0407" gradientUnits="userSpaceOnUse">
<stop stop-color="#FFC0CF"/>
<stop offset="1" stop-color="#E2F3FF"/>
</linearGradient>
<linearGradient id="paint1_linear_4878_2563" x1="20.0444" y1="12.8828" x2="20.0444" y2="21.8007" gradientUnits="userSpaceOnUse">
<stop stop-color="#88F3FE"/>
<stop offset="1" stop-color="#0087FF"/>
</linearGradient>
<linearGradient id="paint2_linear_4878_2563" x1="20.0444" y1="12.8828" x2="20.0444" y2="21.8007" gradientUnits="userSpaceOnUse">
<stop stop-color="#FF98B0"/>
<stop offset="1" stop-color="#FF5378"/>
</linearGradient>
<linearGradient id="paint3_linear_4878_2563" x1="35.5364" y1="12.957" x2="35.5364" y2="21.7974" gradientUnits="userSpaceOnUse">
<stop stop-color="#88F3FE"/>
<stop offset="1" stop-color="#0087FF"/>
</linearGradient>
<linearGradient id="paint4_linear_4878_2563" x1="35.5364" y1="12.957" x2="35.5364" y2="21.7974" gradientUnits="userSpaceOnUse">
<stop stop-color="#FF98B0"/>
<stop offset="1" stop-color="#FF5378"/>
</linearGradient>
<linearGradient id="paint5_linear_4878_2563" x1="27.7783" y1="16.2754" x2="27.7783" y2="21.8022" gradientUnits="userSpaceOnUse">
<stop stop-color="#88F3FE"/>
<stop offset="1" stop-color="#0087FF"/>
</linearGradient>
<linearGradient id="paint6_linear_4878_2563" x1="27.7783" y1="16.2754" x2="27.7783" y2="21.8022" gradientUnits="userSpaceOnUse">
<stop stop-color="#FF98B0"/>
<stop offset="1" stop-color="#FF5378"/>
</linearGradient>
<linearGradient id="paint7_linear_4878_2563" x1="25.5314" y1="51.1158" x2="39.3189" y2="37.1649" gradientUnits="userSpaceOnUse">
<stop stop-color="#FFE6EC"/>
<stop offset="1" stop-color="#FF98B0"/>
</linearGradient>
<linearGradient id="paint8_linear_4878_2563" x1="12.7403" y1="57.2772" x2="24.5416" y2="33.1818" gradientUnits="userSpaceOnUse">
<stop offset="0.164133" stop-color="#88F3FE"/>
<stop offset="1" stop-color="#50B7FF"/>
</linearGradient>
<clipPath id="clip0_4878_2563">
<rect width="56" height="56" rx="28" fill="white"/>
</clipPath>
</defs>
</svg>
