<svg width="20" height="20" viewBox="0 0 20 20" fill="none" xmlns="http://www.w3.org/2000/svg">
<path d="M16.6677 5.0013C16.8801 5.00154 17.0844 5.08287 17.2388 5.22868C17.3933 5.37448 17.4862 5.57376 17.4987 5.7858C17.5111 5.99783 17.4421 6.20662 17.3058 6.3695C17.1695 6.53237 16.9761 6.63705 16.7652 6.66214L16.6677 6.66797H16.6002L15.8344 15.8346C15.8344 16.4723 15.5908 17.0859 15.1533 17.5499C14.7158 18.0138 14.1176 18.2931 13.481 18.3305L13.3344 18.3346H6.6677C5.33603 18.3346 4.2477 17.2938 4.17436 16.043L4.1702 15.9038L3.40103 6.66797H3.33436C3.12196 6.66773 2.91767 6.5864 2.76322 6.4406C2.60878 6.29479 2.51583 6.09551 2.50339 5.88347C2.49094 5.67144 2.55993 5.46265 2.69625 5.29978C2.83258 5.1369 3.02595 5.03222 3.23686 5.00714L3.33436 5.0013H16.6677ZM8.7602 9.28464C8.5856 9.1807 8.37904 9.14414 8.17937 9.18183C7.9797 9.21952 7.80069 9.32886 7.67599 9.48929C7.55129 9.64972 7.4895 9.85018 7.50225 10.053C7.51499 10.2558 7.60139 10.4469 7.7452 10.5905L8.82186 11.668L7.7452 12.7455L7.67603 12.8238C7.54652 12.9913 7.48562 13.2018 7.5057 13.4126C7.52578 13.6233 7.62533 13.8186 7.78413 13.9586C7.94294 14.0986 8.14909 14.173 8.36071 14.1665C8.57233 14.16 8.77356 14.0733 8.92353 13.9238L10.001 12.8471L11.0785 13.9238L11.1569 13.993C11.3244 14.1225 11.5349 14.1834 11.7456 14.1633C11.9564 14.1432 12.1516 14.0437 12.2917 13.8849C12.4317 13.7261 12.506 13.5199 12.4996 13.3083C12.4931 13.0967 12.4063 12.8954 12.2569 12.7455L11.1802 11.668L12.2569 10.5905L12.326 10.5121C12.4555 10.3446 12.5164 10.1341 12.4964 9.92336C12.4763 9.71259 12.3767 9.51737 12.2179 9.37734C12.0591 9.23731 11.853 9.16298 11.6413 9.16945C11.4297 9.17591 11.2285 9.26268 11.0785 9.41214L10.001 10.4888L8.92353 9.41214L8.8452 9.34297L8.7602 9.28464ZM11.6677 1.66797C12.1097 1.66797 12.5336 1.84356 12.8462 2.15612C13.1588 2.46868 13.3344 2.89261 13.3344 3.33464C13.3341 3.54704 13.2528 3.75133 13.107 3.90578C12.9612 4.06022 12.7619 4.15316 12.5499 4.16561C12.3378 4.17806 12.129 4.10907 11.9662 3.97275C11.8033 3.83642 11.6986 3.64305 11.6735 3.43214L11.6677 3.33464H8.33436L8.32853 3.43214C8.30344 3.64305 8.19877 3.83642 8.03589 3.97275C7.87301 4.10907 7.66423 4.17806 7.45219 4.16561C7.24016 4.15316 7.04088 4.06022 6.89507 3.90578C6.74926 3.75133 6.66793 3.54704 6.6677 3.33464C6.66756 2.91416 6.82637 2.50916 7.11228 2.20085C7.39819 1.89253 7.79007 1.70367 8.20936 1.67214L8.33436 1.66797H11.6677Z" fill="#BDBFC6"/>
</svg>
