<svg width="20" height="20" viewBox="0 0 20 20" fill="none" xmlns="http://www.w3.org/2000/svg">
<path d="M16.6677 5.00033C16.8801 5.00056 17.0844 5.08189 17.2388 5.2277C17.3933 5.37351 17.4862 5.57279 17.4987 5.78482C17.5111 5.99686 17.4421 6.20564 17.3058 6.36852C17.1695 6.5314 16.9761 6.63607 16.7652 6.66116L16.6677 6.66699H16.6002L15.8344 15.8337C15.8344 16.4713 15.5908 17.0849 15.1533 17.5489C14.7158 18.0128 14.1176 18.2921 13.481 18.3295L13.3344 18.3337H6.6677C5.33603 18.3337 4.2477 17.2928 4.17436 16.042L4.1702 15.9028L3.40103 6.66699H3.33436C3.12196 6.66676 2.91767 6.58543 2.76322 6.43962C2.60878 6.29381 2.51583 6.09453 2.50339 5.8825C2.49094 5.67046 2.55993 5.46168 2.69625 5.2988C2.83258 5.13592 3.02595 5.03125 3.23686 5.00616L3.33436 5.00033H16.6677ZM8.7602 9.28366C8.5856 9.17972 8.37904 9.14316 8.17937 9.18085C7.9797 9.21854 7.80069 9.32788 7.67599 9.48831C7.55129 9.64874 7.4895 9.8492 7.50225 10.052C7.51499 10.2548 7.60139 10.4459 7.7452 10.5895L8.82186 11.667L7.7452 12.7445L7.67603 12.8228C7.54652 12.9903 7.48562 13.2008 7.5057 13.4116C7.52578 13.6224 7.62533 13.8176 7.78413 13.9576C7.94294 14.0976 8.14909 14.172 8.36071 14.1655C8.57233 14.1591 8.77356 14.0723 8.92353 13.9228L10.001 12.8462L11.0785 13.9228L11.1569 13.992C11.3244 14.1215 11.5349 14.1824 11.7456 14.1623C11.9564 14.1422 12.1516 14.0427 12.2917 13.8839C12.4317 13.7251 12.506 13.5189 12.4996 13.3073C12.4931 13.0957 12.4063 12.8945 12.2569 12.7445L11.1802 11.667L12.2569 10.5895L12.326 10.5112C12.4555 10.3437 12.5164 10.1332 12.4964 9.92239C12.4763 9.71162 12.3767 9.51639 12.2179 9.37637C12.0591 9.23634 11.853 9.16201 11.6413 9.16847C11.4297 9.17493 11.2285 9.2617 11.0785 9.41116L10.001 10.4878L8.92353 9.41116L8.8452 9.34199L8.7602 9.28366ZM11.6677 1.66699C12.1097 1.66699 12.5336 1.84259 12.8462 2.15515C13.1588 2.46771 13.3344 2.89163 13.3344 3.33366C13.3341 3.54606 13.2528 3.75035 13.107 3.9048C12.9612 4.05925 12.7619 4.15219 12.5499 4.16464C12.3378 4.17708 12.129 4.1081 11.9662 3.97177C11.8033 3.83545 11.6986 3.64207 11.6735 3.43116L11.6677 3.33366H8.33436L8.32853 3.43116C8.30344 3.64207 8.19877 3.83545 8.03589 3.97177C7.87301 4.1081 7.66423 4.17708 7.45219 4.16464C7.24016 4.15219 7.04088 4.05925 6.89507 3.9048C6.74926 3.75035 6.66793 3.54606 6.6677 3.33366C6.66756 2.91318 6.82637 2.50819 7.11228 2.19987C7.39819 1.89155 7.79007 1.70269 8.20936 1.67116L8.33436 1.66699H11.6677Z" fill="#BDBFC6"/>
</svg>
