<svg xmlns="http://www.w3.org/2000/svg"  viewBox="0 0 25 25" fill="none">
<path d="M9.4233 17.6125C9.3306 17.52 9.25705 17.4101 9.20687 17.2891C9.15669 17.1681 9.13086 17.0385 9.13086 16.9075C9.13086 16.7765 9.15669 16.6468 9.20687 16.5259C9.25705 16.4049 9.3306 16.295 9.4233 16.2025L13.3033 12.3225L9.4233 8.44249C9.23633 8.25551 9.13128 8.00192 9.13128 7.73749C9.13128 7.47306 9.23633 7.21947 9.4233 7.03249C9.61028 6.84551 9.86388 6.74047 10.1283 6.74047C10.3927 6.74047 10.6463 6.84551 10.8333 7.03249L15.4233 11.6225C15.516 11.715 15.5896 11.8249 15.6397 11.9459C15.6899 12.0668 15.7157 12.1965 15.7157 12.3275C15.7157 12.4585 15.6899 12.5881 15.6397 12.7091C15.5896 12.8301 15.516 12.94 15.4233 13.0325L10.8333 17.6225C10.4533 18.0025 9.8133 18.0025 9.4233 17.6125Z" fill="currentColor"/>
</svg>